<svg width="34" height="34" viewBox="0 0 34 34" fill="none" xmlns="http://www.w3.org/2000/svg">
<g clip-path="url(#clip0_392_605)">
<path d="M18.8981 8.57642L19.4752 13.7707C19.7077 13.5925 19.9835 13.4796 20.2742 13.4435C20.565 13.4074 20.86 13.4495 21.1291 13.5654C21.3981 13.6813 21.6313 13.8669 21.8048 14.103C21.9782 14.3391 22.0855 14.6172 22.1157 14.9086C22.1459 15.2 22.0978 15.4941 21.9765 15.7607C21.8551 16.0274 21.6648 16.2568 21.4252 16.4254C21.1857 16.594 20.9055 16.6957 20.6135 16.7199C20.3216 16.7442 20.0285 16.6901 19.7644 16.5634C19.8608 17.9395 19.6655 19.3204 19.1912 20.6158C20.478 20.3928 21.7954 20.4149 23.074 20.681C25.9762 21.3005 29.1471 23.5195 27.7022 24.7381C26.3616 25.8681 25.5181 23.4453 22.6159 22.8258C20.3546 22.3431 18.7902 23.3637 17.8476 23.0938C17.7755 23.191 17.7116 23.2923 17.6355 23.3873C17.0718 24.089 16.4151 24.7106 15.6836 25.235C16.5907 26.7419 17.9303 27.941 19.5281 28.6763C21.1259 29.4117 22.908 29.6493 24.6426 29.3582C26.3772 29.0671 27.9842 28.2608 29.2544 27.0442C30.5247 25.8276 31.3995 24.257 31.7651 22.5365L34.0546 11.8121L18.8981 8.57642ZM29.5779 17.0237C29.5099 17.3418 29.3491 17.6326 29.1158 17.8593C28.8825 18.086 28.5872 18.2385 28.2673 18.2974C27.9474 18.3563 27.6172 18.319 27.3184 18.1903C27.0197 18.0616 26.7658 17.8472 26.5889 17.5742C26.412 17.3012 26.3201 16.9818 26.3246 16.6566C26.3292 16.3313 26.4301 16.0147 26.6146 15.7468C26.7991 15.4789 27.0589 15.2717 27.3612 15.1514C27.6634 15.0311 27.9945 15.0031 28.3127 15.071C28.524 15.1161 28.7243 15.2024 28.9023 15.3249C29.0803 15.4475 29.2324 15.6039 29.3499 15.7852C29.4674 15.9665 29.548 16.1692 29.5871 16.3817C29.6262 16.5942 29.6231 16.8124 29.5779 17.0237Z" fill="#FD1774"/>
<path d="M18.649 16.2532L17.438 5.35425L0 7.29186L1.21104 18.1908C1.33827 19.3358 1.68977 20.4445 2.24548 21.4537C2.80119 22.4628 3.55022 23.3526 4.44982 24.0723C6.26663 25.5258 8.58641 26.1979 10.8988 25.941C12.0438 25.8138 13.1525 25.4623 14.1617 24.9066C15.1708 24.3509 16.0606 23.6018 16.7803 22.7022C17.5 21.8026 18.0354 20.7701 18.3561 19.6636C18.6767 18.557 18.7762 17.3982 18.649 16.2532ZM13.0178 10.2592C13.4683 10.2252 13.9139 10.3712 14.2568 10.6652C14.5997 10.9592 14.812 11.3773 14.8471 11.8277C14.9546 12.7943 14.1151 11.9091 13.2123 12.0093C12.3095 12.1096 11.6846 13.1572 11.5777 12.1903C11.5131 11.7433 11.6285 11.2889 11.8984 10.9268C12.1684 10.5647 12.571 10.3249 13.0178 10.2592ZM3.94827 13.0387C3.90807 12.8163 3.91401 12.5881 3.96572 12.3681C4.01744 12.1481 4.11382 11.9411 4.24889 11.76C4.38395 11.5788 4.55481 11.4274 4.75087 11.315C4.94692 11.2026 5.16398 11.1318 5.38857 11.1068C5.61316 11.0819 5.84048 11.1033 6.05642 11.1699C6.27236 11.2365 6.4723 11.3468 6.64384 11.4938C6.81538 11.6409 6.95486 11.8217 7.0536 12.025C7.15235 12.2282 7.20826 12.4496 7.21786 12.6754C7.3254 13.642 6.48605 12.7567 5.58306 12.857C4.68008 12.9574 4.05561 14.0053 3.94827 13.0387ZM11.1041 21.5342C8.39548 21.8353 5.85721 20.3924 5.62241 18.2117C5.49398 17.0206 8.4321 18.4918 11.1409 18.1909C13.8496 17.8901 14.9966 15.0142 15.3534 16.419C15.8928 18.5444 13.8129 21.2333 11.1041 21.5342Z" fill="#FD1774"/>
</g>
<defs>
<clipPath id="clip0_392_605">
<rect width="34" height="34" fill="white"/>
</clipPath>
</defs>
</svg>
