<svg width="188" height="209" viewBox="0 0 188 209" fill="none" xmlns="http://www.w3.org/2000/svg">
<rect width="188" height="209" fill="white"/>
<path d="M20.192 25.56H22.144L25.168 35.144H25.2L28.208 25.56H30.064L26.128 37H24.224L20.192 25.56ZM33.4038 37.24C30.8598 37.24 29.3238 35.48 29.3238 32.92C29.3238 30.376 30.8598 28.584 33.4038 28.584C35.9478 28.584 37.4838 30.36 37.4838 32.904C37.4838 35.464 35.9478 37.24 33.4038 37.24ZM33.4038 35.944C35.0678 35.944 35.8518 34.616 35.8518 32.92C35.8518 31.208 35.0678 29.896 33.4038 29.896C31.7238 29.896 30.9557 31.208 30.9557 32.92C30.9557 34.616 31.7238 35.944 33.4038 35.944ZM42.1801 32.072C43.6681 32.424 45.3001 32.856 45.3001 34.68C45.3001 36.264 44.0841 37.224 41.9401 37.224C39.4601 37.224 38.2281 35.944 38.1801 34.28H39.7641C39.8441 35.224 40.4041 35.96 41.9241 35.96C43.3001 35.96 43.6681 35.352 43.6681 34.76C43.6681 33.736 42.5801 33.624 41.5241 33.4C40.1001 33.08 38.4681 32.648 38.4681 30.952C38.4681 29.544 39.6041 28.6 41.5881 28.6C43.8121 28.6 44.8841 29.8 44.9961 31.208H43.4121C43.3001 30.584 42.9801 29.864 41.6041 29.864C40.5641 29.864 40.1001 30.28 40.1001 30.888C40.1001 31.736 41.0121 31.8 42.1801 32.072ZM55.7311 31.8C55.6671 30.952 55.1871 29.896 53.6831 29.896C51.9551 29.896 51.3151 31.384 51.3151 32.92C51.3151 34.456 51.9551 35.928 53.6831 35.928C55.1871 35.928 55.6671 34.904 55.7311 33.976H57.3631C57.2511 35.848 55.7791 37.24 53.6991 37.24C51.2671 37.24 49.6831 35.48 49.6831 32.92C49.6831 30.36 51.2671 28.6 53.6831 28.6C55.7791 28.6 57.1711 29.96 57.3631 31.8H55.7311ZM60.9173 37.224C59.2853 37.224 58.2453 36.28 58.2453 34.888C58.2453 33.064 59.6213 32.536 61.6533 32.136C62.9333 31.896 63.7173 31.736 63.7173 30.936C63.7173 30.344 63.3653 29.848 62.1653 29.848C60.7413 29.848 60.3093 30.296 60.2293 31.384H58.6293C58.7093 29.816 59.7333 28.584 62.2293 28.584C63.9093 28.584 65.2533 29.288 65.2533 31.4V35.144C65.2533 35.736 65.3333 36.04 65.6373 36.04C65.6853 36.04 65.7333 36.04 65.8293 36.024V36.984C65.5573 37.048 65.2853 37.08 65.0293 37.08C64.2613 37.08 63.8293 36.776 63.7493 35.848H63.7173C63.1733 36.696 62.2453 37.224 60.9173 37.224ZM61.2693 35.96C62.6773 35.96 63.7173 35.24 63.7173 33.816V32.648C63.4613 32.888 62.7573 33.064 61.9253 33.24C60.4853 33.544 59.8932 33.928 59.8932 34.776C59.8932 35.544 60.2933 35.96 61.2693 35.96ZM66.1474 28.84H67.3314V26.216H68.8994V28.84H70.4674V30.136H68.8994V34.744C68.8994 35.608 69.1394 35.8 69.8114 35.8C70.0674 35.8 70.1954 35.784 70.4834 35.736V37C70.0674 37.08 69.8274 37.096 69.4754 37.096C68.1474 37.096 67.3314 36.584 67.3314 34.696V30.136H66.1474V28.84ZM75.3115 25.368H77.1515L75.6155 27.576H74.3675L75.3115 25.368ZM75.1995 37.24C72.6075 37.24 71.1675 35.4 71.1675 32.904C71.1675 30.344 72.7035 28.584 75.1995 28.584C77.6795 28.584 79.0715 30.216 79.0715 32.744C79.0715 32.968 79.0715 33.208 79.0555 33.336H72.7835C72.8155 34.712 73.6155 35.96 75.2315 35.96C76.6715 35.96 77.2155 35.032 77.3755 34.488H78.9595C78.5435 36.056 77.3435 37.24 75.1995 37.24ZM75.1515 29.864C73.8395 29.864 72.8795 30.76 72.7835 32.104H77.4235C77.4235 30.824 76.5435 29.864 75.1515 29.864ZM86.1709 36.456V35.352H86.1389C85.6909 36.008 84.9389 36.584 83.6269 36.584C81.5949 36.584 80.0269 35.208 80.0269 32.6C80.0269 29.976 81.5949 28.6 83.6269 28.6C84.9389 28.6 85.6909 29.224 86.1389 29.8H86.1709V28.84H87.7389V36.36C87.7389 38.824 86.2509 39.928 83.9149 39.928C81.5789 39.928 80.4109 38.808 80.2509 37.336H81.8669C82.0269 38.072 82.5869 38.648 83.9149 38.648C85.4029 38.648 86.1709 37.992 86.1709 36.456ZM83.9149 29.912C82.3789 29.912 81.6589 31.064 81.6589 32.6C81.6589 34.136 82.3789 35.288 83.9149 35.288C85.3229 35.288 86.1549 34.376 86.1549 32.6C86.1549 30.808 85.3229 29.912 83.9149 29.912ZM93.1381 37.24C90.5941 37.24 89.0581 35.48 89.0581 32.92C89.0581 30.376 90.5941 28.584 93.1381 28.584C95.6821 28.584 97.2181 30.36 97.2181 32.904C97.2181 35.464 95.6821 37.24 93.1381 37.24ZM93.1381 35.944C94.8021 35.944 95.5861 34.616 95.5861 32.92C95.5861 31.208 94.8021 29.896 93.1381 29.896C91.4581 29.896 90.6901 31.208 90.6901 32.92C90.6901 34.616 91.4581 35.944 93.1381 35.944ZM98.5195 28.84H100.088V30.392H100.12C100.536 29.368 101.208 28.648 102.312 28.648C102.6 28.648 102.824 28.664 103.064 28.696V30.2C102.856 30.168 102.712 30.152 102.536 30.152C101.112 30.152 100.088 31.224 100.088 32.776V37H98.5195V28.84ZM104.033 25.688H105.809V27.384H104.033V25.688ZM104.145 28.84H105.713V37H104.145V28.84ZM111.043 37.24C108.451 37.24 107.011 35.4 107.011 32.904C107.011 30.344 108.547 28.584 111.043 28.584C113.523 28.584 114.915 30.216 114.915 32.744C114.915 32.968 114.915 33.208 114.899 33.336H108.627C108.659 34.712 109.459 35.96 111.075 35.96C112.515 35.96 113.059 35.032 113.219 34.488H114.803C114.387 36.056 113.187 37.24 111.043 37.24ZM110.995 29.864C109.683 29.864 108.723 30.76 108.627 32.104H113.267C113.267 30.824 112.387 29.864 110.995 29.864ZM119.618 32.072C121.106 32.424 122.738 32.856 122.738 34.68C122.738 36.264 121.522 37.224 119.378 37.224C116.898 37.224 115.666 35.944 115.618 34.28H117.202C117.282 35.224 117.842 35.96 119.362 35.96C120.738 35.96 121.106 35.352 121.106 34.76C121.106 33.736 120.018 33.624 118.962 33.4C117.538 33.08 115.906 32.648 115.906 30.952C115.906 29.544 117.042 28.6 119.026 28.6C121.25 28.6 122.322 29.8 122.434 31.208H120.85C120.738 30.584 120.418 29.864 119.042 29.864C118.002 29.864 117.538 30.28 117.538 30.888C117.538 31.736 118.45 31.8 119.618 32.072Z" fill="black"/>
<path d="M68.008 72.96C69.664 73.38 71.224 73.776 71.224 75.588C71.224 77.064 70.216 78.168 68.08 78.168C65.908 78.168 64.372 77.04 64.288 75.108H65.656C65.752 76.26 66.436 77.04 68.044 77.04C69.412 77.04 69.844 76.44 69.844 75.66C69.844 74.568 69.004 74.412 67.444 74.016C66.1 73.668 64.624 73.224 64.624 71.592C64.624 70.104 65.776 69.252 67.624 69.252C69.58 69.252 70.852 70.248 70.984 71.976H69.604C69.472 70.944 68.884 70.38 67.624 70.38C66.556 70.38 65.992 70.776 65.992 71.52C65.992 72.48 66.904 72.684 68.008 72.96ZM75.002 78.18C73.094 78.18 71.942 76.86 71.942 74.94C71.942 73.032 73.094 71.688 75.002 71.688C76.91 71.688 78.062 73.02 78.062 74.928C78.062 76.848 76.91 78.18 75.002 78.18ZM75.002 77.208C76.25 77.208 76.838 76.212 76.838 74.94C76.838 73.656 76.25 72.672 75.002 72.672C73.742 72.672 73.166 73.656 73.166 74.94C73.166 76.212 73.742 77.208 75.002 77.208ZM78.9541 69.516H80.2861V70.788H78.9541V69.516ZM79.0381 71.88H80.2141V78H79.0381V71.88ZM81.5224 78V71.88H82.6984V72.648H82.7224C83.0464 72.18 83.6824 71.7 84.7384 71.7C85.8664 71.7 86.7784 72.348 86.7784 73.752V78H85.5904V74.076C85.5904 73.26 85.2304 72.708 84.3544 72.708C83.3464 72.708 82.6984 73.32 82.6984 74.244V78H81.5224ZM90.6078 74.304C91.7238 74.568 92.9478 74.892 92.9478 76.26C92.9478 77.448 92.0358 78.168 90.4277 78.168C88.5678 78.168 87.6438 77.208 87.6078 75.96H88.7958C88.8558 76.668 89.2758 77.22 90.4158 77.22C91.4478 77.22 91.7238 76.764 91.7238 76.32C91.7238 75.552 90.9078 75.468 90.1158 75.3C89.0478 75.06 87.8238 74.736 87.8238 73.464C87.8238 72.408 88.6758 71.7 90.1638 71.7C91.8318 71.7 92.6358 72.6 92.7198 73.656H91.5318C91.4478 73.188 91.2078 72.648 90.1758 72.648C89.3958 72.648 89.0478 72.96 89.0478 73.416C89.0478 74.052 89.7318 74.1 90.6078 74.304ZM97.699 77.244H97.675V80.124H96.499V71.88H97.675V72.6H97.699C98.035 72.168 98.623 71.7 99.583 71.7C101.143 71.7 102.331 72.924 102.331 74.94C102.331 76.956 101.143 78.168 99.583 78.168C98.623 78.168 98.035 77.736 97.699 77.244ZM99.391 72.684C98.335 72.684 97.687 73.548 97.687 74.94C97.687 76.32 98.335 77.196 99.391 77.196C100.543 77.196 101.095 76.14 101.095 74.94C101.095 73.74 100.543 72.684 99.391 72.684ZM106.068 78.18C104.124 78.18 103.044 76.8 103.044 74.928C103.044 73.008 104.196 71.688 106.068 71.688C107.928 71.688 108.972 72.912 108.972 74.808C108.972 74.976 108.972 75.156 108.96 75.252H104.256C104.28 76.284 104.88 77.22 106.092 77.22C107.172 77.22 107.58 76.524 107.7 76.116H108.888C108.576 77.292 107.676 78.18 106.068 78.18ZM106.032 72.648C105.048 72.648 104.328 73.32 104.256 74.328H107.736C107.736 73.368 107.076 72.648 106.032 72.648ZM109.952 71.88H111.128V73.044H111.152C111.464 72.276 111.968 71.736 112.796 71.736C113.012 71.736 113.18 71.748 113.36 71.772V72.9C113.204 72.876 113.096 72.864 112.964 72.864C111.896 72.864 111.128 73.668 111.128 74.832V78H109.952V71.88ZM116.764 74.304C117.88 74.568 119.104 74.892 119.104 76.26C119.104 77.448 118.192 78.168 116.584 78.168C114.724 78.168 113.8 77.208 113.764 75.96H114.952C115.012 76.668 115.432 77.22 116.572 77.22C117.604 77.22 117.88 76.764 117.88 76.32C117.88 75.552 117.064 75.468 116.272 75.3C115.204 75.06 113.98 74.736 113.98 73.464C113.98 72.408 114.832 71.7 116.32 71.7C117.988 71.7 118.792 72.6 118.876 73.656H117.688C117.604 73.188 117.364 72.648 116.332 72.648C115.552 72.648 115.204 72.96 115.204 73.416C115.204 74.052 115.888 74.1 116.764 74.304ZM122.756 78.18C120.848 78.18 119.696 76.86 119.696 74.94C119.696 73.032 120.848 71.688 122.756 71.688C124.664 71.688 125.816 73.02 125.816 74.928C125.816 76.848 124.664 78.18 122.756 78.18ZM122.756 77.208C124.004 77.208 124.592 76.212 124.592 74.94C124.592 73.656 124.004 72.672 122.756 72.672C121.496 72.672 120.92 73.656 120.92 74.94C120.92 76.212 121.496 77.208 122.756 77.208ZM126.792 78V71.88H127.968V72.648H127.992C128.316 72.18 128.952 71.7 130.008 71.7C131.136 71.7 132.048 72.348 132.048 73.752V78H130.86V74.076C130.86 73.26 130.5 72.708 129.624 72.708C128.616 72.708 127.968 73.32 127.968 74.244V78H126.792ZM133.308 78V71.88H134.484V72.648H134.508C134.832 72.18 135.468 71.7 136.524 71.7C137.652 71.7 138.564 72.348 138.564 73.752V78H137.376V74.076C137.376 73.26 137.016 72.708 136.14 72.708C135.132 72.708 134.484 73.32 134.484 74.244V78H133.308ZM142.513 78.18C140.569 78.18 139.489 76.8 139.489 74.928C139.489 73.008 140.641 71.688 142.513 71.688C144.373 71.688 145.417 72.912 145.417 74.808C145.417 74.976 145.417 75.156 145.405 75.252H140.701C140.725 76.284 141.325 77.22 142.537 77.22C143.617 77.22 144.025 76.524 144.145 76.116H145.333C145.021 77.292 144.121 78.18 142.513 78.18ZM142.477 72.648C141.493 72.648 140.773 73.32 140.701 74.328H144.181C144.181 73.368 143.521 72.648 142.477 72.648ZM146.397 69.42H147.573V78H146.397V69.42ZM151.452 74.304C152.568 74.568 153.792 74.892 153.792 76.26C153.792 77.448 152.88 78.168 151.271 78.168C149.412 78.168 148.488 77.208 148.452 75.96H149.64C149.7 76.668 150.12 77.22 151.26 77.22C152.292 77.22 152.568 76.764 152.568 76.32C152.568 75.552 151.752 75.468 150.96 75.3C149.892 75.06 148.668 74.736 148.668 73.464C148.668 72.408 149.52 71.7 151.008 71.7C152.676 71.7 153.48 72.6 153.564 73.656H152.376C152.292 73.188 152.052 72.648 151.02 72.648C150.24 72.648 149.892 72.96 149.892 73.416C149.892 74.052 150.576 74.1 151.452 74.304Z" fill="black"/>
<path d="M64.144 105.42H65.608L67.876 112.608H67.9L70.156 105.42H71.548L68.596 114H67.168L64.144 105.42ZM74.0528 114.18C72.1448 114.18 70.9928 112.86 70.9928 110.94C70.9928 109.032 72.1448 107.688 74.0528 107.688C75.9608 107.688 77.1128 109.02 77.1128 110.928C77.1128 112.848 75.9608 114.18 74.0528 114.18ZM74.0528 113.208C75.3008 113.208 75.8888 112.212 75.8888 110.94C75.8888 109.656 75.3008 108.672 74.0528 108.672C72.7928 108.672 72.2168 109.656 72.2168 110.94C72.2168 112.212 72.7928 113.208 74.0528 113.208ZM79.7513 113.94L77.2673 107.88H78.5513L80.3393 112.56H80.3633L82.0553 107.88H83.2793L80.8673 114.144C80.2673 115.656 79.6793 116.148 78.7313 116.148C78.4673 116.148 78.2873 116.124 77.9753 116.064V115.104C78.1793 115.128 78.2873 115.14 78.4793 115.14C78.9593 115.14 79.4993 114.9 79.7513 113.94ZM85.3247 114.168C84.1007 114.168 83.3207 113.46 83.3207 112.416C83.3207 111.048 84.3527 110.652 85.8767 110.352C86.8367 110.172 87.4247 110.052 87.4247 109.452C87.4247 109.008 87.1607 108.636 86.2607 108.636C85.1927 108.636 84.8687 108.972 84.8087 109.788H83.6087C83.6687 108.612 84.4367 107.688 86.3087 107.688C87.5687 107.688 88.5767 108.216 88.5767 109.8V112.608C88.5767 113.052 88.6367 113.28 88.8647 113.28C88.9007 113.28 88.9367 113.28 89.0087 113.268V113.988C88.8047 114.036 88.6007 114.06 88.4087 114.06C87.8327 114.06 87.5087 113.832 87.4487 113.136H87.4247C87.0167 113.772 86.3207 114.168 85.3247 114.168ZM85.5887 113.22C86.6447 113.22 87.4247 112.68 87.4247 111.612V110.736C87.2327 110.916 86.7047 111.048 86.0807 111.18C85.0007 111.408 84.5567 111.696 84.5567 112.332C84.5567 112.908 84.8567 113.22 85.5887 113.22ZM94.2219 113.592V112.764H94.1979C93.8619 113.256 93.2979 113.688 92.3139 113.688C90.7899 113.688 89.6139 112.656 89.6139 110.7C89.6139 108.732 90.7899 107.7 92.3139 107.7C93.2979 107.7 93.8619 108.168 94.1979 108.6H94.2219V107.88H95.3979V113.52C95.3979 115.368 94.2819 116.196 92.5299 116.196C90.7779 116.196 89.9019 115.356 89.7819 114.252H90.9939C91.1139 114.804 91.5339 115.236 92.5299 115.236C93.6459 115.236 94.2219 114.744 94.2219 113.592ZM92.5299 108.684C91.3779 108.684 90.8379 109.548 90.8379 110.7C90.8379 111.852 91.3779 112.716 92.5299 112.716C93.5859 112.716 94.2099 112.032 94.2099 110.7C94.2099 109.356 93.5859 108.684 92.5299 108.684ZM99.4113 114.18C97.4673 114.18 96.3873 112.8 96.3873 110.928C96.3873 109.008 97.5393 107.688 99.4113 107.688C101.271 107.688 102.315 108.912 102.315 110.808C102.315 110.976 102.315 111.156 102.303 111.252H97.5993C97.6233 112.284 98.2233 113.22 99.4353 113.22C100.515 113.22 100.923 112.524 101.043 112.116H102.231C101.919 113.292 101.019 114.18 99.4113 114.18ZM99.3753 108.648C98.3913 108.648 97.6713 109.32 97.5993 110.328H101.079C101.079 109.368 100.419 108.648 99.3753 108.648ZM105.842 110.304C106.958 110.568 108.182 110.892 108.182 112.26C108.182 113.448 107.27 114.168 105.662 114.168C103.802 114.168 102.878 113.208 102.842 111.96H104.03C104.09 112.668 104.51 113.22 105.65 113.22C106.682 113.22 106.958 112.764 106.958 112.32C106.958 111.552 106.142 111.468 105.35 111.3C104.282 111.06 103.058 110.736 103.058 109.464C103.058 108.408 103.91 107.7 105.398 107.7C107.066 107.7 107.87 108.6 107.954 109.656H106.766C106.682 109.188 106.442 108.648 105.41 108.648C104.63 108.648 104.282 108.96 104.282 109.416C104.282 110.052 104.966 110.1 105.842 110.304Z" fill="black"/>
<path d="M70.816 144.336C70.66 143.496 70.132 142.392 68.488 142.392C66.592 142.392 65.872 144 65.872 145.704C65.872 147.42 66.592 149.028 68.488 149.028C70.144 149.028 70.732 147.924 70.816 146.88H72.196C72.004 148.788 70.672 150.168 68.5 150.168C66.064 150.168 64.504 148.296 64.504 145.716C64.504 143.124 66.076 141.252 68.512 141.252C70.672 141.252 71.992 142.62 72.196 144.336H70.816ZM76.0567 150.18C74.1487 150.18 72.9967 148.86 72.9967 146.94C72.9967 145.032 74.1487 143.688 76.0567 143.688C77.9647 143.688 79.1167 145.02 79.1167 146.928C79.1167 148.848 77.9647 150.18 76.0567 150.18ZM76.0567 149.208C77.3047 149.208 77.8927 148.212 77.8927 146.94C77.8927 145.656 77.3047 144.672 76.0567 144.672C74.7967 144.672 74.2207 145.656 74.2207 146.94C74.2207 148.212 74.7967 149.208 76.0567 149.208ZM81.2208 147.792C81.2208 148.62 81.5808 149.172 82.4568 149.172C83.4648 149.172 84.1128 148.56 84.1128 147.636V143.88H85.2888V150H84.1128V149.232H84.0888C83.7648 149.7 83.1288 150.168 82.0728 150.168C80.9448 150.168 80.0328 149.52 80.0328 148.116V143.88H81.2208V147.792ZM85.9626 143.88H87.2226L88.8186 148.788H88.8426L90.4146 143.88H91.6506L89.4666 150H88.1466L85.9626 143.88ZM94.841 150.18C92.897 150.18 91.817 148.8 91.817 146.928C91.817 145.008 92.969 143.688 94.841 143.688C96.701 143.688 97.745 144.912 97.745 146.808C97.745 146.976 97.745 147.156 97.733 147.252H93.029C93.053 148.284 93.653 149.22 94.865 149.22C95.945 149.22 96.353 148.524 96.473 148.116H97.661C97.349 149.292 96.449 150.18 94.841 150.18ZM94.805 144.648C93.821 144.648 93.101 145.32 93.029 146.328H96.509C96.509 145.368 95.849 144.648 94.805 144.648ZM98.7256 143.88H99.9016V145.044H99.9256C100.238 144.276 100.742 143.736 101.57 143.736C101.786 143.736 101.954 143.748 102.134 143.772V144.9C101.978 144.876 101.87 144.864 101.738 144.864C100.67 144.864 99.9016 145.668 99.9016 146.832V150H98.7256V143.88ZM102.689 143.88H103.577V141.912H104.753V143.88H105.929V144.852H104.753V148.308C104.753 148.956 104.933 149.1 105.437 149.1C105.629 149.1 105.725 149.088 105.941 149.052V150C105.629 150.06 105.449 150.072 105.185 150.072C104.189 150.072 103.577 149.688 103.577 148.272V144.852H102.689V143.88ZM107.963 147.792C107.963 148.62 108.323 149.172 109.199 149.172C110.207 149.172 110.855 148.56 110.855 147.636V143.88H112.031V150H110.855V149.232H110.831C110.507 149.7 109.871 150.168 108.815 150.168C107.687 150.168 106.775 149.52 106.775 148.116V143.88H107.963V147.792ZM113.351 143.88H114.527V145.044H114.551C114.863 144.276 115.367 143.736 116.195 143.736C116.411 143.736 116.579 143.748 116.759 143.772V144.9C116.603 144.876 116.495 144.864 116.363 144.864C115.295 144.864 114.527 145.668 114.527 146.832V150H113.351V143.88ZM120.048 150.18C118.104 150.18 117.024 148.8 117.024 146.928C117.024 145.008 118.176 143.688 120.048 143.688C121.908 143.688 122.952 144.912 122.952 146.808C122.952 146.976 122.952 147.156 122.94 147.252H118.236C118.26 148.284 118.86 149.22 120.072 149.22C121.152 149.22 121.56 148.524 121.68 148.116H122.868C122.556 149.292 121.656 150.18 120.048 150.18ZM120.012 144.648C119.028 144.648 118.308 145.32 118.236 146.328H121.716C121.716 145.368 121.056 144.648 120.012 144.648ZM126.479 146.304C127.595 146.568 128.819 146.892 128.819 148.26C128.819 149.448 127.907 150.168 126.299 150.168C124.439 150.168 123.515 149.208 123.479 147.96H124.667C124.727 148.668 125.147 149.22 126.287 149.22C127.319 149.22 127.595 148.764 127.595 148.32C127.595 147.552 126.779 147.468 125.987 147.3C124.919 147.06 123.695 146.736 123.695 145.464C123.695 144.408 124.547 143.7 126.035 143.7C127.703 143.7 128.507 144.6 128.591 145.656H127.403C127.319 145.188 127.079 144.648 126.047 144.648C125.267 144.648 124.919 144.96 124.919 145.416C124.919 146.052 125.603 146.1 126.479 146.304ZM132.286 141.516H133.618V142.788H132.286V141.516ZM132.37 143.88H133.546V150H132.37V143.88ZM134.854 150V143.88H136.03V144.648H136.054C136.378 144.18 137.014 143.7 138.07 143.7C139.198 143.7 140.11 144.348 140.11 145.752V150H138.922V146.076C138.922 145.26 138.562 144.708 137.686 144.708C136.678 144.708 136.03 145.32 136.03 146.244V150H134.854ZM145.656 144.624H145.68V141.42H146.868V150H145.68V149.28H145.656C145.332 149.712 144.732 150.168 143.772 150.168C142.212 150.168 141.036 148.956 141.036 146.94C141.036 144.924 142.212 143.7 143.772 143.7C144.732 143.7 145.332 144.144 145.656 144.624ZM143.964 149.196C145.02 149.196 145.68 148.32 145.68 146.94C145.68 145.548 145.02 144.684 143.964 144.684C142.812 144.684 142.26 145.74 142.26 146.94C142.26 148.14 142.812 149.196 143.964 149.196ZM148.095 141.516H149.427V142.788H148.095V141.516ZM148.179 143.88H149.355V150H148.179V143.88ZM150.029 143.88H151.289L152.885 148.788H152.909L154.481 143.88H155.717L153.533 150H152.213L150.029 143.88ZM155.571 148.692H156.879V150H155.571V148.692Z" fill="black"/>
<path d="M68.008 180.96C69.664 181.38 71.224 181.776 71.224 183.588C71.224 185.064 70.216 186.168 68.08 186.168C65.908 186.168 64.372 185.04 64.288 183.108H65.656C65.752 184.26 66.436 185.04 68.044 185.04C69.412 185.04 69.844 184.44 69.844 183.66C69.844 182.568 69.004 182.412 67.444 182.016C66.1 181.668 64.624 181.224 64.624 179.592C64.624 178.104 65.776 177.252 67.624 177.252C69.58 177.252 70.852 178.248 70.984 179.976H69.604C69.472 178.944 68.884 178.38 67.624 178.38C66.556 178.38 65.992 178.776 65.992 179.52C65.992 180.48 66.904 180.684 68.008 180.96ZM75.002 186.18C73.094 186.18 71.942 184.86 71.942 182.94C71.942 181.032 73.094 179.688 75.002 179.688C76.91 179.688 78.062 181.02 78.062 182.928C78.062 184.848 76.91 186.18 75.002 186.18ZM75.002 185.208C76.25 185.208 76.838 184.212 76.838 182.94C76.838 181.656 76.25 180.672 75.002 180.672C73.742 180.672 73.166 181.656 73.166 182.94C73.166 184.212 73.742 185.208 75.002 185.208ZM78.9541 177.516H80.2861V178.788H78.9541V177.516ZM79.0381 179.88H80.2141V186H79.0381V179.88ZM81.5224 186V179.88H82.6984V180.648H82.7224C83.0464 180.18 83.6824 179.7 84.7384 179.7C85.8664 179.7 86.7784 180.348 86.7784 181.752V186H85.5904V182.076C85.5904 181.26 85.2304 180.708 84.3544 180.708C83.3464 180.708 82.6984 181.32 82.6984 182.244V186H81.5224ZM90.6078 182.304C91.7238 182.568 92.9478 182.892 92.9478 184.26C92.9478 185.448 92.0358 186.168 90.4277 186.168C88.5678 186.168 87.6438 185.208 87.6078 183.96H88.7958C88.8558 184.668 89.2758 185.22 90.4158 185.22C91.4478 185.22 91.7238 184.764 91.7238 184.32C91.7238 183.552 90.9078 183.468 90.1158 183.3C89.0478 183.06 87.8238 182.736 87.8238 181.464C87.8238 180.408 88.6758 179.7 90.1638 179.7C91.8318 179.7 92.6358 180.6 92.7198 181.656H91.5318C91.4478 181.188 91.2078 180.648 90.1758 180.648C89.3958 180.648 89.0478 180.96 89.0478 181.416C89.0478 182.052 89.7318 182.1 90.6078 182.304ZM100.855 180.624H100.879V177.42H102.067V186H100.879V185.28H100.855C100.531 185.712 99.931 186.168 98.971 186.168C97.411 186.168 96.235 184.956 96.235 182.94C96.235 180.924 97.411 179.7 98.971 179.7C99.931 179.7 100.531 180.144 100.855 180.624ZM99.163 185.196C100.219 185.196 100.879 184.32 100.879 182.94C100.879 181.548 100.219 180.684 99.163 180.684C98.011 180.684 97.459 181.74 97.459 182.94C97.459 184.14 98.011 185.196 99.163 185.196ZM106.068 186.18C104.124 186.18 103.044 184.8 103.044 182.928C103.044 181.008 104.196 179.688 106.068 179.688C107.928 179.688 108.972 180.912 108.972 182.808C108.972 182.976 108.972 183.156 108.96 183.252H104.256C104.28 184.284 104.88 185.22 106.092 185.22C107.172 185.22 107.58 184.524 107.7 184.116H108.888C108.576 185.292 107.676 186.18 106.068 186.18ZM106.032 180.648C105.048 180.648 104.328 181.32 104.256 182.328H107.736C107.736 181.368 107.076 180.648 106.032 180.648ZM109.952 186V179.88H111.128V180.648H111.152C111.476 180.18 112.112 179.7 113.168 179.7C114.296 179.7 115.208 180.348 115.208 181.752V186H114.02V182.076C114.02 181.26 113.66 180.708 112.784 180.708C111.776 180.708 111.128 181.32 111.128 182.244V186H109.952ZM115.872 179.88H116.76V177.912H117.936V179.88H119.112V180.852H117.936V184.308C117.936 184.956 118.116 185.1 118.62 185.1C118.812 185.1 118.908 185.088 119.124 185.052V186C118.812 186.06 118.632 186.072 118.368 186.072C117.372 186.072 116.76 185.688 116.76 184.272V180.852H115.872V179.88ZM121.735 186.168C120.511 186.168 119.731 185.46 119.731 184.416C119.731 183.048 120.763 182.652 122.287 182.352C123.247 182.172 123.835 182.052 123.835 181.452C123.835 181.008 123.571 180.636 122.671 180.636C121.603 180.636 121.279 180.972 121.219 181.788H120.019C120.079 180.612 120.847 179.688 122.719 179.688C123.979 179.688 124.987 180.216 124.987 181.8V184.608C124.987 185.052 125.047 185.28 125.275 185.28C125.311 185.28 125.347 185.28 125.419 185.268V185.988C125.215 186.036 125.011 186.06 124.819 186.06C124.243 186.06 123.919 185.832 123.859 185.136H123.835C123.427 185.772 122.731 186.168 121.735 186.168ZM121.999 185.22C123.055 185.22 123.835 184.68 123.835 183.612V182.736C123.643 182.916 123.115 183.048 122.491 183.18C121.411 183.408 120.967 183.696 120.967 184.332C120.967 184.908 121.267 185.22 121.999 185.22ZM126.286 177.516H127.618V178.788H126.286V177.516ZM126.37 179.88H127.546V186H126.37V179.88ZM128.854 179.88H130.03V181.044H130.054C130.366 180.276 130.87 179.736 131.698 179.736C131.914 179.736 132.082 179.748 132.262 179.772V180.9C132.106 180.876 131.998 180.864 131.866 180.864C130.798 180.864 130.03 181.668 130.03 182.832V186H128.854V179.88ZM135.552 186.18C133.608 186.18 132.528 184.8 132.528 182.928C132.528 181.008 133.68 179.688 135.552 179.688C137.412 179.688 138.456 180.912 138.456 182.808C138.456 182.976 138.456 183.156 138.444 183.252H133.74C133.764 184.284 134.364 185.22 135.576 185.22C136.656 185.22 137.064 184.524 137.184 184.116H138.372C138.06 185.292 137.16 186.18 135.552 186.18ZM135.516 180.648C134.532 180.648 133.812 181.32 133.74 182.328H137.22C137.22 181.368 136.56 180.648 135.516 180.648ZM141.983 182.304C143.099 182.568 144.323 182.892 144.323 184.26C144.323 185.448 143.411 186.168 141.803 186.168C139.943 186.168 139.019 185.208 138.983 183.96H140.171C140.231 184.668 140.651 185.22 141.791 185.22C142.823 185.22 143.099 184.764 143.099 184.32C143.099 183.552 142.283 183.468 141.491 183.3C140.423 183.06 139.199 182.736 139.199 181.464C139.199 180.408 140.051 179.7 141.539 179.7C143.207 179.7 144.011 180.6 144.095 181.656H142.907C142.823 181.188 142.583 180.648 141.551 180.648C140.771 180.648 140.423 180.96 140.423 181.416C140.423 182.052 141.107 182.1 141.983 182.304Z" fill="black"/>
<rect opacity="0.2" x="20" y="58" width="32" height="32" rx="6.4" fill="#FD1774"/>
<g clip-path="url(#clip0_2815_606)">
<path fill-rule="evenodd" clip-rule="evenodd" d="M36.5271 67.2516C37.7564 68.4375 38.4003 69.9622 38.4003 71.5998C38.4003 73.2375 37.6978 74.7622 36.5271 75.948L36.0003 76.3998L35.4734 75.948C34.2442 74.7622 33.6003 73.2375 33.6003 71.5998C33.6003 69.9622 34.2442 68.381 35.4734 67.2516L36.0003 66.7998L36.5271 67.2516ZM29.4303 73.9997H28.8008V74.7079C28.8008 76.4784 29.3778 78.0718 30.4795 79.3111C31.5811 80.5505 32.9975 81.1997 34.5188 81.1997H34.5713H35.2008V80.4915C35.2008 78.721 34.6237 77.1275 33.5221 75.8882C32.4205 74.6489 31.0041 73.9997 29.4303 73.9997ZM43.2008 73.9997H42.5713C41.05 73.9997 39.5811 74.6489 38.4795 75.8882C37.3778 77.1275 36.8008 78.78 36.8008 80.4915V81.1997H37.4303H37.4827C39.0041 81.1997 40.4205 80.5505 41.5221 79.3111C42.6237 78.0718 43.2008 76.4193 43.2008 74.7079V73.9997Z" fill="#FD1774"/>
</g>
<rect opacity="0.2" x="20" y="94" width="32" height="32" rx="4.87634" fill="#64D71E"/>
<g clip-path="url(#clip1_2815_606)">
<path d="M39.99 108.216L41.9581 106.481C42.3645 106.123 42.6864 105.679 42.9006 105.181C43.1147 104.683 43.2158 104.144 43.1965 103.602C43.1901 103.392 43.1037 103.192 42.9551 103.044C42.8064 102.895 42.6066 102.809 42.3965 102.802C41.8547 102.783 41.3154 102.884 40.8174 103.098C40.3194 103.312 39.8751 103.634 39.5164 104.04L37.7819 106.008L30.7416 103.506C30.5663 103.444 30.3771 103.434 30.1959 103.475C30.0147 103.516 29.8489 103.608 29.7176 103.74L28.8823 104.562C28.8522 104.592 28.8292 104.628 28.815 104.668C28.8008 104.708 28.7959 104.75 28.8005 104.793C28.8051 104.835 28.8192 104.875 28.8417 104.911C28.8642 104.947 28.8945 104.978 28.9303 105L35.1866 108.958L32.2329 112.304L30.9976 112.407C30.7659 112.427 30.5486 112.528 30.3832 112.692L29.9192 113.168C29.8852 113.203 29.8606 113.246 29.8478 113.292C29.8349 113.339 29.8342 113.388 29.8458 113.435C29.8573 113.483 29.8807 113.526 29.9137 113.561C29.9467 113.597 29.9882 113.624 30.0344 113.639L31.8073 114.192L32.3609 115.977C32.3773 116.022 32.4049 116.063 32.4411 116.094C32.4773 116.126 32.5209 116.148 32.5679 116.158C32.6148 116.168 32.6636 116.166 32.7097 116.153C32.7557 116.139 32.7976 116.114 32.8313 116.08L33.3081 115.603C33.4717 115.438 33.5725 115.22 33.5929 114.989L33.6953 113.754L37.0427 110.801L40.9884 117.068C41.011 117.104 41.0414 117.134 41.0774 117.157C41.1133 117.179 41.1539 117.194 41.196 117.198C41.2382 117.203 41.2808 117.198 41.3208 117.184C41.3608 117.169 41.397 117.146 41.4268 117.116L42.2589 116.284C42.3904 116.153 42.4821 115.987 42.5234 115.806C42.5648 115.625 42.554 115.436 42.4925 115.261L39.99 108.216Z" fill="#64D71E"/>
</g>
<rect opacity="0.2" x="20" y="130" width="32" height="32" rx="4.70588" fill="#8800FF"/>
<path d="M38.8335 140.09H38.8177C37.7886 140.092 36.7917 140.452 35.9945 141.111C35.0955 140.313 34.2438 139.882 33.4551 139.882C32.9195 139.881 32.3891 139.989 31.8959 140.2C31.4026 140.411 30.9566 140.721 30.5846 141.111C30.0492 141.683 29.6781 142.393 29.5114 143.163C29.3447 143.933 29.3885 144.735 29.6383 145.481C29.6383 145.481 29.6383 145.513 29.654 145.513H31.6571L32.6034 144.014C32.6476 143.94 32.7101 143.879 32.7848 143.837C32.8595 143.795 32.9438 143.773 33.0293 143.774C33.1091 143.78 33.1864 143.804 33.255 143.846C33.3235 143.888 33.3813 143.945 33.4236 144.014L34.7642 146.614L36.1995 144.221C36.237 144.16 36.2877 144.108 36.3478 144.069C36.4078 144.031 36.4758 144.006 36.5465 143.998C36.6174 143.991 36.6889 143.998 36.7567 144.02C36.8246 144.042 36.8872 144.078 36.9408 144.125L38.2499 145.402C38.3387 145.489 38.3902 145.608 38.3931 145.733C38.3961 145.859 38.3503 145.98 38.2657 146.071C38.2227 146.118 38.1708 146.156 38.1131 146.182C38.0554 146.209 37.9931 146.223 37.9299 146.224C37.8667 146.226 37.8038 146.214 37.745 146.191C37.6862 146.167 37.6326 146.132 37.5875 146.087L36.7042 145.226L35.127 147.826C35.088 147.898 35.031 147.958 34.9617 148C34.8925 148.042 34.8135 148.064 34.7327 148.065H34.7169C34.6314 148.059 34.5489 148.031 34.4772 147.984C34.4054 147.936 34.3468 147.871 34.3068 147.794L32.9504 145.178L32.3038 146.215C32.2623 146.286 32.2051 146.346 32.1366 146.39C32.0681 146.434 31.9903 146.462 31.9095 146.47H30.0957C30.2376 146.63 30.4111 146.869 30.6004 147.06L35.6633 151.989C35.7068 152.033 35.7587 152.066 35.8157 152.088C35.8727 152.11 35.9336 152.12 35.9945 152.117C36.1193 152.115 36.2383 152.064 36.3257 151.974L41.4044 147.013C42.1635 146.229 42.5886 145.175 42.5886 144.078C42.5886 142.98 42.1635 141.927 41.4044 141.143C41.0682 140.801 40.6672 140.531 40.2253 140.35C39.7835 140.169 39.3101 140.081 38.8335 140.09Z" fill="#8800FF"/>
<rect opacity="0.2" x="20" y="166" width="32" height="32" rx="4.70588" fill="#01B8C7"/>
<path d="M41.1772 178.941C41.1772 179.668 40.9949 180.297 40.8186 180.904C40.6481 181.492 40.487 182.048 40.487 182.68C40.487 185.78 39.4486 188.118 38.0713 188.118C36.8872 188.118 36.7834 186.686 36.6916 185.423C36.6043 184.215 36.5035 183.359 36.0007 183.359C35.4979 183.359 35.3971 184.215 35.3098 185.423C35.218 186.686 35.1141 188.118 33.9301 188.118C32.5528 188.118 31.5144 185.78 31.5144 182.68C31.5144 182.048 31.3533 181.492 31.1828 180.904C31.0064 180.297 30.8242 179.668 30.8242 178.941C30.8242 177.671 31.6808 175.882 33.585 175.882C34.5865 175.882 35.246 176.207 35.6818 176.422C35.8036 176.482 35.9551 176.556 36.0062 176.562C36.0459 176.556 36.1974 176.482 36.3192 176.422C36.7558 176.207 37.4149 175.882 38.4164 175.882C40.3206 175.882 41.1772 177.671 41.1772 178.941Z" fill="#01B8C7"/>
<path d="M0 133H188V197C188 203.627 182.627 209 176 209H12C5.37258 209 0 203.627 0 197V133Z" fill="url(#paint0_linear_2815_606)"/>
<defs>
<linearGradient id="paint0_linear_2815_606" x1="94" y1="133" x2="94" y2="209" gradientUnits="userSpaceOnUse">
<stop stop-color="white" stop-opacity="0"/>
<stop offset="0.84" stop-color="white"/>
</linearGradient>
<clipPath id="clip0_2815_606">
<rect width="16" height="16" fill="white" transform="translate(28 66)"/>
</clipPath>
<clipPath id="clip1_2815_606">
<rect width="16" height="16" fill="white" transform="translate(28 102)"/>
</clipPath>
</defs>
</svg>
