<svg width="564" height="450" viewBox="0 0 564 450" fill="none" xmlns="http://www.w3.org/2000/svg">
<rect width="564" height="450" fill="#EDD9FF"/>
<path d="M72 100C72 88.9543 80.9543 80 92 80H472C483.046 80 492 88.9543 492 100V450H72V100Z" fill="#FDFDFD"/>
<rect opacity="0.1" x="158" y="176" width="247" height="10" rx="5" fill="black"/>
<rect opacity="0.1" x="136" y="301" width="110" height="6" rx="3" fill="black"/>
<rect opacity="0.1" x="136" y="315" width="110" height="6" rx="3" fill="black"/>
<rect opacity="0.1" x="154" y="329" width="74" height="6" rx="3" fill="black"/>
<path d="M158.539 277.162H163.397V278.492H158.539V281.67H164.223V283H156.999V272.99H164.083V274.32H158.539V277.162ZM165.375 283V275.86H166.747V276.756H166.775C167.153 276.21 167.811 275.65 168.889 275.65C169.883 275.65 170.485 276.098 170.779 276.896H170.807C171.325 276.21 172.039 275.65 173.145 275.65C174.587 275.65 175.315 276.518 175.315 278.044V283H173.943V278.422C173.943 277.47 173.747 276.826 172.697 276.826C171.675 276.826 171.031 277.54 171.031 278.618V283H169.659V278.422C169.659 277.47 169.463 276.826 168.413 276.826C167.391 276.826 166.747 277.54 166.747 278.618V283H165.375ZM178.191 282.118H178.163V285.478H176.791V275.86H178.163V276.7H178.191C178.583 276.196 179.269 275.65 180.389 275.65C182.209 275.65 183.595 277.078 183.595 279.43C183.595 281.782 182.209 283.196 180.389 283.196C179.269 283.196 178.583 282.692 178.191 282.118ZM180.165 276.798C178.933 276.798 178.177 277.806 178.177 279.43C178.177 281.04 178.933 282.062 180.165 282.062C181.509 282.062 182.153 280.83 182.153 279.43C182.153 278.03 181.509 276.798 180.165 276.798ZM184.735 272.99H186.107V283H184.735V272.99ZM190.813 283.21C188.587 283.21 187.243 281.67 187.243 279.43C187.243 277.204 188.587 275.636 190.813 275.636C193.039 275.636 194.383 277.19 194.383 279.416C194.383 281.656 193.039 283.21 190.813 283.21ZM190.813 282.076C192.269 282.076 192.955 280.914 192.955 279.43C192.955 277.932 192.269 276.784 190.813 276.784C189.343 276.784 188.671 277.932 188.671 279.43C188.671 280.914 189.343 282.076 190.813 282.076ZM197.461 282.93L194.563 275.86H196.061L198.147 281.32H198.175L200.149 275.86H201.577L198.763 283.168C198.063 284.932 197.377 285.506 196.271 285.506C195.963 285.506 195.753 285.478 195.389 285.408V284.288C195.627 284.316 195.753 284.33 195.977 284.33C196.537 284.33 197.167 284.05 197.461 282.93ZM205.389 272.822H206.999L205.655 274.754H204.563L205.389 272.822ZM205.291 283.21C203.023 283.21 201.763 281.6 201.763 279.416C201.763 277.176 203.107 275.636 205.291 275.636C207.461 275.636 208.679 277.064 208.679 279.276C208.679 279.472 208.679 279.682 208.665 279.794H203.177C203.205 280.998 203.905 282.09 205.319 282.09C206.579 282.09 207.055 281.278 207.195 280.802H208.581C208.217 282.174 207.167 283.21 205.291 283.21ZM205.249 276.756C204.101 276.756 203.261 277.54 203.177 278.716H207.237C207.237 277.596 206.467 276.756 205.249 276.756ZM212.119 272.388H213.323C212.427 274.082 211.699 275.972 211.699 278.562C211.699 281.096 212.427 283.014 213.323 284.708H212.119C211.083 283.294 210.187 281.096 210.187 278.562C210.187 275.944 211.083 273.802 212.119 272.388ZM217.568 283.21C215.3 283.21 214.04 281.6 214.04 279.416C214.04 277.176 215.384 275.636 217.568 275.636C219.738 275.636 220.956 277.064 220.956 279.276C220.956 279.472 220.956 279.682 220.942 279.794H215.454C215.482 280.998 216.182 282.09 217.596 282.09C218.856 282.09 219.332 281.278 219.472 280.802H220.858C220.494 282.174 219.444 283.21 217.568 283.21ZM217.526 276.756C216.378 276.756 215.538 277.54 215.454 278.716H219.514C219.514 277.596 218.744 276.756 217.526 276.756ZM222.873 284.708H221.669C222.579 283.014 223.293 281.11 223.293 278.52C223.293 275.986 222.579 274.082 221.669 272.388H222.873C223.923 273.802 224.819 275.986 224.819 278.52C224.819 281.138 223.923 283.294 222.873 284.708Z" fill="black"/>
<rect x="106.5" y="248.5" width="169" height="127" rx="11.5" stroke="black" stroke-opacity="0.2"/>
<rect x="288.75" y="248.75" width="168.5" height="126.5" rx="11.25" fill="#EDD9FF" fill-opacity="0.62" stroke="#8800FF" stroke-width="1.5"/>
<rect opacity="0.1" x="318" y="301" width="110" height="6" rx="3" fill="black"/>
<rect opacity="0.1" x="318" y="315" width="110" height="6" rx="3" fill="black"/>
<rect opacity="0.1" x="336" y="329" width="74" height="6" rx="3" fill="black"/>
<path d="M335.227 280.592H331.041L330.215 283H328.591L332.315 272.99H333.981L337.733 283H336.053L335.227 280.592ZM331.489 279.29H334.779L333.155 274.418H333.127L331.489 279.29ZM343.297 276.728H343.325V272.99H344.711V283H343.325V282.16H343.297C342.919 282.664 342.219 283.196 341.099 283.196C339.279 283.196 337.907 281.782 337.907 279.43C337.907 277.078 339.279 275.65 341.099 275.65C342.219 275.65 342.919 276.168 343.297 276.728ZM341.323 282.062C342.555 282.062 343.325 281.04 343.325 279.43C343.325 277.806 342.555 276.798 341.323 276.798C339.979 276.798 339.335 278.03 339.335 279.43C339.335 280.83 339.979 282.062 341.323 282.062ZM346.241 283V275.86H347.613V276.756H347.641C348.019 276.21 348.677 275.65 349.755 275.65C350.749 275.65 351.351 276.098 351.645 276.896H351.673C352.191 276.21 352.905 275.65 354.011 275.65C355.453 275.65 356.181 276.518 356.181 278.044V283H354.809V278.422C354.809 277.47 354.613 276.826 353.563 276.826C352.541 276.826 351.897 277.54 351.897 278.618V283H350.525V278.422C350.525 277.47 350.329 276.826 349.279 276.826C348.257 276.826 347.613 277.54 347.613 278.618V283H346.241ZM357.559 273.102H359.113V274.586H357.559V273.102ZM357.657 275.86H359.029V283H357.657V275.86ZM360.555 283V275.86H361.927V276.756H361.955C362.333 276.21 363.075 275.65 364.307 275.65C365.623 275.65 366.687 276.406 366.687 278.044V283H365.301V278.422C365.301 277.47 364.881 276.826 363.859 276.826C362.683 276.826 361.927 277.54 361.927 278.618V283H360.555ZM368.059 273.102H369.613V274.586H368.059V273.102ZM368.157 275.86H369.529V283H368.157V275.86ZM374.053 278.688C375.355 278.996 376.783 279.374 376.783 280.97C376.783 282.356 375.719 283.196 373.843 283.196C371.673 283.196 370.595 282.076 370.553 280.62H371.939C372.009 281.446 372.499 282.09 373.829 282.09C375.033 282.09 375.355 281.558 375.355 281.04C375.355 280.144 374.403 280.046 373.479 279.85C372.233 279.57 370.805 279.192 370.805 277.708C370.805 276.476 371.799 275.65 373.535 275.65C375.481 275.65 376.419 276.7 376.517 277.932H375.131C375.033 277.386 374.753 276.756 373.549 276.756C372.639 276.756 372.233 277.12 372.233 277.652C372.233 278.394 373.031 278.45 374.053 278.688ZM377.224 275.86H378.26V273.564H379.632V275.86H381.004V276.994H379.632V281.026C379.632 281.782 379.842 281.95 380.43 281.95C380.654 281.95 380.766 281.936 381.018 281.894V283C380.654 283.07 380.444 283.084 380.136 283.084C378.974 283.084 378.26 282.636 378.26 280.984V276.994H377.224V275.86ZM382.17 275.86H383.542V277.218H383.57C383.934 276.322 384.522 275.692 385.488 275.692C385.74 275.692 385.936 275.706 386.146 275.734V277.05C385.964 277.022 385.838 277.008 385.684 277.008C384.438 277.008 383.542 277.946 383.542 279.304V283H382.17V275.86ZM388.712 283.196C387.284 283.196 386.374 282.37 386.374 281.152C386.374 279.556 387.578 279.094 389.356 278.744C390.476 278.534 391.162 278.394 391.162 277.694C391.162 277.176 390.854 276.742 389.804 276.742C388.558 276.742 388.18 277.134 388.11 278.086H386.71C386.78 276.714 387.676 275.636 389.86 275.636C391.33 275.636 392.506 276.252 392.506 278.1V281.376C392.506 281.894 392.576 282.16 392.842 282.16C392.884 282.16 392.926 282.16 393.01 282.146V282.986C392.772 283.042 392.534 283.07 392.31 283.07C391.638 283.07 391.26 282.804 391.19 281.992H391.162C390.686 282.734 389.874 283.196 388.712 283.196ZM389.02 282.09C390.252 282.09 391.162 281.46 391.162 280.214V279.192C390.938 279.402 390.322 279.556 389.594 279.71C388.334 279.976 387.816 280.312 387.816 281.054C387.816 281.726 388.166 282.09 389.02 282.09ZM393.288 275.86H394.324V273.564H395.696V275.86H397.068V276.994H395.696V281.026C395.696 281.782 395.906 281.95 396.494 281.95C396.718 281.95 396.83 281.936 397.082 281.894V283C396.718 283.07 396.508 283.084 396.2 283.084C395.038 283.084 394.324 282.636 394.324 280.984V276.994H393.288V275.86ZM401.209 283.21C398.941 283.21 397.681 281.6 397.681 279.416C397.681 277.176 399.025 275.636 401.209 275.636C403.379 275.636 404.597 277.064 404.597 279.276C404.597 279.472 404.597 279.682 404.583 279.794H399.095C399.123 280.998 399.823 282.09 401.237 282.09C402.497 282.09 402.973 281.278 403.113 280.802H404.499C404.135 282.174 403.085 283.21 401.209 283.21ZM401.167 276.756C400.019 276.756 399.179 277.54 399.095 278.716H403.155C403.155 277.596 402.385 276.756 401.167 276.756ZM407.057 280.424C407.057 281.39 407.477 282.034 408.499 282.034C409.675 282.034 410.431 281.32 410.431 280.242V275.86H411.803V283H410.431V282.104H410.403C410.025 282.65 409.283 283.196 408.051 283.196C406.735 283.196 405.671 282.44 405.671 280.802V275.86H407.057V280.424ZM413.342 275.86H414.714V277.218H414.742C415.106 276.322 415.694 275.692 416.66 275.692C416.912 275.692 417.108 275.706 417.318 275.734V277.05C417.136 277.022 417.01 277.008 416.856 277.008C415.61 277.008 414.714 277.946 414.714 279.304V283H413.342V275.86Z" fill="black"/>
<rect opacity="0.1" x="192" y="196" width="179" height="10" rx="5" fill="black"/>
<path d="M179.28 153V138.7H185.3C188.24 138.7 189.96 140.02 189.96 142.3C189.96 144.06 188.92 144.88 187.74 145.28V145.32C189.24 145.58 190.52 146.68 190.52 148.82C190.52 151.56 188.62 153 185.66 153H179.28ZM181.48 144.64H185.24C187.04 144.64 187.66 143.9 187.66 142.62C187.66 141.36 186.9 140.6 185.4 140.6H181.48V144.64ZM181.48 151.1H185.5C187.62 151.1 188.22 150.08 188.22 148.74C188.22 147.24 187.3 146.38 185.8 146.38H181.48V151.1ZM192.103 138.86H194.323V140.98H192.103V138.86ZM192.243 142.8H194.203V153H192.243V142.8ZM200.867 153.3C197.627 153.3 195.827 151 195.827 147.88C195.827 144.68 197.747 142.48 200.867 142.48C203.967 142.48 205.707 144.52 205.707 147.68C205.707 147.96 205.707 148.26 205.687 148.42H197.847C197.887 150.14 198.887 151.7 200.907 151.7C202.707 151.7 203.387 150.54 203.587 149.86H205.567C205.047 151.82 203.547 153.3 200.867 153.3ZM200.807 144.08C199.167 144.08 197.967 145.2 197.847 146.88H203.647C203.647 145.28 202.547 144.08 200.807 144.08ZM207.341 153V142.8H209.301V144.08H209.341C209.881 143.3 210.941 142.5 212.701 142.5C214.581 142.5 216.101 143.58 216.101 145.92V153H214.121V146.46C214.121 145.1 213.521 144.18 212.061 144.18C210.381 144.18 209.301 145.2 209.301 146.74V153H207.341ZM216.792 142.8H218.892L221.552 150.98H221.592L224.212 142.8H226.272L222.632 153H220.432L216.792 142.8ZM231.589 153.3C228.349 153.3 226.549 151 226.549 147.88C226.549 144.68 228.469 142.48 231.589 142.48C234.689 142.48 236.429 144.52 236.429 147.68C236.429 147.96 236.429 148.26 236.409 148.42H228.569C228.609 150.14 229.609 151.7 231.629 151.7C233.429 151.7 234.109 150.54 234.309 149.86H236.289C235.769 151.82 234.269 153.3 231.589 153.3ZM231.529 144.08C229.889 144.08 228.689 145.2 228.569 146.88H234.369C234.369 145.28 233.269 144.08 231.529 144.08ZM238.063 153V142.8H240.023V144.08H240.063C240.603 143.3 241.663 142.5 243.423 142.5C245.303 142.5 246.823 143.58 246.823 145.92V153H244.843V146.46C244.843 145.1 244.243 144.18 242.783 144.18C241.103 144.18 240.023 145.2 240.023 146.74V153H238.063ZM250.881 149.32C250.881 150.7 251.481 151.62 252.941 151.62C254.621 151.62 255.701 150.6 255.701 149.06V142.8H257.661V153H255.701V151.72H255.661C255.121 152.5 254.061 153.28 252.301 153.28C250.421 153.28 248.901 152.2 248.901 149.86V142.8H250.881V149.32ZM264.343 153.3C261.103 153.3 259.303 151 259.303 147.88C259.303 144.68 261.223 142.48 264.343 142.48C267.443 142.48 269.183 144.52 269.183 147.68C269.183 147.96 269.183 148.26 269.163 148.42H261.323C261.363 150.14 262.363 151.7 264.383 151.7C266.183 151.7 266.863 150.54 267.063 149.86H269.043C268.523 151.82 267.023 153.3 264.343 153.3ZM264.283 144.08C262.643 144.08 261.443 145.2 261.323 146.88H267.123C267.123 145.28 266.023 144.08 264.283 144.08ZM282.351 146.5C282.271 145.44 281.671 144.12 279.791 144.12C277.631 144.12 276.831 145.98 276.831 147.9C276.831 149.82 277.631 151.66 279.791 151.66C281.671 151.66 282.271 150.38 282.351 149.22H284.391C284.251 151.56 282.411 153.3 279.811 153.3C276.771 153.3 274.791 151.1 274.791 147.9C274.791 144.7 276.771 142.5 279.791 142.5C282.411 142.5 284.151 144.2 284.391 146.5H282.351ZM292.734 146.46C292.734 145.1 292.134 144.18 290.674 144.18C288.994 144.18 287.914 145.2 287.914 146.74V153H285.954V138.7H287.914V144.08H287.954C288.494 143.3 289.554 142.5 291.314 142.5C293.194 142.5 294.714 143.58 294.714 145.92V153H292.734V146.46ZM301.296 153.3C298.056 153.3 296.256 151 296.256 147.88C296.256 144.68 298.176 142.48 301.296 142.48C304.396 142.48 306.136 144.52 306.136 147.68C306.136 147.96 306.136 148.26 306.116 148.42H298.276C298.316 150.14 299.316 151.7 301.336 151.7C303.136 151.7 303.816 150.54 304.016 149.86H305.996C305.476 151.82 303.976 153.3 301.296 153.3ZM301.236 144.08C299.596 144.08 298.396 145.2 298.276 146.88H304.076C304.076 145.28 302.976 144.08 301.236 144.08ZM307.037 151.54L312.617 144.46V144.42H307.397V142.8H315.277V144.06L309.557 151.34V151.38H315.497V153H307.037V151.54ZM325.52 153V140.6H320.9V138.7H332.36V140.6H327.74V153H325.52ZM335.378 153.3C332.138 153.3 330.338 151 330.338 147.88C330.338 144.68 332.258 142.48 335.378 142.48C338.478 142.48 340.218 144.52 340.218 147.68C340.218 147.96 340.218 148.26 340.198 148.42H332.358C332.398 150.14 333.398 151.7 335.418 151.7C337.218 151.7 337.898 150.54 338.098 149.86H340.078C339.558 151.82 338.058 153.3 335.378 153.3ZM335.318 144.08C333.678 144.08 332.478 145.2 332.358 146.88H338.158C338.158 145.28 337.058 144.08 335.318 144.08ZM349.113 144.04H349.153V138.7H351.133V153H349.153V151.8H349.113C348.573 152.52 347.573 153.28 345.973 153.28C343.373 153.28 341.413 151.26 341.413 147.9C341.413 144.54 343.373 142.5 345.973 142.5C347.573 142.5 348.573 143.24 349.113 144.04ZM346.293 151.66C348.053 151.66 349.153 150.2 349.153 147.9C349.153 145.58 348.053 144.14 346.293 144.14C344.373 144.14 343.452 145.9 343.452 147.9C343.452 149.9 344.373 151.66 346.293 151.66ZM356.401 152.9L352.261 142.8H354.401L357.381 150.6H357.421L360.241 142.8H362.281L358.261 153.24C357.261 155.76 356.281 156.58 354.701 156.58C354.261 156.58 353.961 156.54 353.441 156.44V154.84C353.781 154.88 353.961 154.9 354.281 154.9C355.081 154.9 355.981 154.5 356.401 152.9ZM363.615 138.7H365.775V142.58L365.275 149.1H364.135L363.615 142.58V138.7ZM363.615 150.82H365.795V153H363.615V150.82Z" fill="black"/>
<path d="M385.869 148.717C385.869 148.717 385.479 150.296 383.854 151.71C383.512 152.008 383.185 152.234 382.897 152.421C381.844 153.102 380.498 153.19 379.364 152.644C379.351 152.638 379.339 152.631 379.326 152.625C378.048 151.999 376.44 150.44 376.44 150.44L373.309 147.395C373.309 147.395 372.556 146.786 373.23 146.175C373.236 146.17 373.241 146.165 373.246 146.16C373.577 145.869 374.084 145.884 374.399 146.19L376.758 148.483C377.064 148.581 376.94 148.307 376.94 148.307L372.45 143.944C372.45 143.944 371.592 143.092 372.246 142.406C372.546 142.09 372.92 142.113 373.205 142.204C373.421 142.273 373.616 142.396 373.777 142.553L377.646 146.312C378.003 146.395 377.804 145.962 377.804 145.962L372.969 141.264C372.969 141.264 372.324 140.529 372.901 139.945C373.461 139.379 374.224 140.044 374.224 140.044C374.224 140.044 378.584 144.412 378.788 144.478C378.864 144.503 378.919 144.47 378.957 144.419C379.034 144.318 378.944 144.247 378.854 144.157L375.865 141.186C375.865 141.186 374.404 139.91 375.085 139.208C375.808 138.461 377.222 139.966 377.222 139.966L380.649 143.296C380.649 143.296 381.919 144.95 382.884 143.226C383.601 141.944 383.092 140.725 384.144 140.494C385.196 140.263 386.044 140.889 385.467 141.779C384.89 142.67 385.162 144.516 385.162 144.516C385.162 144.516 386.396 147.218 385.869 148.717Z" fill="#FAC130"/>
<path d="M379.648 141C378.963 140.028 378.28 139.352 377.827 138.957C377.336 138.528 377.003 138.327 377 138.325L377.228 138C377.285 138.034 378.636 138.852 380 140.789L379.648 141Z" fill="#6B6B6B"/>
<path d="M380.556 141C379.165 139.124 377.022 138.306 377 138.298L377.24 138C377.263 138.009 377.827 138.222 378.574 138.68C379.26 139.101 380.238 139.818 381 140.847L380.556 141Z" fill="#6B6B6B"/>
<path d="M374.772 151C374.715 150.966 373.364 150.148 372 148.211L372.352 148C373.037 148.972 373.72 149.648 374.173 150.043C374.664 150.472 374.997 150.673 375 150.674L374.772 151Z" fill="#6B6B6B"/>
<path d="M0 264H564V390C564 423.137 537.137 450 504 450H60C26.8629 450 0 423.137 0 390V264Z" fill="url(#paint0_linear_2806_1641)"/>
<defs>
<linearGradient id="paint0_linear_2806_1641" x1="282" y1="264" x2="282" y2="450" gradientUnits="userSpaceOnUse">
<stop stop-color="#EDD9FF" stop-opacity="0"/>
<stop offset="0.59" stop-color="#EDD9FF"/>
</linearGradient>
</defs>
</svg>
