<svg width="34" height="34" viewBox="0 0 34 34" fill="none" xmlns="http://www.w3.org/2000/svg">
<path d="M27.2585 12.5243C27.0699 12.8548 26.6524 12.9681 26.3263 12.7773C25.999 12.5862 25.8876 12.1632 26.0762 11.8327L29.7638 5.36059L28.6004 4.68017L24.9128 11.1523C24.7242 11.4827 24.3075 11.5961 23.981 11.4053C23.6541 11.2142 23.5426 10.7916 23.7309 10.4607L27.4184 3.98898L26.2554 3.30856L22.5679 9.78031C22.3792 10.1111 21.9625 10.2245 21.6353 10.0333C21.3088 9.84256 21.1969 9.41955 21.3852 9.08912L25.0727 2.61657L24.0196 2L19.3427 10.2085C18.3006 12.0375 18.6204 14.283 19.9807 15.7452L16.5996 21.679L6.28567 3.57713C5.99265 3.06273 5.34478 2.88714 4.83751 3.18445C4.00454 3.67171 3.44607 4.4519 3.17708 5.50305C1.8581 10.6639 8.31593 21.7832 9.05674 23.0339L9.59355 23.9402L13.9782 21.3749L15.3755 23.8276L11.2949 30.9894C10.9295 31.6307 11.1469 32.45 11.7794 32.8199C12.4119 33.1903 13.2204 32.9712 13.5859 32.3295L16.9029 26.5078L20.2954 32.462C20.588 32.976 21.2367 33.1524 21.7444 32.8554C22.2516 32.5589 22.4253 31.9013 22.1319 31.3881L18.1269 24.3592L22.2721 17.0845C24.2015 17.5482 26.2806 16.7062 27.3231 14.8769L32 6.66874L30.9465 6.05258L27.2585 12.5243Z" fill="#64D71E"/>
</svg>
