<svg width="144" height="96" viewBox="0 0 144 96" fill="none" xmlns="http://www.w3.org/2000/svg">
<path d="M39.2179 46.1483C39.2179 43.3797 39.2179 42.8701 39.1814 42.2874C39.1444 41.668 38.9974 41.3775 38.3939 41.2501C38.2464 41.2128 37.9358 41.1947 37.6783 41.1947C37.4777 41.1947 37.3672 41.1594 37.3672 41.0315C37.3672 40.9036 37.4949 40.8674 37.7701 40.8674C38.741 40.8674 39.8964 40.9223 40.4093 40.9223C40.9768 40.9223 42.1313 40.8674 43.2299 40.8674C45.522 40.8674 48.5818 40.8674 50.579 42.9436C51.4957 43.8898 52.3567 45.402 52.3567 47.5684C52.3567 49.8622 51.3852 51.6121 50.3585 52.6495C49.5173 53.5056 47.6109 54.7982 44.2201 54.7982C43.5598 54.7982 42.8098 54.7439 42.1135 54.6885C41.4162 54.6351 40.7757 54.5792 40.3165 54.5792C40.1154 54.5792 39.713 54.5792 39.2726 54.5978C38.851 54.5978 38.3751 54.6351 38.0087 54.6351C37.7701 54.6351 37.6419 54.5797 37.6419 54.4518C37.6419 54.3606 37.7153 54.3062 37.9358 54.3062C38.2094 54.3062 38.4289 54.2695 38.5956 54.2342C38.9615 54.1597 39.0527 53.7594 39.1267 53.2316C39.2179 52.4672 39.2179 51.028 39.2179 49.3536V46.1483ZM41.5084 48.1516C41.5084 50.0823 41.5262 51.4837 41.5449 51.8297C41.5627 52.2849 41.6002 53.0131 41.7461 53.2145C41.9843 53.5594 42.6998 53.9432 44.1461 53.9432C46.0161 53.9432 47.2627 53.5781 48.3619 52.6304C49.5345 51.6303 49.9009 49.9715 49.9009 48.0967C49.9009 45.7853 48.9305 44.2912 48.1419 43.5439C46.4554 41.9415 44.3666 41.7229 42.9375 41.7229C42.5706 41.7229 41.8931 41.7773 41.7466 41.8498C41.5814 41.9239 41.5262 42.0145 41.5262 42.2144C41.5079 42.8338 41.5079 44.4186 41.5079 45.8558V48.1521L41.5084 48.1516ZM56.4229 48.6264C56.3302 48.6264 56.3125 48.6451 56.276 48.7347L55.4211 50.7994C55.2564 51.1791 55.1834 51.5598 55.1834 51.74C55.1834 52.012 55.3293 52.1736 55.8219 52.1736H56.0581C56.2582 52.1736 56.2947 52.2461 56.2947 52.3378C56.2947 52.4627 56.2035 52.5014 56.0398 52.5014C55.5108 52.5014 54.7648 52.446 54.2545 52.446C54.0913 52.446 53.2349 52.5014 52.3967 52.5014C52.196 52.5014 52.1053 52.4627 52.1053 52.3378C52.1053 52.2461 52.1595 52.1736 52.2878 52.1736C52.4327 52.1736 52.6151 52.1555 52.7616 52.1555C53.4898 52.0482 53.7629 51.5774 54.0913 50.7999L58.2802 41.1161C58.4626 40.6815 58.5893 40.4998 58.754 40.4998C58.9897 40.4998 59.0632 40.6458 59.2263 40.9882C59.6094 41.8393 62.2867 48.139 63.3073 50.473C63.9265 51.8669 64.3816 52.0663 64.673 52.1197C64.9092 52.1555 65.0921 52.1736 65.274 52.1736C65.42 52.1736 65.4929 52.228 65.4929 52.3378C65.4929 52.4627 65.4017 52.5014 64.8002 52.5014C64.2357 52.5014 63.0706 52.5014 61.7221 52.4627C61.4313 52.446 61.2488 52.446 61.2488 52.3378C61.2488 52.2461 61.2858 52.1927 61.4495 52.1736C61.5585 52.1555 61.6674 52.0115 61.5944 51.8302L60.3569 48.7347C60.3199 48.6451 60.2657 48.6264 60.1922 48.6264H56.4229ZM59.8456 47.7764C59.9196 47.7764 59.9368 47.7396 59.9196 47.6858L58.4074 43.777C58.3892 43.7226 58.3709 43.6305 58.3344 43.6305C58.2802 43.6305 58.2615 43.7226 58.2432 43.777L56.6946 47.6676C56.6591 47.7391 56.6946 47.7764 56.7503 47.7764H59.8456Z" fill="#95989D"/>
<path d="M68.2429 50.4012C68.2793 51.5957 68.4795 51.9572 68.7886 52.0665C69.0623 52.1556 69.3714 52.1738 69.6268 52.1738C69.8092 52.1738 69.9005 52.2468 69.9005 52.3379C69.9005 52.4628 69.7535 52.5016 69.5356 52.5016C68.4983 52.5016 67.7518 52.4462 67.4589 52.4462C67.3134 52.4462 66.5482 52.5016 65.7288 52.5016C65.5109 52.5016 65.3655 52.4825 65.3655 52.3379C65.3655 52.2468 65.4739 52.1738 65.6188 52.1738C65.8383 52.1738 66.1302 52.1556 66.3486 52.1023C66.7672 51.994 66.8219 51.5775 66.8401 50.2385L66.9861 41.1168C66.9861 40.8081 67.095 40.5905 67.2592 40.5905C67.4589 40.5905 67.6773 40.8262 67.9515 41.0976C68.1511 41.2966 70.5552 43.7409 72.8873 46.0025C73.9809 47.0705 76.1113 49.2425 76.3475 49.4585H76.421L76.2563 42.6179C76.238 41.6768 76.0921 41.4048 75.709 41.2608C75.4728 41.1702 75.0907 41.1702 74.8718 41.1702C74.6716 41.1702 74.6174 41.0976 74.6174 41.008C74.6174 40.8811 74.7806 40.862 75.0177 40.862C75.8549 40.862 76.7113 40.8982 77.0575 40.8982C77.2394 40.8982 77.8399 40.8625 78.6234 40.8625C78.8418 40.8625 78.9882 40.8811 78.9882 41.008C78.9882 41.0976 78.897 41.1697 78.7146 41.1697C78.5519 41.1697 78.4237 41.1697 78.223 41.224C77.7867 41.3514 77.6595 41.6234 77.6402 42.492L77.4583 52.1934C77.4583 52.5368 77.3306 52.6814 77.2029 52.6814C76.9303 52.6814 76.7113 52.5187 76.5487 52.355C75.5453 51.432 73.5426 49.533 71.8662 47.9216C70.1179 46.2563 68.4243 44.3915 68.1146 44.1206H68.0599L68.2429 50.4012ZM82.5599 45.3156C82.5599 42.98 82.5599 42.5459 82.5421 42.057C82.5056 41.5332 82.3415 41.3509 81.9953 41.2427C81.8139 41.1873 81.6127 41.1697 81.4126 41.1697C81.2484 41.1697 81.1582 41.1344 81.1582 40.9884C81.1582 40.8982 81.2849 40.8625 81.5403 40.8625C82.1413 40.8625 83.2339 40.8982 83.6899 40.8982C84.0898 40.8982 85.1276 40.863 85.7474 40.863C85.9481 40.863 86.0753 40.8982 86.0753 40.9889C86.0753 41.1349 85.9846 41.1697 85.8204 41.1697C85.6572 41.1697 85.5285 41.1878 85.346 41.224C84.9097 41.2966 84.7825 41.5136 84.7455 42.057C84.709 42.5464 84.709 42.98 84.709 45.3151V48.0303C84.709 49.5144 84.709 50.7446 84.7825 51.3962C84.8368 51.8127 84.9462 52.0484 85.42 52.1204C85.6384 52.1556 86.0028 52.1743 86.2395 52.1743C86.4219 52.1743 86.4944 52.2649 86.4944 52.3379C86.4944 52.4462 86.3667 52.5016 86.1847 52.5016C85.1276 52.5016 84.0361 52.4462 83.5987 52.4462C83.2339 52.4462 82.1413 52.5016 81.5038 52.5016C81.3031 52.5016 81.1942 52.4462 81.1942 52.3379C81.1942 52.2649 81.2484 52.1743 81.4491 52.1743C81.6857 52.1743 81.8676 52.1561 82.0136 52.1204C82.3415 52.0484 82.4332 51.8303 82.4874 51.3781C82.5599 50.7446 82.5599 49.5144 82.5599 48.0303V45.3156ZM89.9738 45.3156C89.9738 42.98 89.9738 42.5459 89.9555 42.057C89.9201 41.5332 89.7731 41.3691 89.2638 41.224C89.1361 41.1878 88.8635 41.1697 88.6253 41.1697C88.4621 41.1697 88.3532 41.1163 88.3532 41.0075C88.3532 40.8982 88.4809 40.8625 88.7175 40.8625C89.5552 40.8625 90.5748 40.8982 91.0299 40.8982C91.5402 40.8982 95.0921 40.9169 95.4022 40.8982C95.6926 40.8811 95.9475 40.8262 96.0752 40.8076C96.1664 40.7905 96.2576 40.7361 96.3306 40.7361C96.4218 40.7361 96.439 40.8081 96.439 40.8811C96.439 40.9884 96.3488 41.1697 96.3124 41.8762C96.2941 42.0398 96.2581 42.7086 96.2206 42.8894C96.2029 42.9619 96.1664 43.1427 96.0392 43.1427C95.9298 43.1427 95.9125 43.0711 95.9125 42.9442C95.9125 42.8355 95.8938 42.5641 95.8015 42.3818C95.6749 42.1118 95.5471 41.8938 94.7455 41.8213C94.4718 41.7855 92.5603 41.7493 92.2319 41.7493C92.1595 41.7493 92.123 41.8042 92.123 41.8938V45.6958C92.123 45.7854 92.1412 45.8574 92.2319 45.8574C92.5963 45.8574 94.673 45.8574 95.0373 45.8212C95.42 45.7854 95.6561 45.7492 95.8015 45.586C95.9298 45.4772 95.985 45.3871 96.0569 45.3871C96.1299 45.3871 96.1847 45.4601 96.1847 45.5492C96.1847 45.6409 96.1482 45.8942 96.0569 46.6732C96.0215 47.0158 95.9975 47.3594 95.985 47.7035C95.985 47.8314 95.9662 48.0495 95.8208 48.0495C95.7113 48.0495 95.6749 47.9926 95.6749 47.9216C95.6561 47.7584 95.6561 47.5595 95.6191 47.3581C95.5284 47.0519 95.3287 46.8162 94.7282 46.7629C94.4358 46.7266 92.6145 46.6908 92.2137 46.6908C92.1412 46.6908 92.123 46.7629 92.123 46.853V48.0837C92.123 48.6105 92.1052 49.9127 92.123 50.3659C92.1595 51.4134 92.651 51.65 94.2904 51.65C94.71 51.65 95.3835 51.6319 95.8015 51.4506C96.2029 51.2698 96.3853 50.9445 96.4943 50.3105C96.5298 50.1479 96.5668 50.0759 96.6767 50.0759C96.8039 50.0759 96.8217 50.2758 96.8217 50.4374C96.8217 50.7824 96.695 51.8308 96.6037 52.139C96.4943 52.5368 96.3488 52.5368 95.7483 52.5368C94.5453 52.5368 93.5804 52.5192 92.7964 52.483C92.0145 52.4638 91.413 52.4467 90.9387 52.4467C90.7562 52.4467 90.4116 52.4638 90.029 52.4638C89.6459 52.483 89.2456 52.5021 88.9177 52.5021C88.7175 52.5021 88.6076 52.4467 88.6076 52.3384C88.6076 52.2654 88.6633 52.1748 88.8635 52.1748C89.0996 52.1748 89.281 52.1566 89.4275 52.1209C89.7554 52.0489 89.8461 51.7583 89.9008 51.3066C89.9738 50.655 89.9738 49.4414 89.9738 48.0309V45.3156ZM102.252 48.0298C102.252 50.0039 102.252 50.9798 102.597 51.2693C102.87 51.506 103.489 51.5952 104.728 51.5952C105.584 51.5952 106.204 51.5775 106.604 51.1601C106.805 50.9617 106.969 50.5276 107.006 50.238C107.023 50.0935 107.059 50.0034 107.187 50.0034C107.296 50.0034 107.332 50.1655 107.332 50.3468C107.332 50.5271 107.223 51.6682 107.096 52.1204C106.986 52.4628 106.914 52.5363 106.076 52.5363C104.929 52.5363 103.999 52.5187 103.197 52.4825C102.398 52.4628 101.723 52.4462 101.066 52.4462C100.885 52.4462 100.539 52.4628 100.157 52.4628C99.7746 52.4825 99.3732 52.5011 99.0458 52.5011C98.8446 52.5011 98.7362 52.4462 98.7362 52.3379C98.7362 52.2649 98.7904 52.1738 98.9906 52.1738C99.2267 52.1738 99.4097 52.1556 99.5556 52.1204C99.8835 52.0484 99.9747 51.7578 100.029 51.3061C100.101 50.6545 100.101 49.4409 100.101 48.0298V45.3156C100.101 42.9805 100.101 42.5459 100.084 42.0564C100.047 41.5327 99.9017 41.3691 99.3919 41.224C99.2637 41.1878 99.0636 41.1702 98.8634 41.1702C98.681 41.1702 98.5897 41.1168 98.5897 41.0075C98.5897 40.8987 98.6992 40.8625 98.9354 40.8625C99.6828 40.8625 100.703 40.8987 101.139 40.8987C101.523 40.8987 102.833 40.8625 103.453 40.8625C103.69 40.8625 103.799 40.8987 103.799 41.0075C103.799 41.1168 103.708 41.1702 103.508 41.1702C103.325 41.1702 103.071 41.1873 102.889 41.224C102.452 41.2971 102.323 41.5141 102.288 42.0564C102.252 42.5459 102.252 42.9805 102.252 45.3151V48.0298ZM52.9077 63.4941C52.9077 64.9273 52.9077 65.7008 53.1439 65.9022C53.3365 66.0709 53.6294 66.1495 54.5086 66.1495C55.1066 66.1495 55.5465 66.1379 55.8287 65.8347C55.963 65.6897 56.0988 65.3755 56.1206 65.1625C56.1318 65.0617 56.1551 64.9953 56.2448 64.9953C56.3243 64.9953 56.336 65.0507 56.336 65.1856C56.336 65.3095 56.2564 66.1495 56.1662 66.4738C56.0988 66.7205 56.0421 66.7769 55.4568 66.7769C54.6444 66.7769 54.0581 66.7548 53.5503 66.7427C53.092 66.7213 52.6333 66.7102 52.1745 66.7094C52.0508 66.7094 51.802 66.7094 51.5324 66.721C51.2724 66.721 50.98 66.7427 50.754 66.7427C50.6071 66.7427 50.528 66.7094 50.528 66.6304C50.528 66.5755 50.5736 66.5417 50.7089 66.5417C50.8782 66.5417 51.013 66.5191 51.1143 66.4974C51.3403 66.4521 51.3966 66.2054 51.4417 65.8806C51.4984 65.4097 51.4984 64.5244 51.4984 63.4936V61.5216C51.4984 59.818 51.4984 59.5048 51.4761 59.1452C51.4528 58.7645 51.3631 58.5863 50.9907 58.5077C50.8686 58.4824 50.7439 58.4711 50.6192 58.474C50.4951 58.474 50.4277 58.4518 50.4277 58.3723C50.4277 58.2942 50.5062 58.2715 50.6755 58.2715C51.2045 58.2715 51.9155 58.3048 52.2201 58.3048C52.4902 58.3048 53.3137 58.272 53.7535 58.272C53.9116 58.272 53.9902 58.2942 53.9902 58.3728C53.9902 58.4518 53.9228 58.4735 53.7875 58.4735C53.6638 58.4735 53.4834 58.4846 53.3466 58.5077C53.0431 58.5636 52.9529 58.7535 52.93 59.1452C52.9077 59.5053 52.9077 59.818 52.9077 61.5221V63.4941ZM59.6213 63.3234C59.5651 63.3234 59.5544 63.335 59.5316 63.3904L59.001 64.671C58.8997 64.9061 58.8541 65.1418 58.8541 65.2541C58.8541 65.4223 58.9438 65.5225 59.2483 65.5225H59.3953C59.52 65.5225 59.5423 65.5678 59.5423 65.6242C59.5423 65.7018 59.4865 65.7249 59.3842 65.7249C59.0568 65.7249 58.5951 65.6917 58.2784 65.6917C58.1771 65.6917 57.646 65.7254 57.126 65.7254C57.0024 65.7254 56.9461 65.7018 56.9461 65.6247C56.9461 65.5673 56.9801 65.5225 57.0591 65.5225C57.1493 65.5225 57.2618 65.5114 57.352 65.5114C57.8036 65.445 57.9738 65.1524 58.1771 64.6705L60.7732 58.6679C60.8867 58.3984 60.9658 58.2851 61.0671 58.2851C61.2141 58.2851 61.2587 58.3758 61.36 58.5888C61.5977 59.116 63.2563 63.0218 63.8898 64.468C64.2734 65.3327 64.5551 65.456 64.7361 65.4893C64.883 65.5114 64.996 65.5225 65.109 65.5225C65.1992 65.5225 65.2443 65.5562 65.2443 65.6242C65.2443 65.7018 65.1876 65.7249 64.8151 65.7249C64.4655 65.7249 63.7433 65.7249 62.9072 65.7018C62.7262 65.6917 62.6137 65.6917 62.6137 65.6242C62.6137 65.5673 62.636 65.5346 62.7384 65.5225C62.8053 65.5114 62.8732 65.4218 62.8281 65.3095L62.0604 63.3909C62.0381 63.335 62.0041 63.3234 61.959 63.3234H59.6213ZM61.7447 62.7972C61.7892 62.7972 61.8004 62.774 61.7892 62.7403L60.8517 60.3176C60.8406 60.2838 60.8299 60.2269 60.8071 60.2269C60.7732 60.2269 60.762 60.2833 60.7514 60.3176L59.7906 62.7297C59.7683 62.774 59.7906 62.7972 59.8245 62.7972H61.7447ZM66.3293 61.2708C66.3293 59.8236 66.3293 59.5541 66.3172 59.2515C66.2954 58.9262 66.2052 58.8245 65.8889 58.7348C65.8099 58.7122 65.6406 58.7016 65.4937 58.7016C65.3913 58.7016 65.3244 58.6679 65.3244 58.6009C65.3244 58.5334 65.4035 58.5102 65.5499 58.5102C66.0688 58.5102 66.7013 58.5334 66.9841 58.5334C67.3905 58.5334 68.18 58.5107 68.632 58.5107C69.8741 58.5107 70.3261 58.9146 70.4838 59.0496C70.6986 59.251 70.9804 59.6775 70.9804 60.1942C70.9804 61.5397 69.8969 62.5051 68.4851 62.5051C68.4395 62.5051 68.2368 62.5051 68.1912 62.494C68.1354 62.494 68.0675 62.4598 68.0675 62.3933C68.0675 62.3142 68.1805 62.2694 68.3954 62.2694C68.9483 62.2694 69.7272 61.6969 69.7272 60.7219C69.7272 60.4072 69.6937 59.7787 69.1398 59.3074C68.779 58.9937 68.3721 58.9488 68.1466 58.9488C68.0006 58.9488 67.808 58.9589 67.7178 58.9937C67.6611 59.0158 67.6388 59.0717 67.6388 59.1734V62.9538C67.6388 63.8285 67.6388 64.5808 67.6844 64.9958C67.7178 65.2647 67.7746 65.445 68.0675 65.4893C68.2145 65.5114 68.4288 65.5225 68.5753 65.5225C68.6888 65.5225 68.7334 65.5794 68.7334 65.6247C68.7334 65.6917 68.6543 65.7254 68.552 65.7254C67.8871 65.7254 67.1863 65.6917 66.9273 65.6917C66.7013 65.6917 66.0688 65.7254 65.6741 65.7254C65.5499 65.7254 65.4825 65.6917 65.4825 65.6247C65.4825 65.5794 65.5165 65.5225 65.6401 65.5225C65.7871 65.5225 65.9001 65.5114 65.9913 65.4893C66.1935 65.445 66.2498 65.2647 66.2842 64.9847C66.3298 64.5808 66.3298 63.8285 66.3298 62.9538L66.3293 61.2708ZM71.9746 62.1128C71.9746 60.4858 73.1265 58.3763 76.1412 58.3763C78.6482 58.3763 80.2055 59.7561 80.2055 61.9436C80.2055 64.1316 78.6021 65.8488 76.0399 65.8488C73.1493 65.8488 71.9746 63.8063 71.9746 62.1128ZM78.7267 62.2916C78.7267 60.1821 77.4497 58.8809 75.8478 58.8809C74.7416 58.8809 73.4432 59.465 73.4432 61.8212C73.4432 63.7847 74.5718 65.3327 76.4453 65.3327C77.1461 65.3327 78.7267 65.0068 78.7267 62.2916ZM82.0582 61.2708C82.0582 59.8236 82.0582 59.5541 82.0465 59.2515C82.0247 58.9262 81.9229 58.8134 81.7085 58.7464C81.5908 58.7138 81.4689 58.6985 81.3467 58.7011C81.2453 58.7011 81.1896 58.6794 81.1896 58.5888C81.1896 58.5334 81.2681 58.5107 81.4268 58.5107C81.7987 58.5107 82.4768 58.5334 82.7585 58.5334C83.0078 58.5334 83.6499 58.5107 84.034 58.5107C84.1587 58.5107 84.2383 58.5334 84.2383 58.5888C84.2383 58.6794 84.182 58.7016 84.0796 58.7016C83.9773 58.7016 83.8987 58.7117 83.7857 58.7348C83.5146 58.7802 83.4371 58.9146 83.4133 59.251C83.391 59.5541 83.391 59.8236 83.391 61.2708V62.9538C83.391 63.8743 83.391 64.6367 83.4366 65.0406C83.4695 65.2989 83.5379 65.445 83.8308 65.4893C83.9666 65.5114 84.1922 65.5225 84.3391 65.5225C84.4521 65.5225 84.4967 65.5789 84.4967 65.6247C84.4967 65.6917 84.4187 65.7254 84.3052 65.7254C83.6499 65.7254 82.9734 65.6917 82.7013 65.6917C82.4768 65.6917 81.7992 65.7254 81.404 65.7254C81.2793 65.7254 81.2114 65.6917 81.2114 65.6247C81.2114 65.5794 81.2453 65.5225 81.3695 65.5225C81.5159 65.5225 81.6295 65.5114 81.7192 65.4893C81.9229 65.445 81.9791 65.3095 82.0136 65.029C82.0582 64.6367 82.0582 63.8743 82.0582 62.9538V61.2708ZM87.2758 64.4237C87.2981 65.164 87.4217 65.3886 87.6138 65.456C87.7841 65.5114 87.9756 65.523 88.1327 65.523C88.2462 65.523 88.3025 65.5678 88.3025 65.6242C88.3025 65.7018 88.2123 65.7254 88.077 65.7254C87.4334 65.7254 86.9707 65.6912 86.7898 65.6912C86.6996 65.6912 86.2258 65.7254 85.7175 65.7254C85.5822 65.7254 85.4915 65.7139 85.4915 65.6242C85.4915 65.5678 85.5589 65.523 85.6496 65.523C85.7839 65.523 85.9653 65.5119 86.1006 65.4777C86.3601 65.4112 86.3945 65.1529 86.4067 64.3225L86.4964 58.6674C86.4964 58.477 86.5638 58.3415 86.6657 58.3415C86.7898 58.3415 86.9251 58.4881 87.0939 58.6563C87.2185 58.7797 88.7089 60.2949 90.1547 61.6969C90.8322 62.3586 92.1529 63.7051 92.2993 63.8391H92.3449L92.2431 59.599C92.2314 59.0153 92.1407 58.8471 91.9045 58.757C91.7576 58.7011 91.5209 58.7011 91.3851 58.7011C91.261 58.7011 91.2265 58.6558 91.2265 58.6004C91.2265 58.5223 91.3289 58.5107 91.4748 58.5107C91.9948 58.5107 92.5248 58.5329 92.7397 58.5329C92.8527 58.5329 93.2257 58.5107 93.7106 58.5107C93.846 58.5107 93.9367 58.5223 93.9367 58.6009C93.9367 58.6563 93.8799 58.7011 93.7674 58.7011C93.6655 58.7011 93.586 58.7011 93.4613 58.7348C93.1917 58.8134 93.1117 58.9821 93.101 59.5204L92.988 65.5346C92.988 65.7476 92.9095 65.8367 92.8299 65.8367C92.6606 65.8367 92.5248 65.736 92.4235 65.6353C91.4485 64.7274 90.4814 63.8112 89.5223 62.8868C88.4378 61.8545 87.3873 60.6983 87.1962 60.5301H87.1623L87.2758 64.4237ZM97.4713 59.0944L95.9921 59.1281C95.4164 59.1387 95.1797 59.2062 95.0323 59.4197C94.9584 59.5179 94.9016 59.6277 94.864 59.7445C94.8402 59.8236 94.8184 59.8689 94.7505 59.8689C94.6831 59.8689 94.6603 59.812 94.6603 59.7113C94.6603 59.5541 94.8529 58.6346 94.8742 58.5556C94.897 58.4322 94.9314 58.3763 94.9882 58.3763C95.0667 58.3763 95.1686 58.4548 95.4164 58.4881C95.7108 58.5218 96.0833 58.5334 96.4097 58.5334H100.44C100.667 58.5359 100.894 58.5207 101.118 58.4881C101.277 58.4659 101.356 58.4433 101.39 58.4433C101.457 58.4433 101.468 58.4992 101.468 58.6452C101.468 58.8471 101.446 59.5541 101.446 59.8004C101.435 59.9011 101.412 59.9585 101.356 59.9585C101.277 59.9585 101.254 59.9127 101.243 59.7672L101.231 59.6664C101.209 59.4197 100.95 59.1281 100.058 59.116L98.8041 59.0944V62.9538C98.8041 63.828 98.8153 64.5813 98.8604 64.9963C98.8938 65.2652 98.9511 65.4445 99.2445 65.4893C99.3798 65.5114 99.6063 65.5225 99.7523 65.5225C99.8658 65.5225 99.9104 65.5789 99.9104 65.6242C99.9104 65.6917 99.8313 65.7249 99.7183 65.7249C99.0646 65.7249 98.3972 65.6917 98.1154 65.6917C97.8894 65.6917 97.2119 65.7254 96.8171 65.7254C96.6924 65.7254 96.6245 65.6917 96.6245 65.6247C96.6245 65.5794 96.659 65.5225 96.7826 65.5225C96.9296 65.5225 97.0543 65.5114 97.1333 65.4893C97.336 65.445 97.3928 65.2652 97.4267 64.9847C97.4713 64.5813 97.4713 63.828 97.4713 62.9538V59.0944ZM103.298 61.2708C103.298 59.8236 103.298 59.5541 103.286 59.2515C103.264 58.9262 103.174 58.8245 102.858 58.7348C102.779 58.7122 102.61 58.7016 102.462 58.7016C102.361 58.7016 102.293 58.6679 102.293 58.6009C102.293 58.5334 102.373 58.5102 102.519 58.5102C103.039 58.5102 103.671 58.5334 103.953 58.5334C104.27 58.5334 106.472 58.5445 106.663 58.5334C106.843 58.5223 107.002 58.4881 107.081 58.477C107.137 58.4664 107.194 58.4322 107.239 58.4322C107.295 58.4322 107.306 58.477 107.306 58.5223C107.306 58.5888 107.25 58.7016 107.228 59.1392C107.216 59.2399 107.194 59.6549 107.171 59.7672C107.159 59.8125 107.137 59.9243 107.058 59.9243C106.99 59.9243 106.979 59.88 106.979 59.8009C106.979 59.7334 106.968 59.5647 106.911 59.4529C106.832 59.2852 106.753 59.1498 106.256 59.1055C106.087 59.0828 104.902 59.0601 104.699 59.0601C104.653 59.0601 104.631 59.0944 104.631 59.1498V61.5065C104.631 61.5624 104.641 61.6072 104.699 61.6072C104.924 61.6072 106.211 61.6072 106.437 61.5841C106.674 61.5624 106.822 61.5397 106.911 61.439C106.99 61.371 107.024 61.3151 107.07 61.3151C107.114 61.3151 107.148 61.361 107.148 61.4159C107.148 61.4728 107.126 61.6299 107.07 62.1128C107.047 62.3251 107.032 62.538 107.024 62.7513C107.024 62.8304 107.013 62.9654 106.922 62.9654C106.855 62.9654 106.832 62.9301 106.832 62.8863C106.822 62.7851 106.822 62.6622 106.799 62.5378C106.743 62.3475 106.618 62.2009 106.245 62.1687C106.065 62.1455 104.935 62.1244 104.688 62.1244C104.642 62.1244 104.631 62.1687 104.631 62.2241V62.987C104.631 63.3133 104.62 64.1201 104.631 64.401C104.653 65.0507 104.958 65.1972 105.974 65.1972C106.234 65.1972 106.653 65.1861 106.911 65.0733C107.159 64.9615 107.273 64.7601 107.34 64.3668C107.363 64.2661 107.386 64.2218 107.454 64.2218C107.532 64.2218 107.543 64.3457 107.543 64.4454C107.543 64.6594 107.465 65.3095 107.409 65.5004C107.34 65.7471 107.25 65.7471 106.877 65.7471C106.132 65.7471 105.534 65.736 105.048 65.7139C104.563 65.7018 104.19 65.6917 103.898 65.6917C103.784 65.6917 103.569 65.7018 103.332 65.7018C103.094 65.7139 102.847 65.7254 102.644 65.7254C102.519 65.7254 102.451 65.6917 102.451 65.6247C102.451 65.5794 102.486 65.5225 102.609 65.5225C102.756 65.5225 102.869 65.5114 102.959 65.4893C103.163 65.4445 103.22 65.2647 103.253 64.9842C103.298 64.5808 103.298 63.828 103.298 62.9533V61.2713V61.2708ZM37.4551 29.1211H39.7244C40.3391 29.1211 40.895 29.1463 41.2522 29.2611C41.9754 29.4928 42.2658 30.0618 42.2658 30.6157C42.2658 30.929 42.1832 31.1193 42.1578 31.1767C41.8923 31.7709 41.3267 31.8868 41.0115 31.9532C41.3688 32.0106 41.8426 32.0852 42.1669 32.4482C42.3742 32.6713 42.4908 32.9936 42.4908 33.3235C42.4908 33.7777 42.2501 34.4137 41.5178 34.736C41.0784 34.9258 40.6046 34.95 39.9316 34.95H37.4551V29.1211ZM38.8512 30.2114V31.425H39.9565C40.2884 31.4169 40.8281 31.3998 40.8281 30.797C40.8281 30.236 40.3386 30.2114 40.0558 30.2114H38.8512ZM38.8512 32.4815V33.893H39.8728C40.3634 33.8854 41.0029 33.8683 41.0029 33.2001C41.0029 32.4981 40.4212 32.49 40.1227 32.4815H38.8512ZM43.4708 29.1211H46.1131C46.7268 29.1297 47.4915 29.1377 48.0312 29.7153C48.3058 30.0215 48.4974 30.4838 48.4974 31.0121C48.4974 32.1844 47.6917 32.4734 47.2923 32.622L48.6469 34.95H47.0263L45.8638 32.8697H44.941V34.95H43.4708V29.1211ZM44.9404 30.2114V31.7876H46.1546C46.3624 31.7795 47.0354 31.7634 47.0354 30.9869C47.0354 30.2441 46.4952 30.2189 46.1876 30.2114H44.9404ZM53.116 29.1216L55.2764 34.95H53.7145L53.4236 34.0174H51.2633L50.9724 34.95H49.4101L51.5871 29.1216H53.116ZM52.327 30.5085C52.2525 30.8056 52.1689 31.1113 52.0858 31.4079C51.9611 31.846 51.7371 32.5308 51.6044 32.9689H53.0912L52.327 30.5085ZM56.6968 33.2001C56.8458 33.3648 56.9715 33.4972 57.2618 33.6538C57.6526 33.8603 58.0509 33.9343 58.3919 33.9343C58.9732 33.9343 59.4718 33.6624 59.4718 33.258C59.4718 32.7952 58.882 32.7212 58.4507 32.6638C58.1264 32.6215 57.802 32.5807 57.4858 32.5147C57.1291 32.4402 55.9073 32.1844 55.9073 30.9295C55.9073 29.4268 57.2537 28.9811 58.2673 28.9811C59.6213 28.9811 60.3526 29.6333 60.8593 30.0875L59.7794 30.8549C59.5965 30.6737 59.4298 30.5165 59.1977 30.3846C58.9899 30.2688 58.6164 30.1288 58.2419 30.1288C57.6607 30.1288 57.3698 30.4586 57.3698 30.7396C57.3698 31.1853 57.8679 31.2518 58.1178 31.2845C58.7411 31.3585 59.5798 31.5156 59.9117 31.6315C60.5852 31.8792 60.9252 32.3989 60.9252 33.0601C60.9252 33.4806 60.7681 33.9429 60.4605 34.2979C59.9284 34.9087 59.0811 35.0824 58.2586 35.0824C56.6051 35.0824 55.9488 34.3226 55.5829 33.9016L56.6968 33.2001ZM62.5869 33.2001C62.7369 33.3648 62.8616 33.4972 63.1519 33.6538C63.5426 33.8603 63.941 33.9343 64.282 33.9343C64.8633 33.9343 65.3614 33.6624 65.3614 33.258C65.3614 32.7952 64.7725 32.7212 64.3398 32.6638C64.016 32.6215 63.6921 32.5807 63.3764 32.5147C63.0192 32.4402 61.7979 32.1844 61.7979 30.9295C61.7979 29.4268 63.1433 28.9811 64.1573 28.9811C65.5114 28.9811 66.2432 29.6333 66.7499 30.0875L65.6695 30.8549C65.4861 30.6737 65.3209 30.5165 65.0878 30.3846C64.88 30.2688 64.5065 30.1288 64.132 30.1288C63.5513 30.1288 63.2604 30.4586 63.2604 30.7396C63.2604 31.1853 63.7585 31.2518 64.0078 31.2845C64.6307 31.3585 65.4699 31.5156 65.8028 31.6315C66.4753 31.8792 66.8163 32.3989 66.8163 33.0601C66.8163 33.4806 66.6582 33.9429 66.3506 34.2979C65.8185 34.9087 64.9712 35.0824 64.1492 35.0824C62.4957 35.0824 61.8394 34.3226 61.4735 33.9016L62.5869 33.2001ZM67.8207 29.1211H72.1576V30.2527H69.2832V31.3092H71.9665V32.4155H69.2832V33.8029H72.415V34.95H67.8207V29.1211ZM73.5284 29.1211H76.1701C76.7853 29.1297 77.5495 29.1377 78.0897 29.7153C78.3644 30.0215 78.5554 30.4838 78.5554 31.0121C78.5554 32.1844 77.7492 32.4734 77.3509 32.622L78.7049 34.95H77.0843L75.9213 32.8697H74.999V34.95H73.5284V29.1211ZM74.999 30.2114V31.7876H76.2117C76.42 31.7795 77.0929 31.7634 77.0929 30.9869C77.0929 30.2441 76.5522 30.2189 76.2446 30.2114H74.999ZM79.7595 29.1216H81.2215V34.95H79.7595V29.1216ZM82.7165 29.1211H87.0543V30.2527H84.179V31.3092H86.8628V32.4155H84.179V33.8029H87.3108V34.95H82.7165V29.1211Z" fill="#95989D"/>
</svg>
