<svg width="564" height="450" viewBox="0 0 564 450" fill="none" xmlns="http://www.w3.org/2000/svg">
<rect width="564" height="450" fill="#EDD9FF"/>
<path d="M72 100C72 88.9543 80.9543 80 92 80H472C483.046 80 492 88.9543 492 100V450H72V100Z" fill="#FDFDFD"/>
<path d="M191.534 148.14C191.534 151.22 189.874 153.28 185.934 153.28C181.994 153.28 180.334 151.22 180.334 148.14V138.7H182.554V148.14C182.554 150.36 183.654 151.38 185.934 151.38C188.214 151.38 189.314 150.36 189.314 148.14V138.7H191.534V148.14ZM192.917 142.8H194.397V139.52H196.357V142.8H198.317V144.42H196.357V150.18C196.357 151.26 196.657 151.5 197.497 151.5C197.817 151.5 197.977 151.48 198.337 151.42V153C197.817 153.1 197.517 153.12 197.077 153.12C195.417 153.12 194.397 152.48 194.397 150.12V144.42H192.917V142.8ZM199.941 138.86H202.161V140.98H199.941V138.86ZM200.081 142.8H202.041V153H200.081V142.8ZM204.3 138.7H206.26V153H204.3V138.7ZM208.3 138.86H210.52V140.98H208.3V138.86ZM208.44 142.8H210.4V153H208.44V142.8ZM216.864 146.84C218.724 147.28 220.764 147.82 220.764 150.1C220.764 152.08 219.244 153.28 216.564 153.28C213.464 153.28 211.924 151.68 211.864 149.6H213.844C213.944 150.78 214.644 151.7 216.544 151.7C218.264 151.7 218.724 150.94 218.724 150.2C218.724 148.92 217.364 148.78 216.044 148.5C214.264 148.1 212.224 147.56 212.224 145.44C212.224 143.68 213.644 142.5 216.124 142.5C218.904 142.5 220.244 144 220.384 145.76H218.404C218.264 144.98 217.864 144.08 216.144 144.08C214.844 144.08 214.264 144.6 214.264 145.36C214.264 146.42 215.404 146.5 216.864 146.84ZM225.246 153.28C223.206 153.28 221.906 152.1 221.906 150.36C221.906 148.08 223.626 147.42 226.166 146.92C227.766 146.62 228.746 146.42 228.746 145.42C228.746 144.68 228.306 144.06 226.806 144.06C225.026 144.06 224.486 144.62 224.386 145.98H222.386C222.486 144.02 223.766 142.48 226.886 142.48C228.986 142.48 230.666 143.36 230.666 146V150.68C230.666 151.42 230.766 151.8 231.146 151.8C231.206 151.8 231.266 151.8 231.386 151.78V152.98C231.046 153.06 230.706 153.1 230.386 153.1C229.426 153.1 228.886 152.72 228.786 151.56H228.746C228.066 152.62 226.906 153.28 225.246 153.28ZM225.686 151.7C227.446 151.7 228.746 150.8 228.746 149.02V147.56C228.426 147.86 227.546 148.08 226.506 148.3C224.706 148.68 223.966 149.16 223.966 150.22C223.966 151.18 224.466 151.7 225.686 151.7ZM231.784 142.8H233.264V139.52H235.224V142.8H237.184V144.42H235.224V150.18C235.224 151.26 235.524 151.5 236.364 151.5C236.684 151.5 236.844 151.48 237.204 151.42V153C236.684 153.1 236.384 153.12 235.944 153.12C234.284 153.12 233.264 152.48 233.264 150.12V144.42H231.784V142.8ZM238.808 138.86H241.028V140.98H238.808V138.86ZM238.948 142.8H240.908V153H238.948V142.8ZM247.632 153.3C244.452 153.3 242.532 151.1 242.532 147.9C242.532 144.72 244.452 142.48 247.632 142.48C250.812 142.48 252.732 144.7 252.732 147.88C252.732 151.08 250.812 153.3 247.632 153.3ZM247.632 151.68C249.712 151.68 250.692 150.02 250.692 147.9C250.692 145.76 249.712 144.12 247.632 144.12C245.532 144.12 244.572 145.76 244.572 147.9C244.572 150.02 245.532 151.68 247.632 151.68ZM254.358 153V142.8H256.318V144.08H256.358C256.898 143.3 257.958 142.5 259.718 142.5C261.598 142.5 263.118 143.58 263.118 145.92V153H261.138V146.46C261.138 145.1 260.538 144.18 259.078 144.18C257.398 144.18 256.318 145.2 256.318 146.74V153H254.358ZM271.515 151.74H271.475V156.54H269.515V142.8H271.475V144H271.515C272.075 143.28 273.055 142.5 274.655 142.5C277.255 142.5 279.235 144.54 279.235 147.9C279.235 151.26 277.255 153.28 274.655 153.28C273.055 153.28 272.075 152.56 271.515 151.74ZM274.335 144.14C272.575 144.14 271.495 145.58 271.495 147.9C271.495 150.2 272.575 151.66 274.335 151.66C276.255 151.66 277.175 149.9 277.175 147.9C277.175 145.9 276.255 144.14 274.335 144.14ZM283.742 153.28C281.702 153.28 280.402 152.1 280.402 150.36C280.402 148.08 282.122 147.42 284.662 146.92C286.262 146.62 287.242 146.42 287.242 145.42C287.242 144.68 286.802 144.06 285.302 144.06C283.522 144.06 282.982 144.62 282.882 145.98H280.882C280.982 144.02 282.262 142.48 285.382 142.48C287.482 142.48 289.162 143.36 289.162 146V150.68C289.162 151.42 289.262 151.8 289.642 151.8C289.702 151.8 289.762 151.8 289.882 151.78V152.98C289.542 153.06 289.202 153.1 288.882 153.1C287.922 153.1 287.382 152.72 287.282 151.56H287.242C286.562 152.62 285.402 153.28 283.742 153.28ZM284.182 151.7C285.942 151.7 287.242 150.8 287.242 149.02V147.56C286.922 147.86 286.042 148.08 285.002 148.3C283.202 148.68 282.462 149.16 282.462 150.22C282.462 151.18 282.962 151.7 284.182 151.7ZM291.468 142.8H293.428V144.74H293.468C293.988 143.46 294.828 142.56 296.208 142.56C296.568 142.56 296.848 142.58 297.148 142.62V144.5C296.888 144.46 296.708 144.44 296.488 144.44C294.708 144.44 293.428 145.78 293.428 147.72V153H291.468V142.8ZM310.111 146.5C310.031 145.44 309.431 144.12 307.551 144.12C305.391 144.12 304.591 145.98 304.591 147.9C304.591 149.82 305.391 151.66 307.551 151.66C309.431 151.66 310.031 150.38 310.111 149.22H312.151C312.011 151.56 310.171 153.3 307.571 153.3C304.531 153.3 302.551 151.1 302.551 147.9C302.551 144.7 304.531 142.5 307.551 142.5C310.171 142.5 311.911 144.2 312.151 146.5H310.111ZM316.594 153.28C314.554 153.28 313.254 152.1 313.254 150.36C313.254 148.08 314.974 147.42 317.514 146.92C319.114 146.62 320.094 146.42 320.094 145.42C320.094 144.68 319.654 144.06 318.154 144.06C316.374 144.06 315.834 144.62 315.734 145.98H313.734C313.834 144.02 315.114 142.48 318.234 142.48C320.334 142.48 322.014 143.36 322.014 146V150.68C322.014 151.42 322.114 151.8 322.494 151.8C322.554 151.8 322.614 151.8 322.734 151.78V152.98C322.394 153.06 322.054 153.1 321.734 153.1C320.774 153.1 320.234 152.72 320.134 151.56H320.094C319.414 152.62 318.254 153.28 316.594 153.28ZM317.034 151.7C318.794 151.7 320.094 150.8 320.094 149.02V147.56C319.774 147.86 318.894 148.08 317.854 148.3C316.054 148.68 315.314 149.16 315.314 150.22C315.314 151.18 315.814 151.7 317.034 151.7ZM323.131 142.8H324.611V139.52H326.571V142.8H328.531V144.42H326.571V150.18C326.571 151.26 326.871 151.5 327.711 151.5C328.031 151.5 328.191 151.48 328.551 151.42V153C328.031 153.1 327.731 153.12 327.291 153.12C325.631 153.12 324.611 152.48 324.611 150.12V144.42H323.131V142.8ZM334.587 138.46H336.887L334.967 141.22H333.407L334.587 138.46ZM334.447 153.3C331.207 153.3 329.407 151 329.407 147.88C329.407 144.68 331.327 142.48 334.447 142.48C337.547 142.48 339.287 144.52 339.287 147.68C339.287 147.96 339.287 148.26 339.267 148.42H331.427C331.467 150.14 332.467 151.7 334.487 151.7C336.287 151.7 336.967 150.54 337.167 149.86H339.147C338.627 151.82 337.127 153.3 334.447 153.3ZM334.387 144.08C332.747 144.08 331.547 145.2 331.427 146.88H337.227C337.227 145.28 336.127 144.08 334.387 144.08ZM348.161 152.32V150.94H348.121C347.561 151.76 346.621 152.48 344.981 152.48C342.441 152.48 340.481 150.76 340.481 147.5C340.481 144.22 342.441 142.5 344.981 142.5C346.621 142.5 347.561 143.28 348.121 144H348.161V142.8H350.121V152.2C350.121 155.28 348.261 156.66 345.341 156.66C342.421 156.66 340.961 155.26 340.761 153.42H342.781C342.981 154.34 343.681 155.06 345.341 155.06C347.201 155.06 348.161 154.24 348.161 152.32ZM345.341 144.14C343.421 144.14 342.521 145.58 342.521 147.5C342.521 149.42 343.421 150.86 345.341 150.86C347.101 150.86 348.141 149.72 348.141 147.5C348.141 145.26 347.101 144.14 345.341 144.14ZM356.87 153.3C353.69 153.3 351.77 151.1 351.77 147.9C351.77 144.72 353.69 142.48 356.87 142.48C360.05 142.48 361.97 144.7 361.97 147.88C361.97 151.08 360.05 153.3 356.87 153.3ZM356.87 151.68C358.95 151.68 359.93 150.02 359.93 147.9C359.93 145.76 358.95 144.12 356.87 144.12C354.77 144.12 353.81 145.76 353.81 147.9C353.81 150.02 354.77 151.68 356.87 151.68ZM363.597 142.8H365.557V144.74H365.597C366.117 143.46 366.957 142.56 368.337 142.56C368.697 142.56 368.977 142.58 369.277 142.62V144.5C369.017 144.46 368.837 144.44 368.617 144.44C366.837 144.44 365.557 145.78 365.557 147.72V153H363.597V142.8ZM370.488 138.86H372.708V140.98H370.488V138.86ZM370.628 142.8H372.588V153H370.628V142.8ZM379.251 153.3C376.011 153.3 374.211 151 374.211 147.88C374.211 144.68 376.131 142.48 379.251 142.48C382.351 142.48 384.091 144.52 384.091 147.68C384.091 147.96 384.091 148.26 384.071 148.42H376.231C376.271 150.14 377.271 151.7 379.291 151.7C381.091 151.7 381.771 150.54 381.971 149.86H383.951C383.431 151.82 381.931 153.3 379.251 153.3ZM379.191 144.08C377.551 144.08 376.351 145.2 376.231 146.88H382.031C382.031 145.28 380.931 144.08 379.191 144.08Z" fill="black"/>
<path d="M182.072 313.564V332.141C216.321 330.095 243.734 302.683 245.782 268.434H227.202C225.223 292.442 206.083 311.584 182.072 313.564Z" fill="#8800FF"/>
<path d="M173.837 215.068V196.491C158.173 197.428 143.94 203.671 132.908 213.445L146.046 226.583C153.676 220.126 163.286 215.938 173.837 215.068Z" fill="#64D71E"/>
<path d="M227.202 260.198H245.782C243.734 225.949 216.321 198.536 182.072 196.491V215.068C206.083 217.048 225.223 236.19 227.202 260.198Z" fill="#01B8C7"/>
<path d="M128.533 264.315C128.533 252.149 132.929 241.013 140.219 232.403L127.083 219.268C116.458 231.26 110 247.031 110 264.315C110 300.462 138.225 330.013 173.836 332.14V313.563C148.469 311.471 128.533 290.223 128.533 264.315Z" fill="#FFB800"/>
<path d="M298.768 218V209.42H302.032C304.408 209.42 305.848 210.956 305.848 213.716C305.848 216.476 304.432 218 302.056 218H298.768ZM300.088 210.56V216.86H301.972C303.964 216.86 304.48 215.372 304.48 213.716C304.48 212.06 303.964 210.56 301.972 210.56H300.088ZM306.895 209.516H308.227V210.788H306.895V209.516ZM306.979 211.88H308.155V218H306.979V211.88ZM308.83 211.88H310.09L311.686 216.788H311.71L313.282 211.88H314.518L312.334 218H311.014L308.83 211.88ZM317.708 218.18C315.764 218.18 314.684 216.8 314.684 214.928C314.684 213.008 315.836 211.688 317.708 211.688C319.568 211.688 320.612 212.912 320.612 214.808C320.612 214.976 320.612 215.156 320.6 215.252H315.896C315.92 216.284 316.52 217.22 317.732 217.22C318.812 217.22 319.22 216.524 319.34 216.116H320.528C320.216 217.292 319.316 218.18 317.708 218.18ZM317.672 212.648C316.688 212.648 315.968 213.32 315.896 214.328H319.376C319.376 213.368 318.716 212.648 317.672 212.648ZM321.593 211.88H322.769V213.044H322.793C323.105 212.276 323.609 211.736 324.437 211.736C324.653 211.736 324.821 211.748 325.001 211.772V212.9C324.845 212.876 324.737 212.864 324.605 212.864C323.537 212.864 322.769 213.668 322.769 214.832V218H321.593V211.88ZM325.556 211.88H326.444V209.912H327.62V211.88H328.796V212.852H327.62V216.308C327.62 216.956 327.8 217.1 328.304 217.1C328.496 217.1 328.592 217.088 328.808 217.052V218C328.496 218.06 328.316 218.072 328.052 218.072C327.056 218.072 326.444 217.688 326.444 216.272V212.852H325.556V211.88ZM329.77 209.516H331.102V210.788H329.77V209.516ZM329.854 211.88H331.03V218H329.854V211.88ZM334.909 214.304C336.025 214.568 337.249 214.892 337.249 216.26C337.249 217.448 336.337 218.168 334.729 218.168C332.869 218.168 331.945 217.208 331.909 215.96H333.097C333.157 216.668 333.577 217.22 334.717 217.22C335.749 217.22 336.025 216.764 336.025 216.32C336.025 215.552 335.209 215.468 334.417 215.3C333.349 215.06 332.125 214.736 332.125 213.464C332.125 212.408 332.977 211.7 334.465 211.7C336.133 211.7 336.937 212.6 337.021 213.656H335.833C335.749 213.188 335.509 212.648 334.477 212.648C333.697 212.648 333.349 212.96 333.349 213.416C333.349 214.052 334.033 214.1 334.909 214.304ZM340.803 214.304C341.919 214.568 343.143 214.892 343.143 216.26C343.143 217.448 342.231 218.168 340.623 218.168C338.763 218.168 337.839 217.208 337.803 215.96H338.991C339.051 216.668 339.471 217.22 340.611 217.22C341.643 217.22 341.919 216.764 341.919 216.32C341.919 215.552 341.103 215.468 340.311 215.3C339.243 215.06 338.019 214.736 338.019 213.464C338.019 212.408 338.871 211.7 340.359 211.7C342.027 211.7 342.831 212.6 342.915 213.656H341.727C341.643 213.188 341.403 212.648 340.371 212.648C339.591 212.648 339.243 212.96 339.243 213.416C339.243 214.052 339.927 214.1 340.803 214.304ZM346.759 218.18C344.815 218.18 343.735 216.8 343.735 214.928C343.735 213.008 344.887 211.688 346.759 211.688C348.619 211.688 349.663 212.912 349.663 214.808C349.663 214.976 349.663 215.156 349.651 215.252H344.947C344.971 216.284 345.571 217.22 346.783 217.22C347.863 217.22 348.271 216.524 348.391 216.116H349.579C349.267 217.292 348.367 218.18 346.759 218.18ZM346.723 212.648C345.739 212.648 345.019 213.32 344.947 214.328H348.427C348.427 213.368 347.767 212.648 346.723 212.648ZM350.644 218V211.88H351.82V212.648H351.844C352.168 212.18 352.732 211.7 353.656 211.7C354.508 211.7 355.024 212.084 355.276 212.768H355.3C355.744 212.18 356.356 211.7 357.304 211.7C358.54 211.7 359.164 212.444 359.164 213.752V218H357.988V214.076C357.988 213.26 357.82 212.708 356.92 212.708C356.044 212.708 355.492 213.32 355.492 214.244V218H354.316V214.076C354.316 213.26 354.148 212.708 353.248 212.708C352.372 212.708 351.82 213.32 351.82 214.244V218H350.644ZM363.118 218.18C361.174 218.18 360.094 216.8 360.094 214.928C360.094 213.008 361.246 211.688 363.118 211.688C364.978 211.688 366.022 212.912 366.022 214.808C366.022 214.976 366.022 215.156 366.01 215.252H361.306C361.33 216.284 361.93 217.22 363.142 217.22C364.222 217.22 364.63 216.524 364.75 216.116H365.938C365.626 217.292 364.726 218.18 363.118 218.18ZM363.082 212.648C362.098 212.648 361.378 213.32 361.306 214.328H364.786C364.786 213.368 364.126 212.648 363.082 212.648ZM367.003 218V211.88H368.179V212.648H368.203C368.527 212.18 369.163 211.7 370.219 211.7C371.347 211.7 372.259 212.348 372.259 213.752V218H371.071V214.076C371.071 213.26 370.711 212.708 369.835 212.708C368.827 212.708 368.179 213.32 368.179 214.244V218H367.003ZM372.923 211.88H373.811V209.912H374.987V211.88H376.163V212.852H374.987V216.308C374.987 216.956 375.167 217.1 375.671 217.1C375.863 217.1 375.959 217.088 376.175 217.052V218C375.863 218.06 375.683 218.072 375.419 218.072C374.423 218.072 373.811 217.688 373.811 216.272V212.852H372.923V211.88Z" fill="black"/>
<path d="M298.144 247.42H299.608L301.876 254.608H301.9L304.156 247.42H305.548L302.596 256H301.168L298.144 247.42ZM306.192 247.516H307.524V248.788H306.192V247.516ZM306.276 249.88H307.452V256H306.276V249.88ZM311.45 256.18C309.506 256.18 308.426 254.8 308.426 252.928C308.426 251.008 309.578 249.688 311.45 249.688C313.31 249.688 314.354 250.912 314.354 252.808C314.354 252.976 314.354 253.156 314.342 253.252H309.638C309.662 254.284 310.262 255.22 311.474 255.22C312.554 255.22 312.962 254.524 313.082 254.116H314.27C313.958 255.292 313.058 256.18 311.45 256.18ZM311.414 250.648C310.43 250.648 309.71 251.32 309.638 252.328H313.118C313.118 251.368 312.458 250.648 311.414 250.648ZM319.711 256.168C318.487 256.168 317.707 255.46 317.707 254.416C317.707 253.048 318.739 252.652 320.263 252.352C321.223 252.172 321.811 252.052 321.811 251.452C321.811 251.008 321.547 250.636 320.647 250.636C319.579 250.636 319.255 250.972 319.195 251.788H317.995C318.055 250.612 318.823 249.688 320.695 249.688C321.955 249.688 322.963 250.216 322.963 251.8V254.608C322.963 255.052 323.023 255.28 323.251 255.28C323.287 255.28 323.323 255.28 323.395 255.268V255.988C323.191 256.036 322.987 256.06 322.795 256.06C322.219 256.06 321.895 255.832 321.835 255.136H321.811C321.403 255.772 320.707 256.168 319.711 256.168ZM319.975 255.22C321.031 255.22 321.811 254.68 321.811 253.612V252.736C321.619 252.916 321.091 253.048 320.467 253.18C319.387 253.408 318.943 253.696 318.943 254.332C318.943 254.908 319.243 255.22 319.975 255.22ZM328.537 252.1C328.489 251.464 328.129 250.672 327.001 250.672C325.705 250.672 325.225 251.788 325.225 252.94C325.225 254.092 325.705 255.196 327.001 255.196C328.129 255.196 328.489 254.428 328.537 253.732H329.761C329.677 255.136 328.573 256.18 327.013 256.18C325.189 256.18 324.001 254.86 324.001 252.94C324.001 251.02 325.189 249.7 327.001 249.7C328.573 249.7 329.617 250.72 329.761 252.1H328.537ZM330.161 249.88H331.049V247.912H332.225V249.88H333.401V250.852H332.225V254.308C332.225 254.956 332.405 255.1 332.909 255.1C333.101 255.1 333.197 255.088 333.413 255.052V256C333.101 256.06 332.921 256.072 332.657 256.072C331.661 256.072 331.049 255.688 331.049 254.272V250.852H330.161V249.88ZM334.376 247.516H335.708V248.788H334.376V247.516ZM334.46 249.88H335.636V256H334.46V249.88ZM336.31 249.88H337.57L339.166 254.788H339.19L340.762 249.88H341.998L339.814 256H338.494L336.31 249.88ZM345.189 256.18C343.245 256.18 342.165 254.8 342.165 252.928C342.165 251.008 343.317 249.688 345.189 249.688C347.049 249.688 348.093 250.912 348.093 252.808C348.093 252.976 348.093 253.156 348.081 253.252H343.377C343.401 254.284 344.001 255.22 345.213 255.22C346.293 255.22 346.701 254.524 346.821 254.116H348.009C347.697 255.292 346.797 256.18 345.189 256.18ZM345.153 250.648C344.169 250.648 343.449 251.32 343.377 252.328H346.857C346.857 251.368 346.197 250.648 345.153 250.648Z" fill="black"/>
<path d="M302.008 288.96C303.664 289.38 305.224 289.776 305.224 291.588C305.224 293.064 304.216 294.168 302.08 294.168C299.908 294.168 298.372 293.04 298.288 291.108H299.656C299.752 292.26 300.436 293.04 302.044 293.04C303.412 293.04 303.844 292.44 303.844 291.66C303.844 290.568 303.004 290.412 301.444 290.016C300.1 289.668 298.624 289.224 298.624 287.592C298.624 286.104 299.776 285.252 301.624 285.252C303.58 285.252 304.852 286.248 304.984 287.976H303.604C303.472 286.944 302.884 286.38 301.624 286.38C300.556 286.38 299.992 286.776 299.992 287.52C299.992 288.48 300.904 288.684 302.008 288.96ZM308.966 294.18C307.022 294.18 305.942 292.8 305.942 290.928C305.942 289.008 307.094 287.688 308.966 287.688C310.826 287.688 311.87 288.912 311.87 290.808C311.87 290.976 311.87 291.156 311.858 291.252H307.154C307.178 292.284 307.778 293.22 308.99 293.22C310.07 293.22 310.478 292.524 310.598 292.116H311.786C311.474 293.292 310.574 294.18 308.966 294.18ZM308.93 288.648C307.946 288.648 307.226 289.32 307.154 290.328H310.634C310.634 289.368 309.974 288.648 308.93 288.648ZM312.851 287.88H314.027V289.044H314.051C314.363 288.276 314.867 287.736 315.695 287.736C315.911 287.736 316.079 287.748 316.259 287.772V288.9C316.103 288.876 315.995 288.864 315.863 288.864C314.795 288.864 314.027 289.668 314.027 290.832V294H312.851V287.88ZM316.564 287.88H317.824L319.42 292.788H319.444L321.016 287.88H322.252L320.068 294H318.748L316.564 287.88ZM322.856 285.516H324.188V286.788H322.856V285.516ZM322.94 287.88H324.116V294H322.94V287.88ZM329.626 290.1C329.578 289.464 329.218 288.672 328.09 288.672C326.794 288.672 326.314 289.788 326.314 290.94C326.314 292.092 326.794 293.196 328.09 293.196C329.218 293.196 329.578 292.428 329.626 291.732H330.85C330.766 293.136 329.662 294.18 328.102 294.18C326.278 294.18 325.09 292.86 325.09 290.94C325.09 289.02 326.278 287.7 328.09 287.7C329.662 287.7 330.706 288.72 330.85 290.1H329.626ZM334.548 294.18C332.604 294.18 331.524 292.8 331.524 290.928C331.524 289.008 332.676 287.688 334.548 287.688C336.408 287.688 337.452 288.912 337.452 290.808C337.452 290.976 337.452 291.156 337.44 291.252H332.736C332.76 292.284 333.36 293.22 334.572 293.22C335.652 293.22 336.06 292.524 336.18 292.116H337.368C337.056 293.292 336.156 294.18 334.548 294.18ZM334.512 288.648C333.528 288.648 332.808 289.32 332.736 290.328H336.216C336.216 289.368 335.556 288.648 334.512 288.648ZM342.809 294.168C341.585 294.168 340.805 293.46 340.805 292.416C340.805 291.048 341.837 290.652 343.361 290.352C344.321 290.172 344.909 290.052 344.909 289.452C344.909 289.008 344.645 288.636 343.745 288.636C342.677 288.636 342.353 288.972 342.293 289.788H341.093C341.153 288.612 341.921 287.688 343.793 287.688C345.053 287.688 346.061 288.216 346.061 289.8V292.608C346.061 293.052 346.121 293.28 346.349 293.28C346.385 293.28 346.421 293.28 346.493 293.268V293.988C346.289 294.036 346.085 294.06 345.893 294.06C345.317 294.06 344.993 293.832 344.933 293.136H344.909C344.501 293.772 343.805 294.168 342.809 294.168ZM343.073 293.22C344.129 293.22 344.909 292.68 344.909 291.612V290.736C344.717 290.916 344.189 291.048 343.565 291.18C342.485 291.408 342.041 291.696 342.041 292.332C342.041 292.908 342.341 293.22 343.073 293.22ZM348.455 291.792C348.455 292.62 348.815 293.172 349.691 293.172C350.699 293.172 351.347 292.56 351.347 291.636V287.88H352.523V294H351.347V293.232H351.323C350.999 293.7 350.363 294.168 349.307 294.168C348.179 294.168 347.267 293.52 347.267 292.116V287.88H348.455V291.792ZM353.364 287.88H354.252V285.912H355.428V287.88H356.604V288.852H355.428V292.308C355.428 292.956 355.608 293.1 356.112 293.1C356.304 293.1 356.4 293.088 356.616 293.052V294C356.304 294.06 356.124 294.072 355.86 294.072C354.864 294.072 354.252 293.688 354.252 292.272V288.852H353.364V287.88ZM360.19 294.18C358.282 294.18 357.13 292.86 357.13 290.94C357.13 289.032 358.282 287.688 360.19 287.688C362.098 287.688 363.25 289.02 363.25 290.928C363.25 292.848 362.098 294.18 360.19 294.18ZM360.19 293.208C361.438 293.208 362.026 292.212 362.026 290.94C362.026 289.656 361.438 288.672 360.19 288.672C358.93 288.672 358.354 289.656 358.354 290.94C358.354 292.212 358.93 293.208 360.19 293.208ZM364.226 294V287.88H365.402V288.648H365.426C365.75 288.18 366.314 287.7 367.238 287.7C368.09 287.7 368.606 288.084 368.858 288.768H368.882C369.326 288.18 369.938 287.7 370.886 287.7C372.122 287.7 372.746 288.444 372.746 289.752V294H371.57V290.076C371.57 289.26 371.402 288.708 370.502 288.708C369.626 288.708 369.074 289.32 369.074 290.244V294H367.898V290.076C367.898 289.26 367.73 288.708 366.83 288.708C365.954 288.708 365.402 289.32 365.402 290.244V294H364.226ZM376.736 294.18C374.828 294.18 373.676 292.86 373.676 290.94C373.676 289.032 374.828 287.688 376.736 287.688C378.644 287.688 379.796 289.02 379.796 290.928C379.796 292.848 378.644 294.18 376.736 294.18ZM376.736 293.208C377.984 293.208 378.572 292.212 378.572 290.94C378.572 289.656 377.984 288.672 376.736 288.672C375.476 288.672 374.9 289.656 374.9 290.94C374.9 292.212 375.476 293.208 376.736 293.208ZM381.972 293.244H381.948V294H380.772V285.42H381.948V288.6H381.972C382.308 288.168 382.896 287.7 383.856 287.7C385.416 287.7 386.604 288.924 386.604 290.94C386.604 292.956 385.416 294.168 383.856 294.168C382.896 294.168 382.308 293.736 381.972 293.244ZM383.664 288.684C382.608 288.684 381.96 289.548 381.96 290.94C381.96 292.32 382.608 293.196 383.664 293.196C384.816 293.196 385.368 292.14 385.368 290.94C385.368 289.74 384.816 288.684 383.664 288.684ZM387.497 285.516H388.829V286.788H387.497V285.516ZM387.581 287.88H388.757V294H387.581V287.88ZM390.112 285.42H391.288V294H390.112V285.42ZM395.286 294.18C393.342 294.18 392.262 292.8 392.262 290.928C392.262 289.008 393.414 287.688 395.286 287.688C397.146 287.688 398.19 288.912 398.19 290.808C398.19 290.976 398.19 291.156 398.178 291.252H393.474C393.498 292.284 394.098 293.22 395.31 293.22C396.39 293.22 396.798 292.524 396.918 292.116H398.106C397.794 293.292 396.894 294.18 395.286 294.18ZM395.25 288.648C394.266 288.648 393.546 289.32 393.474 290.328H396.954C396.954 289.368 396.294 288.648 395.25 288.648Z" fill="black"/>
<path d="M301.024 332V324.56H298.252V323.42H305.128V324.56H302.356V332H301.024ZM307.023 323.276H308.403L307.251 324.932H306.315L307.023 323.276ZM306.939 332.18C304.995 332.18 303.915 330.8 303.915 328.928C303.915 327.008 305.067 325.688 306.939 325.688C308.799 325.688 309.843 326.912 309.843 328.808C309.843 328.976 309.843 329.156 309.831 329.252H305.127C305.151 330.284 305.751 331.22 306.963 331.22C308.043 331.22 308.451 330.524 308.571 330.116H309.759C309.447 331.292 308.547 332.18 306.939 332.18ZM306.903 326.648C305.919 326.648 305.199 327.32 305.127 328.328H308.607C308.607 327.368 307.947 326.648 306.903 326.648ZM310.823 323.42H311.999V332H310.823V323.42ZM316.081 323.276H317.461L316.309 324.932H315.373L316.081 323.276ZM315.997 332.18C314.053 332.18 312.973 330.8 312.973 328.928C312.973 327.008 314.125 325.688 315.997 325.688C317.857 325.688 318.901 326.912 318.901 328.808C318.901 328.976 318.901 329.156 318.889 329.252H314.185C314.209 330.284 314.809 331.22 316.021 331.22C317.101 331.22 317.509 330.524 317.629 330.116H318.817C318.505 331.292 317.605 332.18 315.997 332.18ZM315.961 326.648C314.977 326.648 314.257 327.32 314.185 328.328H317.665C317.665 327.368 317.005 326.648 315.961 326.648ZM319.345 325.88H320.233V323.912H321.409V325.88H322.585V326.852H321.409V330.308C321.409 330.956 321.589 331.1 322.093 331.1C322.285 331.1 322.381 331.088 322.597 331.052V332C322.285 332.06 322.105 332.072 321.841 332.072C320.845 332.072 320.233 331.688 320.233 330.272V326.852H319.345V325.88ZM323.585 325.88H324.761V327.044H324.785C325.097 326.276 325.601 325.736 326.429 325.736C326.645 325.736 326.813 325.748 326.993 325.772V326.9C326.837 326.876 326.729 326.864 326.597 326.864C325.529 326.864 324.761 327.668 324.761 328.832V332H323.585V325.88ZM329.192 332.168C327.968 332.168 327.188 331.46 327.188 330.416C327.188 329.048 328.22 328.652 329.744 328.352C330.704 328.172 331.292 328.052 331.292 327.452C331.292 327.008 331.028 326.636 330.128 326.636C329.06 326.636 328.736 326.972 328.676 327.788H327.476C327.536 326.612 328.304 325.688 330.176 325.688C331.436 325.688 332.444 326.216 332.444 327.8V330.608C332.444 331.052 332.504 331.28 332.732 331.28C332.768 331.28 332.804 331.28 332.876 331.268V331.988C332.672 332.036 332.468 332.06 332.276 332.06C331.7 332.06 331.376 331.832 331.316 331.136H331.292C330.884 331.772 330.188 332.168 329.192 332.168ZM329.456 331.22C330.512 331.22 331.292 330.68 331.292 329.612V328.736C331.1 328.916 330.572 329.048 329.948 329.18C328.868 329.408 328.424 329.696 328.424 330.332C328.424 330.908 328.724 331.22 329.456 331.22ZM332.877 325.88H334.137L335.733 330.788H335.757L337.329 325.88H338.565L336.381 332H335.061L332.877 325.88ZM340.618 332.168C339.394 332.168 338.614 331.46 338.614 330.416C338.614 329.048 339.646 328.652 341.17 328.352C342.13 328.172 342.718 328.052 342.718 327.452C342.718 327.008 342.454 326.636 341.554 326.636C340.486 326.636 340.162 326.972 340.102 327.788H338.902C338.962 326.612 339.73 325.688 341.602 325.688C342.862 325.688 343.87 326.216 343.87 327.8V330.608C343.87 331.052 343.93 331.28 344.158 331.28C344.194 331.28 344.23 331.28 344.302 331.268V331.988C344.098 332.036 343.894 332.06 343.702 332.06C343.126 332.06 342.802 331.832 342.742 331.136H342.718C342.31 331.772 341.614 332.168 340.618 332.168ZM340.882 331.22C341.938 331.22 342.718 330.68 342.718 329.612V328.736C342.526 328.916 341.998 329.048 341.374 329.18C340.294 329.408 339.85 329.696 339.85 330.332C339.85 330.908 340.15 331.22 340.882 331.22ZM345.169 323.516H346.501V324.788H345.169V323.516ZM345.253 325.88H346.429V332H345.253V325.88ZM347.784 323.42H348.96V332H347.784V323.42Z" fill="black"/>
<path opacity="0.4" d="M414.884 212.636H413.564C413.564 210.872 414.512 209.54 416.612 209.54C418.112 209.54 419.336 210.44 419.336 212.024C419.336 213.632 418.028 214.448 416.828 215.192C416.024 215.672 415.256 216.128 415.016 216.86V216.884H419.24V218H413.348C413.348 216.44 414.296 215.372 415.88 214.376C417.284 213.524 417.98 213.176 417.98 212.072C417.98 211.388 417.716 210.656 416.576 210.656C415.28 210.656 414.884 211.496 414.884 212.636ZM423.731 212.42C425.303 212.42 426.395 213.584 426.395 215.168C426.395 217.004 425.075 218.168 423.371 218.168C421.391 218.168 420.311 216.968 420.263 215.576H421.583C421.667 216.332 422.111 217.052 423.299 217.052C424.355 217.052 425.051 216.404 425.051 215.168C425.051 214.004 424.415 213.476 423.383 213.476C422.711 213.476 422.099 213.704 421.703 214.22H420.371L421.259 209.708H425.975V210.824H422.255L421.799 213.116V213.14C422.231 212.696 422.843 212.42 423.731 212.42ZM428.724 213.608L428.748 213.62C429.18 212.924 429.948 212.528 430.884 212.528C432.504 212.528 433.62 213.656 433.62 215.288C433.62 216.896 432.492 218.168 430.644 218.168C428.28 218.168 427.428 216.404 427.428 213.872C427.428 211.148 428.616 209.54 430.668 209.54C432.228 209.54 433.236 210.572 433.392 211.808H432.048C431.952 211.124 431.544 210.62 430.668 210.62C429.12 210.62 428.748 212.06 428.724 213.488V213.608ZM430.62 217.088C431.7 217.088 432.3 216.404 432.3 215.36C432.3 214.268 431.664 213.62 430.692 213.62C429.564 213.62 428.868 214.34 428.868 215.384C428.868 216.392 429.492 217.088 430.62 217.088ZM434.587 216.692H435.895V218H434.587V216.692ZM440.109 218.168C438.309 218.168 436.929 217.34 436.929 215.66C436.929 214.52 437.673 213.944 438.465 213.596V213.572C437.877 213.26 437.337 212.732 437.337 211.796C437.337 210.368 438.501 209.54 440.109 209.54C441.717 209.54 442.881 210.368 442.881 211.796C442.881 212.732 442.329 213.26 441.753 213.572V213.596C442.533 213.944 443.289 214.52 443.289 215.66C443.289 217.34 441.909 218.168 440.109 218.168ZM440.109 213.08C441.045 213.08 441.597 212.684 441.597 211.844C441.597 211.016 441.045 210.596 440.109 210.596C439.173 210.596 438.621 211.016 438.621 211.844C438.621 212.684 439.173 213.08 440.109 213.08ZM440.109 217.088C441.261 217.088 441.945 216.536 441.945 215.588C441.945 214.664 441.261 214.112 440.109 214.112C438.957 214.112 438.273 214.664 438.273 215.588C438.273 216.536 438.957 217.088 440.109 217.088ZM443.876 209.708H449.696V210.704C447.812 212.276 446.468 215.348 446.468 218H445.1C445.1 215.252 446.804 212.156 448.28 210.848V210.824H443.876V209.708ZM455.945 219.212V218.144C454.277 217.976 453.017 217.004 452.933 215.264H454.157C454.241 216.308 454.841 216.944 455.945 217.088V214.22L455.921 214.208C454.673 213.872 453.269 213.356 453.269 211.916C453.269 210.56 454.301 209.672 455.945 209.612V208.76H456.665V209.648C458.129 209.816 459.149 210.728 459.245 212.288H458.021C457.913 211.388 457.445 210.872 456.665 210.716V213.26C458.309 213.74 459.461 214.172 459.461 215.828C459.461 217.088 458.525 218.096 456.665 218.168V219.212H455.945ZM454.493 211.796C454.493 212.504 455.081 212.78 455.945 213.044V210.668C455.057 210.716 454.493 211.124 454.493 211.796ZM458.225 215.864C458.225 215.072 457.721 214.748 456.665 214.424V217.124C457.817 217.064 458.225 216.56 458.225 215.864Z" fill="black"/>
<path opacity="0.4" d="M414.884 250.636H413.564C413.564 248.872 414.512 247.54 416.612 247.54C418.112 247.54 419.336 248.44 419.336 250.024C419.336 251.632 418.028 252.448 416.828 253.192C416.024 253.672 415.256 254.128 415.016 254.86V254.884H419.24V256H413.348C413.348 254.44 414.296 253.372 415.88 252.376C417.284 251.524 417.98 251.176 417.98 250.072C417.98 249.388 417.716 248.656 416.576 248.656C415.28 248.656 414.884 249.496 414.884 250.636ZM423.579 256.168C421.263 256.168 420.279 254.236 420.279 251.86C420.279 249.484 421.263 247.54 423.579 247.54C425.895 247.54 426.879 249.484 426.879 251.86C426.879 254.236 425.895 256.168 423.579 256.168ZM423.579 255.052C425.079 255.052 425.523 253.564 425.523 251.86C425.523 250.156 425.079 248.656 423.579 248.656C422.091 248.656 421.635 250.156 421.635 251.86C421.635 253.564 422.091 255.052 423.579 255.052ZM431.313 250.42C432.885 250.42 433.977 251.584 433.977 253.168C433.977 255.004 432.657 256.168 430.953 256.168C428.973 256.168 427.893 254.968 427.845 253.576H429.165C429.249 254.332 429.693 255.052 430.881 255.052C431.937 255.052 432.633 254.404 432.633 253.168C432.633 252.004 431.997 251.476 430.965 251.476C430.293 251.476 429.681 251.704 429.285 252.22H427.953L428.841 247.708H433.557V248.824H429.837L429.381 251.116V251.14C429.813 250.696 430.425 250.42 431.313 250.42ZM434.997 254.692H436.305V256H434.997V254.692ZM438.815 250.204H437.495C437.495 248.668 438.539 247.54 440.579 247.54C442.055 247.54 443.339 248.356 443.339 249.82C443.339 250.708 442.883 251.26 442.079 251.596V251.62C443.171 251.968 443.627 252.688 443.627 253.66C443.627 255.268 442.439 256.168 440.615 256.168C438.479 256.168 437.279 255.064 437.279 253.168H438.599C438.599 254.308 439.079 255.052 440.531 255.052C441.839 255.052 442.271 254.524 442.271 253.636C442.271 252.496 441.455 252.22 440.627 252.22H439.847V251.152H440.579C441.395 251.152 441.983 250.78 441.983 249.88C441.983 249.232 441.599 248.656 440.567 248.656C439.175 248.656 438.815 249.4 438.815 250.204ZM447.978 256.168C445.662 256.168 444.678 254.236 444.678 251.86C444.678 249.484 445.662 247.54 447.978 247.54C450.294 247.54 451.278 249.484 451.278 251.86C451.278 254.236 450.294 256.168 447.978 256.168ZM447.978 255.052C449.478 255.052 449.922 253.564 449.922 251.86C449.922 250.156 449.478 248.656 447.978 248.656C446.49 248.656 446.034 250.156 446.034 251.86C446.034 253.564 446.49 255.052 447.978 255.052ZM457.844 257.212V256.144C456.176 255.976 454.916 255.004 454.832 253.264H456.056C456.14 254.308 456.74 254.944 457.844 255.088V252.22L457.82 252.208C456.572 251.872 455.168 251.356 455.168 249.916C455.168 248.56 456.2 247.672 457.844 247.612V246.76H458.564V247.648C460.028 247.816 461.048 248.728 461.144 250.288H459.92C459.812 249.388 459.344 248.872 458.564 248.716V251.26C460.208 251.74 461.36 252.172 461.36 253.828C461.36 255.088 460.424 256.096 458.564 256.168V257.212H457.844ZM456.392 249.796C456.392 250.504 456.98 250.78 457.844 251.044V248.668C456.956 248.716 456.392 249.124 456.392 249.796ZM460.124 253.864C460.124 253.072 459.62 252.748 458.564 252.424V255.124C459.716 255.064 460.124 254.56 460.124 253.864Z" fill="black"/>
<path opacity="0.4" d="M415.412 285.708H416.444V294H415.148V287.844C414.8 288.18 414.152 288.24 413.408 288.24V287.184C414.872 287.148 415.316 286.704 415.412 285.708ZM419.173 288.636H417.853C417.853 286.872 418.801 285.54 420.901 285.54C422.401 285.54 423.625 286.44 423.625 288.024C423.625 289.632 422.317 290.448 421.117 291.192C420.313 291.672 419.545 292.128 419.305 292.86V292.884H423.529V294H417.637C417.637 292.44 418.585 291.372 420.169 290.376C421.573 289.524 422.269 289.176 422.269 288.072C422.269 287.388 422.005 286.656 420.865 286.656C419.569 286.656 419.173 287.496 419.173 288.636ZM429.422 294H428.114V292.104H424.178V290.904L428.114 285.708H429.422V290.988H430.574V292.104H429.422V294ZM428.114 287.376L425.366 290.988H428.114V287.376ZM431.435 292.692H432.743V294H431.435V292.692ZM436.904 294.168C434.588 294.168 433.604 292.236 433.604 289.86C433.604 287.484 434.588 285.54 436.904 285.54C439.22 285.54 440.204 287.484 440.204 289.86C440.204 292.236 439.22 294.168 436.904 294.168ZM436.904 293.052C438.404 293.052 438.848 291.564 438.848 289.86C438.848 288.156 438.404 286.656 436.904 286.656C435.416 286.656 434.96 288.156 434.96 289.86C434.96 291.564 435.416 293.052 436.904 293.052ZM444.685 294.168C442.369 294.168 441.385 292.236 441.385 289.86C441.385 287.484 442.369 285.54 444.685 285.54C447.001 285.54 447.985 287.484 447.985 289.86C447.985 292.236 447.001 294.168 444.685 294.168ZM444.685 293.052C446.185 293.052 446.629 291.564 446.629 289.86C446.629 288.156 446.185 286.656 444.685 286.656C443.197 286.656 442.741 288.156 442.741 289.86C442.741 291.564 443.197 293.052 444.685 293.052ZM454.551 295.212V294.144C452.883 293.976 451.623 293.004 451.539 291.264H452.763C452.847 292.308 453.447 292.944 454.551 293.088V290.22L454.527 290.208C453.279 289.872 451.875 289.356 451.875 287.916C451.875 286.56 452.907 285.672 454.551 285.612V284.76H455.271V285.648C456.735 285.816 457.755 286.728 457.851 288.288H456.627C456.519 287.388 456.051 286.872 455.271 286.716V289.26C456.915 289.74 458.067 290.172 458.067 291.828C458.067 293.088 457.131 294.096 455.271 294.168V295.212H454.551ZM453.099 287.796C453.099 288.504 453.687 288.78 454.551 289.044V286.668C453.663 286.716 453.099 287.124 453.099 287.796ZM456.831 291.864C456.831 291.072 456.327 290.748 455.271 290.424V293.124C456.423 293.064 456.831 292.56 456.831 291.864Z" fill="black"/>
<path opacity="0.4" d="M418.436 328.1L418.412 328.088C417.98 328.784 417.212 329.18 416.276 329.18C414.656 329.18 413.54 328.052 413.54 326.42C413.54 324.812 414.668 323.54 416.516 323.54C418.88 323.54 419.732 325.304 419.732 327.836C419.732 330.56 418.544 332.168 416.492 332.168C414.932 332.168 413.924 331.136 413.768 329.9H415.112C415.208 330.584 415.616 331.088 416.492 331.088C418.04 331.088 418.412 329.648 418.436 328.22V328.1ZM416.54 324.62C415.46 324.62 414.86 325.304 414.86 326.348C414.86 327.44 415.496 328.088 416.468 328.088C417.596 328.088 418.292 327.368 418.292 326.324C418.292 325.316 417.668 324.62 416.54 324.62ZM420.239 323.708H426.059V324.704C424.175 326.276 422.831 329.348 422.831 332H421.463C421.463 329.252 423.167 326.156 424.643 324.848V324.824H420.239V323.708ZM425.892 330.692H427.2V332H425.892V330.692ZM427.786 323.708H433.606V324.704C431.722 326.276 430.378 329.348 430.378 332H429.01C429.01 329.252 430.714 326.156 432.19 324.848V324.824H427.786V323.708ZM436.295 323.708H437.327V332H436.031V325.844C435.683 326.18 435.035 326.24 434.291 326.24V325.184C435.755 325.148 436.199 324.704 436.295 323.708ZM444.144 333.212V332.144C442.476 331.976 441.216 331.004 441.132 329.264H442.356C442.44 330.308 443.04 330.944 444.144 331.088V328.22L444.12 328.208C442.872 327.872 441.468 327.356 441.468 325.916C441.468 324.56 442.5 323.672 444.144 323.612V322.76H444.864V323.648C446.328 323.816 447.348 324.728 447.444 326.288H446.22C446.112 325.388 445.644 324.872 444.864 324.716V327.26C446.508 327.74 447.66 328.172 447.66 329.828C447.66 331.088 446.724 332.096 444.864 332.168V333.212H444.144ZM442.692 325.796C442.692 326.504 443.28 326.78 444.144 327.044V324.668C443.256 324.716 442.692 325.124 442.692 325.796ZM446.424 329.864C446.424 329.072 445.92 328.748 444.864 328.424V331.124C446.016 331.064 446.424 330.56 446.424 329.864Z" fill="black"/>
<path opacity="0.1" d="M278 232L462 232" stroke="black"/>
<path opacity="0.1" d="M278 270L462 270" stroke="black"/>
<path opacity="0.1" d="M278 308L462 308" stroke="black"/>
<path opacity="0.1" d="M278 346L462 346" stroke="black"/>
<circle cx="284" cy="214" r="6" fill="#FFB800"/>
<circle cx="284" cy="252" r="6" fill="#01B8C7"/>
<circle cx="284" cy="290" r="6" fill="#8800FF"/>
<circle cx="284" cy="328" r="6" fill="#64D71E"/>
<path d="M0 264H564V390C564 423.137 537.137 450 504 450H60C26.8629 450 0 423.137 0 390V264Z" fill="url(#paint0_linear_2806_1477)"/>
<defs>
<linearGradient id="paint0_linear_2806_1477" x1="282" y1="264" x2="282" y2="450" gradientUnits="userSpaceOnUse">
<stop stop-color="#EDD9FF" stop-opacity="0"/>
<stop offset="0.59" stop-color="#EDD9FF"/>
</linearGradient>
</defs>
</svg>
