<svg width="564" height="450" viewBox="0 0 564 450" fill="none" xmlns="http://www.w3.org/2000/svg">
<rect width="564" height="450" fill="#EDD9FF"/>
<path d="M72 100C72 88.9543 80.9543 80 92 80H472C483.046 80 492 88.9543 492 100V450H72V100Z" fill="#FDFDFD"/>
<path d="M146.952 204.392C146.77 203.412 146.154 202.124 144.236 202.124C142.024 202.124 141.184 204 141.184 205.988C141.184 207.99 142.024 209.866 144.236 209.866C146.168 209.866 146.854 208.578 146.952 207.36H148.562C148.338 209.586 146.784 211.196 144.25 211.196C141.408 211.196 139.588 209.012 139.588 206.002C139.588 202.978 141.422 200.794 144.264 200.794C146.784 200.794 148.324 202.39 148.562 204.392H146.952ZM153.066 211.21C150.84 211.21 149.496 209.67 149.496 207.43C149.496 205.204 150.84 203.636 153.066 203.636C155.292 203.636 156.636 205.19 156.636 207.416C156.636 209.656 155.292 211.21 153.066 211.21ZM153.066 210.076C154.522 210.076 155.208 208.914 155.208 207.43C155.208 205.932 154.522 204.784 153.066 204.784C151.596 204.784 150.924 205.932 150.924 207.43C150.924 208.914 151.596 210.076 153.066 210.076ZM159.091 208.424C159.091 209.39 159.511 210.034 160.533 210.034C161.709 210.034 162.465 209.32 162.465 208.242V203.86H163.837V211H162.465V210.104H162.437C162.059 210.65 161.317 211.196 160.085 211.196C158.769 211.196 157.705 210.44 157.705 208.802V203.86H159.091V208.424ZM165.376 203.86H166.748V205.218H166.776C167.14 204.322 167.728 203.692 168.694 203.692C168.946 203.692 169.142 203.706 169.352 203.734V205.05C169.17 205.022 169.044 205.008 168.89 205.008C167.644 205.008 166.748 205.946 166.748 207.304V211H165.376V203.86ZM170.353 203.86H171.725V205.218H171.753C172.117 204.322 172.705 203.692 173.671 203.692C173.923 203.692 174.119 203.706 174.329 203.734V205.05C174.147 205.022 174.021 205.008 173.867 205.008C172.621 205.008 171.725 205.946 171.725 207.304V211H170.353V203.86ZM175.177 201.102H176.731V202.586H175.177V201.102ZM175.275 203.86H176.647V211H175.275V203.86ZM181.311 211.21C179.043 211.21 177.783 209.6 177.783 207.416C177.783 205.176 179.127 203.636 181.311 203.636C183.481 203.636 184.699 205.064 184.699 207.276C184.699 207.472 184.699 207.682 184.685 207.794H179.197C179.225 208.998 179.925 210.09 181.339 210.09C182.599 210.09 183.075 209.278 183.215 208.802H184.601C184.237 210.174 183.187 211.21 181.311 211.21ZM181.269 204.756C180.121 204.756 179.281 205.54 179.197 206.716H183.257C183.257 205.596 182.487 204.756 181.269 204.756ZM185.843 200.99H187.215V211H185.843V200.99Z" fill="black"/>
<rect x="124.5" y="184.5" width="315" height="44" rx="7.5" stroke="black" stroke-opacity="0.2"/>
<path d="M139.896 268V257.99H141.66L146.308 265.69H146.336V257.99H147.89V268H146.126L141.464 260.3H141.436V268H139.896ZM152.67 268.21C150.444 268.21 149.1 266.67 149.1 264.43C149.1 262.204 150.444 260.636 152.67 260.636C154.896 260.636 156.24 262.19 156.24 264.416C156.24 266.656 154.896 268.21 152.67 268.21ZM152.67 267.076C154.126 267.076 154.812 265.914 154.812 264.43C154.812 262.932 154.126 261.784 152.67 261.784C151.2 261.784 150.528 262.932 150.528 264.43C150.528 265.914 151.2 267.076 152.67 267.076ZM157.378 268V260.86H158.75V261.756H158.778C159.156 261.21 159.814 260.65 160.892 260.65C161.886 260.65 162.488 261.098 162.782 261.896H162.81C163.328 261.21 164.042 260.65 165.148 260.65C166.59 260.65 167.318 261.518 167.318 263.044V268H165.946V263.422C165.946 262.47 165.75 261.826 164.7 261.826C163.678 261.826 163.034 262.54 163.034 263.618V268H161.662V263.422C161.662 262.47 161.466 261.826 160.416 261.826C159.394 261.826 158.75 262.54 158.75 263.618V268H157.378Z" fill="black"/>
<rect x="124.5" y="241.5" width="315" height="44" rx="7.5" stroke="black" stroke-opacity="0.2"/>
<rect x="186.75" y="310.75" width="190.5" height="45.5" rx="11.25" fill="#EDD9FF" fill-opacity="0.62" stroke="#8800FF" stroke-width="1.5"/>
<path d="M225.464 332.162H230.322V333.492H225.464V336.67H231.148V338H223.924V327.99H231.008V329.32H225.464V332.162ZM232.301 338V330.86H233.673V331.756H233.701C234.079 331.21 234.821 330.65 236.053 330.65C237.369 330.65 238.433 331.406 238.433 333.044V338H237.047V333.422C237.047 332.47 236.627 331.826 235.605 331.826C234.429 331.826 233.673 332.54 233.673 333.618V338H232.301ZM238.917 330.86H240.387L242.249 336.586H242.277L244.111 330.86H245.553L243.005 338H241.465L238.917 330.86ZM249.317 338.21C247.091 338.21 245.747 336.67 245.747 334.43C245.747 332.204 247.091 330.636 249.317 330.636C251.543 330.636 252.887 332.19 252.887 334.416C252.887 336.656 251.543 338.21 249.317 338.21ZM249.317 337.076C250.773 337.076 251.459 335.914 251.459 334.43C251.459 332.932 250.773 331.784 249.317 331.784C247.847 331.784 247.175 332.932 247.175 334.43C247.175 335.914 247.847 337.076 249.317 337.076ZM255.965 337.93L253.067 330.86H254.565L256.651 336.32H256.679L258.653 330.86H260.081L257.267 338.168C256.567 339.932 255.881 340.506 254.775 340.506C254.467 340.506 254.257 340.478 253.893 340.408V339.288C254.131 339.316 254.257 339.33 254.481 339.33C255.041 339.33 255.671 339.05 255.965 337.93ZM263.795 338.21C261.527 338.21 260.267 336.6 260.267 334.416C260.267 332.176 261.611 330.636 263.795 330.636C265.965 330.636 267.183 332.064 267.183 334.276C267.183 334.472 267.183 334.682 267.169 334.794H261.681C261.709 335.998 262.409 337.09 263.823 337.09C265.083 337.09 265.559 336.278 265.699 335.802H267.085C266.721 337.174 265.671 338.21 263.795 338.21ZM263.753 331.756C262.605 331.756 261.765 332.54 261.681 333.716H265.741C265.741 332.596 264.971 331.756 263.753 331.756ZM268.327 330.86H269.699V332.218H269.727C270.091 331.322 270.679 330.692 271.645 330.692C271.897 330.692 272.093 330.706 272.303 330.734V332.05C272.121 332.022 271.995 332.008 271.841 332.008C270.595 332.008 269.699 332.946 269.699 334.304V338H268.327V330.86ZM276.393 327.99H277.765V338H276.393V327.99ZM282.429 338.21C280.161 338.21 278.901 336.6 278.901 334.416C278.901 332.176 280.245 330.636 282.429 330.636C284.599 330.636 285.817 332.064 285.817 334.276C285.817 334.472 285.817 334.682 285.803 334.794H280.315C280.343 335.998 281.043 337.09 282.457 337.09C283.717 337.09 284.193 336.278 284.333 335.802H285.719C285.355 337.174 284.305 338.21 282.429 338.21ZM282.387 331.756C281.239 331.756 280.399 332.54 280.315 333.716H284.375C284.375 332.596 283.605 331.756 282.387 331.756ZM289.932 333.688C291.234 333.996 292.662 334.374 292.662 335.97C292.662 337.356 291.598 338.196 289.722 338.196C287.552 338.196 286.474 337.076 286.432 335.62H287.818C287.888 336.446 288.378 337.09 289.708 337.09C290.912 337.09 291.234 336.558 291.234 336.04C291.234 335.144 290.282 335.046 289.358 334.85C288.112 334.57 286.684 334.192 286.684 332.708C286.684 331.476 287.678 330.65 289.414 330.65C291.36 330.65 292.298 331.7 292.396 332.932H291.01C290.912 332.386 290.632 331.756 289.428 331.756C288.518 331.756 288.112 332.12 288.112 332.652C288.112 333.394 288.91 333.45 289.932 333.688ZM296.707 328.102H298.261V329.586H296.707V328.102ZM296.805 330.86H298.177V338H296.805V330.86ZM299.704 338V330.86H301.076V331.756H301.104C301.482 331.21 302.224 330.65 303.456 330.65C304.772 330.65 305.836 331.406 305.836 333.044V338H304.45V333.422C304.45 332.47 304.03 331.826 303.008 331.826C301.832 331.826 301.076 332.54 301.076 333.618V338H299.704ZM306.319 330.86H307.789L309.651 336.586H309.679L311.513 330.86H312.955L310.407 338H308.867L306.319 330.86ZM313.66 328.102H315.214V329.586H313.66V328.102ZM313.758 330.86H315.13V338H313.758V330.86ZM316.099 330.86H317.135V328.564H318.507V330.86H319.879V331.994H318.507V336.026C318.507 336.782 318.717 336.95 319.305 336.95C319.529 336.95 319.641 336.936 319.893 336.894V338C319.529 338.07 319.319 338.084 319.011 338.084C317.849 338.084 317.135 337.636 317.135 335.984V331.994H316.099V330.86ZM322.938 338.196C321.51 338.196 320.6 337.37 320.6 336.152C320.6 334.556 321.804 334.094 323.582 333.744C324.702 333.534 325.388 333.394 325.388 332.694C325.388 332.176 325.08 331.742 324.03 331.742C322.784 331.742 322.406 332.134 322.336 333.086H320.936C321.006 331.714 321.902 330.636 324.086 330.636C325.556 330.636 326.732 331.252 326.732 333.1V336.376C326.732 336.894 326.802 337.16 327.068 337.16C327.11 337.16 327.152 337.16 327.236 337.146V337.986C326.998 338.042 326.76 338.07 326.536 338.07C325.864 338.07 325.486 337.804 325.416 336.992H325.388C324.912 337.734 324.1 338.196 322.938 338.196ZM323.246 337.09C324.478 337.09 325.388 336.46 325.388 335.214V334.192C325.164 334.402 324.548 334.556 323.82 334.71C322.56 334.976 322.042 335.312 322.042 336.054C322.042 336.726 322.392 337.09 323.246 337.09ZM327.515 330.86H328.551V328.564H329.923V330.86H331.295V331.994H329.923V336.026C329.923 336.782 330.133 336.95 330.721 336.95C330.945 336.95 331.057 336.936 331.309 336.894V338C330.945 338.07 330.735 338.084 330.427 338.084C329.265 338.084 328.551 337.636 328.551 335.984V331.994H327.515V330.86ZM332.432 328.102H333.986V329.586H332.432V328.102ZM332.53 330.86H333.902V338H332.53V330.86ZM338.608 338.21C336.382 338.21 335.038 336.67 335.038 334.43C335.038 332.204 336.382 330.636 338.608 330.636C340.834 330.636 342.178 332.19 342.178 334.416C342.178 336.656 340.834 338.21 338.608 338.21ZM338.608 337.076C340.064 337.076 340.75 335.914 340.75 334.43C340.75 332.932 340.064 331.784 338.608 331.784C337.138 331.784 336.466 332.932 336.466 334.43C336.466 335.914 337.138 337.076 338.608 337.076ZM343.317 338V330.86H344.689V331.756H344.717C345.095 331.21 345.837 330.65 347.069 330.65C348.385 330.65 349.449 331.406 349.449 333.044V338H348.063V333.422C348.063 332.47 347.643 331.826 346.621 331.826C345.445 331.826 344.689 332.54 344.689 333.618V338H343.317ZM353.916 333.688C355.218 333.996 356.646 334.374 356.646 335.97C356.646 337.356 355.582 338.196 353.706 338.196C351.536 338.196 350.458 337.076 350.416 335.62H351.802C351.872 336.446 352.362 337.09 353.692 337.09C354.896 337.09 355.218 336.558 355.218 336.04C355.218 335.144 354.266 335.046 353.342 334.85C352.096 334.57 350.668 334.192 350.668 332.708C350.668 331.476 351.662 330.65 353.398 330.65C355.344 330.65 356.282 331.7 356.38 332.932H354.994C354.896 332.386 354.616 331.756 353.412 331.756C352.502 331.756 352.096 332.12 352.096 332.652C352.096 333.394 352.894 333.45 353.916 333.688Z" fill="black"/>
<g clip-path="url(#clip0_2806_1459)">
<path d="M214.917 328.083L211.126 338.916L208.959 334.041L204.084 331.875L214.917 328.083Z" stroke="#0D0D0D" stroke-width="1.16667" stroke-linecap="round" stroke-linejoin="round"/>
<path d="M214.917 328.083L208.959 334.041" stroke="#0D0D0D" stroke-width="1.16667" stroke-linecap="round" stroke-linejoin="round"/>
</g>
<path d="M180.834 149.56H174.854L173.674 153H171.354L176.674 138.7H179.054L184.414 153H182.014L180.834 149.56ZM175.494 147.7H180.194L177.874 140.74H177.834L175.494 147.7ZM185.528 138.86H187.748V140.98H185.528V138.86ZM185.168 156.62C184.748 156.62 184.448 156.58 183.948 156.5V154.88C184.288 154.92 184.448 154.94 184.728 154.94C185.348 154.94 185.648 154.6 185.648 153.46V142.8H187.608V153.54C187.608 155.72 186.608 156.62 185.168 156.62ZM194.313 153.3C191.133 153.3 189.213 151.1 189.213 147.9C189.213 144.72 191.133 142.48 194.313 142.48C197.493 142.48 199.413 144.7 199.413 147.88C199.413 151.08 197.493 153.3 194.313 153.3ZM194.313 151.68C196.393 151.68 197.373 150.02 197.373 147.9C197.373 145.76 196.393 144.12 194.313 144.12C192.213 144.12 191.253 145.76 191.253 147.9C191.253 150.02 192.213 151.68 194.313 151.68ZM202.92 149.32C202.92 150.7 203.52 151.62 204.98 151.62C206.66 151.62 207.74 150.6 207.74 149.06V142.8H209.7V153H207.74V151.72H207.7C207.16 152.5 206.1 153.28 204.34 153.28C202.46 153.28 200.94 152.2 200.94 149.86V142.8H202.92V149.32ZM211.102 142.8H212.582V139.52H214.542V142.8H216.502V144.42H214.542V150.18C214.542 151.26 214.842 151.5 215.682 151.5C216.002 151.5 216.162 151.48 216.522 151.42V153C216.002 153.1 215.702 153.12 215.262 153.12C213.602 153.12 212.582 152.48 212.582 150.12V144.42H211.102V142.8ZM222.417 153.3C219.177 153.3 217.377 151 217.377 147.88C217.377 144.68 219.297 142.48 222.417 142.48C225.517 142.48 227.257 144.52 227.257 147.68C227.257 147.96 227.257 148.26 227.237 148.42H219.397C219.437 150.14 220.437 151.7 222.457 151.7C224.257 151.7 224.937 150.54 225.137 149.86H227.117C226.597 151.82 225.097 153.3 222.417 153.3ZM222.357 144.08C220.717 144.08 219.517 145.2 219.397 146.88H225.197C225.197 145.28 224.097 144.08 222.357 144.08ZM228.892 142.8H230.852V144.74H230.892C231.412 143.46 232.252 142.56 233.632 142.56C233.992 142.56 234.272 142.58 234.572 142.62V144.5C234.312 144.46 234.132 144.44 233.912 144.44C232.132 144.44 230.852 145.78 230.852 147.72V153H228.892V142.8ZM247.675 144.04H247.715V138.7H249.695V153H247.715V151.8H247.675C247.135 152.52 246.135 153.28 244.535 153.28C241.935 153.28 239.975 151.26 239.975 147.9C239.975 144.54 241.935 142.5 244.535 142.5C246.135 142.5 247.135 143.24 247.675 144.04ZM244.855 151.66C246.615 151.66 247.715 150.2 247.715 147.9C247.715 145.58 246.615 144.14 244.855 144.14C242.935 144.14 242.015 145.9 242.015 147.9C242.015 149.9 242.935 151.66 244.855 151.66ZM256.363 153.3C253.123 153.3 251.323 151 251.323 147.88C251.323 144.68 253.243 142.48 256.363 142.48C259.463 142.48 261.203 144.52 261.203 147.68C261.203 147.96 261.203 148.26 261.183 148.42H253.343C253.383 150.14 254.383 151.7 256.403 151.7C258.203 151.7 258.883 150.54 259.083 149.86H261.063C260.543 151.82 259.043 153.3 256.363 153.3ZM256.303 144.08C254.663 144.08 253.463 145.2 253.343 146.88H259.143C259.143 145.28 258.043 144.08 256.303 144.08ZM267.081 146.84C268.941 147.28 270.981 147.82 270.981 150.1C270.981 152.08 269.461 153.28 266.781 153.28C263.681 153.28 262.141 151.68 262.081 149.6H264.061C264.161 150.78 264.861 151.7 266.761 151.7C268.481 151.7 268.941 150.94 268.941 150.2C268.941 148.92 267.581 148.78 266.261 148.5C264.481 148.1 262.441 147.56 262.441 145.44C262.441 143.68 263.861 142.5 266.341 142.5C269.121 142.5 270.461 144 270.601 145.76H268.621C268.481 144.98 268.081 144.08 266.361 144.08C265.061 144.08 264.481 144.6 264.481 145.36C264.481 146.42 265.621 146.5 267.081 146.84ZM281.499 153.3C278.259 153.3 276.459 151 276.459 147.88C276.459 144.68 278.379 142.48 281.499 142.48C284.599 142.48 286.339 144.52 286.339 147.68C286.339 147.96 286.339 148.26 286.319 148.42H278.479C278.519 150.14 279.519 151.7 281.539 151.7C283.339 151.7 284.019 150.54 284.219 149.86H286.199C285.679 151.82 284.179 153.3 281.499 153.3ZM281.439 144.08C279.799 144.08 278.599 145.2 278.479 146.88H284.279C284.279 145.28 283.179 144.08 281.439 144.08ZM287.974 153V142.8H289.934V144.08H289.974C290.514 143.3 291.454 142.5 292.994 142.5C294.414 142.5 295.274 143.14 295.694 144.28H295.734C296.474 143.3 297.494 142.5 299.074 142.5C301.134 142.5 302.174 143.74 302.174 145.92V153H300.214V146.46C300.214 145.1 299.934 144.18 298.434 144.18C296.974 144.18 296.054 145.2 296.054 146.74V153H294.094V146.46C294.094 145.1 293.814 144.18 292.314 144.18C290.854 144.18 289.934 145.2 289.934 146.74V153H287.974ZM306.282 151.74H306.242V156.54H304.282V142.8H306.242V144H306.282C306.842 143.28 307.822 142.5 309.422 142.5C312.022 142.5 314.002 144.54 314.002 147.9C314.002 151.26 312.022 153.28 309.422 153.28C307.822 153.28 306.842 152.56 306.282 151.74ZM309.102 144.14C307.342 144.14 306.262 145.58 306.262 147.9C306.262 150.2 307.342 151.66 309.102 151.66C311.022 151.66 311.942 149.9 311.942 147.9C311.942 145.9 311.022 144.14 309.102 144.14ZM315.63 138.7H317.59V153H315.63V138.7ZM324.313 153.3C321.133 153.3 319.213 151.1 319.213 147.9C319.213 144.72 321.133 142.48 324.313 142.48C327.493 142.48 329.413 144.7 329.413 147.88C329.413 151.08 327.493 153.3 324.313 153.3ZM324.313 151.68C326.393 151.68 327.373 150.02 327.373 147.9C327.373 145.76 326.393 144.12 324.313 144.12C322.213 144.12 321.253 145.76 321.253 147.9C321.253 150.02 322.213 151.68 324.313 151.68ZM333.811 152.9L329.671 142.8H331.811L334.791 150.6H334.831L337.651 142.8H339.691L335.671 153.24C334.671 155.76 333.691 156.58 332.111 156.58C331.671 156.58 331.371 156.54 330.851 156.44V154.84C331.191 154.88 331.371 154.9 331.691 154.9C332.491 154.9 333.391 154.5 333.811 152.9ZM345.135 138.46H347.435L345.515 141.22H343.955L345.135 138.46ZM344.995 153.3C341.755 153.3 339.955 151 339.955 147.88C339.955 144.68 341.875 142.48 344.995 142.48C348.095 142.48 349.835 144.52 349.835 147.68C349.835 147.96 349.835 148.26 349.815 148.42H341.975C342.015 150.14 343.015 151.7 345.035 151.7C346.835 151.7 347.515 150.54 347.715 149.86H349.695C349.175 151.82 347.675 153.3 344.995 153.3ZM344.935 144.08C343.295 144.08 342.095 145.2 341.975 146.88H347.775C347.775 145.28 346.675 144.08 344.935 144.08ZM355.713 146.84C357.573 147.28 359.613 147.82 359.613 150.1C359.613 152.08 358.093 153.28 355.413 153.28C352.313 153.28 350.773 151.68 350.713 149.6H352.693C352.793 150.78 353.493 151.7 355.393 151.7C357.113 151.7 357.573 150.94 357.573 150.2C357.573 148.92 356.213 148.78 354.893 148.5C353.113 148.1 351.073 147.56 351.073 145.44C351.073 143.68 352.493 142.5 354.973 142.5C357.753 142.5 359.093 144 359.233 145.76H357.253C357.113 144.98 356.713 144.08 354.993 144.08C353.693 144.08 353.113 144.6 353.113 145.36C353.113 146.42 354.253 146.5 355.713 146.84ZM364.398 137.84H366.118C364.838 140.26 363.798 142.96 363.798 146.66C363.798 150.28 364.838 153.02 366.118 155.44H364.398C362.918 153.42 361.638 150.28 361.638 146.66C361.638 142.92 362.918 139.86 364.398 137.84ZM372.183 153.3C368.943 153.3 367.143 151 367.143 147.88C367.143 144.68 369.063 142.48 372.183 142.48C375.283 142.48 377.023 144.52 377.023 147.68C377.023 147.96 377.023 148.26 377.003 148.42H369.163C369.203 150.14 370.203 151.7 372.223 151.7C374.023 151.7 374.703 150.54 374.903 149.86H376.883C376.363 151.82 374.863 153.3 372.183 153.3ZM372.123 144.08C370.483 144.08 369.283 145.2 369.163 146.88H374.963C374.963 145.28 373.863 144.08 372.123 144.08ZM382.901 146.84C384.761 147.28 386.801 147.82 386.801 150.1C386.801 152.08 385.281 153.28 382.601 153.28C379.501 153.28 377.961 151.68 377.901 149.6H379.881C379.981 150.78 380.681 151.7 382.581 151.7C384.301 151.7 384.761 150.94 384.761 150.2C384.761 148.92 383.401 148.78 382.081 148.5C380.301 148.1 378.261 147.56 378.261 145.44C378.261 143.68 379.681 142.5 382.161 142.5C384.941 142.5 386.281 144 386.421 145.76H384.441C384.301 144.98 383.901 144.08 382.181 144.08C380.881 144.08 380.301 144.6 380.301 145.36C380.301 146.42 381.441 146.5 382.901 146.84ZM389.586 155.44H387.866C389.166 153.02 390.186 150.3 390.186 146.6C390.186 142.98 389.166 140.26 387.866 137.84H389.586C391.086 139.86 392.366 142.98 392.366 146.6C392.366 150.34 391.086 153.42 389.586 155.44Z" fill="black"/>
<path d="M0 264H564V390C564 423.137 537.137 450 504 450H60C26.8629 450 0 423.137 0 390V264Z" fill="url(#paint0_linear_2806_1459)"/>
<defs>
<linearGradient id="paint0_linear_2806_1459" x1="282" y1="264" x2="282" y2="450" gradientUnits="userSpaceOnUse">
<stop stop-color="#EDD9FF" stop-opacity="0"/>
<stop offset="0.59" stop-color="#EDD9FF"/>
</linearGradient>
<clipPath id="clip0_2806_1459">
<rect width="13" height="13" fill="white" transform="translate(203 327)"/>
</clipPath>
</defs>
</svg>
