<svg width="564" height="450" viewBox="0 0 564 450" fill="none" xmlns="http://www.w3.org/2000/svg">
<rect width="564" height="450" fill="#EDD9FF"/>
<path d="M72 100C72 88.9543 80.9543 80 92 80H472C483.046 80 492 88.9543 492 100V450H72V100Z" fill="#FDFDFD"/>
<path d="M270.999 268.667C272.84 268.667 274.333 267.174 274.333 265.333C274.333 263.492 272.84 262 270.999 262C269.158 262 267.666 263.492 267.666 265.333C267.666 267.174 269.158 268.667 270.999 268.667Z" stroke="black" stroke-width="1.5" stroke-linecap="round" stroke-linejoin="round"/>
<path d="M276.333 274C276.333 272.586 275.771 271.229 274.771 270.229C273.77 269.229 272.414 268.667 270.999 268.667C269.585 268.667 268.228 269.229 267.228 270.229C266.228 271.229 265.666 272.586 265.666 274" stroke="black" stroke-width="1.5" stroke-linecap="round" stroke-linejoin="round"/>
<path d="M270.999 324.667C272.84 324.667 274.333 323.174 274.333 321.333C274.333 319.492 272.84 318 270.999 318C269.158 318 267.666 319.492 267.666 321.333C267.666 323.174 269.158 324.667 270.999 324.667Z" stroke="black" stroke-width="1.5" stroke-linecap="round" stroke-linejoin="round"/>
<path d="M276.333 330C276.333 328.586 275.771 327.229 274.771 326.229C273.77 325.229 272.414 324.667 270.999 324.667C269.585 324.667 268.228 325.229 267.228 326.229C266.228 327.229 265.666 328.586 265.666 330" stroke="black" stroke-width="1.5" stroke-linecap="round" stroke-linejoin="round"/>
<path d="M270.999 212.667C272.84 212.667 274.333 211.174 274.333 209.333C274.333 207.492 272.84 206 270.999 206C269.158 206 267.666 207.492 267.666 209.333C267.666 211.174 269.158 212.667 270.999 212.667Z" stroke="black" stroke-width="1.5" stroke-linecap="round" stroke-linejoin="round"/>
<path d="M276.333 218C276.333 216.586 275.771 215.229 274.771 214.229C273.77 213.229 272.414 212.667 270.999 212.667C269.585 212.667 268.228 213.229 267.228 214.229C266.228 215.229 265.666 216.586 265.666 218" stroke="black" stroke-width="1.5" stroke-linecap="round" stroke-linejoin="round"/>
<path opacity="0.1" d="M104 184L460 184" stroke="black" stroke-linecap="square"/>
<path opacity="0.1" d="M104 240L460 240" stroke="black" stroke-linecap="square"/>
<path opacity="0.1" d="M104 296L460 296" stroke="black" stroke-linecap="square"/>
<path d="M108.508 210.49C110.342 210.49 111.616 211.848 111.616 213.696C111.616 215.838 110.076 217.196 108.088 217.196C105.778 217.196 104.518 215.796 104.462 214.172H106.002C106.1 215.054 106.618 215.894 108.004 215.894C109.236 215.894 110.048 215.138 110.048 213.696C110.048 212.338 109.306 211.722 108.102 211.722C107.318 211.722 106.604 211.988 106.142 212.59H104.588L105.624 207.326H111.126V208.628H106.786L106.254 211.302V211.33C106.758 210.812 107.472 210.49 108.508 210.49ZM116.657 217.196C113.955 217.196 112.807 214.942 112.807 212.17C112.807 209.398 113.955 207.13 116.657 207.13C119.359 207.13 120.507 209.398 120.507 212.17C120.507 214.942 119.359 217.196 116.657 217.196ZM116.657 215.894C118.407 215.894 118.925 214.158 118.925 212.17C118.925 210.182 118.407 208.432 116.657 208.432C114.921 208.432 114.389 210.182 114.389 212.17C114.389 214.158 114.921 215.894 116.657 215.894ZM125.735 217.196C123.033 217.196 121.885 214.942 121.885 212.17C121.885 209.398 123.033 207.13 125.735 207.13C128.437 207.13 129.585 209.398 129.585 212.17C129.585 214.942 128.437 217.196 125.735 217.196ZM125.735 215.894C127.485 215.894 128.003 214.158 128.003 212.17C128.003 210.182 127.485 208.432 125.735 208.432C123.999 208.432 123.467 210.182 123.467 212.17C123.467 214.158 123.999 215.894 125.735 215.894ZM137.245 218.414V217.168C135.299 216.972 133.829 215.838 133.731 213.808H135.159C135.257 215.026 135.957 215.768 137.245 215.936V212.59L137.217 212.576C135.761 212.184 134.123 211.582 134.123 209.902C134.123 208.32 135.327 207.284 137.245 207.214V206.22H138.085V207.256C139.793 207.452 140.983 208.516 141.095 210.336H139.667C139.541 209.286 138.995 208.684 138.085 208.502V211.47C140.003 212.03 141.347 212.534 141.347 214.466C141.347 215.936 140.255 217.112 138.085 217.196V218.414H137.245ZM135.551 209.762C135.551 210.588 136.237 210.91 137.245 211.218V208.446C136.209 208.502 135.551 208.978 135.551 209.762ZM139.905 214.508C139.905 213.584 139.317 213.206 138.085 212.828V215.978C139.429 215.908 139.905 215.32 139.905 214.508Z" fill="black"/>
<path d="M288.528 217V208.32H285.294V206.99H293.316V208.32H290.082V217H288.528ZM295.47 217.21C293.244 217.21 291.9 215.67 291.9 213.43C291.9 211.204 293.244 209.636 295.47 209.636C297.696 209.636 299.04 211.19 299.04 213.416C299.04 215.656 297.696 217.21 295.47 217.21ZM295.47 216.076C296.926 216.076 297.612 214.914 297.612 213.43C297.612 211.932 296.926 210.784 295.47 210.784C294 210.784 293.328 211.932 293.328 213.43C293.328 214.914 294 216.076 295.47 216.076ZM301.495 214.424C301.495 215.39 301.915 216.034 302.937 216.034C304.113 216.034 304.869 215.32 304.869 214.242V209.86H306.241V217H304.869V216.104H304.841C304.463 216.65 303.721 217.196 302.489 217.196C301.173 217.196 300.109 216.44 300.109 214.802V209.86H301.495V214.424ZM310.765 212.688C312.067 212.996 313.495 213.374 313.495 214.97C313.495 216.356 312.431 217.196 310.555 217.196C308.385 217.196 307.307 216.076 307.265 214.62H308.651C308.721 215.446 309.211 216.09 310.541 216.09C311.745 216.09 312.067 215.558 312.067 215.04C312.067 214.144 311.115 214.046 310.191 213.85C308.945 213.57 307.517 213.192 307.517 211.708C307.517 210.476 308.511 209.65 310.247 209.65C312.193 209.65 313.131 210.7 313.229 211.932H311.843C311.745 211.386 311.465 210.756 310.261 210.756C309.351 210.756 308.945 211.12 308.945 211.652C308.945 212.394 309.743 212.45 310.765 212.688Z" fill="black"/>
<path d="M418.554 213.598C418.554 215.754 417.392 217.196 414.634 217.196C411.876 217.196 410.714 215.754 410.714 213.598V206.99H412.268V213.598C412.268 215.152 413.038 215.866 414.634 215.866C416.23 215.866 417 215.152 417 213.598V206.99H418.554V213.598ZM419.998 217V209.86H421.37V210.756H421.398C421.776 210.21 422.518 209.65 423.75 209.65C425.066 209.65 426.13 210.406 426.13 212.044V217H424.744V212.422C424.744 211.47 424.324 210.826 423.302 210.826C422.126 210.826 421.37 211.54 421.37 212.618V217H419.998ZM430.737 217.21C428.469 217.21 427.209 215.6 427.209 213.416C427.209 211.176 428.553 209.636 430.737 209.636C432.907 209.636 434.125 211.064 434.125 213.276C434.125 213.472 434.125 213.682 434.111 213.794H428.623C428.651 214.998 429.351 216.09 430.765 216.09C432.025 216.09 432.501 215.278 432.641 214.802H434.027C433.663 216.174 432.613 217.21 430.737 217.21ZM430.695 210.756C429.547 210.756 428.707 211.54 428.623 212.716H432.683C432.683 211.596 431.913 210.756 430.695 210.756ZM440.249 217H438.877V210.994H437.897V209.86H438.877V208.992C438.877 207.34 439.563 206.892 440.725 206.892C440.977 206.892 441.201 206.92 441.593 206.976V208.082C441.313 208.054 441.201 208.04 441.005 208.04C440.431 208.04 440.249 208.208 440.249 208.964V209.86H441.593V210.994H440.249V217ZM445.49 217.21C443.264 217.21 441.92 215.67 441.92 213.43C441.92 211.204 443.264 209.636 445.49 209.636C447.716 209.636 449.06 211.19 449.06 213.416C449.06 215.656 447.716 217.21 445.49 217.21ZM445.49 216.076C446.946 216.076 447.632 214.914 447.632 213.43C447.632 211.932 446.946 210.784 445.49 210.784C444.02 210.784 443.348 211.932 443.348 213.43C443.348 214.914 444.02 216.076 445.49 216.076ZM450.101 207.102H451.655V208.586H450.101V207.102ZM450.199 209.86H451.571V217H450.199V209.86ZM456.095 212.688C457.397 212.996 458.825 213.374 458.825 214.97C458.825 216.356 457.761 217.196 455.885 217.196C453.715 217.196 452.637 216.076 452.595 214.62H453.981C454.051 215.446 454.541 216.09 455.871 216.09C457.075 216.09 457.397 215.558 457.397 215.04C457.397 214.144 456.445 214.046 455.521 213.85C454.275 213.57 452.847 213.192 452.847 211.708C452.847 210.476 453.841 209.65 455.577 209.65C457.523 209.65 458.461 210.7 458.559 211.932H457.173C457.075 211.386 456.795 210.756 455.591 210.756C454.681 210.756 454.275 211.12 454.275 211.652C454.275 212.394 455.073 212.45 456.095 212.688Z" fill="black"/>
<path d="M396.75 209V211.575L398.885 212.857C398.972 212.906 399.047 212.973 399.108 213.052C399.168 213.131 399.212 213.222 399.237 213.318C399.262 213.414 399.268 213.515 399.254 213.614C399.24 213.712 399.206 213.807 399.155 213.892C399.103 213.978 399.036 214.052 398.955 214.111C398.875 214.17 398.784 214.213 398.687 214.236C398.59 214.259 398.49 214.263 398.391 214.247C398.293 214.231 398.199 214.196 398.114 214.143L395.614 212.643C395.503 212.576 395.411 212.482 395.347 212.369C395.283 212.257 395.25 212.129 395.25 212V209C395.25 208.801 395.329 208.61 395.469 208.469C395.61 208.329 395.801 208.25 396 208.25C396.199 208.25 396.389 208.329 396.53 208.469C396.671 208.61 396.75 208.801 396.75 209ZM402 207.25C401.801 207.25 401.61 207.329 401.469 207.469C401.329 207.61 401.25 207.801 401.25 208V208.46C400.987 208.168 400.714 207.878 400.419 207.58C399.55 206.712 398.445 206.118 397.241 205.874C396.037 205.631 394.788 205.747 393.65 206.209C392.512 206.671 391.535 207.458 390.841 208.472C390.148 209.486 389.768 210.682 389.751 211.91C389.733 213.138 390.078 214.344 390.741 215.378C391.405 216.411 392.359 217.226 393.484 217.721C394.608 218.216 395.853 218.368 397.064 218.159C398.274 217.95 399.396 217.388 400.29 216.545C400.435 216.409 400.519 216.22 400.525 216.021C400.531 215.822 400.457 215.629 400.32 215.485C400.184 215.34 399.995 215.255 399.796 215.25C399.598 215.244 399.405 215.318 399.26 215.454C398.581 216.095 397.728 216.521 396.809 216.68C395.889 216.839 394.943 216.724 394.088 216.348C393.234 215.972 392.509 215.353 392.004 214.568C391.499 213.783 391.237 212.866 391.25 211.933C391.263 211 391.551 210.091 392.078 209.32C392.604 208.549 393.346 207.951 394.211 207.599C395.075 207.248 396.025 207.159 396.94 207.343C397.855 207.528 398.695 207.978 399.355 208.638C399.725 209.012 400.062 209.375 400.389 209.75H399.5C399.301 209.75 399.11 209.829 398.969 209.969C398.829 210.11 398.75 210.301 398.75 210.5C398.75 210.699 398.829 210.889 398.969 211.03C399.11 211.171 399.301 211.25 399.5 211.25H402C402.199 211.25 402.389 211.171 402.53 211.03C402.671 210.889 402.75 210.699 402.75 210.5V208C402.75 207.801 402.671 207.61 402.53 207.469C402.389 207.329 402.199 207.25 402 207.25Z" fill="black"/>
<path d="M396.75 265V267.575L398.885 268.857C398.972 268.906 399.047 268.973 399.108 269.052C399.168 269.131 399.212 269.222 399.237 269.318C399.262 269.414 399.268 269.515 399.254 269.614C399.24 269.712 399.206 269.807 399.155 269.892C399.103 269.978 399.036 270.052 398.955 270.111C398.875 270.17 398.784 270.213 398.687 270.236C398.59 270.259 398.49 270.263 398.391 270.247C398.293 270.231 398.199 270.196 398.114 270.143L395.614 268.643C395.503 268.576 395.411 268.482 395.347 268.369C395.283 268.257 395.25 268.129 395.25 268V265C395.25 264.801 395.329 264.61 395.469 264.469C395.61 264.329 395.801 264.25 396 264.25C396.199 264.25 396.389 264.329 396.53 264.469C396.671 264.61 396.75 264.801 396.75 265ZM402 263.25C401.801 263.25 401.61 263.329 401.469 263.469C401.329 263.61 401.25 263.801 401.25 264V264.46C400.987 264.168 400.714 263.878 400.419 263.58C399.55 262.712 398.445 262.118 397.241 261.874C396.037 261.631 394.788 261.747 393.65 262.209C392.512 262.671 391.535 263.458 390.841 264.472C390.148 265.486 389.768 266.682 389.751 267.91C389.733 269.138 390.078 270.344 390.741 271.378C391.405 272.411 392.359 273.226 393.484 273.721C394.608 274.216 395.853 274.368 397.064 274.159C398.274 273.95 399.396 273.388 400.29 272.545C400.435 272.409 400.519 272.22 400.525 272.021C400.531 271.822 400.457 271.629 400.32 271.485C400.184 271.34 399.995 271.255 399.796 271.25C399.598 271.244 399.405 271.318 399.26 271.454C398.581 272.095 397.728 272.521 396.809 272.68C395.889 272.839 394.943 272.724 394.088 272.348C393.234 271.972 392.509 271.353 392.004 270.568C391.499 269.783 391.237 268.866 391.25 267.933C391.263 267 391.551 266.091 392.078 265.32C392.604 264.549 393.346 263.951 394.211 263.599C395.075 263.248 396.025 263.159 396.94 263.343C397.855 263.528 398.695 263.978 399.355 264.638C399.725 265.012 400.062 265.375 400.389 265.75H399.5C399.301 265.75 399.11 265.829 398.969 265.969C398.829 266.11 398.75 266.301 398.75 266.5C398.75 266.699 398.829 266.889 398.969 267.03C399.11 267.171 399.301 267.25 399.5 267.25H402C402.199 267.25 402.389 267.171 402.53 267.03C402.671 266.889 402.75 266.699 402.75 266.5V264C402.75 263.801 402.671 263.61 402.53 263.469C402.389 263.329 402.199 263.25 402 263.25Z" fill="black"/>
<path d="M396.75 321V323.575L398.885 324.857C398.972 324.906 399.047 324.973 399.108 325.052C399.168 325.131 399.212 325.222 399.237 325.318C399.262 325.414 399.268 325.515 399.254 325.614C399.24 325.712 399.206 325.807 399.155 325.892C399.103 325.978 399.036 326.052 398.955 326.111C398.875 326.17 398.784 326.213 398.687 326.236C398.59 326.259 398.49 326.263 398.391 326.247C398.293 326.231 398.199 326.196 398.114 326.143L395.614 324.643C395.503 324.576 395.411 324.482 395.347 324.369C395.283 324.257 395.25 324.129 395.25 324V321C395.25 320.801 395.329 320.61 395.469 320.469C395.61 320.329 395.801 320.25 396 320.25C396.199 320.25 396.389 320.329 396.53 320.469C396.671 320.61 396.75 320.801 396.75 321ZM402 319.25C401.801 319.25 401.61 319.329 401.469 319.469C401.329 319.61 401.25 319.801 401.25 320V320.46C400.987 320.168 400.714 319.878 400.419 319.58C399.55 318.712 398.445 318.118 397.241 317.874C396.037 317.631 394.788 317.747 393.65 318.209C392.512 318.671 391.535 319.458 390.841 320.472C390.148 321.486 389.768 322.682 389.751 323.91C389.733 325.138 390.078 326.344 390.741 327.378C391.405 328.411 392.359 329.226 393.484 329.721C394.608 330.216 395.853 330.368 397.064 330.159C398.274 329.95 399.396 329.388 400.29 328.545C400.435 328.409 400.519 328.22 400.525 328.021C400.531 327.822 400.457 327.629 400.32 327.485C400.184 327.34 399.995 327.255 399.796 327.25C399.598 327.244 399.405 327.318 399.26 327.454C398.581 328.095 397.728 328.521 396.809 328.68C395.889 328.839 394.943 328.724 394.088 328.348C393.234 327.972 392.509 327.353 392.004 326.568C391.499 325.783 391.237 324.866 391.25 323.933C391.263 323 391.551 322.091 392.078 321.32C392.604 320.549 393.346 319.951 394.211 319.599C395.075 319.248 396.025 319.159 396.94 319.343C397.855 319.528 398.695 319.978 399.355 320.638C399.725 321.012 400.062 321.375 400.389 321.75H399.5C399.301 321.75 399.11 321.829 398.969 321.969C398.829 322.11 398.75 322.301 398.75 322.5C398.75 322.699 398.829 322.889 398.969 323.03C399.11 323.171 399.301 323.25 399.5 323.25H402C402.199 323.25 402.389 323.171 402.53 323.03C402.671 322.889 402.75 322.699 402.75 322.5V320C402.75 319.801 402.671 319.61 402.53 319.469C402.389 319.329 402.199 319.25 402 319.25Z" fill="black"/>
<path d="M106.814 263.326H108.018V273H106.506V265.818C106.1 266.21 105.344 266.28 104.476 266.28V265.048C106.184 265.006 106.702 264.488 106.814 263.326ZM109.634 274.904V274.148C110.152 273.994 110.376 273.728 110.362 273H109.634V271.474H111.16V273C111.16 273.91 110.768 274.624 109.634 274.904ZM114.073 266.742H112.533C112.533 264.684 113.639 263.13 116.089 263.13C117.839 263.13 119.267 264.18 119.267 266.028C119.267 267.904 117.741 268.856 116.341 269.724C115.403 270.284 114.507 270.816 114.227 271.67V271.698H119.155V273H112.281C112.281 271.18 113.387 269.934 115.235 268.772C116.873 267.778 117.685 267.372 117.685 266.084C117.685 265.286 117.377 264.432 116.047 264.432C114.535 264.432 114.073 265.412 114.073 266.742ZM124.218 273.196C121.516 273.196 120.368 270.942 120.368 268.17C120.368 265.398 121.516 263.13 124.218 263.13C126.92 263.13 128.068 265.398 128.068 268.17C128.068 270.942 126.92 273.196 124.218 273.196ZM124.218 271.894C125.968 271.894 126.486 270.158 126.486 268.17C126.486 266.182 125.968 264.432 124.218 264.432C122.482 264.432 121.95 266.182 121.95 268.17C121.95 270.158 122.482 271.894 124.218 271.894ZM133.296 273.196C130.594 273.196 129.446 270.942 129.446 268.17C129.446 265.398 130.594 263.13 133.296 263.13C135.998 263.13 137.146 265.398 137.146 268.17C137.146 270.942 135.998 273.196 133.296 273.196ZM133.296 271.894C135.046 271.894 135.564 270.158 135.564 268.17C135.564 266.182 135.046 264.432 133.296 264.432C131.56 264.432 131.028 266.182 131.028 268.17C131.028 270.158 131.56 271.894 133.296 271.894ZM144.806 274.414V273.168C142.86 272.972 141.39 271.838 141.292 269.808H142.72C142.818 271.026 143.518 271.768 144.806 271.936V268.59L144.778 268.576C143.322 268.184 141.684 267.582 141.684 265.902C141.684 264.32 142.888 263.284 144.806 263.214V262.22H145.646V263.256C147.354 263.452 148.544 264.516 148.656 266.336H147.228C147.102 265.286 146.556 264.684 145.646 264.502V267.47C147.564 268.03 148.908 268.534 148.908 270.466C148.908 271.936 147.816 273.112 145.646 273.196V274.414H144.806ZM143.112 265.762C143.112 266.588 143.798 266.91 144.806 267.218V264.446C143.77 264.502 143.112 264.978 143.112 265.762ZM147.466 270.508C147.466 269.584 146.878 269.206 145.646 268.828V271.978C146.99 271.908 147.466 271.32 147.466 270.508Z" fill="black"/>
<path d="M106.814 319.326H108.018V329H106.506V321.818C106.1 322.21 105.344 322.28 104.476 322.28V321.048C106.184 321.006 106.702 320.488 106.814 319.326ZM109.634 330.904V330.148C110.152 329.994 110.376 329.728 110.362 329H109.634V327.474H111.16V329C111.16 329.91 110.768 330.624 109.634 330.904ZM114.073 322.742H112.533C112.533 320.684 113.639 319.13 116.089 319.13C117.839 319.13 119.267 320.18 119.267 322.028C119.267 323.904 117.741 324.856 116.341 325.724C115.403 326.284 114.507 326.816 114.227 327.67V327.698H119.155V329H112.281C112.281 327.18 113.387 325.934 115.235 324.772C116.873 323.778 117.685 323.372 117.685 322.084C117.685 321.286 117.377 320.432 116.047 320.432C114.535 320.432 114.073 321.412 114.073 322.742ZM124.218 329.196C121.516 329.196 120.368 326.942 120.368 324.17C120.368 321.398 121.516 319.13 124.218 319.13C126.92 319.13 128.068 321.398 128.068 324.17C128.068 326.942 126.92 329.196 124.218 329.196ZM124.218 327.894C125.968 327.894 126.486 326.158 126.486 324.17C126.486 322.182 125.968 320.432 124.218 320.432C122.482 320.432 121.95 322.182 121.95 324.17C121.95 326.158 122.482 327.894 124.218 327.894ZM133.296 329.196C130.594 329.196 129.446 326.942 129.446 324.17C129.446 321.398 130.594 319.13 133.296 319.13C135.998 319.13 137.146 321.398 137.146 324.17C137.146 326.942 135.998 329.196 133.296 329.196ZM133.296 327.894C135.046 327.894 135.564 326.158 135.564 324.17C135.564 322.182 135.046 320.432 133.296 320.432C131.56 320.432 131.028 322.182 131.028 324.17C131.028 326.158 131.56 327.894 133.296 327.894ZM144.806 330.414V329.168C142.86 328.972 141.39 327.838 141.292 325.808H142.72C142.818 327.026 143.518 327.768 144.806 327.936V324.59L144.778 324.576C143.322 324.184 141.684 323.582 141.684 321.902C141.684 320.32 142.888 319.284 144.806 319.214V318.22H145.646V319.256C147.354 319.452 148.544 320.516 148.656 322.336H147.228C147.102 321.286 146.556 320.684 145.646 320.502V323.47C147.564 324.03 148.908 324.534 148.908 326.466C148.908 327.936 147.816 329.112 145.646 329.196V330.414H144.806ZM143.112 321.762C143.112 322.588 143.798 322.91 144.806 323.218V320.446C143.77 320.502 143.112 320.978 143.112 321.762ZM147.466 326.508C147.466 325.584 146.878 325.206 145.646 324.828V327.978C146.99 327.908 147.466 327.32 147.466 326.508Z" fill="black"/>
<path d="M416.818 270.592H412.632L411.806 273H410.182L413.906 262.99H415.572L419.324 273H417.644L416.818 270.592ZM413.08 269.29H416.37L414.746 264.418H414.718L413.08 269.29ZM420.23 273V265.86H421.602V266.756H421.63C422.008 266.21 422.75 265.65 423.982 265.65C425.298 265.65 426.362 266.406 426.362 268.044V273H424.976V268.422C424.976 267.47 424.556 266.826 423.534 266.826C422.358 266.826 421.602 267.54 421.602 268.618V273H420.23ZM427.832 273V265.86H429.204V266.756H429.232C429.61 266.21 430.352 265.65 431.584 265.65C432.9 265.65 433.964 266.406 433.964 268.044V273H432.578V268.422C432.578 267.47 432.158 266.826 431.136 266.826C429.96 266.826 429.204 267.54 429.204 268.618V273H427.832ZM436.804 270.424C436.804 271.39 437.224 272.034 438.246 272.034C439.422 272.034 440.178 271.32 440.178 270.242V265.86H441.55V273H440.178V272.104H440.15C439.772 272.65 439.03 273.196 437.798 273.196C436.482 273.196 435.418 272.44 435.418 270.802V265.86H436.804V270.424ZM446.227 273.21C443.959 273.21 442.699 271.6 442.699 269.416C442.699 267.176 444.043 265.636 446.227 265.636C448.397 265.636 449.615 267.064 449.615 269.276C449.615 269.472 449.615 269.682 449.601 269.794H444.113C444.141 270.998 444.841 272.09 446.255 272.09C447.515 272.09 447.991 271.278 448.131 270.802H449.517C449.153 272.174 448.103 273.21 446.227 273.21ZM446.185 266.756C445.037 266.756 444.197 267.54 444.113 268.716H448.173C448.173 267.596 447.403 266.756 446.185 266.756ZM450.759 262.99H452.131V273H450.759V262.99Z" fill="black"/>
<path d="M416.818 326.592H412.632L411.806 329H410.182L413.906 318.99H415.572L419.324 329H417.644L416.818 326.592ZM413.08 325.29H416.37L414.746 320.418H414.718L413.08 325.29ZM420.23 329V321.86H421.602V322.756H421.63C422.008 322.21 422.75 321.65 423.982 321.65C425.298 321.65 426.362 322.406 426.362 324.044V329H424.976V324.422C424.976 323.47 424.556 322.826 423.534 322.826C422.358 322.826 421.602 323.54 421.602 324.618V329H420.23ZM427.832 329V321.86H429.204V322.756H429.232C429.61 322.21 430.352 321.65 431.584 321.65C432.9 321.65 433.964 322.406 433.964 324.044V329H432.578V324.422C432.578 323.47 432.158 322.826 431.136 322.826C429.96 322.826 429.204 323.54 429.204 324.618V329H427.832ZM436.804 326.424C436.804 327.39 437.224 328.034 438.246 328.034C439.422 328.034 440.178 327.32 440.178 326.242V321.86H441.55V329H440.178V328.104H440.15C439.772 328.65 439.03 329.196 437.798 329.196C436.482 329.196 435.418 328.44 435.418 326.802V321.86H436.804V326.424ZM446.227 329.21C443.959 329.21 442.699 327.6 442.699 325.416C442.699 323.176 444.043 321.636 446.227 321.636C448.397 321.636 449.615 323.064 449.615 325.276C449.615 325.472 449.615 325.682 449.601 325.794H444.113C444.141 326.998 444.841 328.09 446.255 328.09C447.515 328.09 447.991 327.278 448.131 326.802H449.517C449.153 328.174 448.103 329.21 446.227 329.21ZM446.185 322.756C445.037 322.756 444.197 323.54 444.113 324.716H448.173C448.173 323.596 447.403 322.756 446.185 322.756ZM450.759 318.99H452.131V329H450.759V318.99Z" fill="black"/>
<path d="M292.952 266.084C292.686 264.824 291.748 264.124 290.264 264.124C288.052 264.124 287.184 266.112 287.184 267.988C287.184 269.878 287.842 271.866 290.18 271.866C291.832 271.866 293.148 270.718 293.148 269.052H290.208V267.764H294.716V273H293.666L293.274 271.614H293.246C292.56 272.636 291.622 273.196 290.096 273.196C287.198 273.196 285.588 271.012 285.588 267.988C285.588 264.978 287.422 262.794 290.278 262.794C292.854 262.794 294.226 264.18 294.562 266.084H292.952ZM299.462 273.21C297.194 273.21 295.934 271.6 295.934 269.416C295.934 267.176 297.278 265.636 299.462 265.636C301.632 265.636 302.85 267.064 302.85 269.276C302.85 269.472 302.85 269.682 302.836 269.794H297.348C297.376 270.998 298.076 272.09 299.49 272.09C300.75 272.09 301.226 271.278 301.366 270.802H302.752C302.388 272.174 301.338 273.21 299.462 273.21ZM299.42 266.756C298.272 266.756 297.432 267.54 297.348 268.716H301.408C301.408 267.596 300.638 266.756 299.42 266.756ZM306.964 268.688C308.266 268.996 309.694 269.374 309.694 270.97C309.694 272.356 308.63 273.196 306.754 273.196C304.584 273.196 303.506 272.076 303.464 270.62H304.85C304.92 271.446 305.41 272.09 306.74 272.09C307.944 272.09 308.266 271.558 308.266 271.04C308.266 270.144 307.314 270.046 306.39 269.85C305.144 269.57 303.716 269.192 303.716 267.708C303.716 266.476 304.71 265.65 306.446 265.65C308.392 265.65 309.33 266.7 309.428 267.932H308.042C307.944 267.386 307.664 266.756 306.46 266.756C305.55 266.756 305.144 267.12 305.144 267.652C305.144 268.394 305.942 268.45 306.964 268.688ZM310.135 265.86H311.171V263.564H312.543V265.86H313.915V266.994H312.543V271.026C312.543 271.782 312.753 271.95 313.341 271.95C313.565 271.95 313.677 271.936 313.929 271.894V273C313.565 273.07 313.355 273.084 313.047 273.084C311.885 273.084 311.171 272.636 311.171 270.984V266.994H310.135V265.86ZM315.052 263.102H316.606V264.586H315.052V263.102ZM315.15 265.86H316.522V273H315.15V265.86ZM321.228 273.21C319.002 273.21 317.658 271.67 317.658 269.43C317.658 267.204 319.002 265.636 321.228 265.636C323.454 265.636 324.798 267.19 324.798 269.416C324.798 271.656 323.454 273.21 321.228 273.21ZM321.228 272.076C322.684 272.076 323.37 270.914 323.37 269.43C323.37 267.932 322.684 266.784 321.228 266.784C319.758 266.784 319.086 267.932 319.086 269.43C319.086 270.914 319.758 272.076 321.228 272.076ZM325.937 273V265.86H327.309V266.756H327.337C327.715 266.21 328.457 265.65 329.689 265.65C331.005 265.65 332.069 266.406 332.069 268.044V273H330.683V268.422C330.683 267.47 330.263 266.826 329.241 266.826C328.065 266.826 327.309 267.54 327.309 268.618V273H325.937ZM333.539 273V265.86H334.911V266.756H334.939C335.317 266.21 336.059 265.65 337.291 265.65C338.607 265.65 339.671 266.406 339.671 268.044V273H338.285V268.422C338.285 267.47 337.865 266.826 336.843 266.826C335.667 266.826 334.911 267.54 334.911 268.618V273H333.539ZM343.074 273.196C341.646 273.196 340.736 272.37 340.736 271.152C340.736 269.556 341.94 269.094 343.718 268.744C344.838 268.534 345.524 268.394 345.524 267.694C345.524 267.176 345.216 266.742 344.166 266.742C342.92 266.742 342.542 267.134 342.472 268.086H341.072C341.142 266.714 342.038 265.636 344.222 265.636C345.692 265.636 346.868 266.252 346.868 268.1V271.376C346.868 271.894 346.938 272.16 347.204 272.16C347.246 272.16 347.288 272.16 347.372 272.146V272.986C347.134 273.042 346.896 273.07 346.672 273.07C346 273.07 345.622 272.804 345.552 271.992H345.524C345.048 272.734 344.236 273.196 343.074 273.196ZM343.382 272.09C344.614 272.09 345.524 271.46 345.524 270.214V269.192C345.3 269.402 344.684 269.556 343.956 269.71C342.696 269.976 342.178 270.312 342.178 271.054C342.178 271.726 342.528 272.09 343.382 272.09ZM348.384 263.102H349.938V264.586H348.384V263.102ZM348.482 265.86H349.854V273H348.482V265.86ZM351.38 265.86H352.752V267.218H352.78C353.144 266.322 353.732 265.692 354.698 265.692C354.95 265.692 355.146 265.706 355.356 265.734V267.05C355.174 267.022 355.048 267.008 354.894 267.008C353.648 267.008 352.752 267.946 352.752 269.304V273H351.38V265.86ZM359.194 273.21C356.926 273.21 355.666 271.6 355.666 269.416C355.666 267.176 357.01 265.636 359.194 265.636C361.364 265.636 362.582 267.064 362.582 269.276C362.582 269.472 362.582 269.682 362.568 269.794H357.08C357.108 270.998 357.808 272.09 359.222 272.09C360.482 272.09 360.958 271.278 361.098 270.802H362.484C362.12 272.174 361.07 273.21 359.194 273.21ZM359.152 266.756C358.004 266.756 357.164 267.54 357.08 268.716H361.14C361.14 267.596 360.37 266.756 359.152 266.756ZM366.697 268.688C367.999 268.996 369.427 269.374 369.427 270.97C369.427 272.356 368.363 273.196 366.487 273.196C364.317 273.196 363.239 272.076 363.197 270.62H364.583C364.653 271.446 365.143 272.09 366.473 272.09C367.677 272.09 367.999 271.558 367.999 271.04C367.999 270.144 367.047 270.046 366.123 269.85C364.877 269.57 363.449 269.192 363.449 267.708C363.449 266.476 364.443 265.65 366.179 265.65C368.125 265.65 369.063 266.7 369.161 267.932H367.775C367.677 267.386 367.397 266.756 366.193 266.756C365.283 266.756 364.877 267.12 364.877 267.652C364.877 268.394 365.675 268.45 366.697 268.688Z" fill="black"/>
<path d="M289.676 323.12C291.608 323.61 293.428 324.072 293.428 326.186C293.428 327.908 292.252 329.196 289.76 329.196C287.226 329.196 285.434 327.88 285.336 325.626H286.932C287.044 326.97 287.842 327.88 289.718 327.88C291.314 327.88 291.818 327.18 291.818 326.27C291.818 324.996 290.838 324.814 289.018 324.352C287.45 323.946 285.728 323.428 285.728 321.524C285.728 319.788 287.072 318.794 289.228 318.794C291.51 318.794 292.994 319.956 293.148 321.972H291.538C291.384 320.768 290.698 320.11 289.228 320.11C287.982 320.11 287.324 320.572 287.324 321.44C287.324 322.56 288.388 322.798 289.676 323.12ZM297.794 329.21C295.526 329.21 294.266 327.6 294.266 325.416C294.266 323.176 295.61 321.636 297.794 321.636C299.964 321.636 301.182 323.064 301.182 325.276C301.182 325.472 301.182 325.682 301.168 325.794H295.68C295.708 326.998 296.408 328.09 297.822 328.09C299.082 328.09 299.558 327.278 299.698 326.802H301.084C300.72 328.174 299.67 329.21 297.794 329.21ZM297.752 322.756C296.604 322.756 295.764 323.54 295.68 324.716H299.74C299.74 323.596 298.97 322.756 297.752 322.756ZM302.326 329V321.86H303.698V322.756H303.726C304.104 322.21 304.846 321.65 306.078 321.65C307.394 321.65 308.458 322.406 308.458 324.044V329H307.072V324.422C307.072 323.47 306.652 322.826 305.63 322.826C304.454 322.826 303.698 323.54 303.698 324.618V329H302.326ZM309.829 319.102H311.383V320.586H309.829V319.102ZM309.927 321.86H311.299V329H309.927V321.86ZM316.006 329.21C313.78 329.21 312.436 327.67 312.436 325.43C312.436 323.204 313.78 321.636 316.006 321.636C318.232 321.636 319.576 323.19 319.576 325.416C319.576 327.656 318.232 329.21 316.006 329.21ZM316.006 328.076C317.462 328.076 318.148 326.914 318.148 325.43C318.148 323.932 317.462 322.784 316.006 322.784C314.536 322.784 313.864 323.932 313.864 325.43C313.864 326.914 314.536 328.076 316.006 328.076ZM320.714 321.86H322.086V323.218H322.114C322.478 322.322 323.066 321.692 324.032 321.692C324.284 321.692 324.48 321.706 324.69 321.734V323.05C324.508 323.022 324.382 323.008 324.228 323.008C322.982 323.008 322.086 323.946 322.086 325.304V329H320.714V321.86ZM328.662 324.688C329.964 324.996 331.392 325.374 331.392 326.97C331.392 328.356 330.328 329.196 328.452 329.196C326.282 329.196 325.204 328.076 325.162 326.62H326.548C326.618 327.446 327.108 328.09 328.438 328.09C329.642 328.09 329.964 327.558 329.964 327.04C329.964 326.144 329.012 326.046 328.088 325.85C326.842 325.57 325.414 325.192 325.414 323.708C325.414 322.476 326.408 321.65 328.144 321.65C330.09 321.65 331.028 322.7 331.126 323.932H329.74C329.642 323.386 329.362 322.756 328.158 322.756C327.248 322.756 326.842 323.12 326.842 323.652C326.842 324.394 327.64 324.45 328.662 324.688Z" fill="black"/>
<path d="M164 212C164 203.163 171.163 196 180 196H216C224.837 196 232 203.163 232 212V212C232 220.837 224.837 228 216 228H180C171.163 228 164 220.837 164 212V212Z" fill="#FFF4D9"/>
<path d="M184.008 210.96C185.664 211.38 187.224 211.776 187.224 213.588C187.224 215.064 186.216 216.168 184.08 216.168C181.908 216.168 180.372 215.04 180.288 213.108H181.656C181.752 214.26 182.436 215.04 184.044 215.04C185.412 215.04 185.844 214.44 185.844 213.66C185.844 212.568 185.004 212.412 183.444 212.016C182.1 211.668 180.624 211.224 180.624 209.592C180.624 208.104 181.776 207.252 183.624 207.252C185.58 207.252 186.852 208.248 186.984 209.976H185.604C185.472 208.944 184.884 208.38 183.624 208.38C182.556 208.38 181.992 208.776 181.992 209.52C181.992 210.48 182.904 210.684 184.008 210.96ZM189.394 215.244H189.37V218.124H188.194V209.88H189.37V210.6H189.394C189.73 210.168 190.318 209.7 191.278 209.7C192.838 209.7 194.026 210.924 194.026 212.94C194.026 214.956 192.838 216.168 191.278 216.168C190.318 216.168 189.73 215.736 189.394 215.244ZM191.086 210.684C190.03 210.684 189.382 211.548 189.382 212.94C189.382 214.32 190.03 215.196 191.086 215.196C192.238 215.196 192.79 214.14 192.79 212.94C192.79 211.74 192.238 210.684 191.086 210.684ZM197.799 216.18C195.891 216.18 194.739 214.86 194.739 212.94C194.739 211.032 195.891 209.688 197.799 209.688C199.707 209.688 200.859 211.02 200.859 212.928C200.859 214.848 199.707 216.18 197.799 216.18ZM197.799 215.208C199.047 215.208 199.635 214.212 199.635 212.94C199.635 211.656 199.047 210.672 197.799 210.672C196.539 210.672 195.963 211.656 195.963 212.94C195.963 214.212 196.539 215.208 197.799 215.208ZM201.835 209.88H203.011V211.044H203.035C203.347 210.276 203.851 209.736 204.679 209.736C204.895 209.736 205.063 209.748 205.243 209.772V210.9C205.087 210.876 204.979 210.864 204.847 210.864C203.779 210.864 203.011 211.668 203.011 212.832V216H201.835V209.88ZM205.798 209.88H206.686V207.912H207.862V209.88H209.038V210.852H207.862V214.308C207.862 214.956 208.042 215.1 208.546 215.1C208.738 215.1 208.834 215.088 209.05 215.052V216C208.738 216.06 208.558 216.072 208.294 216.072C207.298 216.072 206.686 215.688 206.686 214.272V210.852H205.798V209.88ZM212.584 212.304C213.7 212.568 214.924 212.892 214.924 214.26C214.924 215.448 214.012 216.168 212.404 216.168C210.544 216.168 209.62 215.208 209.584 213.96H210.772C210.832 214.668 211.252 215.22 212.392 215.22C213.424 215.22 213.7 214.764 213.7 214.32C213.7 213.552 212.884 213.468 212.092 213.3C211.024 213.06 209.8 212.736 209.8 211.464C209.8 210.408 210.652 209.7 212.14 209.7C213.808 209.7 214.612 210.6 214.696 211.656H213.508C213.424 211.188 213.184 210.648 212.152 210.648C211.372 210.648 211.024 210.96 211.024 211.416C211.024 212.052 211.708 212.1 212.584 212.304Z" fill="black"/>
<path d="M164 268C164 259.163 171.163 252 180 252H211C219.837 252 227 259.163 227 268V268C227 276.837 219.837 284 211 284H180C171.163 284 164 276.837 164 268V268Z" fill="#D9F4F7"/>
<path d="M184.008 266.96C185.664 267.38 187.224 267.776 187.224 269.588C187.224 271.064 186.216 272.168 184.08 272.168C181.908 272.168 180.372 271.04 180.288 269.108H181.656C181.752 270.26 182.436 271.04 184.044 271.04C185.412 271.04 185.844 270.44 185.844 269.66C185.844 268.568 185.004 268.412 183.444 268.016C182.1 267.668 180.624 267.224 180.624 265.592C180.624 264.104 181.776 263.252 183.624 263.252C185.58 263.252 186.852 264.248 186.984 265.976H185.604C185.472 264.944 184.884 264.38 183.624 264.38C182.556 264.38 181.992 264.776 181.992 265.52C181.992 266.48 182.904 266.684 184.008 266.96ZM189.922 272.168C188.698 272.168 187.918 271.46 187.918 270.416C187.918 269.048 188.95 268.652 190.474 268.352C191.434 268.172 192.022 268.052 192.022 267.452C192.022 267.008 191.758 266.636 190.858 266.636C189.79 266.636 189.466 266.972 189.406 267.788H188.206C188.266 266.612 189.034 265.688 190.906 265.688C192.166 265.688 193.174 266.216 193.174 267.8V270.608C193.174 271.052 193.234 271.28 193.462 271.28C193.498 271.28 193.534 271.28 193.606 271.268V271.988C193.402 272.036 193.198 272.06 193.006 272.06C192.43 272.06 192.106 271.832 192.046 271.136H192.022C191.614 271.772 190.918 272.168 189.922 272.168ZM190.186 271.22C191.242 271.22 192.022 270.68 192.022 269.612V268.736C191.83 268.916 191.302 269.048 190.678 269.18C189.598 269.408 189.154 269.696 189.154 270.332C189.154 270.908 189.454 271.22 190.186 271.22ZM194.558 272V265.88H195.734V266.648H195.758C196.082 266.18 196.718 265.7 197.774 265.7C198.902 265.7 199.814 266.348 199.814 267.752V272H198.626V268.076C198.626 267.26 198.266 266.708 197.39 266.708C196.382 266.708 195.734 267.32 195.734 268.244V272H194.558ZM200.478 265.88H201.366V263.912H202.542V265.88H203.718V266.852H202.542V270.308C202.542 270.956 202.722 271.1 203.226 271.1C203.418 271.1 203.514 271.088 203.73 271.052V272C203.418 272.06 203.238 272.072 202.974 272.072C201.978 272.072 201.366 271.688 201.366 270.272V266.852H200.478V265.88ZM207.351 263.276H208.731L207.579 264.932H206.643L207.351 263.276ZM207.267 272.18C205.323 272.18 204.243 270.8 204.243 268.928C204.243 267.008 205.395 265.688 207.267 265.688C209.127 265.688 210.171 266.912 210.171 268.808C210.171 268.976 210.171 269.156 210.159 269.252H205.455C205.479 270.284 206.079 271.22 207.291 271.22C208.371 271.22 208.779 270.524 208.899 270.116H210.087C209.775 271.292 208.875 272.18 207.267 272.18ZM207.231 266.648C206.247 266.648 205.527 267.32 205.455 268.328H208.935C208.935 267.368 208.275 266.648 207.231 266.648Z" fill="black"/>
<path d="M164 324C164 315.163 171.163 308 180 308H237C245.837 308 253 315.163 253 324V324C253 332.837 245.837 340 237 340H180C171.163 340 164 332.837 164 324V324Z" fill="#E8F9DD"/>
<path d="M180.768 328V319.42H182.508L184.98 326.164H185.004L187.488 319.42H189.228V328H187.932V321.34H187.908L185.544 328H184.452L182.088 321.34H182.064V328H180.768ZM190.56 319.516H191.892V320.788H190.56V319.516ZM190.644 321.88H191.82V328H190.644V321.88ZM195.818 328.18C193.874 328.18 192.794 326.8 192.794 324.928C192.794 323.008 193.946 321.688 195.818 321.688C197.678 321.688 198.722 322.912 198.722 324.808C198.722 324.976 198.722 325.156 198.71 325.252H194.006C194.03 326.284 194.63 327.22 195.842 327.22C196.922 327.22 197.33 326.524 197.45 326.116H198.638C198.326 327.292 197.426 328.18 195.818 328.18ZM195.782 322.648C194.798 322.648 194.078 323.32 194.006 324.328H197.486C197.486 323.368 196.826 322.648 195.782 322.648ZM200.83 325.792C200.83 326.62 201.19 327.172 202.066 327.172C203.074 327.172 203.722 326.56 203.722 325.636V321.88H204.898V328H203.722V327.232H203.698C203.374 327.7 202.738 328.168 201.682 328.168C200.554 328.168 199.642 327.52 199.642 326.116V321.88H200.83V325.792ZM205.789 321.88H207.145L208.597 324.064H208.621L210.061 321.88H211.405L209.317 324.868L211.645 328H210.253L208.609 325.66H208.585L206.965 328H205.585L207.901 324.868L205.789 321.88ZM211.722 324.388H214.95V325.504H211.722V324.388ZM216.939 320.932L218.079 319.276H219.351L220.491 320.932H219.363L218.727 319.864H218.703L218.055 320.932H216.939ZM218.775 328.18C216.831 328.18 215.751 326.8 215.751 324.928C215.751 323.008 216.903 321.688 218.775 321.688C220.635 321.688 221.679 322.912 221.679 324.808C221.679 324.976 221.679 325.156 221.667 325.252H216.963C216.987 326.284 217.587 327.22 218.799 327.22C219.879 327.22 220.287 326.524 220.407 326.116H221.595C221.283 327.292 220.383 328.18 218.775 328.18ZM218.739 322.648C217.755 322.648 217.035 323.32 216.963 324.328H220.443C220.443 323.368 219.783 322.648 218.739 322.648ZM222.122 321.88H223.01V319.912H224.186V321.88H225.362V322.852H224.186V326.308C224.186 326.956 224.366 327.1 224.87 327.1C225.062 327.1 225.158 327.088 225.374 327.052V328C225.062 328.06 224.882 328.072 224.618 328.072C223.622 328.072 223.01 327.688 223.01 326.272V322.852H222.122V321.88ZM226.362 321.88H227.538V323.044H227.562C227.874 322.276 228.378 321.736 229.206 321.736C229.422 321.736 229.59 321.748 229.77 321.772V322.9C229.614 322.876 229.506 322.864 229.374 322.864C228.306 322.864 227.538 323.668 227.538 324.832V328H226.362V321.88ZM233.06 328.18C231.116 328.18 230.036 326.8 230.036 324.928C230.036 323.008 231.188 321.688 233.06 321.688C234.92 321.688 235.964 322.912 235.964 324.808C235.964 324.976 235.964 325.156 235.952 325.252H231.248C231.272 326.284 231.872 327.22 233.084 327.22C234.164 327.22 234.572 326.524 234.692 326.116H235.88C235.568 327.292 234.668 328.18 233.06 328.18ZM233.024 322.648C232.04 322.648 231.32 323.32 231.248 324.328H234.728C234.728 323.368 234.068 322.648 233.024 322.648Z" fill="black"/>
<path d="M244.008 145.56H238.028L236.848 149H234.528L239.848 134.7H242.228L247.588 149H245.188L244.008 145.56ZM238.668 143.7H243.368L241.048 136.74H241.008L238.668 143.7ZM248.882 134.7H250.842V149H248.882V134.7ZM253.101 134.7H255.061V149H253.101V134.7ZM261.784 149.3C258.604 149.3 256.684 147.1 256.684 143.9C256.684 140.72 258.604 138.48 261.784 138.48C264.964 138.48 266.884 140.7 266.884 143.88C266.884 147.08 264.964 149.3 261.784 149.3ZM261.784 147.68C263.864 147.68 264.844 146.02 264.844 143.9C264.844 141.76 263.864 140.12 261.784 140.12C259.684 140.12 258.724 141.76 258.724 143.9C258.724 146.02 259.684 147.68 261.784 147.68ZM275.631 142.5C275.551 141.44 274.951 140.12 273.071 140.12C270.911 140.12 270.111 141.98 270.111 143.9C270.111 145.82 270.911 147.66 273.071 147.66C274.951 147.66 275.551 146.38 275.631 145.22H277.671C277.531 147.56 275.691 149.3 273.091 149.3C270.051 149.3 268.071 147.1 268.071 143.9C268.071 140.7 270.051 138.5 273.071 138.5C275.691 138.5 277.431 140.2 277.671 142.5H275.631ZM282.113 149.28C280.073 149.28 278.773 148.1 278.773 146.36C278.773 144.08 280.493 143.42 283.033 142.92C284.633 142.62 285.613 142.42 285.613 141.42C285.613 140.68 285.173 140.06 283.673 140.06C281.893 140.06 281.353 140.62 281.253 141.98H279.253C279.353 140.02 280.633 138.48 283.753 138.48C285.853 138.48 287.533 139.36 287.533 142V146.68C287.533 147.42 287.633 147.8 288.013 147.8C288.073 147.8 288.133 147.8 288.253 147.78V148.98C287.913 149.06 287.573 149.1 287.253 149.1C286.293 149.1 285.753 148.72 285.653 147.56H285.613C284.933 148.62 283.773 149.28 282.113 149.28ZM282.553 147.7C284.313 147.7 285.613 146.8 285.613 145.02V143.56C285.293 143.86 284.413 144.08 283.373 144.3C281.573 144.68 280.833 145.16 280.833 146.22C280.833 147.18 281.333 147.7 282.553 147.7ZM288.651 138.8H290.131V135.52H292.091V138.8H294.051V140.42H292.091V146.18C292.091 147.26 292.391 147.5 293.231 147.5C293.551 147.5 293.711 147.48 294.071 147.42V149C293.551 149.1 293.251 149.12 292.811 149.12C291.151 149.12 290.131 148.48 290.131 146.12V140.42H288.651V138.8ZM295.675 134.86H297.895V136.98H295.675V134.86ZM295.815 138.8H297.775V149H295.815V138.8ZM304.499 149.3C301.319 149.3 299.399 147.1 299.399 143.9C299.399 140.72 301.319 138.48 304.499 138.48C307.679 138.48 309.599 140.7 309.599 143.88C309.599 147.08 307.679 149.3 304.499 149.3ZM304.499 147.68C306.579 147.68 307.559 146.02 307.559 143.9C307.559 141.76 306.579 140.12 304.499 140.12C302.399 140.12 301.439 141.76 301.439 143.9C301.439 146.02 302.399 147.68 304.499 147.68ZM311.226 149V138.8H313.186V140.08H313.226C313.766 139.3 314.826 138.5 316.586 138.5C318.466 138.5 319.986 139.58 319.986 141.92V149H318.006V142.46C318.006 141.1 317.406 140.18 315.946 140.18C314.266 140.18 313.186 141.2 313.186 142.74V149H311.226ZM326.368 142.84C328.228 143.28 330.268 143.82 330.268 146.1C330.268 148.08 328.748 149.28 326.068 149.28C322.968 149.28 321.428 147.68 321.368 145.6H323.348C323.448 146.78 324.148 147.7 326.048 147.7C327.768 147.7 328.228 146.94 328.228 146.2C328.228 144.92 326.868 144.78 325.548 144.5C323.768 144.1 321.728 143.56 321.728 141.44C321.728 139.68 323.148 138.5 325.628 138.5C328.408 138.5 329.748 140 329.888 141.76H327.908C327.768 140.98 327.368 140.08 325.648 140.08C324.348 140.08 323.768 140.6 323.768 141.36C323.768 142.42 324.908 142.5 326.368 142.84Z" fill="black"/>
<path d="M0 264H564V390C564 423.137 537.137 450 504 450H60C26.8629 450 0 423.137 0 390V264Z" fill="url(#paint0_linear_2806_1531)"/>
<defs>
<linearGradient id="paint0_linear_2806_1531" x1="282" y1="264" x2="282" y2="450" gradientUnits="userSpaceOnUse">
<stop stop-color="#EDD9FF" stop-opacity="0"/>
<stop offset="0.59" stop-color="#EDD9FF"/>
</linearGradient>
</defs>
</svg>
