<svg width="564" height="450" viewBox="0 0 564 450" fill="none" xmlns="http://www.w3.org/2000/svg">
<rect width="564" height="450" fill="#EDD9FF"/>
<path d="M72 100C72 88.9543 80.9543 80 92 80H472C483.046 80 492 88.9543 492 100V450H72V100Z" fill="#FDFDFD"/>
<rect opacity="0.1" x="154" y="215" width="230" height="10" rx="5" fill="black"/>
<rect opacity="0.1" x="426" y="215" width="32" height="10" rx="5" fill="black"/>
<rect opacity="0.1" x="426" y="271" width="32" height="10" rx="5" fill="black"/>
<rect opacity="0.1" x="426" y="327" width="32" height="10" rx="5" fill="black"/>
<path opacity="0.1" d="M106 192H458" stroke="black" stroke-linecap="round"/>
<rect x="106" y="204" width="32" height="32" rx="8" fill="#E8F9DD"/>
<path fill-rule="evenodd" clip-rule="evenodd" d="M115.749 217.777L113.666 220L119.916 226.666L130.333 215.555L128.249 213.333L119.916 222.222L115.749 217.777Z" fill="#64D71E"/>
<rect opacity="0.1" x="154" y="271" width="144" height="10" rx="5" fill="black"/>
<path opacity="0.1" d="M106 248H458" stroke="black" stroke-linecap="round"/>
<rect x="106" y="260" width="32" height="32" rx="8" fill="#E8F9DD"/>
<path fill-rule="evenodd" clip-rule="evenodd" d="M115.749 273.777L113.666 276L119.916 282.666L130.333 271.555L128.249 269.333L119.916 278.222L115.749 273.777Z" fill="#64D71E"/>
<rect opacity="0.1" x="154" y="327" width="204" height="10" rx="5" fill="black"/>
<path opacity="0.1" d="M106 304H458" stroke="black" stroke-linecap="round"/>
<rect x="106" y="316" width="32" height="32" rx="8" fill="#E8F9DD"/>
<path fill-rule="evenodd" clip-rule="evenodd" d="M115.749 329.777L113.666 332L119.916 338.666L130.333 327.555L128.249 325.333L119.916 334.222L115.749 329.777Z" fill="#64D71E"/>
<path d="M171.29 153V138.7H177.25C180.41 138.7 182.11 140.18 182.11 142.82C182.11 144.64 181.01 145.96 179.45 146.32V146.36C182.75 146.98 181.53 152.62 182.31 152.86V153H179.95C179.31 152.4 180.67 147.4 177.17 147.4H173.49V153H171.29ZM173.49 140.6V145.5H176.77C178.79 145.5 179.89 144.62 179.89 142.98C179.89 141.44 179.01 140.6 176.81 140.6H173.49ZM188.719 138.46H191.019L189.099 141.22H187.539L188.719 138.46ZM188.579 153.3C185.339 153.3 183.539 151 183.539 147.88C183.539 144.68 185.459 142.48 188.579 142.48C191.679 142.48 193.419 144.52 193.419 147.68C193.419 147.96 193.419 148.26 193.399 148.42H185.559C185.599 150.14 186.599 151.7 188.619 151.7C190.419 151.7 191.099 150.54 191.299 149.86H193.279C192.759 151.82 191.259 153.3 188.579 153.3ZM188.519 144.08C186.879 144.08 185.679 145.2 185.559 146.88H191.359C191.359 145.28 190.259 144.08 188.519 144.08ZM202.174 146.5C202.094 145.44 201.494 144.12 199.614 144.12C197.454 144.12 196.654 145.98 196.654 147.9C196.654 149.82 197.454 151.66 199.614 151.66C201.494 151.66 202.094 150.38 202.174 149.22H204.214C204.074 151.56 202.234 153.3 199.634 153.3C196.594 153.3 194.614 151.1 194.614 147.9C194.614 144.7 196.594 142.5 199.614 142.5C202.234 142.5 203.974 144.2 204.214 146.5H202.174ZM205.776 138.7H207.736V153H205.776V138.7ZM212.68 153.28C210.64 153.28 209.34 152.1 209.34 150.36C209.34 148.08 211.06 147.42 213.6 146.92C215.2 146.62 216.18 146.42 216.18 145.42C216.18 144.68 215.74 144.06 214.24 144.06C212.46 144.06 211.92 144.62 211.82 145.98H209.82C209.92 144.02 211.2 142.48 214.32 142.48C216.42 142.48 218.1 143.36 218.1 146V150.68C218.1 151.42 218.2 151.8 218.58 151.8C218.64 151.8 218.7 151.8 218.82 151.78V152.98C218.48 153.06 218.14 153.1 217.82 153.1C216.86 153.1 216.32 152.72 216.22 151.56H216.18C215.5 152.62 214.34 153.28 212.68 153.28ZM213.12 151.7C214.88 151.7 216.18 150.8 216.18 149.02V147.56C215.86 147.86 214.98 148.08 213.94 148.3C212.14 148.68 211.4 149.16 211.4 150.22C211.4 151.18 211.9 151.7 213.12 151.7ZM220.405 153V142.8H222.365V144.08H222.405C222.945 143.3 223.885 142.5 225.425 142.5C226.845 142.5 227.705 143.14 228.125 144.28H228.165C228.905 143.3 229.925 142.5 231.505 142.5C233.565 142.5 234.605 143.74 234.605 145.92V153H232.645V146.46C232.645 145.1 232.365 144.18 230.865 144.18C229.405 144.18 228.485 145.2 228.485 146.74V153H226.525V146.46C226.525 145.1 226.245 144.18 224.745 144.18C223.285 144.18 222.365 145.2 222.365 146.74V153H220.405ZM239.477 153.28C237.437 153.28 236.137 152.1 236.137 150.36C236.137 148.08 237.857 147.42 240.397 146.92C241.997 146.62 242.977 146.42 242.977 145.42C242.977 144.68 242.537 144.06 241.037 144.06C239.257 144.06 238.717 144.62 238.617 145.98H236.617C236.717 144.02 237.997 142.48 241.117 142.48C243.217 142.48 244.897 143.36 244.897 146V150.68C244.897 151.42 244.997 151.8 245.377 151.8C245.437 151.8 245.497 151.8 245.617 151.78V152.98C245.277 153.06 244.937 153.1 244.617 153.1C243.657 153.1 243.117 152.72 243.017 151.56H242.977C242.297 152.62 241.137 153.28 239.477 153.28ZM239.917 151.7C241.677 151.7 242.977 150.8 242.977 149.02V147.56C242.657 147.86 241.777 148.08 240.737 148.3C238.937 148.68 238.197 149.16 238.197 150.22C238.197 151.18 238.697 151.7 239.917 151.7ZM246.014 142.8H247.494V139.52H249.454V142.8H251.414V144.42H249.454V150.18C249.454 151.26 249.754 151.5 250.594 151.5C250.914 151.5 251.074 151.48 251.434 151.42V153C250.914 153.1 250.614 153.12 250.174 153.12C248.514 153.12 247.494 152.48 247.494 150.12V144.42H246.014V142.8ZM253.039 138.86H255.259V140.98H253.039V138.86ZM253.179 142.8H255.139V153H253.179V142.8ZM261.862 153.3C258.682 153.3 256.762 151.1 256.762 147.9C256.762 144.72 258.682 142.48 261.862 142.48C265.042 142.48 266.962 144.7 266.962 147.88C266.962 151.08 265.042 153.3 261.862 153.3ZM261.862 151.68C263.942 151.68 264.922 150.02 264.922 147.9C264.922 145.76 263.942 144.12 261.862 144.12C259.762 144.12 258.802 145.76 258.802 147.9C258.802 150.02 259.762 151.68 261.862 151.68ZM268.589 153V142.8H270.549V144.08H270.589C271.129 143.3 272.189 142.5 273.949 142.5C275.829 142.5 277.349 143.58 277.349 145.92V153H275.369V146.46C275.369 145.1 274.769 144.18 273.309 144.18C271.629 144.18 270.549 145.2 270.549 146.74V153H268.589ZM283.731 146.84C285.591 147.28 287.631 147.82 287.631 150.1C287.631 152.08 286.111 153.28 283.431 153.28C280.331 153.28 278.791 151.68 278.731 149.6H280.711C280.811 150.78 281.511 151.7 283.411 151.7C285.131 151.7 285.591 150.94 285.591 150.2C285.591 148.92 284.231 148.78 282.911 148.5C281.131 148.1 279.091 147.56 279.091 145.44C279.091 143.68 280.511 142.5 282.991 142.5C285.771 142.5 287.111 144 287.251 145.76H285.271C285.131 144.98 284.731 144.08 283.011 144.08C281.711 144.08 281.131 144.6 281.131 145.36C281.131 146.42 282.271 146.5 283.731 146.84ZM300.67 146.5C300.59 145.44 299.99 144.12 298.11 144.12C295.95 144.12 295.15 145.98 295.15 147.9C295.15 149.82 295.95 151.66 298.11 151.66C299.99 151.66 300.59 150.38 300.67 149.22H302.71C302.57 151.56 300.73 153.3 298.13 153.3C295.09 153.3 293.11 151.1 293.11 147.9C293.11 144.7 295.09 142.5 298.11 142.5C300.73 142.5 302.47 144.2 302.71 146.5H300.67ZM308.932 153.3C305.752 153.3 303.832 151.1 303.832 147.9C303.832 144.72 305.752 142.48 308.932 142.48C312.112 142.48 314.032 144.7 314.032 147.88C314.032 151.08 312.112 153.3 308.932 153.3ZM308.932 151.68C311.012 151.68 311.992 150.02 311.992 147.9C311.992 145.76 311.012 144.12 308.932 144.12C306.832 144.12 305.872 145.76 305.872 147.9C305.872 150.02 306.832 151.68 308.932 151.68ZM315.659 153V142.8H317.619V144.08H317.659C318.199 143.3 319.139 142.5 320.679 142.5C322.099 142.5 322.959 143.14 323.379 144.28H323.419C324.159 143.3 325.179 142.5 326.759 142.5C328.819 142.5 329.859 143.74 329.859 145.92V153H327.899V146.46C327.899 145.1 327.619 144.18 326.119 144.18C324.659 144.18 323.739 145.2 323.739 146.74V153H321.779V146.46C321.779 145.1 321.499 144.18 319.999 144.18C318.539 144.18 317.619 145.2 317.619 146.74V153H315.659ZM333.968 151.74H333.928V156.54H331.968V142.8H333.928V144H333.968C334.528 143.28 335.508 142.5 337.108 142.5C339.708 142.5 341.688 144.54 341.688 147.9C341.688 151.26 339.708 153.28 337.108 153.28C335.508 153.28 334.528 152.56 333.968 151.74ZM336.788 144.14C335.028 144.14 333.948 145.58 333.948 147.9C333.948 150.2 335.028 151.66 336.788 151.66C338.708 151.66 339.628 149.9 339.628 147.9C339.628 145.9 338.708 144.14 336.788 144.14ZM343.315 138.7H345.275V153H343.315V138.7ZM352.079 138.46H354.379L352.459 141.22H350.899L352.079 138.46ZM351.939 153.3C348.699 153.3 346.899 151 346.899 147.88C346.899 144.68 348.819 142.48 351.939 142.48C355.039 142.48 356.779 144.52 356.779 147.68C356.779 147.96 356.779 148.26 356.759 148.42H348.919C348.959 150.14 349.959 151.7 351.979 151.7C353.779 151.7 354.459 150.54 354.659 149.86H356.639C356.119 151.82 354.619 153.3 351.939 153.3ZM351.879 144.08C350.239 144.08 349.039 145.2 348.919 146.88H354.719C354.719 145.28 353.619 144.08 351.879 144.08ZM357.518 142.8H358.998V139.52H360.958V142.8H362.918V144.42H360.958V150.18C360.958 151.26 361.258 151.5 362.098 151.5C362.418 151.5 362.578 151.48 362.938 151.42V153C362.418 153.1 362.118 153.12 361.678 153.12C360.018 153.12 358.998 152.48 358.998 150.12V144.42H357.518V142.8ZM368.973 138.46H371.273L369.353 141.22H367.793L368.973 138.46ZM368.833 153.3C365.593 153.3 363.793 151 363.793 147.88C363.793 144.68 365.713 142.48 368.833 142.48C371.933 142.48 373.673 144.52 373.673 147.68C373.673 147.96 373.673 148.26 373.653 148.42H365.813C365.853 150.14 366.853 151.7 368.873 151.7C370.673 151.7 371.353 150.54 371.553 149.86H373.533C373.013 151.82 371.513 153.3 368.833 153.3ZM368.773 144.08C367.133 144.08 365.933 145.2 365.813 146.88H371.613C371.613 145.28 370.513 144.08 368.773 144.08ZM379.908 153.3C376.668 153.3 374.868 151 374.868 147.88C374.868 144.68 376.788 142.48 379.908 142.48C383.008 142.48 384.748 144.52 384.748 147.68C384.748 147.96 384.748 148.26 384.728 148.42H376.888C376.928 150.14 377.928 151.7 379.948 151.7C381.748 151.7 382.428 150.54 382.628 149.86H384.608C384.088 151.82 382.588 153.3 379.908 153.3ZM379.848 144.08C378.208 144.08 377.008 145.2 376.888 146.88H382.688C382.688 145.28 381.588 144.08 379.848 144.08ZM390.626 146.84C392.486 147.28 394.526 147.82 394.526 150.1C394.526 152.08 393.006 153.28 390.326 153.28C387.226 153.28 385.686 151.68 385.626 149.6H387.606C387.706 150.78 388.406 151.7 390.306 151.7C392.026 151.7 392.486 150.94 392.486 150.2C392.486 148.92 391.126 148.78 389.806 148.5C388.026 148.1 385.986 147.56 385.986 145.44C385.986 143.68 387.406 142.5 389.886 142.5C392.666 142.5 394.006 144 394.146 145.76H392.166C392.026 144.98 391.626 144.08 389.906 144.08C388.606 144.08 388.026 144.6 388.026 145.36C388.026 146.42 389.166 146.5 390.626 146.84Z" fill="black"/>
<path d="M0 264H564V390C564 423.137 537.137 450 504 450H60C26.8629 450 0 423.137 0 390V264Z" fill="url(#paint0_linear_2806_1504)"/>
<defs>
<linearGradient id="paint0_linear_2806_1504" x1="282" y1="264" x2="282" y2="450" gradientUnits="userSpaceOnUse">
<stop stop-color="#EDD9FF" stop-opacity="0"/>
<stop offset="0.59" stop-color="#EDD9FF"/>
</linearGradient>
</defs>
</svg>
