<svg width="132" height="133" viewBox="0 0 132 133" fill="none" xmlns="http://www.w3.org/2000/svg">
<rect width="132" height="133" fill="white"/>
<path d="M37.9205 27.592H33.7345L32.9085 30H31.2845L35.0085 19.99H36.6745L40.4265 30H38.7465L37.9205 27.592ZM34.1825 26.29H37.4725L35.8485 21.418H35.8205L34.1825 26.29ZM41.3325 30V22.86H42.7045V23.756H42.7325C43.1105 23.21 43.8525 22.65 45.0845 22.65C46.4005 22.65 47.4645 23.406 47.4645 25.044V30H46.0785V25.422C46.0785 24.47 45.6585 23.826 44.6365 23.826C43.4605 23.826 42.7045 24.54 42.7045 25.618V30H41.3325ZM53.836 25.45C53.78 24.708 53.36 23.784 52.044 23.784C50.532 23.784 49.972 25.086 49.972 26.43C49.972 27.774 50.532 29.062 52.044 29.062C53.36 29.062 53.78 28.166 53.836 27.354H55.264C55.166 28.992 53.878 30.21 52.058 30.21C49.93 30.21 48.544 28.67 48.544 26.43C48.544 24.19 49.93 22.65 52.044 22.65C53.878 22.65 55.096 23.84 55.264 25.45H53.836ZM56.2599 20.102H57.8139V21.586H56.2599V20.102ZM56.3579 22.86H57.7299V30H56.3579V22.86ZM62.3943 30.21C60.1263 30.21 58.8663 28.6 58.8663 26.416C58.8663 24.176 60.2103 22.636 62.3943 22.636C64.5643 22.636 65.7823 24.064 65.7823 26.276C65.7823 26.472 65.7823 26.682 65.7683 26.794H60.2803C60.3083 27.998 61.0083 29.09 62.4223 29.09C63.6823 29.09 64.1583 28.278 64.2983 27.802H65.6843C65.3203 29.174 64.2703 30.21 62.3943 30.21ZM62.3523 23.756C61.2043 23.756 60.3643 24.54 60.2803 25.716H64.3403C64.3403 24.596 63.5703 23.756 62.3523 23.756ZM66.9262 30V22.86H68.2982V23.756H68.3262C68.7042 23.21 69.4462 22.65 70.6782 22.65C71.9942 22.65 73.0582 23.406 73.0582 25.044V30H71.6722V25.422C71.6722 24.47 71.2522 23.826 70.2302 23.826C69.0542 23.826 68.2982 24.54 68.2982 25.618V30H66.9262ZM74.5278 30V22.86H75.8998V23.756H75.9278C76.3058 23.21 77.0478 22.65 78.2798 22.65C79.5958 22.65 80.6598 23.406 80.6598 25.044V30H79.2738V25.422C79.2738 24.47 78.8538 23.826 77.8318 23.826C76.6558 23.826 75.8998 24.54 75.8998 25.618V30H74.5278ZM85.2673 30.21C82.9993 30.21 81.7393 28.6 81.7393 26.416C81.7393 24.176 83.0833 22.636 85.2673 22.636C87.4373 22.636 88.6553 24.064 88.6553 26.276C88.6553 26.472 88.6553 26.682 88.6413 26.794H83.1533C83.1813 27.998 83.8813 29.09 85.2953 29.09C86.5553 29.09 87.0313 28.278 87.1713 27.802H88.5573C88.1933 29.174 87.1433 30.21 85.2673 30.21ZM85.2253 23.756C84.0773 23.756 83.2373 24.54 83.1533 25.716H87.2133C87.2133 24.596 86.4433 23.756 85.2253 23.756ZM89.1729 22.86H90.2089V20.564H91.5809V22.86H92.9529V23.994H91.5809V28.026C91.5809 28.782 91.7909 28.95 92.3789 28.95C92.6029 28.95 92.7149 28.936 92.9669 28.894V30C92.6029 30.07 92.3929 30.084 92.0849 30.084C90.9229 30.084 90.2089 29.636 90.2089 27.984V23.994H89.1729V22.86ZM97.1915 19.822H98.8015L97.4575 21.754H96.3655L97.1915 19.822ZM97.0935 30.21C94.8255 30.21 93.5655 28.6 93.5655 26.416C93.5655 24.176 94.9095 22.636 97.0935 22.636C99.2635 22.636 100.482 24.064 100.482 26.276C100.482 26.472 100.482 26.682 100.468 26.794H94.9795C95.0075 27.998 95.7075 29.09 97.1215 29.09C98.3815 29.09 98.8575 28.278 98.9975 27.802H100.384C100.02 29.174 98.9695 30.21 97.0935 30.21ZM97.0515 23.756C95.9035 23.756 95.0635 24.54 94.9795 25.716H99.0395C99.0395 24.596 98.2695 23.756 97.0515 23.756ZM38.4887 44V36.86H39.8607V37.756H39.8887C40.2667 37.21 40.9247 36.65 42.0027 36.65C42.9967 36.65 43.5987 37.098 43.8927 37.896H43.9207C44.4387 37.21 45.1527 36.65 46.2587 36.65C47.7007 36.65 48.4287 37.518 48.4287 39.044V44H47.0567V39.422C47.0567 38.47 46.8607 37.826 45.8107 37.826C44.7887 37.826 44.1447 38.54 44.1447 39.618V44H42.7727V39.422C42.7727 38.47 42.5767 37.826 41.5267 37.826C40.5047 37.826 39.8607 38.54 39.8607 39.618V44H38.4887ZM53.0847 44.21C50.8587 44.21 49.5147 42.67 49.5147 40.43C49.5147 38.204 50.8587 36.636 53.0847 36.636C55.3107 36.636 56.6547 38.19 56.6547 40.416C56.6547 42.656 55.3107 44.21 53.0847 44.21ZM53.0847 43.076C54.5407 43.076 55.2267 41.914 55.2267 40.43C55.2267 38.932 54.5407 37.784 53.0847 37.784C51.6147 37.784 50.9427 38.932 50.9427 40.43C50.9427 41.914 51.6147 43.076 53.0847 43.076ZM59.733 43.93L56.835 36.86H58.333L60.419 42.32H60.447L62.421 36.86H63.849L61.035 44.168C60.335 45.932 59.649 46.506 58.543 46.506C58.235 46.506 58.025 46.478 57.661 46.408V45.288C57.899 45.316 58.025 45.33 58.249 45.33C58.809 45.33 59.439 45.05 59.733 43.93ZM67.5623 44.21C65.2943 44.21 64.0343 42.6 64.0343 40.416C64.0343 38.176 65.3783 36.636 67.5623 36.636C69.7323 36.636 70.9503 38.064 70.9503 40.276C70.9503 40.472 70.9503 40.682 70.9363 40.794H65.4483C65.4763 41.998 66.1763 43.09 67.5903 43.09C68.8503 43.09 69.3263 42.278 69.4663 41.802H70.8523C70.4883 43.174 69.4383 44.21 67.5623 44.21ZM67.5203 37.756C66.3723 37.756 65.5323 38.54 65.4483 39.716H69.5083C69.5083 38.596 68.7383 37.756 67.5203 37.756ZM72.0942 44V36.86H73.4662V37.756H73.4942C73.8722 37.21 74.6142 36.65 75.8462 36.65C77.1622 36.65 78.2262 37.406 78.2262 39.044V44H76.8402V39.422C76.8402 38.47 76.4202 37.826 75.3982 37.826C74.2222 37.826 73.4662 38.54 73.4662 39.618V44H72.0942ZM79.6958 44V36.86H81.0678V37.756H81.0958C81.4738 37.21 82.2158 36.65 83.4478 36.65C84.7638 36.65 85.8278 37.406 85.8278 39.044V44H84.4418V39.422C84.4418 38.47 84.0218 37.826 82.9998 37.826C81.8238 37.826 81.0678 38.54 81.0678 39.618V44H79.6958ZM90.4353 44.21C88.1673 44.21 86.9073 42.6 86.9073 40.416C86.9073 38.176 88.2513 36.636 90.4353 36.636C92.6053 36.636 93.8233 38.064 93.8233 40.276C93.8233 40.472 93.8233 40.682 93.8093 40.794H88.3213C88.3493 41.998 89.0493 43.09 90.4633 43.09C91.7233 43.09 92.1993 42.278 92.3393 41.802H93.7253C93.3613 43.174 92.3113 44.21 90.4353 44.21ZM90.3933 37.756C89.2453 37.756 88.4053 38.54 88.3213 39.716H92.3813C92.3813 38.596 91.6113 37.756 90.3933 37.756Z" fill="black"/>
<path d="M46.8426 112.196C45.4146 112.196 44.5046 111.37 44.5046 110.152C44.5046 108.556 45.7086 108.094 47.4866 107.744C48.6066 107.534 49.2926 107.394 49.2926 106.694C49.2926 106.176 48.9846 105.742 47.9346 105.742C46.6886 105.742 46.3106 106.134 46.2406 107.086H44.8406C44.9106 105.714 45.8066 104.636 47.9906 104.636C49.4606 104.636 50.6366 105.252 50.6366 107.1V110.376C50.6366 110.894 50.7066 111.16 50.9726 111.16C51.0146 111.16 51.0566 111.16 51.1406 111.146V111.986C50.9026 112.042 50.6646 112.07 50.4406 112.07C49.7686 112.07 49.3906 111.804 49.3206 110.992H49.2926C48.8166 111.734 48.0046 112.196 46.8426 112.196ZM47.1506 111.09C48.3826 111.09 49.2926 110.46 49.2926 109.214V108.192C49.0686 108.402 48.4526 108.556 47.7246 108.71C46.4646 108.976 45.9466 109.312 45.9466 110.054C45.9466 110.726 46.2966 111.09 47.1506 111.09ZM52.2505 112V104.86H53.6225V105.756H53.6505C54.0285 105.21 54.7705 104.65 56.0025 104.65C57.3185 104.65 58.3825 105.406 58.3825 107.044V112H56.9965V107.422C56.9965 106.47 56.5765 105.826 55.5545 105.826C54.3785 105.826 53.6225 106.54 53.6225 107.618V112H52.2505ZM59.852 112V104.86H61.224V105.756H61.252C61.63 105.21 62.372 104.65 63.604 104.65C64.92 104.65 65.984 105.406 65.984 107.044V112H64.598V107.422C64.598 106.47 64.178 105.826 63.156 105.826C61.98 105.826 61.224 106.54 61.224 107.618V112H59.852ZM70.6896 101.822H72.2996L70.9556 103.754H69.8636L70.6896 101.822ZM70.5916 112.21C68.3236 112.21 67.0636 110.6 67.0636 108.416C67.0636 106.176 68.4076 104.636 70.5916 104.636C72.7616 104.636 73.9796 106.064 73.9796 108.276C73.9796 108.472 73.9796 108.682 73.9656 108.794H68.4776C68.5056 109.998 69.2056 111.09 70.6196 111.09C71.8796 111.09 72.3556 110.278 72.4956 109.802H73.8816C73.5176 111.174 72.4676 112.21 70.5916 112.21ZM70.5496 105.756C69.4016 105.756 68.5616 106.54 68.4776 107.716H72.5376C72.5376 106.596 71.7676 105.756 70.5496 105.756ZM78.3435 112.21C76.0755 112.21 74.8155 110.6 74.8155 108.416C74.8155 106.176 76.1595 104.636 78.3435 104.636C80.5135 104.636 81.7315 106.064 81.7315 108.276C81.7315 108.472 81.7315 108.682 81.7175 108.794H76.2295C76.2575 109.998 76.9575 111.09 78.3715 111.09C79.6315 111.09 80.1075 110.278 80.2475 109.802H81.6335C81.2695 111.174 80.2195 112.21 78.3435 112.21ZM78.3015 105.756C77.1535 105.756 76.3135 106.54 76.2295 107.716H80.2895C80.2895 106.596 79.5195 105.756 78.3015 105.756ZM85.8461 107.688C87.1481 107.996 88.5761 108.374 88.5761 109.97C88.5761 111.356 87.5121 112.196 85.6361 112.196C83.4661 112.196 82.3881 111.076 82.3461 109.62H83.7321C83.8021 110.446 84.2921 111.09 85.6221 111.09C86.8261 111.09 87.1481 110.558 87.1481 110.04C87.1481 109.144 86.1961 109.046 85.2721 108.85C84.0261 108.57 82.5981 108.192 82.5981 106.708C82.5981 105.476 83.5921 104.65 85.3281 104.65C87.2741 104.65 88.2121 105.7 88.3101 106.932H86.9241C86.8261 106.386 86.5461 105.756 85.3421 105.756C84.4321 105.756 84.0261 106.12 84.0261 106.652C84.0261 107.394 84.8241 107.45 85.8461 107.688Z" fill="#01B8C7"/>
<path d="M42.2826 90C42.2826 85.162 45.0979 81.103 50.7286 77.823L52.1226 77.003C53.8719 76.019 55.1429 75.24 55.9356 74.666C56.7556 74.0647 57.3843 73.3813 57.8216 72.616C58.2589 71.8233 58.4776 70.8257 58.4776 69.623C58.4776 68.147 58.0949 66.9033 57.3296 65.892C56.5643 64.8807 55.1976 64.375 53.2296 64.375C50.9336 64.375 49.3073 65.031 48.3506 66.343C47.4213 67.655 46.9566 69.4043 46.9566 71.591H43.1026C43.1026 68.5023 43.9636 65.9877 45.6856 64.047C47.4076 62.079 49.9496 61.095 53.3116 61.095C54.9516 61.095 56.4549 61.4367 57.8216 62.12C59.1883 62.776 60.2816 63.7463 61.1016 65.031C61.9216 66.3157 62.3316 67.8327 62.3316 69.582C62.3316 71.2767 61.9353 72.7663 61.1426 74.051C60.3499 75.3083 59.3796 76.3743 58.2316 77.249C57.0836 78.0963 55.5939 79.0393 53.7626 80.078C51.6579 81.2807 50.0453 82.3467 48.9246 83.276C47.8313 84.2053 47.1069 85.326 46.7516 86.638V86.72H61.9216V90H42.2826ZM68.219 90H64.283V86.064H68.219V90ZM80.2496 90.574C78.1722 90.574 76.3682 90.1777 74.8376 89.385C73.3069 88.565 72.1316 87.499 71.3116 86.187C70.4916 84.8477 70.0542 83.399 69.9996 81.841H73.8536C74.0449 83.4263 74.6189 84.7383 75.5756 85.777C76.5596 86.7883 78.0629 87.294 80.0856 87.294C82.0809 87.294 83.6526 86.6927 84.8006 85.49C85.9759 84.2873 86.5636 82.5653 86.5636 80.324C86.5636 78.274 86.0306 76.757 84.9646 75.773C83.8986 74.7617 82.4089 74.256 80.4956 74.256C77.7622 74.256 75.6986 75.1443 74.3046 76.921H70.3686L73.3206 61.669H88.9006V64.949H76.3136L74.6326 73.518V73.6C76.1632 71.8507 78.4046 70.976 81.3566 70.976C83.1059 70.976 84.6639 71.386 86.0306 72.206C87.4246 73.026 88.5042 74.1467 89.2696 75.568C90.0349 76.9893 90.4176 78.5747 90.4176 80.324C90.4176 82.3193 89.9666 84.096 89.0646 85.654C88.1899 87.212 86.9736 88.4283 85.4156 89.303C83.8576 90.1503 82.1356 90.574 80.2496 90.574Z" fill="#01B8C7"/>
<g opacity="0.4">
<path d="M99.2168 75.4995H107.758" stroke="#01B8C7" stroke-width="1.70833" stroke-linecap="round"/>
<path d="M99.2168 70.3745L105.196 64.3953" stroke="#01B8C7" stroke-width="1.70833" stroke-linecap="round"/>
<path d="M105.197 86.604L99.2181 80.6248" stroke="#01B8C7" stroke-width="1.70833" stroke-linecap="round"/>
<path d="M32.7754 75.4985H24.2337" stroke="#01B8C7" stroke-width="1.70833" stroke-linecap="round"/>
<path d="M32.7754 70.3735L26.7962 64.3944" stroke="#01B8C7" stroke-width="1.70833" stroke-linecap="round"/>
<path d="M26.7969 86.603L32.776 80.6239" stroke="#01B8C7" stroke-width="1.70833" stroke-linecap="round"/>
</g>
</svg>
