<svg width="34" height="34" viewBox="0 0 34 34" fill="none" xmlns="http://www.w3.org/2000/svg">
<path fill-rule="evenodd" clip-rule="evenodd" d="M32.9957 16.2334C32.9765 16.0735 32.8945 15.9277 32.7678 15.8282L27.9626 12.0536V7.25017C27.9626 6.91475 27.6907 6.64285 27.3553 6.64285H24.8585C24.5231 6.64285 24.2512 6.91475 24.2512 7.25017V9.13819L17.8752 4.12972C17.6549 3.95676 17.3451 3.95676 17.1248 4.12972L2.23214 15.8282C1.96839 16.0355 1.92259 16.4172 2.12975 16.681L4.2443 19.373C4.34384 19.4996 4.48953 19.5816 4.6495 19.6008C4.80922 19.6201 4.97046 19.5749 5.09709 19.4754L17.5 9.73257L29.9029 19.4754C30.0141 19.5627 30.1464 19.6051 30.2776 19.6051C30.4576 19.6051 30.6359 19.5255 30.7556 19.373L32.8703 16.681C32.9697 16.5543 33.0149 16.3933 32.9957 16.2334Z" fill="#01B8C7"/>
<path fill-rule="evenodd" clip-rule="evenodd" d="M27.7152 19.1796L17.8734 11.5049C17.6538 11.3337 17.346 11.3337 17.1264 11.5049L7.28466 19.1796C7.13708 19.2947 7.05078 19.4714 7.05078 19.6586V29.7667C7.05078 30.1021 7.32274 30.374 7.6581 30.374H14.4304C14.7657 30.374 15.0377 30.1021 15.0377 29.7667V24.1053C15.0377 22.7501 16.1402 21.6475 17.4954 21.6475C18.8507 21.6475 19.9532 22.7501 19.9532 24.1053V29.7667C19.9532 30.1021 20.2251 30.374 20.5605 30.374H27.3418C27.6771 30.374 27.9491 30.1021 27.9491 29.7667V19.6586C27.9491 19.4714 27.8628 19.2947 27.7152 19.1796Z" fill="#01B8C7"/>
</svg>
