<svg width="48" height="48" viewBox="0 0 48 48" fill="none" xmlns="http://www.w3.org/2000/svg">
<path d="M31.5003 46C31.2851 45.9999 31.0747 45.939 30.8947 45.8248C30.7148 45.7107 30.5731 45.5482 30.4872 45.3572L28.0579 39.9626C26.9257 37.4395 24.8461 35.4267 22.2395 34.331L16.6665 31.9795C16.4685 31.8965 16.2999 31.7593 16.1815 31.5847C16.0631 31.4102 16 31.2059 16 30.9971C16 30.7883 16.0631 30.584 16.1815 30.4094C16.2999 30.2349 16.4685 30.0977 16.6665 30.0147L22.2395 27.6632C24.8455 26.568 26.9249 24.5563 28.0579 22.0344L30.4872 16.6408C30.5733 16.4503 30.715 16.2882 30.8948 16.1744C31.0747 16.0606 31.2849 16 31.4997 16C31.7146 16 31.9248 16.0606 32.1046 16.1744C32.2844 16.2882 32.4261 16.4503 32.5123 16.6408L34.941 22.0361C36.074 24.5585 38.1539 26.5707 40.7605 27.666L46.3335 30.0175C46.5315 30.1005 46.7001 30.2377 46.8185 30.4122C46.9369 30.5868 47 30.7911 47 30.9999C47 31.2087 46.9369 31.413 46.8185 31.5875C46.7001 31.7621 46.5315 31.8993 46.3335 31.9823L40.7605 34.3338C38.1547 35.4291 36.0755 37.4408 34.9427 39.9626L32.5123 45.3572C32.4262 45.5479 32.2847 45.7102 32.105 45.8243C31.9254 45.9385 31.7152 45.9995 31.5003 46Z" fill="#64D71E"/>
<path d="M19.5005 18C19.3469 17.9999 19.1966 17.9525 19.068 17.8636C18.9394 17.7746 18.838 17.6479 18.7762 17.499L17.4749 14.3374C16.8881 12.907 15.8102 11.7658 14.459 11.1445L11.4731 9.76685C11.3325 9.70174 11.2128 9.59464 11.1288 9.45865C11.0448 9.32266 11 9.16368 11 9.00118C11 8.83868 11.0448 8.6797 11.1288 8.54371C11.2128 8.40772 11.3325 8.30062 11.4731 8.23551L14.4596 6.8573C15.8108 6.23534 16.8886 5.09336 17.4749 3.66227L18.7762 0.500045C18.8379 0.35135 18.9391 0.224882 19.0676 0.136084C19.196 0.047286 19.3461 0 19.4995 0C19.6529 0 19.803 0.047286 19.9314 0.136084C20.0598 0.224882 20.1611 0.35135 20.2227 0.500045L21.5245 3.66172C22.1115 5.09203 23.1894 6.23316 24.5404 6.85457L27.5269 8.23277C27.6675 8.29788 27.7872 8.40498 27.8712 8.54098C27.9552 8.67697 28 8.83594 28 8.99844C28 9.16095 27.9552 9.31992 27.8712 9.45591C27.7872 9.5919 27.6675 9.69901 27.5269 9.76412L24.5415 11.1434C23.1907 11.765 22.113 12.9061 21.5261 14.3363L20.2243 17.499C20.1627 17.648 20.0614 17.7747 19.9329 17.8637C19.8044 17.9527 19.6541 18 19.5005 18Z" fill="#64D71E"/>
<path d="M8.50028 29C8.36168 28.9999 8.22612 28.9593 8.11018 28.8834C7.99423 28.8074 7.90291 28.6994 7.84739 28.5723L6.87057 26.3304C6.44191 25.3444 5.65519 24.5578 4.66922 24.1293L2.42752 23.1535C2.30046 23.0981 2.19233 23.0068 2.11639 22.8908C2.04045 22.7748 2 22.6392 2 22.5006C2 22.3619 2.04045 22.2263 2.11639 22.1103C2.19233 21.9943 2.30046 21.903 2.42752 21.8476L4.66922 20.8707C5.65506 20.442 6.44172 19.6555 6.87057 18.6696L7.84739 16.4277C7.90285 16.3006 7.99416 16.1925 8.11012 16.1165C8.22608 16.0406 8.36166 16.0001 8.50028 16C8.63899 16 8.7747 16.0404 8.89077 16.1164C9.00684 16.1923 9.09823 16.3005 9.15374 16.4277L10.13 18.6696C10.5583 19.6555 11.3449 20.442 12.3308 20.8701L14.5725 21.847C14.6995 21.9025 14.8077 21.9938 14.8836 22.1097C14.9596 22.2257 15 22.3614 15 22.5C15 22.6386 14.9596 22.7743 14.8836 22.8903C14.8077 23.0062 14.6995 23.0975 14.5725 23.153L12.3308 24.1293C11.3448 24.5573 10.5582 25.3438 10.13 26.3298L9.15374 28.5718C9.09825 28.699 9.00689 28.8072 8.89082 28.8833C8.77476 28.9594 8.63904 28.9999 8.50028 29Z" fill="#64D71E"/>
</svg>
