<svg width="48" height="48" viewBox="0 0 48 48" fill="none" xmlns="http://www.w3.org/2000/svg">
<path d="M39.9947 25.4485C39.941 24.8353 39.511 24.2289 38.9538 24.0055C38.3189 23.7505 37.6788 23.5145 37.0352 23.294V15.7125C37.0343 8.70193 31.4119 3 24.5005 3C17.5881 3 11.9657 8.70193 11.9657 15.7125V23.2935C11.3222 23.514 10.682 23.75 10.0471 24.005C9.48901 24.2299 9.05951 24.8353 9.00576 25.448H9V25.577V25.8213V41.6291C9 42.2852 9.45062 42.9617 10.0466 43.2016C14.667 45.0578 19.5302 46 24.5005 46C29.4698 46 34.333 45.0578 38.9529 43.2016C39.5503 42.9607 40 42.2852 40 41.6291V25.8218V25.5775V25.4485H39.9947ZM26.2079 33.067V38.7918C26.2079 39.7476 25.4439 40.5219 24.5 40.5219C23.557 40.5219 22.793 39.7476 22.793 38.7918V33.067C21.792 32.466 21.0861 31.4045 21.0861 30.1367C21.0861 28.2236 22.6145 26.675 24.4995 26.675C26.3855 26.675 27.9139 28.2226 27.9139 30.1367C27.9144 31.4045 27.209 32.466 26.2079 33.067ZM32.7244 22.0885C30.0322 21.5025 27.2829 21.2066 24.4995 21.2066C21.7166 21.2066 18.9673 21.5025 16.2751 22.0885V15.7125C16.2751 11.1129 19.9641 7.37037 24.499 7.37037C29.035 7.37037 32.7244 11.1129 32.7244 15.7125V22.0885Z" fill="#64D71E"/>
</svg>
