<svg width="48" height="48" viewBox="0 0 48 48" fill="none" xmlns="http://www.w3.org/2000/svg">
<g clip-path="url(#clip0_489_598)">
<path d="M19.1536 36.4993C18.5459 35.8617 17.8404 35.3249 17.0637 34.9094C16.1829 34.629 15.263 34.4906 14.3387 34.4994C13.1187 34.4444 11.7838 34.3794 10.6688 33.8494L7.34383 44.1842C7.31119 44.2889 7.30761 44.4005 7.3335 44.5071C7.35938 44.6137 7.41375 44.7112 7.49078 44.7892C7.56781 44.8673 7.66462 44.923 7.77084 44.9503C7.87706 44.9775 7.9887 44.9754 8.09382 44.9442L12.9087 43.5342C13.0239 43.5007 13.1465 43.5033 13.2601 43.5417C13.3737 43.5802 13.4727 43.6526 13.5437 43.7492L16.6387 47.7142C16.7047 47.802 16.7938 47.8698 16.8961 47.9101C16.9983 47.9504 17.1097 47.9616 17.218 47.9425C17.3262 47.9233 17.427 47.8745 17.5092 47.8016C17.5914 47.7286 17.6518 47.6343 17.6837 47.5292L20.7886 37.8643C20.2175 37.4415 19.6716 36.9858 19.1536 36.4993Z" fill="#64D71E"/>
<path d="M36.3453 33.9294C35.2211 34.3238 34.0366 34.5184 32.8454 34.5044C31.9221 34.4892 31.0023 34.6208 30.1204 34.8944C29.3444 35.315 28.6406 35.8568 28.0354 36.4994C27.4714 37.043 26.8681 37.5444 26.2305 37.9994L29.1704 47.5942C29.2032 47.6993 29.2643 47.7934 29.3469 47.8661C29.4296 47.9388 29.5307 47.9873 29.6391 48.0064C29.7475 48.0255 29.8591 48.0145 29.9616 47.9744C30.0641 47.9343 30.1537 47.8668 30.2204 47.7792L33.3104 43.8143C33.3823 43.7188 33.4814 43.6472 33.5947 43.6088C33.708 43.5705 33.8302 43.5672 33.9453 43.5993L38.7603 44.9993C38.8651 45.0294 38.9761 45.0306 39.0815 45.0027C39.1869 44.9749 39.2829 44.9191 39.3592 44.8413C39.4356 44.7634 39.4894 44.6664 39.5151 44.5604C39.5408 44.4544 39.5374 44.3435 39.5053 44.2393L36.3453 33.9294Z" fill="#64D71E"/>
<path d="M39.3495 14.6348C38.5293 13.8479 37.8526 12.9241 37.3495 11.9048C36.9704 10.7913 36.7844 9.62109 36.7995 8.44487C36.7345 7.07989 36.6745 5.78491 36.0445 5.15492C35.4145 4.52493 34.0946 4.46493 32.7496 4.39993C31.5734 4.41504 30.4032 4.22903 29.2896 3.84994C28.2704 3.3469 27.3466 2.67012 26.5597 1.84997C25.5297 0.894986 24.5597 0 23.5947 0C22.6297 0 21.6598 0.894986 20.6298 1.84497C19.8429 2.66512 18.9191 3.3419 17.8998 3.84494C16.7863 4.22403 15.6161 4.41004 14.4399 4.39493C13.0749 4.45993 11.7799 4.51993 11.1499 5.14992C10.5199 5.77991 10.4599 7.07489 10.3949 8.43987C10.41 9.61609 10.224 10.7863 9.84494 11.8998C9.3419 12.9191 8.66512 13.8429 7.84497 14.6298C6.89499 15.6598 6 16.6297 6 17.5947C6 18.5597 6.89499 19.5297 7.84497 20.5597C8.66512 21.3466 9.3419 22.2704 9.84494 23.2896C10.224 24.4032 10.41 25.5734 10.3949 26.7496C10.4599 28.1146 10.5199 29.4095 11.1499 30.0395C11.7799 30.6695 13.0949 30.7345 14.4399 30.7995C15.6161 30.7844 16.7863 30.9704 17.8998 31.3495C18.9191 31.8525 19.8429 32.5293 20.6298 33.3495C21.6598 34.2995 22.6297 35.1945 23.5947 35.1945C24.5597 35.1945 25.5297 34.2995 26.5597 33.3495C27.3466 32.5293 28.2704 31.8525 29.2896 31.3495C30.4032 30.9704 31.5734 30.7844 32.7496 30.7995C34.1146 30.7345 35.4095 30.6745 36.0395 30.0445C36.6695 29.4145 36.7295 28.1196 36.7945 26.7546C36.7794 25.5784 36.9654 24.4082 37.3445 23.2946C37.8475 22.2754 38.5243 21.3516 39.3445 20.5647C40.2945 19.5347 41.1895 18.5647 41.1895 17.5997C41.1895 16.6347 40.2995 15.6648 39.3495 14.6348ZM31.9096 16.4297L28.6296 19.6247C28.5383 19.7156 28.4698 19.827 28.4298 19.9495C28.3898 20.0721 28.3795 20.2024 28.3997 20.3297L29.1746 24.8296C29.199 24.9764 29.182 25.127 29.1255 25.2647C29.069 25.4023 28.9752 25.5214 28.8547 25.6087C28.7342 25.6959 28.5917 25.7479 28.4433 25.7586C28.2949 25.7694 28.1465 25.7386 28.0147 25.6696L23.9647 23.5446C23.8512 23.4829 23.724 23.4506 23.5947 23.4506C23.4655 23.4506 23.3383 23.4829 23.2247 23.5446L19.1748 25.6696C19.043 25.7386 18.8945 25.7694 18.7461 25.7586C18.5977 25.7479 18.4553 25.6959 18.3348 25.6087C18.2143 25.5214 18.1205 25.4023 18.064 25.2647C18.0074 25.127 17.9904 24.9764 18.0148 24.8296L18.7898 20.3297C18.81 20.2024 18.7996 20.0721 18.7596 19.9495C18.7196 19.827 18.6512 19.7156 18.5598 19.6247L15.2849 16.4297C15.1779 16.3258 15.1021 16.194 15.0661 16.0493C15.0301 15.9045 15.0352 15.7526 15.081 15.6106C15.1268 15.4687 15.2113 15.3423 15.3251 15.2459C15.4388 15.1494 15.5773 15.0867 15.7248 15.0648L20.2498 14.4098C20.3788 14.3913 20.5014 14.3415 20.6069 14.2648C20.7123 14.1882 20.7974 14.0869 20.8548 13.9698L22.8547 9.86985C22.9199 9.73571 23.0216 9.62261 23.148 9.54349C23.2744 9.46437 23.4206 9.42242 23.5697 9.42242C23.7189 9.42242 23.865 9.46437 23.9914 9.54349C24.1179 9.62261 24.2195 9.73571 24.2847 9.86985L26.2847 13.9698C26.3427 14.0864 26.428 14.1872 26.5333 14.2638C26.6387 14.3404 26.7609 14.3905 26.8897 14.4098L31.3896 15.0648C31.5428 15.0755 31.6897 15.1299 31.813 15.2214C31.9363 15.3129 32.0308 15.4377 32.0855 15.5812C32.1401 15.7247 32.1526 15.8808 32.1215 16.0312C32.0903 16.1815 32.0168 16.3198 31.9096 16.4297Z" fill="#64D71E"/>
</g>
<defs>
<clipPath id="clip0_489_598">
<rect width="48" height="48.0018" fill="white"/>
</clipPath>
</defs>
</svg>
