<svg width="48" height="48" viewBox="0 0 48 48" fill="none" xmlns="http://www.w3.org/2000/svg">
<path d="M11.4276 33.7863C11.9282 34.2906 12.8182 33.8984 12.8182 33.17V27.9036C17.7135 28.6879 21.4405 32.9459 21.4405 38.1003V45.2156C21.4405 45.6638 21.7743 46 22.2193 46H26.8364C27.2814 46 27.6151 45.6638 27.6151 45.2156V38.0443C27.6151 32.8899 31.3422 28.6319 36.2374 27.8476V33.114C36.2374 33.8984 37.0718 34.2906 37.6281 33.7303L45.7497 25.4945C46.0834 25.1583 46.0834 24.542 45.7497 24.2059L37.5724 16.0821C37.0718 15.5779 36.1818 15.97 36.1818 16.6984V21.6287C32.8441 21.9648 29.729 23.3094 27.2814 25.3824V12.8326H32.6772C33.456 12.8326 33.8454 11.9922 33.2891 11.4319L25.2232 3.25212C24.8894 2.91596 24.2775 2.91596 23.9437 3.25212L15.7665 11.4319C15.2658 11.9362 15.6552 12.8326 16.3784 12.8326H21.6074V25.3264C19.1598 23.2534 16.1003 21.9088 12.707 21.6287V16.6984C12.707 15.914 11.8726 15.5218 11.3163 16.0821L3.25032 24.2619C2.91656 24.598 2.91656 25.2143 3.25032 25.5505L11.4276 33.7863Z" fill="#64D71E"/>
</svg>
