<svg width="48" height="48" viewBox="0 0 48 48" fill="none" xmlns="http://www.w3.org/2000/svg">
<g clip-path="url(#clip0_489_596)">
<path fill-rule="evenodd" clip-rule="evenodd" d="M28.5697 38.8572C27.2143 40.6606 25.5114 42.1875 23.5605 43.3406C23.6988 43.3978 23.8486 43.4286 24.0006 43.4286H46.8577C47.1606 43.4286 47.452 43.3086 47.6657 43.0938C47.8806 42.88 48.0006 42.5886 48.0006 42.2857V40C48.0006 39.6972 47.8806 39.4057 47.6657 39.192C47.452 38.9772 47.1606 38.8572 46.8577 38.8572H28.5697Z" fill="#64D71E"/>
<path fill-rule="evenodd" clip-rule="evenodd" d="M31.6561 32C31.327 33.6183 30.7704 35.1543 30.0195 36.5714H46.8572C47.1601 36.5714 47.4515 36.4514 47.6652 36.2366C47.8801 36.0229 48.0001 35.7314 48.0001 35.4286V33.1429C48.0001 32.84 47.8801 32.5486 47.6652 32.3349C47.4515 32.12 47.1601 32 46.8572 32H31.6561Z" fill="#64D71E"/>
<path fill-rule="evenodd" clip-rule="evenodd" d="M31.6562 25.1428C31.8814 26.2503 32.0002 27.3977 32.0002 28.5714C32.0002 28.9554 31.9877 29.3371 31.9625 29.7143H46.8574C47.1602 29.7143 47.4517 29.5943 47.6654 29.3794C47.8802 29.1657 48.0002 28.8743 48.0002 28.5714V26.2857C48.0002 25.9828 47.8802 25.6914 47.6654 25.4777C47.4517 25.2628 47.1602 25.1428 46.8574 25.1428H31.6562Z" fill="#64D71E"/>
<path fill-rule="evenodd" clip-rule="evenodd" d="M28.5684 18.2858C29.6038 19.6641 30.4369 21.2023 31.0221 22.8572H46.8564C47.1592 22.8572 47.4507 22.7372 47.6644 22.5223C47.8792 22.3086 47.9992 22.0172 47.9992 21.7143V19.4286C47.9992 19.1258 47.8792 18.8343 47.6644 18.6206C47.4507 18.4058 47.1592 18.2858 46.8564 18.2858H28.5684Z" fill="#64D71E"/>
<path fill-rule="evenodd" clip-rule="evenodd" d="M26.5077 16H46.8574C47.1603 16 47.4517 15.88 47.6654 15.6652C47.8803 15.4514 48.0003 15.16 48.0003 14.8572V12.5714C48.0003 12.2686 47.8803 11.9772 47.6654 11.7634C47.4517 11.5486 47.1603 11.4286 46.8574 11.4286H24.0003C23.6974 11.4286 23.406 11.5486 23.1923 11.7634C22.9774 11.9772 22.8574 12.2686 22.8574 12.5714V13.4092C24.1866 14.112 25.4129 14.9852 26.5077 16Z" fill="#64D71E"/>
<path fill-rule="evenodd" clip-rule="evenodd" d="M48.0003 5.71427V7.99998C48.0003 8.30284 47.8803 8.59427 47.6654 8.80798C47.4517 9.02284 47.1603 9.14284 46.8574 9.14284H24.0003C23.6974 9.14284 23.406 9.02284 23.1923 8.80798C22.9774 8.59427 22.8574 8.30284 22.8574 7.99998V5.71427C22.8574 5.41141 22.9774 5.11998 23.1923 4.90627C23.406 4.69141 23.6974 4.57141 24.0003 4.57141H46.8574C47.1603 4.57141 47.4517 4.69141 47.6654 4.90627C47.8803 5.11998 48.0003 5.41141 48.0003 5.71427Z" fill="#64D71E"/>
<path fill-rule="evenodd" clip-rule="evenodd" d="M14.8571 13.7142C23.0571 13.7142 29.7143 20.3714 29.7143 28.5714C29.7143 36.7714 23.0571 43.4285 14.8571 43.4285C6.65714 43.4285 0 36.7714 0 28.5714C0 20.3714 6.65714 13.7142 14.8571 13.7142ZM13.7143 20.5714C11.1897 20.5714 9.14286 22.6182 9.14286 25.1428C9.14286 27.6674 11.1897 29.7142 13.7143 29.7142H16C17.2629 29.7142 18.2857 30.7371 18.2857 31.9999C18.2857 33.2628 17.2629 34.2857 16 34.2857H13.7143C12.4514 34.2857 11.4286 33.2628 11.4286 31.9999C11.4286 31.3691 10.9166 30.8571 10.2857 30.8571C9.65486 30.8571 9.14286 31.3691 9.14286 31.9999C9.14286 34.5245 11.1897 36.5714 13.7143 36.5714V37.7142C13.7143 38.3451 14.2263 38.8571 14.8571 38.8571C15.488 38.8571 16 38.3451 16 37.7142V36.5714C18.5246 36.5714 20.5714 34.5245 20.5714 31.9999C20.5714 29.4754 18.5246 27.4285 16 27.4285H13.7143C12.4514 27.4285 11.4286 26.4057 11.4286 25.1428C11.4286 23.8799 12.4514 22.8571 13.7143 22.8571H16C17.2629 22.8571 18.2857 23.8799 18.2857 25.1428C18.2857 25.7737 18.7977 26.2857 19.4286 26.2857C20.0594 26.2857 20.5714 25.7737 20.5714 25.1428C20.5714 22.6182 18.5246 20.5714 16 20.5714V19.4285C16 18.7977 15.488 18.2857 14.8571 18.2857C14.2263 18.2857 13.7143 18.7977 13.7143 19.4285V20.5714Z" fill="#64D71E"/>
</g>
<defs>
<clipPath id="clip0_489_596">
<rect width="48" height="48.0018" fill="white"/>
</clipPath>
</defs>
</svg>
