<svg width="48" height="48" viewBox="0 0 48 48" fill="none" xmlns="http://www.w3.org/2000/svg">
<path d="M39.7022 25.6933C39.9464 25.6933 40.1799 25.7933 40.3485 25.9699C40.5171 26.1466 40.606 26.3845 40.5946 26.6284C40.1067 36.3047 32.1062 44.001 22.3085 44.001C12.1971 44.001 4 35.8042 4 25.6933C4 15.8961 11.6965 7.89598 21.3735 7.40918C21.6171 7.39779 21.8547 7.48662 22.0311 7.65497C22.2075 7.82334 22.3073 8.05657 22.3073 8.30043C22.3085 11.4321 22.3085 21.701 22.3085 24.8C22.3085 25.2934 22.7085 25.6933 23.2019 25.6934L39.7022 25.6933Z" fill="#64D71E"/>
<path d="M43.9978 21.6332C44.009 21.8767 43.9201 22.1141 43.7517 22.2903C43.5834 22.4666 43.3502 22.5663 43.1065 22.5663C39.9392 22.5674 29.4597 22.5674 26.325 22.5674C25.8316 22.5674 25.4316 22.1675 25.4316 21.6741V4.89335C25.4316 4.64932 25.5315 4.4159 25.7079 4.24735C25.8844 4.07879 26.1222 3.98975 26.366 4.00094C35.8888 4.47344 43.5264 12.1108 43.9978 21.6332Z" fill="#64D71E"/>
</svg>
