<svg width="48" height="48" viewBox="0 0 48 48" fill="none" xmlns="http://www.w3.org/2000/svg">
<path d="M25.5745 22.1013H25.4819V17.0065H25.5745C26.5472 17.0065 27.4735 17.6086 27.8903 18.4886C28.3072 19.4149 29.4188 19.8318 30.3914 19.4149C31.3177 18.9981 31.7345 17.8865 31.3177 16.9139C30.2988 14.6907 28.0293 13.2549 25.6209 13.2549H25.5282V10.476C25.5282 9.64232 24.8798 8.9939 24.0461 8.9939C23.2124 8.9939 22.564 9.64232 22.564 10.476V13.2549H22.4714C20.804 13.2549 19.2293 13.9034 18.0251 15.1076C16.8209 16.3118 16.1724 17.8865 16.1724 19.5539C16.1261 23.0276 18.9514 25.8528 22.4251 25.8528H22.5177V30.9476H22.4251C21.4061 30.9476 20.5261 30.3918 20.1093 29.4655C19.6924 28.5392 18.5345 28.1223 17.6082 28.5392C16.6819 28.956 16.2651 30.1139 16.6819 31.0402C17.7009 33.2634 19.9703 34.6992 22.4251 34.6992H22.5177V37.4781C22.5177 38.3118 23.1661 38.9602 23.9998 38.9602C24.8335 38.9602 25.4819 38.3118 25.4819 37.4781V34.6992H25.5745C29.0482 34.6992 31.8735 31.8739 31.8735 28.4002C31.8735 26.7328 31.2251 25.1581 30.0672 23.9539C28.863 22.796 27.2419 22.1013 25.5745 22.1013ZM22.4251 22.1013C21.0356 22.1013 19.8777 20.9434 19.8777 19.5539C19.8777 18.8592 20.1556 18.2107 20.6188 17.7476C21.1282 17.2381 21.7303 17.0065 22.4251 17.0065H22.5177V22.1013H22.4251ZM25.5745 30.9939H25.4819V25.8528H25.5745C26.2693 25.8528 26.9177 26.1307 27.3809 26.5939C27.844 27.0571 28.1219 27.7055 28.1219 28.4002C28.1219 29.836 26.964 30.9939 25.5745 30.9939Z" fill="#64D71E"/>
<path d="M24 2C11.8653 2 2 11.8653 2 24C2 36.1347 11.8653 46 24 46C36.1347 46 46 36.1347 46 24C46 11.8653 36.1347 2 24 2ZM5.75158 24C5.75158 19.6463 7.28 15.6632 9.82737 12.5137L12.3747 15.0611C12.7453 15.4316 13.2084 15.6168 13.7179 15.6168C14.2274 15.6168 14.6905 15.4316 15.0611 15.0611C15.8021 14.32 15.8021 13.1158 15.0611 12.4211L12.5137 9.87368C15.6632 7.32632 19.6463 5.79789 24 5.79789C34.0505 5.79789 42.2484 13.9958 42.2484 24.0463C42.2484 28.4 40.72 32.3832 38.1726 35.5326L35.5789 32.9389C34.8379 32.1979 33.68 32.1979 32.9389 32.9389C32.1979 33.68 32.1979 34.8842 32.9389 35.5789L35.4863 38.1263C32.3368 40.72 28.3537 42.2484 24 42.2484C13.9495 42.2484 5.75158 34.0505 5.75158 24Z" fill="#64D71E"/>
</svg>
