<svg width="48" height="48" viewBox="0 0 48 48" fill="none" xmlns="http://www.w3.org/2000/svg">
<g clip-path="url(#clip0_489_602)">
<path d="M18.1836 29.2958L15.7472 38.1502V38.1456L13.3123 47L6.65376 40.5199L0 34.0399L9.0918 31.6678L18.1836 29.2958Z" fill="#64D71E"/>
<path d="M27.2538 34.6196C24.4957 35.1433 21.6361 34.6892 19.1917 33.3393L17.7258 38.6652L17.4618 39.6244C17.8994 39.816 18.3543 39.9941 18.8264 40.1588C19.5049 40.3964 20.1973 40.5945 20.9 40.7522C21.1094 40.7925 21.3007 40.8956 21.4472 41.0469C21.5936 41.1983 21.6878 41.3904 21.7166 41.5965L22.4432 46.7351H27.5537L28.2795 41.6011C28.3063 41.3986 28.3965 41.209 28.5377 41.0581C28.679 40.9072 28.8645 40.8023 29.069 40.7576C31.0622 40.3142 32.9651 39.5489 34.6988 38.4935C34.8763 38.3715 35.089 38.3074 35.3063 38.3107C35.5235 38.3139 35.7342 38.3842 35.9078 38.5114L40.1586 41.6493L41.969 39.8908L43.7698 38.1316L40.5478 33.991C40.4229 33.8296 40.3514 33.6351 40.3427 33.4333C40.334 33.2314 40.3886 33.0318 40.4992 32.8609C41.0484 32.0107 41.523 31.1169 41.918 30.189C42.3087 29.2727 42.6193 28.3259 42.8463 27.3587C42.8869 27.1528 42.9932 26.9647 43.15 26.8211C43.3068 26.6774 43.5061 26.5856 43.7196 26.5587L49 25.8503V23.3649H48.996V20.8794L43.7252 20.1726C43.5172 20.1464 43.3225 20.0586 43.1674 19.9211C43.0123 19.7835 42.9044 19.6029 42.8583 19.4037C42.6307 18.427 42.318 17.471 41.9235 16.5462C41.536 15.6348 41.0713 14.7564 40.5343 13.9201C40.4088 13.7474 40.3429 13.5404 40.3462 13.3288C40.3495 13.1173 40.4218 12.9123 40.5526 12.7434L43.7746 8.60357L41.969 6.84433L40.1578 5.08509L35.907 8.22298C35.7412 8.34455 35.5414 8.41418 35.334 8.42265C35.1266 8.43111 34.9215 8.378 34.7458 8.27036C33.0074 7.20481 31.0972 6.4318 29.0953 5.98374C28.886 5.94307 28.695 5.83978 28.5489 5.68829C28.4028 5.5368 28.3089 5.34466 28.2803 5.13868L27.5529 0H22.4432L21.7166 5.13402C21.6897 5.33659 21.5996 5.52622 21.4584 5.67723C21.3171 5.82824 21.1317 5.93334 20.9271 5.9783C19.9245 6.1999 18.9432 6.50444 17.9938 6.8886C17.058 7.26601 16.1561 7.71858 15.2973 8.24162C15.12 8.36383 14.9074 8.42797 14.6902 8.42476C14.473 8.42155 14.2625 8.35115 14.0891 8.22376L9.83748 5.08587L8.03109 6.84433L6.22868 8.60512L9.45068 12.7457C9.57585 12.9071 9.64762 13.1017 9.65645 13.3037C9.66528 13.5057 9.61076 13.7055 9.50013 13.8766C8.40546 15.5688 7.61169 17.4287 7.15221 19.378C7.11098 19.5822 7.00512 19.7688 6.8495 19.9114C6.69388 20.054 6.49631 20.1456 6.2845 20.1734L1.00409 20.8817V23.3672V25.8526L6.27493 26.5594C6.483 26.5858 6.67773 26.6738 6.83278 26.8114C6.98783 26.9491 7.09572 27.1298 7.14185 27.3292C7.26785 27.8705 7.42656 28.4204 7.61478 28.9742C7.72058 29.2865 7.8349 29.594 7.95772 29.8969L8.56384 29.7416L14.3395 28.2348C13.1458 25.7573 12.9011 22.9457 13.6496 20.3078C14.3981 17.67 16.0905 15.3797 18.4211 13.8508C20.7517 12.3218 23.567 11.6548 26.3583 11.9704C29.1497 12.286 31.7331 13.5633 33.6421 15.5715C35.5511 17.5798 36.6598 20.1867 36.7679 22.9214C36.8761 25.6562 35.9765 28.3384 34.2317 30.4837C32.487 32.629 30.012 34.096 27.2538 34.6196Z" fill="#64D71E"/>
</g>
<defs>
<clipPath id="clip0_489_602">
<rect width="48" height="48.0018" fill="white"/>
</clipPath>
</defs>
</svg>
