<svg width="48" height="48" viewBox="0 0 48 48" fill="none" xmlns="http://www.w3.org/2000/svg">
<path d="M32.7489 11.2072L29.4777 14.3871L30.2536 18.9516C30.308 19.2369 30.2795 19.5317 30.1717 19.8013C30.0638 20.0709 29.8811 20.304 29.645 20.4731C29.384 20.6621 29.0696 20.7634 28.7473 20.7622C28.5022 20.763 28.261 20.7001 28.0475 20.5796L24.0003 18.3734L19.9531 20.4883C19.7032 20.6208 19.4213 20.681 19.1391 20.6622C18.8569 20.6434 18.5856 20.5463 18.3555 20.3818C18.1194 20.2127 17.9367 19.9796 17.8288 19.71C17.721 19.4404 17.6926 19.1456 17.7469 18.8603L18.5228 14.2958L15.2516 11.2072C15.056 11.012 14.9173 10.7672 14.8503 10.4992C14.7833 10.2311 14.7905 9.9499 14.8712 9.68566C14.9583 9.41731 15.1182 9.17845 15.3331 8.99575C15.5481 8.81304 15.8096 8.69369 16.0884 8.65103L20.6529 7.99679L22.6309 3.8583C22.7555 3.60105 22.95 3.38411 23.1922 3.23231C23.4344 3.08051 23.7144 3 24.0003 3C24.2861 3 24.5661 3.08051 24.8083 3.23231C25.0505 3.38411 25.245 3.60105 25.3696 3.8583L27.378 7.95114L31.9425 8.60539C32.2214 8.64805 32.4829 8.7674 32.6978 8.9501C32.9128 9.1328 33.0727 9.37167 33.1597 9.64001C33.2458 9.9134 33.2529 10.2056 33.1802 10.4828C33.1076 10.7601 32.958 11.0112 32.7489 11.2072ZM28.5648 24.3073H19.4357C19.0322 24.3073 18.6452 24.4676 18.3599 24.7529C18.0745 25.0383 17.9142 25.4253 17.9142 25.8288V45.6084H30.0863V25.8288C30.0863 25.4253 29.926 25.0383 29.6406 24.7529C29.3553 24.4676 28.9683 24.3073 28.5648 24.3073ZM4.2207 31.9148V44.0869C4.2207 44.4904 4.381 44.8774 4.66634 45.1627C4.95168 45.4481 5.33868 45.6084 5.74221 45.6084H14.8712V30.3933H5.74221C5.33868 30.3933 4.95168 30.5536 4.66634 30.839C4.381 31.1243 4.2207 31.5113 4.2207 31.9148ZM42.2583 33.4363H33.1293V45.6084H42.2583C42.6618 45.6084 43.0488 45.4481 43.3342 45.1627C43.6195 44.8774 43.7798 44.4904 43.7798 44.0869V34.9578C43.7798 34.5543 43.6195 34.1673 43.3342 33.882C43.0488 33.5966 42.6618 33.4363 42.2583 33.4363Z" fill="#64D71E"/>
</svg>
