<svg width="48" height="48" viewBox="0 0 48 48" fill="none" xmlns="http://www.w3.org/2000/svg">
<path d="M23.347 2C23.0712 1.99948 22.8021 2.08516 22.5773 2.24505C22.3525 2.40494 22.1834 2.63107 22.0934 2.89182L20.4029 7.74126L15.267 7.84206C14.9924 7.84725 14.7262 7.93778 14.5053 8.10108C14.2844 8.26439 14.1198 8.4924 14.0343 8.75347C13.9487 9.01455 13.9466 9.29577 14.0281 9.55813C14.1096 9.82049 14.2707 10.051 14.489 10.2177L18.5807 13.3222L17.0919 18.2415C17.0123 18.5045 17.0166 18.7857 17.104 19.0462C17.1915 19.3066 17.3578 19.5334 17.58 19.6951C17.8021 19.8568 18.0691 19.9453 18.3438 19.9484C18.6185 19.9514 18.8874 19.8689 19.1132 19.7123L23.3315 16.7835L27.542 19.7227C27.7677 19.8813 28.0373 19.9654 28.3131 19.9633C28.589 19.9612 28.8572 19.873 29.0805 19.711C29.3037 19.5489 29.4708 19.3212 29.5582 19.0596C29.6457 18.798 29.6493 18.5156 29.5685 18.2518L28.0874 13.3352L32.1843 10.2358C32.4033 10.0697 32.5653 9.83947 32.6476 9.57712C32.7298 9.31478 32.7284 9.03332 32.6434 8.77184C32.5584 8.51035 32.3942 8.28182 32.1734 8.11799C31.9526 7.95415 31.6863 7.86313 31.4114 7.85758L26.2729 7.74642L24.5928 2.89181C24.5033 2.63231 24.3353 2.40708 24.1121 2.24729C23.8888 2.08751 23.6215 2.00109 23.347 2ZM5.44498 5.24675C4.58002 5.29077 3.88637 6.01266 3.88637 6.88821C3.88637 7.79202 4.62396 8.53227 5.52769 8.53227C6.43141 8.53227 7.17159 7.79202 7.17159 6.88821C7.17159 5.98441 6.43141 5.24675 5.52769 5.24675C5.49968 5.24675 5.47284 5.24532 5.44498 5.24675ZM36.4077 5.59574C35.504 5.59574 34.7664 6.33599 34.7664 7.23979C34.7664 8.1436 35.504 8.88126 36.4077 8.88126C37.3115 8.88126 38.0516 8.1436 38.0516 7.23979C38.0516 6.33599 37.3115 5.59574 36.4077 5.59574ZM11.713 6.00677C11.2638 6.02978 10.904 6.40514 10.904 6.85981C10.904 7.32917 11.2876 7.71285 11.7569 7.71285C12.2263 7.71285 12.6099 7.32914 12.6099 6.85981C12.6099 6.39045 12.2263 6.00677 11.7569 6.00677C11.7424 6.00677 11.7275 6.00603 11.713 6.00677ZM7.2879 10.4504C7.1788 10.4516 7.07028 10.4664 6.9648 10.4944C6.69967 10.5655 6.46318 10.7173 6.28811 10.929C6.11305 11.1407 6.00808 11.4016 5.98777 11.6757L5.70083 15.5687L1.95811 16.6518C1.69371 16.7277 1.45952 16.8843 1.28813 17.0997C1.11675 17.3152 1.0167 17.5787 1.00191 17.8537C0.987125 18.1288 1.05833 18.4015 1.20562 18.6342C1.35292 18.8668 1.56896 19.0476 1.8237 19.1515L5.42943 20.6249L5.30277 24.5231C5.29303 24.7986 5.36937 25.0702 5.52115 25.3002C5.67293 25.5302 5.8926 25.707 6.14952 25.806C6.40644 25.905 6.68781 25.9213 6.95442 25.8526C7.22102 25.7839 7.45957 25.6336 7.63681 25.4227L10.1518 22.4422L13.8144 23.7709C14.073 23.8654 14.3546 23.8768 14.62 23.8035C14.8854 23.7301 15.1213 23.5757 15.2948 23.3617C15.4684 23.1478 15.571 22.8849 15.5882 22.6098C15.6055 22.3347 15.5365 22.061 15.3911 21.827L13.3362 18.513L15.7297 15.4317C15.8988 15.2148 15.9963 14.9505 16.0086 14.6755C16.0208 14.4006 15.9472 14.1286 15.7979 13.8975C15.6487 13.6664 15.4312 13.4875 15.1758 13.3858C14.9204 13.2842 14.6397 13.2647 14.3727 13.3301L10.5886 14.2633L8.40189 11.0321C8.27891 10.8502 8.11271 10.7019 7.91825 10.6004C7.72378 10.4988 7.50719 10.4472 7.2879 10.4504ZM39.7111 10.4504C39.4918 10.4472 39.2751 10.4987 39.0807 10.6003C38.8862 10.7018 38.72 10.8502 38.597 11.032L36.4103 14.2632L32.6262 13.33C32.3593 13.2646 32.0785 13.2841 31.8231 13.3858C31.5677 13.4874 31.3502 13.6663 31.201 13.8974C31.0518 14.1285 30.9781 14.4005 30.9904 14.6754C31.0026 14.9504 31.1001 15.2147 31.2693 15.4316L33.6627 18.5129L31.6079 21.8269C31.4624 22.0609 31.3935 22.3346 31.4107 22.6097C31.428 22.8848 31.5305 23.1477 31.7041 23.3617C31.8776 23.5756 32.1136 23.7301 32.3789 23.8034C32.6443 23.8767 32.926 23.8653 33.1846 23.7708L36.8471 22.4421L39.3621 25.4226C39.5394 25.6335 39.7779 25.7838 40.0445 25.8525C40.3111 25.9212 40.5925 25.905 40.8494 25.8059C41.1063 25.7069 41.326 25.5301 41.4778 25.3001C41.6296 25.0702 41.7059 24.7985 41.6962 24.523L41.5695 20.6249L45.1752 19.1514C45.43 19.0478 45.6462 18.8671 45.7937 18.6347C45.9412 18.4023 46.0127 18.1296 45.9982 17.8546C45.9837 17.5796 45.8839 17.316 45.7128 17.1004C45.5417 16.8848 45.3077 16.728 45.0434 16.6517L41.2981 15.5686L41.0112 11.6756C40.9909 11.4016 40.8859 11.1406 40.7109 10.9289C40.5358 10.7173 40.2993 10.5654 40.0342 10.4943C39.9287 10.4663 39.8202 10.4516 39.7111 10.4504ZM43.3995 10.9906C42.9503 11.0136 42.5905 11.389 42.5905 11.8437C42.5905 12.313 42.9742 12.6967 43.4434 12.6967C43.9128 12.6967 44.2964 12.313 44.2964 11.8437C44.2964 11.3743 43.9128 10.9906 43.4434 10.9906C43.4289 10.9906 43.414 10.9899 43.3995 10.9906ZM26.9424 21.9148C26.4831 21.9263 26.1101 22.3058 26.1101 22.7678C26.1101 23.2372 26.4937 23.6209 26.963 23.6209C27.4324 23.6209 27.816 23.2372 27.816 22.7678C27.816 22.2985 27.4324 21.9148 26.963 21.9148C26.9555 21.9148 26.9494 21.9146 26.9424 21.9148ZM18.3119 23.1452C17.4469 23.1893 16.7533 23.9111 16.7533 24.7867C16.7533 25.6905 17.4909 26.4307 18.3946 26.4307C19.2983 26.4307 20.0385 25.6905 20.0385 24.7867C20.0385 23.8829 19.2983 23.1452 18.3946 23.1452C18.3666 23.1452 18.3398 23.1438 18.3119 23.1452ZM23.8794 23.7553C23.7056 23.756 23.5337 23.7909 23.3734 23.858C23.2131 23.9251 23.0676 24.0232 22.9452 24.1466C22.8228 24.27 22.7258 24.4163 22.66 24.5771C22.5941 24.7379 22.5605 24.9102 22.5612 25.084V36.7707C20.8252 32.9572 17.9922 28.577 13.4086 25.1046C13.1296 24.8935 12.7783 24.8015 12.4316 24.8488C12.0854 24.8968 11.7722 25.0799 11.5605 25.358C11.4551 25.4964 11.3781 25.6543 11.3338 25.8226C11.2895 25.9908 11.2788 26.1661 11.3024 26.3385C11.3259 26.5109 11.3832 26.677 11.4709 26.8272C11.5587 26.9774 11.6752 27.1089 11.8138 27.214C21.2206 34.3403 22.5716 45.8259 22.5716 45.8259C22.5732 45.8338 22.5748 45.8416 22.5766 45.8494C22.5837 45.9026 22.5941 45.9552 22.6076 46.0071C22.6124 46.0253 22.6175 46.0434 22.6231 46.0614C22.6257 46.0693 22.6283 46.0821 22.6311 46.0899C22.6487 46.1411 22.6694 46.1912 22.6931 46.2398C22.7029 46.2617 22.7132 46.2832 22.7241 46.3045C22.7258 46.308 22.7275 46.3115 22.7291 46.315C22.7704 46.3902 22.8189 46.4612 22.8739 46.527C22.9775 46.6503 23.1027 46.7536 23.2435 46.832C23.2503 46.8355 23.2571 46.839 23.264 46.8425C23.2718 46.8461 23.2796 46.8496 23.2875 46.853C23.3426 46.8811 23.3996 46.9053 23.4581 46.9254C23.4769 46.9318 23.4959 46.9378 23.5149 46.9434C23.5218 46.9451 23.5286 46.9468 23.5355 46.9484C23.5423 46.9501 23.5491 46.9518 23.556 46.9534C23.6053 46.9666 23.6554 46.977 23.7059 46.9844C23.7145 46.9862 23.7232 46.9878 23.7319 46.9894C23.7397 46.9895 23.7476 46.9895 23.7554 46.9894C23.7684 46.9905 23.7814 46.9913 23.7944 46.992C23.8228 46.9956 23.8512 46.9983 23.8797 47C23.9082 46.9983 23.9367 46.9956 23.965 46.992C23.9789 46.9914 23.9927 46.9905 24.0065 46.9894C24.0134 46.9895 24.0202 46.9895 24.027 46.9894C24.0426 46.9872 24.0581 46.9847 24.0736 46.9819C24.0978 46.9782 24.1219 46.9739 24.1459 46.9689C24.1798 46.9624 24.2135 46.9545 24.2467 46.9454L24.2542 46.9428C24.269 46.9379 24.2837 46.9327 24.2983 46.9273C24.32 46.921 24.3415 46.9142 24.3629 46.9068C24.3944 46.8941 24.4255 46.8803 24.4559 46.8653C24.4769 46.8555 24.4976 46.8451 24.518 46.8342C24.5434 46.8204 24.5684 46.8057 24.5929 46.7902C24.6294 46.767 24.6648 46.742 24.6989 46.7153L24.7064 46.7103L24.7114 46.7053C24.7183 46.7002 24.7251 46.695 24.7319 46.6898C24.7424 46.6804 24.7527 46.6709 24.7629 46.6613C24.7743 46.6511 24.7854 46.6408 24.7964 46.6302C24.8197 46.6069 24.8422 46.5828 24.8637 46.5578C24.8742 46.5485 24.8845 46.539 24.8947 46.5293C24.8991 46.5225 24.9034 46.5157 24.9077 46.5088L24.9127 46.5038C24.9154 46.5003 24.9181 46.4968 24.9207 46.4933C24.9359 46.4739 24.9506 46.4541 24.9647 46.4339C24.97 46.4263 24.9751 46.4186 24.9802 46.4109C25.0013 46.3807 25.0211 46.3496 25.0397 46.3178C25.0422 46.3118 25.0447 46.3058 25.0472 46.2998C25.0488 46.2963 25.0505 46.2928 25.0522 46.2893C25.0661 46.263 25.0817 46.2337 25.0938 46.2066C25.1102 46.1685 25.1249 46.1297 25.1378 46.0903C25.1423 46.0765 25.1467 46.0626 25.1508 46.0487C25.1608 46.0155 25.1695 45.9793 25.1768 45.9453C25.1817 45.923 25.1861 45.9006 25.1898 45.8781C25.1916 45.867 25.1933 45.8532 25.1948 45.842C25.1957 45.8368 25.1966 45.8317 25.1974 45.8265C25.1974 45.8265 26.5484 34.3409 35.9551 27.2146C36.0937 27.1094 36.2103 26.978 36.298 26.8278C36.3858 26.6775 36.4431 26.5115 36.4666 26.3391C36.4901 26.1667 36.4794 25.9914 36.4351 25.8231C36.3908 25.6549 36.3138 25.497 36.2085 25.3586C36.1027 25.22 35.9707 25.1037 35.8198 25.0163C35.669 24.9289 35.5024 24.8721 35.3296 24.8493C34.9829 24.8021 34.6316 24.8941 34.3526 25.1052C29.7733 28.5744 26.9421 32.9499 25.2077 36.7609V25.0845C25.2084 24.9099 25.1745 24.7368 25.108 24.5753C25.0415 24.4138 24.9436 24.267 24.8201 24.1435C24.6966 24.02 24.5499 23.9221 24.3884 23.8556C24.2269 23.7891 24.0541 23.7546 23.8794 23.7553ZM5.74998 28.1523C4.86558 28.1749 4.15001 28.9041 4.15001 29.7938C4.15001 30.6976 4.88761 31.4379 5.79133 31.4379C6.69505 31.4379 7.43524 30.6976 7.43524 29.7938C7.43524 28.89 6.69505 28.1523 5.79133 28.1523C5.77732 28.1523 5.76398 28.152 5.74998 28.1523ZM41.28 28.8761C40.3956 28.8987 39.68 29.6305 39.68 30.5202C39.68 31.424 40.4176 32.1617 41.3214 32.1617C42.2251 32.1617 42.9653 31.424 42.9653 30.5202C42.9653 29.6164 42.2251 28.8761 41.3214 28.8761C41.3074 28.8761 41.294 28.8758 41.28 28.8761Z" fill="#64D71E"/>
</svg>
