<svg width="198" height="132" viewBox="0 0 198 132" fill="none" xmlns="http://www.w3.org/2000/svg">
<path d="M117.672 81.081L118.092 83.8838C118.257 85.0218 117.831 85.9977 116.452 86.0609C114.905 86.1324 114.351 85.2637 114.172 84.0295L112.528 71.9919C112.349 70.8538 112.645 69.6773 114.055 69.6773C115.087 69.5756 116.011 70.3013 116.116 71.2991C116.125 71.3706 116.128 71.4421 116.125 71.5163L116.725 74.0893C116.773 74.8068 117.401 75.3593 118.146 75.3346H126.551C127.418 75.428 128.208 74.8508 128.351 74.0178C128.396 73.7539 128.373 73.4818 128.285 73.2289C127.808 71.6345 126.372 67.4561 125.593 64.9601C125.143 63.5581 124.1 62.5685 123.025 62.5685H103.626C101.653 62.5685 100.766 64.6714 100.809 65.6666C100.925 67.7475 101.221 90.6407 101.309 93.2054C101.369 94.6624 102.58 95.8307 104.087 95.8829L131.174 95.8334C133.147 95.8334 134.534 94.8053 133.801 92.2405C133.127 89.9067 130.969 82.3141 130.52 81.1706C130.093 80.2194 129.189 79.5487 128.129 79.403H119.099C118.263 79.5514 117.655 80.2524 117.649 81.0744L117.672 81.081Z" fill="black"/>
<path d="M77.5174 79.3728H68.8968C67.0772 79.3728 66.6166 80.64 66.2498 82.2756C65.8802 83.9085 64.0179 92.3807 64.0179 92.3807C63.3725 95.3249 65.6869 95.8636 66.7929 95.8664H94.3717C95.8786 95.7042 96.9931 94.4369 96.9192 92.9745C96.9192 91.4571 97.158 66.7854 97.158 65.6473C97.1325 63.7313 96.1885 62.5548 94.3916 62.5548H88.5119C86.8629 62.5548 85.9104 63.5004 85.7228 65.301C85.5323 67.1015 82.5782 84.2769 82.5782 84.2769C82.5754 84.2851 82.5754 84.3044 82.5754 84.3044C82.4247 85.283 81.4808 85.9592 80.4686 85.8135C78.5437 85.6651 78.7399 83.6721 78.7399 83.6721C78.7399 83.6721 78.7996 83.4082 78.9276 82.3086C79.1579 80.7142 78.6063 79.3728 77.5174 79.3728Z" fill="black"/>
<path d="M111.856 47.8714C111.853 48.905 110.986 49.7434 109.917 49.7489H88.0784C87.0093 49.7489 86.1422 48.9105 86.1422 47.8769V47.8686C86.1422 46.835 87.0065 45.9939 88.0784 45.9856H109.897C110.963 45.9829 111.833 46.8158 111.836 47.8466V47.8686L111.856 47.8714ZM80.47 73.7004C81.704 67.4273 82.81 63.686 83.3445 60.8216C83.4326 59.3867 84.7064 58.2899 86.1934 58.3696H120.86C124.787 58.3696 123.325 55.3485 123.325 55.3485L118.498 39.2974C118.498 39.2974 118.063 37.0213 115.831 37.0213H78.8892C78.8892 37.0213 76.9161 37.0598 76.2508 39.6493L68.5031 72.1143C68.5031 72.1143 67.3772 75.2975 70.5161 75.2975H78.3178C79.8815 75.2975 80.3592 74.657 80.5326 73.7087" fill="black"/>
</svg>
