<svg width="144" height="96" viewBox="0 0 144 96" fill="none" xmlns="http://www.w3.org/2000/svg">
<g clip-path="url(#clip0_2560_1029)">
<mask id="mask0_2560_1029" style="mask-type:luminance" maskUnits="userSpaceOnUse" x="4" y="40" width="136" height="16">
<path d="M139.443 40.7548H4.55664V55.2453H139.443V40.7548Z" fill="white"/>
</mask>
<g mask="url(#mask0_2560_1029)">
<g clip-path="url(#clip1_2560_1029)">
<mask id="mask1_2560_1029" style="mask-type:luminance" maskUnits="userSpaceOnUse" x="4" y="40" width="135" height="16">
<path d="M138.837 55.2453H4.90723V40.7548H138.837V55.2453Z" fill="white"/>
</mask>
<g mask="url(#mask1_2560_1029)">
<path d="M17.7907 51.695L17.8915 52.3669C17.931 52.6395 17.8288 52.8734 17.4984 52.8885C17.1279 52.9056 16.995 52.6975 16.9521 52.4018L16.5583 49.5175C16.5154 49.2448 16.5863 48.9629 16.9242 48.9629C17.1715 48.9385 17.3929 49.1124 17.4181 49.3515C17.4201 49.3686 17.4208 49.3857 17.4201 49.4035L17.5638 50.02C17.5754 50.1919 17.726 50.3243 17.9045 50.3184H19.9182C20.126 50.3408 20.3154 50.2025 20.3494 50.0029C20.3603 49.9397 20.3549 49.8745 20.3338 49.8139C20.2193 49.4319 19.8753 48.4307 19.6886 47.8326C19.581 47.4967 19.331 47.2596 19.0735 47.2596H14.4254C13.9526 47.2596 13.74 47.7635 13.7502 48.0019C13.7782 48.5005 13.849 53.9858 13.8701 54.6004C13.8845 54.9495 14.1747 55.2294 14.5357 55.2419L21.0259 55.2301C21.4987 55.2301 21.8312 54.9837 21.6554 54.3692C21.4939 53.81 20.9769 51.9908 20.8692 51.7168C20.7671 51.4889 20.5504 51.3281 20.2963 51.2932H18.1327C17.9324 51.3288 17.7866 51.4968 17.7853 51.6937L17.7921 51.6957L17.7907 51.695ZM6.10398 51.286H8.16951C8.43042 51.286 8.56258 51.6074 8.5074 51.9894C8.47675 52.2529 8.46244 52.3161 8.46244 52.3161C8.46244 52.3161 8.41544 52.7937 8.87664 52.8292C9.11916 52.8641 9.34533 52.7021 9.38144 52.4676C9.38144 52.4657 9.38144 52.463 9.38212 52.461C9.38212 52.461 10.0899 48.3457 10.1356 47.9143C10.1805 47.4829 10.4088 47.2563 10.8039 47.2563H12.2127C12.6432 47.2563 12.8694 47.5382 12.8755 47.9973C12.8755 48.27 12.8183 54.1815 12.8183 54.545C12.836 54.8955 12.569 55.1991 12.2079 55.238H5.59986C5.33486 55.2373 4.78032 55.1082 4.93497 54.4028C4.93497 54.4028 5.38118 52.3728 5.46974 51.9815C5.55762 51.5896 5.6673 51.2866 6.1033 51.2866L6.10398 51.286ZM138.836 54.7697H134.508V53.0123H134.471C133.928 54.4383 132.669 55.0055 131.38 55.0055C128.942 55.0055 128.052 53.6394 128.052 51.6647V44.6078H132.635V50.4653C132.635 51.0508 132.635 51.8511 133.435 51.8511C134.236 51.8511 134.253 51.0508 134.253 50.4653V44.6072H138.837V54.7795V54.769L138.836 54.7697ZM119.755 44.5973V42.2584L124.338 40.7546V44.6065H126.408V47.5362H124.336V50.3994C124.336 51.2577 124.729 51.7352 125.336 51.7352C125.7 51.7411 126.064 51.6812 126.406 51.5593V54.4877C125.392 54.8243 124.33 55.0022 123.259 55.0147C120.899 55.0147 119.75 53.7435 119.75 51.0482V47.5277H118.144V44.6072H119.763L119.755 44.5973ZM116.608 54.7697H112.28V53.0123H112.243C111.7 54.4383 110.445 55.0055 109.153 55.0055C106.718 55.0055 105.826 53.6394 105.826 51.6647V44.6078H110.407V50.4653C110.407 51.0508 110.407 51.8511 111.207 51.8511C112.008 51.8511 112.026 51.0508 112.026 50.4653V44.6072H116.609V54.7795L116.607 54.769L116.608 54.7697ZM98.7537 52.0757C99.6468 52.0757 99.7701 50.981 99.7701 49.4997C99.7701 48.2878 99.6441 47.2919 98.7551 47.2919C97.866 47.2919 97.7564 48.2878 97.7564 49.4997C97.7564 50.9784 97.8681 52.0764 98.7551 52.0764H98.753L98.7537 52.0757ZM98.7551 44.3621C102.573 44.3621 104.644 46.0799 104.644 49.4984C104.644 53.0104 102.573 55.0048 98.7551 55.0048C94.9367 55.0048 92.8855 53.0104 92.8855 49.4984C92.8855 46.0779 94.9197 44.3621 98.7551 44.3621ZM91.7996 54.4588C90.668 54.7986 89.4929 54.9824 88.3082 55.0041C84.0933 55.0041 80.7096 52.6224 80.7096 47.7523C80.7096 43.1844 84.2357 40.9002 88.3089 40.9002C89.6557 40.9002 90.4541 41.0741 91.7621 41.3264V44.92C90.9637 44.6473 90.1455 44.4148 89.3287 44.4148C87.2536 44.4148 85.6922 45.607 85.6922 47.8313C85.6922 50.1755 87.146 51.3663 89.1659 51.3663C90.0706 51.3512 90.9637 51.1727 91.8002 50.8394L91.7996 54.4588ZM66.8198 44.6157H71.1477V46.373H71.1804C71.7254 44.945 72.9823 44.3799 74.2732 44.3799C76.71 44.3799 77.5997 45.7473 77.5997 47.7213V54.7835H73.0259V48.9332C73.0259 48.3602 73.0259 47.5514 72.2275 47.5514C71.429 47.5514 71.4093 48.351 71.4093 48.9332V54.7927H66.83V44.6223L66.8204 44.6164L66.8198 44.6157ZM61.1566 50.3322H60.709C59.7668 50.3322 58.6769 50.4317 58.6769 51.4777C58.6769 52.1798 59.0365 52.4545 59.7471 52.4545C60.6933 52.4545 61.1648 51.5165 61.1648 50.6392L61.1579 50.3322H61.1566ZM55.5758 44.9879C56.8504 44.5624 58.1932 44.3641 59.5393 44.4023C62.158 44.4023 65.3387 44.9101 65.3387 48.621V54.8065H61.0844V53.3292H61.0489C60.4113 54.4739 59.2484 55.0298 57.9561 55.0298C56.1855 55.0298 54.4845 54.169 54.4845 52.0408C54.4845 48.9168 57.1011 48.2943 59.3744 48.2943C59.9712 48.3108 60.5666 48.3563 61.1586 48.4313C61.1382 47.1219 59.884 46.9638 58.7416 46.9638C57.6298 46.9981 56.5439 47.2938 55.5765 47.8247V44.9734V44.9885L55.5758 44.9879ZM49.5455 48.7554C49.5455 47.9756 49.4372 46.7419 48.403 46.7419C47.3689 46.7419 47.1121 47.9538 47.1652 48.7561L49.5455 48.7554ZM47.1856 50.9033C47.2579 52.1745 48.3656 52.4663 49.7131 52.4663C50.9679 52.4663 52.0954 52.2312 52.8223 51.8228V54.4588C51.6049 54.8711 50.1491 55.045 48.5481 55.045C44.7141 55.045 42.6785 53.0505 42.6785 49.5386C42.6785 46.1208 44.7148 44.4036 48.5481 44.4036C52.2241 44.4036 53.5124 46.8618 53.5124 50.298V50.9046H47.1822L47.185 50.9026L47.1856 50.9033ZM41.4816 50.0405C41.4646 56.4512 29.551 57.4537 29.5585 48.5822H33.9763V49.5478C33.9763 51.0746 36.6652 51.1016 36.6775 49.5478V40.8284H41.4707L41.4802 50.0405H41.4816Z" fill="#95989D"/>
<path d="M16.3966 43.738C16.3959 43.9857 16.1881 44.1866 15.932 44.1879H10.6993C10.4432 44.1879 10.2354 43.987 10.2354 43.7394V43.7374C10.2354 43.4897 10.4425 43.2882 10.6993 43.2862H15.9272C16.1827 43.2855 16.3911 43.4851 16.3918 43.7321C16.3918 43.7341 16.3918 43.7354 16.3918 43.7374H16.3959L16.3966 43.738ZM8.87634 49.9268C9.172 48.4238 9.437 47.5273 9.56507 46.841C9.58619 46.4972 9.89139 46.2344 10.2477 46.2535H18.5541C19.4949 46.2535 19.1447 45.5296 19.1447 45.5296L17.988 41.6837C17.988 41.6837 17.8837 41.1383 17.349 41.1383H8.49757C8.49757 41.1383 8.02478 41.1475 7.86537 41.768L6.00899 49.5468C6.00899 49.5468 5.73921 50.3095 6.49131 50.3095H8.36064C8.73532 50.3095 8.84977 50.156 8.89132 49.9288" fill="#95989D"/>
</g>
</g>
</g>
</g>
<defs>
<clipPath id="clip0_2560_1029">
<rect width="134.886" height="14.4906" fill="white" transform="translate(4.55664 40.7548)"/>
</clipPath>
<clipPath id="clip1_2560_1029">
<rect width="133.93" height="14.4906" fill="white" transform="matrix(1 0 0 -1 4.90723 55.2453)"/>
</clipPath>
</defs>
</svg>
