<svg width="144" height="96" viewBox="0 0 144 96" fill="none" xmlns="http://www.w3.org/2000/svg">
<g clip-path="url(#clip0_2560_1123)">
<path d="M93.0818 60.8464C93.8427 59.6946 94.0445 58.6308 93.0916 57.6172C92.1384 56.6029 90.8626 56.5208 88.582 57.466C87.3026 56.0705 85.9426 54.587 84.4199 52.926C88.483 51.3325 92.4228 49.725 96.407 48.2405C101.534 46.33 106.774 44.7949 112.147 43.7571C112.77 43.6368 113.519 43.5208 114.062 43.7544C117.012 45.0242 119.916 46.4044 122.818 47.9458C113.605 51.9287 105.631 57.5919 98.205 64.2428C96.5139 63.1219 94.8337 62.0083 93.0811 60.8464H93.0818ZM92.7083 51.286C93.1998 51.7984 93.4675 52.1976 93.8357 52.4418C96.2936 54.0732 98.7853 55.6528 101.238 57.2928C101.958 57.7744 102.56 57.6238 103.197 57.2147C107.646 54.3574 112.194 51.6798 116.986 49.4442C117.94 48.9992 118.882 48.5273 120.188 47.8936C118.292 47.0172 116.663 46.4084 115.185 45.537C113.933 44.7989 112.691 44.779 111.417 45.09C109.166 45.6394 106.908 46.2017 104.716 46.9478C100.761 48.294 96.8532 49.7795 92.7083 51.286Z" fill="#95989D"/>
<path d="M54.0922 59.0786C53.2011 61.6475 52.3104 64.2161 51.4226 66.7753H49.5862C48.7336 64.2928 47.8836 61.818 47.0336 59.3431C46.9323 59.3458 46.8311 59.3484 46.7295 59.3511V66.764H44.6172V55.2206H47.5298C48.4751 57.8922 49.4228 60.5697 50.3701 63.247C50.47 63.252 50.57 63.2566 50.6699 63.2616C51.6018 60.6046 52.5336 57.948 53.4813 55.2468H56.4475V66.7604H54.4273V59.1434C54.3155 59.1218 54.2037 59.1002 54.0919 59.0789L54.0922 59.0786Z" fill="#95989D"/>
<path d="M57.6367 47.4478V53.775H54.875V42.3167H57.5061C58.7882 44.4 60.0975 46.5276 61.4068 48.6555C61.4913 48.6269 61.5762 48.598 61.6607 48.5694V42.318H64.4562V53.7913H61.9359C60.6144 51.6797 59.2771 49.5431 57.9402 47.4069C57.8389 47.4206 57.7376 47.4342 57.6364 47.4478H57.6367Z" fill="#95989D"/>
<path d="M108.962 58.7329C109.449 57.6774 110.133 58.0307 110.825 58.2122C115.01 59.3072 118.849 58.5611 122.289 55.9028C126.936 52.3123 128.633 46.0609 126.479 40.5824C124.282 34.9943 118.85 31.6501 112.924 32.236C107.138 32.8079 102.404 37.2279 101.37 43.0334C101.225 43.8469 101.12 44.6678 100.987 45.5448C100.757 45.6192 100.504 45.7013 100.266 45.7784C99.2342 44.6957 101.129 38.8015 103.318 36.1864C108.097 30.478 116.213 29.3371 122.285 33.5204C128.34 37.6912 130.268 45.7781 126.771 52.3313C123.364 58.718 115.659 61.5045 108.963 58.7332L108.962 58.7329Z" fill="#95989D"/>
<path d="M46.5652 41.0064C43.0647 40.9971 40.5371 38.4468 40.5687 34.956C40.5999 31.5058 43.208 28.9565 46.6809 28.9814C50.1203 29.0063 52.8037 31.6759 52.73 35.0716C52.6439 39.037 49.3213 41.2839 46.5652 41.0064ZM46.5119 38.3418C48.2553 38.4059 49.6708 36.9762 49.7198 35.1022C49.7675 33.2874 48.3306 31.658 46.6717 31.6453C45.0161 31.633 43.6361 33.0428 43.5424 34.842C43.4477 36.6665 44.8166 38.2793 46.5119 38.3418Z" fill="#95989D"/>
<path d="M15.6914 53.7624V42.3173C17.7149 42.3173 19.7364 42.1063 21.6952 42.3708C24.129 42.6995 25.7856 45.266 25.7231 48.0573C25.6485 51.3962 24.0251 53.3493 20.7587 53.7295C19.1492 53.9169 17.5005 53.7624 15.6914 53.7624ZM18.7786 44.9736V51.1509C20.2024 51.1901 21.5709 51.2383 22.2729 49.7974C22.9137 48.482 22.8601 47.0822 22.0562 45.848C21.269 44.6396 20.0314 44.7892 18.7786 44.9736Z" fill="#95989D"/>
<path d="M66.1248 35.7485V29.3252H68.8203V40.8245H66.3148C65.0199 38.7527 63.6633 36.5826 62.3069 34.4125C62.2234 34.4374 62.1399 34.4623 62.0564 34.4873V40.8308H59.3828V29.3687H61.8916C63.1533 31.4258 64.4975 33.6172 65.8416 35.8086C65.936 35.7887 66.0304 35.7684 66.1248 35.7485Z" fill="#95989D"/>
<path d="M37.0034 54.901C40.4168 54.884 43.1127 57.5323 43.1403 60.9291C43.1673 64.2477 40.3803 67.0293 37.0383 67.019C33.7341 67.009 31.0631 64.3504 31.0316 61.0401C30.9987 57.6011 33.6088 54.9176 37.0034 54.901ZM36.8426 64.8712C38.9776 64.9592 40.7637 63.3218 40.8863 61.164C41.009 59.0112 39.2048 56.9993 37.1175 56.9611C35.1091 56.9242 33.3773 58.6254 33.2905 60.7207C33.1974 62.9619 34.7576 64.7851 36.8426 64.8712Z" fill="#95989D"/>
<path d="M31.3066 29.2926C33.122 29.2926 34.8723 29.2122 36.6117 29.3142C38.5306 29.4269 39.7636 30.8107 39.9103 32.787C40.0625 34.8368 39.0271 36.5347 37.2226 36.9794C36.2362 37.2223 35.1988 37.2539 34.0834 37.3934V40.7912H31.3066V29.2926ZM34.117 34.5205C35.1843 34.6002 36.2007 34.7946 36.8464 33.8222C37.0398 33.5311 37.0276 32.8881 36.8346 32.5856C36.1701 31.5448 35.1281 31.9805 34.117 31.9442V34.5205Z" fill="#95989D"/>
<path d="M46.7754 42.2698H52.9616V44.8427H49.5995V46.5499H52.9482V49.2431H49.592V51.1347H52.9978V53.7833H46.7754V42.2698Z" fill="#95989D"/>
<path d="M80.6102 42.2812V44.8804H77.2238V46.5314H80.5612V49.2253H77.2231V51.1146H80.6105V53.7748H74.3457V42.2816L80.6102 42.2812Z" fill="#95989D"/>
<path d="M41.6253 53.8145H38.5266C37.2738 50.0136 36.0207 46.2111 34.7285 42.291H37.8016C38.5174 44.7565 39.2477 47.2706 40.0608 50.0715C40.8723 47.2905 41.601 44.7931 42.3369 42.2714H45.4284C44.144 46.1692 42.8991 49.9485 41.6253 53.8145Z" fill="#95989D"/>
<path d="M23.0859 29.3238H29.3452V31.8768H26.0502V33.5045H29.2768V36.2761H26.0193V38.1505H29.3409V40.7928H23.0863L23.0859 29.3238Z" fill="#95989D"/>
<path d="M30.2888 51.1641H33.639V53.7749H27.3594C27.3594 51.8507 27.3594 49.9408 27.3594 48.0313C27.3594 46.1599 27.3594 44.2886 27.3594 42.3188H33.6436V44.8788H30.3226V46.5095H33.5739V49.2193H30.2891L30.2888 51.1641Z" fill="#95989D"/>
<path d="M27.8748 58.4492C27.7131 58.3006 27.4878 58.0643 27.234 57.8646C25.7912 56.7297 24.2428 56.6689 22.8463 57.6808C21.4906 58.6632 20.879 60.5199 21.3963 62.0852C21.9615 63.7963 23.4208 64.9455 25.053 64.8475C25.6277 64.8129 26.3521 64.6963 26.7227 64.3257C27.7249 63.3231 28.8632 63.4205 30.071 63.5491C29.4472 65.8292 27.0183 67.232 24.2668 66.9275C21.3433 66.6042 19.135 64.1898 18.9578 61.1231C18.7964 58.3295 20.9313 55.5682 23.7078 54.9787C26.4682 54.3924 29.2072 55.8234 30.2541 58.4495L27.8748 58.4492Z" fill="#95989D"/>
<path d="M70.209 29.323H77.4918V31.8696C76.7776 31.9102 76.1453 31.9464 75.3716 31.9903V40.8179H72.3472V32.0375C71.5768 31.9717 70.9482 31.9178 70.209 31.8543V29.323Z" fill="#95989D"/>
<path d="M65.7308 42.2637H73.0797V44.798C72.4103 44.8505 71.7263 44.904 70.8944 44.9688V53.7736H67.97V44.9047H65.7305V42.2637H65.7308Z" fill="#95989D"/>
<path d="M15.6602 40.795V29.3323H18.5701V38.1766H21.8898V40.795H15.6602Z" fill="#95989D"/>
<path d="M57.1284 40.836H54.279C54.2421 40.3914 54.1849 40.0155 54.1843 39.6396C54.1774 36.2216 54.1803 32.8033 54.1803 29.3115H57.1284V40.836Z" fill="#95989D"/>
<path d="M105.241 61.8372C105.821 61.2985 106.295 60.8592 106.823 60.3693C114.495 63.5773 121.308 62.2546 127.197 56.2378C124.332 62.3148 113.869 66.6297 105.24 61.8375L105.241 61.8372Z" fill="#95989D"/>
<path d="M97.6865 46.6688C97.0762 46.8755 96.6685 47.0137 96.2722 47.148C94.9461 45.2534 97.8219 37.1774 100.686 35.0828C98.5128 38.6074 97.3484 42.3987 97.6865 46.6688Z" fill="#95989D"/>
<path d="M15.4941 64.6195H17.4716V66.7617H15.4941V64.6195Z" fill="#95989D"/>
</g>
<defs>
<clipPath id="clip0_2560_1123">
<rect width="113.013" height="38.0377" fill="white" transform="translate(15.4941 28.9812)"/>
</clipPath>
</defs>
</svg>
