<svg width="226" height="148" viewBox="0 0 226 148" fill="none" xmlns="http://www.w3.org/2000/svg">
<rect width="226" height="148" fill="white"/>
<path d="M27.952 28.392C27.77 27.412 27.154 26.124 25.236 26.124C23.024 26.124 22.184 28 22.184 29.988C22.184 31.99 23.024 33.866 25.236 33.866C27.168 33.866 27.854 32.578 27.952 31.36H29.562C29.338 33.586 27.784 35.196 25.25 35.196C22.408 35.196 20.588 33.012 20.588 30.002C20.588 26.978 22.422 24.794 25.264 24.794C27.784 24.794 29.324 26.39 29.562 28.392H27.952ZM32.6698 35.196C31.2418 35.196 30.3318 34.37 30.3318 33.152C30.3318 31.556 31.5358 31.094 33.3138 30.744C34.4338 30.534 35.1198 30.394 35.1198 29.694C35.1198 29.176 34.8118 28.742 33.7618 28.742C32.5158 28.742 32.1378 29.134 32.0678 30.086H30.6678C30.7378 28.714 31.6338 27.636 33.8178 27.636C35.2878 27.636 36.4638 28.252 36.4638 30.1V33.376C36.4638 33.894 36.5338 34.16 36.7998 34.16C36.8418 34.16 36.8838 34.16 36.9678 34.146V34.986C36.7298 35.042 36.4918 35.07 36.2678 35.07C35.5958 35.07 35.2178 34.804 35.1478 33.992H35.1198C34.6438 34.734 33.8318 35.196 32.6698 35.196ZM32.9778 34.09C34.2098 34.09 35.1198 33.46 35.1198 32.214V31.192C34.8958 31.402 34.2798 31.556 33.5518 31.71C32.2918 31.976 31.7738 32.312 31.7738 33.054C31.7738 33.726 32.1238 34.09 32.9778 34.09ZM37.2461 27.86H38.2821V25.564H39.6541V27.86H41.0261V28.994H39.6541V33.026C39.6541 33.782 39.8641 33.95 40.4521 33.95C40.6761 33.95 40.7881 33.936 41.0401 33.894V35C40.6761 35.07 40.4661 35.084 40.1581 35.084C38.9961 35.084 38.2821 34.636 38.2821 32.984V28.994H37.2461V27.86ZM45.2648 24.822H46.8748L45.5308 26.754H44.4388L45.2648 24.822ZM45.1668 35.21C42.8988 35.21 41.6388 33.6 41.6388 31.416C41.6388 29.176 42.9828 27.636 45.1668 27.636C47.3368 27.636 48.5548 29.064 48.5548 31.276C48.5548 31.472 48.5548 31.682 48.5408 31.794H43.0528C43.0808 32.998 43.7808 34.09 45.1948 34.09C46.4548 34.09 46.9308 33.278 47.0708 32.802H48.4568C48.0928 34.174 47.0428 35.21 45.1668 35.21ZM45.1248 28.756C43.9768 28.756 43.1368 29.54 43.0528 30.716H47.1128C47.1128 29.596 46.3428 28.756 45.1248 28.756ZM54.7667 34.524V33.558H54.7387C54.3467 34.132 53.6887 34.636 52.5407 34.636C50.7627 34.636 49.3907 33.432 49.3907 31.15C49.3907 28.854 50.7627 27.65 52.5407 27.65C53.6887 27.65 54.3467 28.196 54.7387 28.7H54.7667V27.86H56.1387V34.44C56.1387 36.596 54.8367 37.562 52.7927 37.562C50.7487 37.562 49.7267 36.582 49.5867 35.294H51.0007C51.1407 35.938 51.6307 36.442 52.7927 36.442C54.0947 36.442 54.7667 35.868 54.7667 34.524ZM52.7927 28.798C51.4487 28.798 50.8187 29.806 50.8187 31.15C50.8187 32.494 51.4487 33.502 52.7927 33.502C54.0247 33.502 54.7527 32.704 54.7527 31.15C54.7527 29.582 54.0247 28.798 52.7927 28.798ZM60.863 35.21C58.637 35.21 57.293 33.67 57.293 31.43C57.293 29.204 58.637 27.636 60.863 27.636C63.089 27.636 64.433 29.19 64.433 31.416C64.433 33.656 63.089 35.21 60.863 35.21ZM60.863 34.076C62.319 34.076 63.005 32.914 63.005 31.43C63.005 29.932 62.319 28.784 60.863 28.784C59.393 28.784 58.721 29.932 58.721 31.43C58.721 32.914 59.393 34.076 60.863 34.076ZM65.5718 27.86H66.9438V29.218H66.9718C67.3358 28.322 67.9238 27.692 68.8898 27.692C69.1418 27.692 69.3378 27.706 69.5478 27.734V29.05C69.3658 29.022 69.2398 29.008 69.0858 29.008C67.8398 29.008 66.9438 29.946 66.9438 31.304V35H65.5718V27.86ZM70.3956 25.102H71.9496V26.586H70.3956V25.102ZM70.4936 27.86H71.8656V35H70.4936V27.86ZM76.53 35.21C74.262 35.21 73.002 33.6 73.002 31.416C73.002 29.176 74.346 27.636 76.53 27.636C78.7 27.636 79.918 29.064 79.918 31.276C79.918 31.472 79.918 31.682 79.904 31.794H74.416C74.444 32.998 75.144 34.09 76.558 34.09C77.818 34.09 78.294 33.278 78.434 32.802H79.82C79.456 34.174 78.406 35.21 76.53 35.21ZM76.488 28.756C75.34 28.756 74.5 29.54 74.416 30.716H78.476C78.476 29.596 77.706 28.756 76.488 28.756ZM84.0326 30.688C85.3346 30.996 86.7626 31.374 86.7626 32.97C86.7626 34.356 85.6986 35.196 83.8226 35.196C81.6526 35.196 80.5746 34.076 80.5326 32.62H81.9186C81.9886 33.446 82.4786 34.09 83.8086 34.09C85.0126 34.09 85.3346 33.558 85.3346 33.04C85.3346 32.144 84.3826 32.046 83.4586 31.85C82.2126 31.57 80.7846 31.192 80.7846 29.708C80.7846 28.476 81.7786 27.65 83.5146 27.65C85.4606 27.65 86.3986 28.7 86.4966 29.932H85.1106C85.0126 29.386 84.7326 28.756 83.5286 28.756C82.6186 28.756 82.2126 29.12 82.2126 29.652C82.2126 30.394 83.0106 30.45 84.0326 30.688ZM90.9057 24.99H92.2777V35H90.9057V24.99ZM96.9421 35.21C94.6741 35.21 93.4141 33.6 93.4141 31.416C93.4141 29.176 94.7581 27.636 96.9421 27.636C99.1121 27.636 100.33 29.064 100.33 31.276C100.33 31.472 100.33 31.682 100.316 31.794H94.8281C94.8561 32.998 95.5561 34.09 96.9701 34.09C98.2301 34.09 98.7061 33.278 98.8461 32.802H100.232C99.8681 34.174 98.8181 35.21 96.9421 35.21ZM96.9001 28.756C95.7521 28.756 94.9121 29.54 94.8281 30.716H98.8881C98.8881 29.596 98.1181 28.756 96.9001 28.756ZM104.445 30.688C105.747 30.996 107.175 31.374 107.175 32.97C107.175 34.356 106.111 35.196 104.235 35.196C102.065 35.196 100.987 34.076 100.945 32.62H102.331C102.401 33.446 102.891 34.09 104.221 34.09C105.425 34.09 105.747 33.558 105.747 33.04C105.747 32.144 104.795 32.046 103.871 31.85C102.625 31.57 101.197 31.192 101.197 29.708C101.197 28.476 102.191 27.65 103.927 27.65C105.873 27.65 106.811 28.7 106.909 29.932H105.523C105.425 29.386 105.145 28.756 103.941 28.756C103.031 28.756 102.625 29.12 102.625 29.652C102.625 30.394 103.423 30.45 104.445 30.688ZM112.718 34.118H112.69V37.478H111.318V27.86H112.69V28.7H112.718C113.11 28.196 113.796 27.65 114.916 27.65C116.736 27.65 118.122 29.078 118.122 31.43C118.122 33.782 116.736 35.196 114.916 35.196C113.796 35.196 113.11 34.692 112.718 34.118ZM114.692 28.798C113.46 28.798 112.704 29.806 112.704 31.43C112.704 33.04 113.46 34.062 114.692 34.062C116.036 34.062 116.68 32.83 116.68 31.43C116.68 30.03 116.036 28.798 114.692 28.798ZM119.261 24.99H120.633V35H119.261V24.99ZM123.476 32.424C123.476 33.39 123.896 34.034 124.918 34.034C126.094 34.034 126.85 33.32 126.85 32.242V27.86H128.222V35H126.85V34.104H126.822C126.444 34.65 125.702 35.196 124.47 35.196C123.154 35.196 122.09 34.44 122.09 32.802V27.86H123.476V32.424ZM132.746 30.688C134.048 30.996 135.476 31.374 135.476 32.97C135.476 34.356 134.412 35.196 132.535 35.196C130.366 35.196 129.288 34.076 129.246 32.62H130.632C130.702 33.446 131.192 34.09 132.522 34.09C133.726 34.09 134.048 33.558 134.048 33.04C134.048 32.144 133.096 32.046 132.172 31.85C130.926 31.57 129.498 31.192 129.498 29.708C129.498 28.476 130.492 27.65 132.228 27.65C134.174 27.65 135.112 28.7 135.21 29.932H133.824C133.726 29.386 133.446 28.756 132.242 28.756C131.332 28.756 130.926 29.12 130.926 29.652C130.926 30.394 131.724 30.45 132.746 30.688ZM141.019 34.118H140.991V37.478H139.619V27.86H140.991V28.7H141.019C141.411 28.196 142.097 27.65 143.217 27.65C145.037 27.65 146.423 29.078 146.423 31.43C146.423 33.782 145.037 35.196 143.217 35.196C142.097 35.196 141.411 34.692 141.019 34.118ZM142.993 28.798C141.761 28.798 141.005 29.806 141.005 31.43C141.005 33.04 141.761 34.062 142.993 34.062C144.337 34.062 144.981 32.83 144.981 31.43C144.981 30.03 144.337 28.798 142.993 28.798ZM150.824 35.21C148.598 35.21 147.254 33.67 147.254 31.43C147.254 29.204 148.598 27.636 150.824 27.636C153.05 27.636 154.394 29.19 154.394 31.416C154.394 33.656 153.05 35.21 150.824 35.21ZM150.824 34.076C152.28 34.076 152.966 32.914 152.966 31.43C152.966 29.932 152.28 28.784 150.824 28.784C149.354 28.784 148.682 29.932 148.682 31.43C148.682 32.914 149.354 34.076 150.824 34.076ZM156.933 34.118H156.905V37.478H155.533V27.86H156.905V28.7H156.933C157.325 28.196 158.011 27.65 159.131 27.65C160.951 27.65 162.337 29.078 162.337 31.43C162.337 33.782 160.951 35.196 159.131 35.196C158.011 35.196 157.325 34.692 156.933 34.118ZM158.907 28.798C157.675 28.798 156.919 29.806 156.919 31.43C156.919 33.04 157.675 34.062 158.907 34.062C160.251 34.062 160.895 32.83 160.895 31.43C160.895 30.03 160.251 28.798 158.907 28.798ZM164.792 32.424C164.792 33.39 165.212 34.034 166.234 34.034C167.41 34.034 168.166 33.32 168.166 32.242V27.86H169.538V35H168.166V34.104H168.138C167.76 34.65 167.018 35.196 165.786 35.196C164.47 35.196 163.406 34.44 163.406 32.802V27.86H164.792V32.424ZM171.078 24.99H172.45V35H171.078V24.99ZM175.91 35.196C174.482 35.196 173.572 34.37 173.572 33.152C173.572 31.556 174.776 31.094 176.554 30.744C177.674 30.534 178.36 30.394 178.36 29.694C178.36 29.176 178.052 28.742 177.002 28.742C175.756 28.742 175.378 29.134 175.308 30.086H173.908C173.978 28.714 174.874 27.636 177.058 27.636C178.528 27.636 179.704 28.252 179.704 30.1V33.376C179.704 33.894 179.774 34.16 180.04 34.16C180.082 34.16 180.124 34.16 180.208 34.146V34.986C179.97 35.042 179.732 35.07 179.508 35.07C178.836 35.07 178.458 34.804 178.388 33.992H178.36C177.884 34.734 177.072 35.196 175.91 35.196ZM176.218 34.09C177.45 34.09 178.36 33.46 178.36 32.214V31.192C178.136 31.402 177.52 31.556 176.792 31.71C175.532 31.976 175.014 32.312 175.014 33.054C175.014 33.726 175.364 34.09 176.218 34.09ZM181.22 25.102H182.774V26.586H181.22V25.102ZM181.318 27.86H182.69V35H181.318V27.86ZM184.216 27.86H185.588V29.218H185.616C185.98 28.322 186.568 27.692 187.534 27.692C187.786 27.692 187.982 27.706 188.192 27.734V29.05C188.01 29.022 187.884 29.008 187.73 29.008C186.484 29.008 185.588 29.946 185.588 31.304V35H184.216V27.86ZM192.03 35.21C189.762 35.21 188.502 33.6 188.502 31.416C188.502 29.176 189.846 27.636 192.03 27.636C194.2 27.636 195.418 29.064 195.418 31.276C195.418 31.472 195.418 31.682 195.404 31.794H189.916C189.944 32.998 190.644 34.09 192.058 34.09C193.318 34.09 193.794 33.278 193.934 32.802H195.32C194.956 34.174 193.906 35.21 192.03 35.21ZM191.988 28.756C190.84 28.756 190 29.54 189.916 30.716H193.976C193.976 29.596 193.206 28.756 191.988 28.756ZM199.533 30.688C200.835 30.996 202.263 31.374 202.263 32.97C202.263 34.356 201.199 35.196 199.323 35.196C197.153 35.196 196.075 34.076 196.033 32.62H197.419C197.489 33.446 197.979 34.09 199.309 34.09C200.513 34.09 200.835 33.558 200.835 33.04C200.835 32.144 199.883 32.046 198.959 31.85C197.713 31.57 196.285 31.192 196.285 29.708C196.285 28.476 197.279 27.65 199.015 27.65C200.961 27.65 201.899 28.7 201.997 29.932H200.611C200.513 29.386 200.233 28.756 199.029 28.756C198.119 28.756 197.713 29.12 197.713 29.652C197.713 30.394 198.511 30.45 199.533 30.688Z" fill="black"/>
<path d="M60.008 60.96C61.664 61.38 63.224 61.776 63.224 63.588C63.224 65.064 62.216 66.168 60.08 66.168C57.908 66.168 56.372 65.04 56.288 63.108H57.656C57.752 64.26 58.436 65.04 60.044 65.04C61.412 65.04 61.844 64.44 61.844 63.66C61.844 62.568 61.004 62.412 59.444 62.016C58.1 61.668 56.624 61.224 56.624 59.592C56.624 58.104 57.776 57.252 59.624 57.252C61.58 57.252 62.852 58.248 62.984 59.976H61.604C61.472 58.944 60.884 58.38 59.624 58.38C58.556 58.38 57.992 58.776 57.992 59.52C57.992 60.48 58.904 60.684 60.008 60.96ZM67.002 66.18C65.094 66.18 63.942 64.86 63.942 62.94C63.942 61.032 65.094 59.688 67.002 59.688C68.91 59.688 70.062 61.02 70.062 62.928C70.062 64.848 68.91 66.18 67.002 66.18ZM67.002 65.208C68.25 65.208 68.838 64.212 68.838 62.94C68.838 61.656 68.25 60.672 67.002 60.672C65.742 60.672 65.166 61.656 65.166 62.94C65.166 64.212 65.742 65.208 67.002 65.208ZM70.9541 57.516H72.2861V58.788H70.9541V57.516ZM71.0381 59.88H72.2141V66H71.0381V59.88ZM73.5224 66V59.88H74.6984V60.648H74.7224C75.0464 60.18 75.6824 59.7 76.7384 59.7C77.8664 59.7 78.7784 60.348 78.7784 61.752V66H77.5904V62.076C77.5904 61.26 77.2304 60.708 76.3544 60.708C75.3464 60.708 74.6984 61.32 74.6984 62.244V66H73.5224ZM82.6078 62.304C83.7238 62.568 84.9478 62.892 84.9478 64.26C84.9478 65.448 84.0358 66.168 82.4277 66.168C80.5678 66.168 79.6438 65.208 79.6078 63.96H80.7958C80.8558 64.668 81.2758 65.22 82.4158 65.22C83.4478 65.22 83.7238 64.764 83.7238 64.32C83.7238 63.552 82.9078 63.468 82.1158 63.3C81.0478 63.06 79.8238 62.736 79.8238 61.464C79.8238 60.408 80.6758 59.7 82.1638 59.7C83.8318 59.7 84.6358 60.6 84.7198 61.656H83.5318C83.4478 61.188 83.2078 60.648 82.1758 60.648C81.3958 60.648 81.0478 60.96 81.0478 61.416C81.0478 62.052 81.7318 62.1 82.6078 62.304ZM89.699 65.244H89.675V68.124H88.499V59.88H89.675V60.6H89.699C90.035 60.168 90.623 59.7 91.583 59.7C93.143 59.7 94.331 60.924 94.331 62.94C94.331 64.956 93.143 66.168 91.583 66.168C90.623 66.168 90.035 65.736 89.699 65.244ZM91.391 60.684C90.335 60.684 89.687 61.548 89.687 62.94C89.687 64.32 90.335 65.196 91.391 65.196C92.543 65.196 93.095 64.14 93.095 62.94C93.095 61.74 92.543 60.684 91.391 60.684ZM98.0676 66.18C96.1236 66.18 95.0436 64.8 95.0436 62.928C95.0436 61.008 96.1956 59.688 98.0676 59.688C99.9276 59.688 100.972 60.912 100.972 62.808C100.972 62.976 100.972 63.156 100.96 63.252H96.2556C96.2796 64.284 96.8796 65.22 98.0916 65.22C99.1716 65.22 99.5796 64.524 99.6996 64.116H100.888C100.576 65.292 99.6756 66.18 98.0676 66.18ZM98.0316 60.648C97.0476 60.648 96.3276 61.32 96.2556 62.328H99.7356C99.7356 61.368 99.0756 60.648 98.0316 60.648ZM101.952 59.88H103.128V61.044H103.152C103.464 60.276 103.968 59.736 104.796 59.736C105.012 59.736 105.18 59.748 105.36 59.772V60.9C105.204 60.876 105.096 60.864 104.964 60.864C103.896 60.864 103.128 61.668 103.128 62.832V66H101.952V59.88ZM108.764 62.304C109.88 62.568 111.104 62.892 111.104 64.26C111.104 65.448 110.192 66.168 108.584 66.168C106.724 66.168 105.8 65.208 105.764 63.96H106.952C107.012 64.668 107.432 65.22 108.572 65.22C109.604 65.22 109.88 64.764 109.88 64.32C109.88 63.552 109.064 63.468 108.272 63.3C107.204 63.06 105.98 62.736 105.98 61.464C105.98 60.408 106.832 59.7 108.32 59.7C109.988 59.7 110.792 60.6 110.876 61.656H109.688C109.604 61.188 109.364 60.648 108.332 60.648C107.552 60.648 107.204 60.96 107.204 61.416C107.204 62.052 107.888 62.1 108.764 62.304ZM114.756 66.18C112.848 66.18 111.696 64.86 111.696 62.94C111.696 61.032 112.848 59.688 114.756 59.688C116.664 59.688 117.816 61.02 117.816 62.928C117.816 64.848 116.664 66.18 114.756 66.18ZM114.756 65.208C116.004 65.208 116.592 64.212 116.592 62.94C116.592 61.656 116.004 60.672 114.756 60.672C113.496 60.672 112.92 61.656 112.92 62.94C112.92 64.212 113.496 65.208 114.756 65.208ZM118.792 66V59.88H119.968V60.648H119.992C120.316 60.18 120.952 59.7 122.008 59.7C123.136 59.7 124.048 60.348 124.048 61.752V66H122.86V62.076C122.86 61.26 122.5 60.708 121.624 60.708C120.616 60.708 119.968 61.32 119.968 62.244V66H118.792ZM125.308 66V59.88H126.484V60.648H126.508C126.832 60.18 127.468 59.7 128.524 59.7C129.652 59.7 130.564 60.348 130.564 61.752V66H129.376V62.076C129.376 61.26 129.016 60.708 128.14 60.708C127.132 60.708 126.484 61.32 126.484 62.244V66H125.308ZM134.513 66.18C132.569 66.18 131.489 64.8 131.489 62.928C131.489 61.008 132.641 59.688 134.513 59.688C136.373 59.688 137.417 60.912 137.417 62.808C137.417 62.976 137.417 63.156 137.405 63.252H132.701C132.725 64.284 133.325 65.22 134.537 65.22C135.617 65.22 136.025 64.524 136.145 64.116H137.333C137.021 65.292 136.121 66.18 134.513 66.18ZM134.477 60.648C133.493 60.648 132.773 61.32 132.701 62.328H136.181C136.181 61.368 135.521 60.648 134.477 60.648ZM138.397 57.42H139.573V66H138.397V57.42ZM143.452 62.304C144.568 62.568 145.792 62.892 145.792 64.26C145.792 65.448 144.88 66.168 143.271 66.168C141.412 66.168 140.488 65.208 140.452 63.96H141.64C141.7 64.668 142.12 65.22 143.26 65.22C144.292 65.22 144.568 64.764 144.568 64.32C144.568 63.552 143.752 63.468 142.96 63.3C141.892 63.06 140.668 62.736 140.668 61.464C140.668 60.408 141.52 59.7 143.008 59.7C144.676 59.7 145.48 60.6 145.564 61.656H144.376C144.292 61.188 144.052 60.648 143.02 60.648C142.24 60.648 141.892 60.96 141.892 61.416C141.892 62.052 142.576 62.1 143.452 62.304Z" fill="black"/>
<path d="M56.768 94V85.42H60.032C62.408 85.42 63.848 86.956 63.848 89.716C63.848 92.476 62.432 94 60.056 94H56.768ZM58.088 86.56V92.86H59.972C61.964 92.86 62.48 91.372 62.48 89.716C62.48 88.06 61.964 86.56 59.972 86.56H58.088ZM64.8955 85.516H66.2275V86.788H64.8955V85.516ZM64.9795 87.88H66.1555V94H64.9795V87.88ZM66.8298 87.88H68.0898L69.6858 92.788H69.7098L71.2818 87.88H72.5178L70.3338 94H69.0138L66.8298 87.88ZM75.7082 94.18C73.7642 94.18 72.6842 92.8 72.6842 90.928C72.6842 89.008 73.8362 87.688 75.7082 87.688C77.5682 87.688 78.6122 88.912 78.6122 90.808C78.6122 90.976 78.6122 91.156 78.6002 91.252H73.8962C73.9202 92.284 74.5202 93.22 75.7322 93.22C76.8122 93.22 77.2202 92.524 77.3402 92.116H78.5282C78.2162 93.292 77.3162 94.18 75.7082 94.18ZM75.6722 88.648C74.6882 88.648 73.9682 89.32 73.8962 90.328H77.3762C77.3762 89.368 76.7162 88.648 75.6722 88.648ZM79.5928 87.88H80.7688V89.044H80.7928C81.1048 88.276 81.6088 87.736 82.4368 87.736C82.6528 87.736 82.8208 87.748 83.0008 87.772V88.9C82.8448 88.876 82.7368 88.864 82.6048 88.864C81.5368 88.864 80.7688 89.668 80.7688 90.832V94H79.5928V87.88ZM83.5558 87.88H84.4438V85.912H85.6198V87.88H86.7958V88.852H85.6198V92.308C85.6198 92.956 85.7998 93.1 86.3038 93.1C86.4958 93.1 86.5918 93.088 86.8078 93.052V94C86.4958 94.06 86.3158 94.072 86.0518 94.072C85.0558 94.072 84.4438 93.688 84.4438 92.272V88.852H83.5558V87.88ZM87.7705 85.516H89.1025V86.788H87.7705V85.516ZM87.8545 87.88H89.0305V94H87.8545V87.88ZM92.9085 90.304C94.0245 90.568 95.2485 90.892 95.2485 92.26C95.2485 93.448 94.3365 94.168 92.7285 94.168C90.8685 94.168 89.9445 93.208 89.9085 91.96H91.0965C91.1565 92.668 91.5765 93.22 92.7165 93.22C93.7485 93.22 94.0245 92.764 94.0245 92.32C94.0245 91.552 93.2085 91.468 92.4165 91.3C91.3485 91.06 90.1245 90.736 90.1245 89.464C90.1245 88.408 90.9765 87.7 92.4645 87.7C94.1325 87.7 94.9365 88.6 95.0205 89.656H93.8325C93.7485 89.188 93.5085 88.648 92.4765 88.648C91.6965 88.648 91.3485 88.96 91.3485 89.416C91.3485 90.052 92.0325 90.1 92.9085 90.304ZM98.8031 90.304C99.9191 90.568 101.143 90.892 101.143 92.26C101.143 93.448 100.231 94.168 98.6231 94.168C96.7631 94.168 95.8391 93.208 95.8031 91.96H96.9911C97.0511 92.668 97.4711 93.22 98.6111 93.22C99.6431 93.22 99.9191 92.764 99.9191 92.32C99.9191 91.552 99.1031 91.468 98.3111 91.3C97.2431 91.06 96.0191 90.736 96.0191 89.464C96.0191 88.408 96.8711 87.7 98.3591 87.7C100.027 87.7 100.831 88.6 100.915 89.656H99.7271C99.6431 89.188 99.4031 88.648 98.3711 88.648C97.5911 88.648 97.2431 88.96 97.2431 89.416C97.2431 90.052 97.9271 90.1 98.8031 90.304ZM104.759 94.18C102.815 94.18 101.735 92.8 101.735 90.928C101.735 89.008 102.887 87.688 104.759 87.688C106.619 87.688 107.663 88.912 107.663 90.808C107.663 90.976 107.663 91.156 107.651 91.252H102.947C102.971 92.284 103.571 93.22 104.783 93.22C105.863 93.22 106.271 92.524 106.391 92.116H107.579C107.267 93.292 106.367 94.18 104.759 94.18ZM104.723 88.648C103.739 88.648 103.019 89.32 102.947 90.328H106.427C106.427 89.368 105.767 88.648 104.723 88.648ZM108.644 94V87.88H109.82V88.648H109.844C110.168 88.18 110.732 87.7 111.656 87.7C112.508 87.7 113.024 88.084 113.276 88.768H113.3C113.744 88.18 114.356 87.7 115.304 87.7C116.54 87.7 117.164 88.444 117.164 89.752V94H115.988V90.076C115.988 89.26 115.82 88.708 114.92 88.708C114.044 88.708 113.492 89.32 113.492 90.244V94H112.316V90.076C112.316 89.26 112.148 88.708 111.248 88.708C110.372 88.708 109.82 89.32 109.82 90.244V94H108.644ZM121.118 94.18C119.174 94.18 118.094 92.8 118.094 90.928C118.094 89.008 119.246 87.688 121.118 87.688C122.978 87.688 124.022 88.912 124.022 90.808C124.022 90.976 124.022 91.156 124.01 91.252H119.306C119.33 92.284 119.93 93.22 121.142 93.22C122.222 93.22 122.63 92.524 122.75 92.116H123.938C123.626 93.292 122.726 94.18 121.118 94.18ZM121.082 88.648C120.098 88.648 119.378 89.32 119.306 90.328H122.786C122.786 89.368 122.126 88.648 121.082 88.648ZM125.003 94V87.88H126.179V88.648H126.203C126.527 88.18 127.163 87.7 128.219 87.7C129.347 87.7 130.259 88.348 130.259 89.752V94H129.071V90.076C129.071 89.26 128.711 88.708 127.835 88.708C126.827 88.708 126.179 89.32 126.179 90.244V94H125.003ZM130.923 87.88H131.811V85.912H132.987V87.88H134.163V88.852H132.987V92.308C132.987 92.956 133.167 93.1 133.671 93.1C133.863 93.1 133.959 93.088 134.175 93.052V94C133.863 94.06 133.683 94.072 133.419 94.072C132.423 94.072 131.811 93.688 131.811 92.272V88.852H130.923V87.88Z" fill="black"/>
<path d="M60.008 116.96C61.664 117.38 63.224 117.776 63.224 119.588C63.224 121.064 62.216 122.168 60.08 122.168C57.908 122.168 56.372 121.04 56.288 119.108H57.656C57.752 120.26 58.436 121.04 60.044 121.04C61.412 121.04 61.844 120.44 61.844 119.66C61.844 118.568 61.004 118.412 59.444 118.016C58.1 117.668 56.624 117.224 56.624 115.592C56.624 114.104 57.776 113.252 59.624 113.252C61.58 113.252 62.852 114.248 62.984 115.976H61.604C61.472 114.944 60.884 114.38 59.624 114.38C58.556 114.38 57.992 114.776 57.992 115.52C57.992 116.48 58.904 116.684 60.008 116.96ZM67.002 122.18C65.094 122.18 63.942 120.86 63.942 118.94C63.942 117.032 65.094 115.688 67.002 115.688C68.91 115.688 70.062 117.02 70.062 118.928C70.062 120.848 68.91 122.18 67.002 122.18ZM67.002 121.208C68.25 121.208 68.838 120.212 68.838 118.94C68.838 117.656 68.25 116.672 67.002 116.672C65.742 116.672 65.166 117.656 65.166 118.94C65.166 120.212 65.742 121.208 67.002 121.208ZM70.9541 113.516H72.2861V114.788H70.9541V113.516ZM71.0381 115.88H72.2141V122H71.0381V115.88ZM73.5224 122V115.88H74.6984V116.648H74.7224C75.0464 116.18 75.6824 115.7 76.7384 115.7C77.8664 115.7 78.7784 116.348 78.7784 117.752V122H77.5904V118.076C77.5904 117.26 77.2304 116.708 76.3544 116.708C75.3464 116.708 74.6984 117.32 74.6984 118.244V122H73.5224ZM82.6078 118.304C83.7238 118.568 84.9478 118.892 84.9478 120.26C84.9478 121.448 84.0358 122.168 82.4277 122.168C80.5678 122.168 79.6438 121.208 79.6078 119.96H80.7958C80.8558 120.668 81.2758 121.22 82.4158 121.22C83.4478 121.22 83.7238 120.764 83.7238 120.32C83.7238 119.552 82.9078 119.468 82.1158 119.3C81.0478 119.06 79.8238 118.736 79.8238 117.464C79.8238 116.408 80.6758 115.7 82.1638 115.7C83.8318 115.7 84.6358 116.6 84.7198 117.656H83.5318C83.4478 117.188 83.2078 116.648 82.1758 116.648C81.3958 116.648 81.0478 116.96 81.0478 117.416C81.0478 118.052 81.7318 118.1 82.6078 118.304ZM92.855 116.624H92.879V113.42H94.067V122H92.879V121.28H92.855C92.531 121.712 91.931 122.168 90.971 122.168C89.411 122.168 88.235 120.956 88.235 118.94C88.235 116.924 89.411 115.7 90.971 115.7C91.931 115.7 92.531 116.144 92.855 116.624ZM91.163 121.196C92.219 121.196 92.879 120.32 92.879 118.94C92.879 117.548 92.219 116.684 91.163 116.684C90.011 116.684 89.459 117.74 89.459 118.94C89.459 120.14 90.011 121.196 91.163 121.196ZM98.0676 122.18C96.1236 122.18 95.0436 120.8 95.0436 118.928C95.0436 117.008 96.1956 115.688 98.0676 115.688C99.9276 115.688 100.972 116.912 100.972 118.808C100.972 118.976 100.972 119.156 100.96 119.252H96.2556C96.2796 120.284 96.8796 121.22 98.0916 121.22C99.1716 121.22 99.5796 120.524 99.6996 120.116H100.888C100.576 121.292 99.6756 122.18 98.0676 122.18ZM98.0316 116.648C97.0476 116.648 96.3276 117.32 96.2556 118.328H99.7356C99.7356 117.368 99.0756 116.648 98.0316 116.648ZM104.498 118.304C105.614 118.568 106.838 118.892 106.838 120.26C106.838 121.448 105.926 122.168 104.318 122.168C102.458 122.168 101.534 121.208 101.498 119.96H102.686C102.746 120.668 103.166 121.22 104.306 121.22C105.338 121.22 105.614 120.764 105.614 120.32C105.614 119.552 104.798 119.468 104.006 119.3C102.938 119.06 101.714 118.736 101.714 117.464C101.714 116.408 102.566 115.7 104.054 115.7C105.722 115.7 106.526 116.6 106.61 117.656H105.422C105.338 117.188 105.098 116.648 104.066 116.648C103.286 116.648 102.938 116.96 102.938 117.416C102.938 118.052 103.622 118.1 104.498 118.304ZM112.322 121.94L109.838 115.88H111.122L112.91 120.56H112.934L114.626 115.88H115.85L113.438 122.144C112.838 123.656 112.25 124.148 111.302 124.148C111.038 124.148 110.858 124.124 110.546 124.064V123.104C110.75 123.128 110.858 123.14 111.05 123.14C111.53 123.14 112.07 122.9 112.322 121.94ZM119.032 122.18C117.088 122.18 116.008 120.8 116.008 118.928C116.008 117.008 117.16 115.688 119.032 115.688C120.892 115.688 121.936 116.912 121.936 118.808C121.936 118.976 121.936 119.156 121.924 119.252H117.22C117.244 120.284 117.844 121.22 119.056 121.22C120.136 121.22 120.544 120.524 120.664 120.116H121.852C121.54 121.292 120.64 122.18 119.032 122.18ZM118.996 116.648C118.012 116.648 117.292 117.32 117.22 118.328H120.7C120.7 117.368 120.04 116.648 118.996 116.648ZM124.045 119.792C124.045 120.62 124.405 121.172 125.281 121.172C126.289 121.172 126.937 120.56 126.937 119.636V115.88H128.113V122H126.937V121.232H126.913C126.589 121.7 125.953 122.168 124.897 122.168C123.769 122.168 122.857 121.52 122.857 120.116V115.88H124.045V119.792ZM129.003 115.88H130.359L131.811 118.064H131.835L133.275 115.88H134.619L132.531 118.868L134.859 122H133.467L131.823 119.66H131.799L130.179 122H128.799L131.115 118.868L129.003 115.88Z" fill="black"/>
<rect opacity="0.2" x="20" y="50" width="24" height="24" rx="4.8" fill="#FD1774"/>
<g clip-path="url(#clip0_2806_1008)">
<path fill-rule="evenodd" clip-rule="evenodd" d="M32.3947 56.9389C33.3167 57.8283 33.7996 58.9719 33.7996 60.2001C33.7996 61.4283 33.2728 62.5719 32.3947 63.4613L31.9996 63.8001L31.6045 63.4613C30.6825 62.5719 30.1996 61.4283 30.1996 60.2001C30.1996 58.9719 30.6825 57.786 31.6045 56.9389L31.9996 56.6001L32.3947 56.9389ZM27.0717 62.0001H26.5996V62.5312C26.5996 63.8591 27.0324 65.0542 27.8586 65.9837C28.6849 66.9132 29.7472 67.4001 30.8881 67.4001H30.9275H31.3996V66.8689C31.3996 65.5411 30.9668 64.346 30.1406 63.4165C29.3144 62.487 28.2521 62.0001 27.0717 62.0001ZM37.3996 62.0001H36.9275C35.7865 62.0001 34.6849 62.487 33.8586 63.4165C33.0324 64.346 32.5996 65.5853 32.5996 66.8689V67.4001H33.0717H33.1111C34.2521 67.4001 35.3144 66.9132 36.1406 65.9837C36.9668 65.0542 37.3996 63.8149 37.3996 62.5312V62.0001Z" fill="#FD1774"/>
</g>
<rect opacity="0.2" x="20" y="78" width="24" height="24" rx="4.8" fill="#8800FF"/>
<path d="M34.7023 89.0017L30.8656 86.444C30.0682 85.9123 29 86.484 29 87.4424V92.558C29 93.5164 30.0682 94.0881 30.8656 93.5564L34.7023 90.9987C35.4148 90.5237 35.4148 89.4767 34.7023 89.0017Z" fill="#8800FF"/>
<rect opacity="0.2" x="20" y="106" width="24" height="24" rx="4.8" fill="#01B8C7"/>
<path d="M32.0006 113.765C28.4994 113.765 26.3535 118 26.3535 118C26.3535 118 28.4994 122.235 32.0006 122.235C35.5018 122.235 37.6476 118 37.6476 118C37.6476 118 35.5018 113.765 32.0006 113.765ZM32.0006 121.017C30.3818 121.017 29.0641 119.663 29.0641 118C29.0641 116.337 30.3818 114.983 32.0006 114.983C33.6194 114.983 34.937 116.337 34.937 118C34.937 119.663 33.6194 121.017 32.0006 121.017ZM33.7512 118C33.7512 118.986 32.9606 119.798 32.0006 119.798C31.0406 119.798 30.25 118.986 30.25 118C30.25 117.014 31.0406 116.201 32.0006 116.201C32.9606 116.201 33.7512 117.014 33.7512 118Z" fill="#01B8C7"/>
<defs>
<clipPath id="clip0_2806_1008">
<rect width="12" height="12" fill="white" transform="translate(26 56)"/>
</clipPath>
</defs>
</svg>
