<svg width="34" height="34" viewBox="0 0 34 34" fill="none" xmlns="http://www.w3.org/2000/svg">
<path d="M30.3385 5.58327C26.7893 2.13891 21.0353 2.13891 17.4862 5.58327L17.0002 6.05491L16.5142 5.58327C12.965 2.13891 7.21105 2.13891 3.66188 5.58327C0.112707 9.02762 0.112707 14.6116 3.66188 18.056L10.5738 24.7638L15.6073 29.6484C16.3832 30.4013 17.6171 30.4013 18.393 29.6483L23.4261 24.7638L30.3381 18.056C33.8872 14.6116 33.8872 9.02762 30.3385 5.58327ZM22.7561 18.5024C22.7561 18.7842 22.5205 19.0129 22.2301 19.0129H19.3418V21.816C19.3418 22.0978 19.1062 22.3264 18.8158 22.3264H17.0002H15.185C14.8946 22.3264 14.659 22.0978 14.659 21.816V19.0129H11.7706C11.4802 19.0129 11.2446 18.7842 11.2446 18.5024V14.9793C11.2446 14.6974 11.4802 14.4688 11.7706 14.4688H14.659V11.6657C14.659 11.3839 14.8946 11.1553 15.185 11.1553H17.0002H18.8154C19.1058 11.1553 19.3414 11.3839 19.3414 11.6657V14.4688H22.2297C22.5201 14.4688 22.7557 14.6974 22.7557 14.9793L22.7561 18.5024Z" fill="#01B8C7"/>
</svg>
