<svg width="564" height="450" viewBox="0 0 564 450" fill="none" xmlns="http://www.w3.org/2000/svg">
<rect width="564" height="450" fill="#EDD9FF"/>
<path d="M72 100C72 88.9543 80.9543 80 92 80H472C483.046 80 492 88.9543 492 100V450H72V100Z" fill="#FDFDFD"/>
<rect opacity="0.2" x="92" y="188" width="184" height="40" rx="8" fill="#01B8C7"/>
<rect opacity="0.1" x="92.5" y="240.5" width="183" height="39" rx="7.5" stroke="black"/>
<rect opacity="0.1" x="92.5" y="292.5" width="183" height="39" rx="7.5" stroke="black"/>
<rect x="96" y="192" width="32" height="32" rx="4.70588" fill="#01B8C7"/>
<g clip-path="url(#clip0_2806_1583)">
<path fill-rule="evenodd" clip-rule="evenodd" d="M111.495 203.076C111.639 204.429 110.985 205.606 110.035 205.707C109.085 205.807 108.198 204.792 108.055 203.439C107.912 202.087 108.566 200.909 109.516 200.809C110.466 200.708 111.352 201.723 111.495 203.076ZM115.94 203.445C116.084 202.093 115.43 200.915 114.479 200.815C113.529 200.714 112.643 201.729 112.5 203.082C112.356 204.435 113.01 205.612 113.96 205.713C114.911 205.813 115.797 204.798 115.94 203.445ZM117.219 211.875L117.171 211.715L117.075 211.46L117.011 211.3L116.835 210.98L116.595 210.676L116.274 210.388L115.906 210.052L115.602 209.764L115.313 209.445L115.073 209.125L114.849 208.789L114.609 208.341L114.465 208.037L114.288 207.702L114.064 207.334L113.808 206.998L113.632 206.822L113.455 206.662L113.215 206.486L112.927 206.358L112.559 206.23L112.19 206.182H111.806L111.437 206.23L110.909 206.422L110.396 206.774L110.06 207.11L109.852 207.43L109.644 207.798L109.371 208.357L109.115 208.853L108.827 209.237L108.474 209.684L107.433 210.644L107.337 210.724L107.097 211.06L106.905 211.444L106.793 211.923L106.729 212.355L106.713 212.835L106.761 213.155L106.905 213.602L107.113 214.018L107.337 214.306L107.626 214.594L108.01 214.85L108.458 215.057L108.795 215.137L109.307 215.153L109.804 215.042L110.108 214.898L110.236 214.802L110.524 214.642L110.797 214.482L111.037 214.338L111.293 214.226L111.501 214.13L111.742 214.066L111.998 214.05L112.302 214.098L112.527 214.146L112.895 214.322L113.343 214.546L113.712 214.786L114.048 214.978L114.384 215.121L114.705 215.185L114.977 215.201L115.201 215.185L115.554 215.089L116.002 214.882L116.322 214.658L116.659 214.322L116.899 214.002L117.107 213.57L117.235 213.155L117.283 212.803V212.435L117.267 212.227L117.219 211.875ZM119.117 207.453C119.411 206.134 118.893 204.897 117.961 204.689C117.029 204.482 116.034 205.383 115.74 206.702C115.446 208.021 115.963 209.258 116.896 209.466C117.828 209.673 118.822 208.772 119.117 207.453ZM108.26 206.702C108.554 208.021 108.037 209.258 107.104 209.466C106.172 209.673 105.178 208.772 104.883 207.453C104.589 206.134 105.107 204.897 106.039 204.689C106.971 204.482 107.966 205.383 108.26 206.702Z" fill="black"/>
</g>
<rect opacity="0.2" x="96" y="244" width="32" height="32" rx="4.70588" fill="#64D71E"/>
<g clip-path="url(#clip1_2806_1583)">
<path d="M115.99 258.216L117.958 256.481C118.365 256.123 118.686 255.679 118.901 255.181C119.115 254.683 119.216 254.144 119.197 253.602C119.19 253.392 119.104 253.192 118.955 253.044C118.806 252.895 118.607 252.809 118.396 252.802C117.855 252.783 117.315 252.884 116.817 253.098C116.319 253.312 115.875 253.634 115.516 254.04L113.782 256.008L106.742 253.506C106.566 253.444 106.377 253.434 106.196 253.475C106.015 253.516 105.849 253.608 105.718 253.74L104.882 254.562C104.852 254.592 104.829 254.628 104.815 254.668C104.801 254.708 104.796 254.75 104.801 254.793C104.805 254.835 104.819 254.875 104.842 254.911C104.864 254.947 104.894 254.978 104.93 255L111.187 258.958L108.233 262.304L106.998 262.407C106.766 262.427 106.549 262.528 106.383 262.692L105.919 263.168C105.885 263.203 105.861 263.246 105.848 263.292C105.835 263.339 105.834 263.388 105.846 263.435C105.857 263.483 105.881 263.526 105.914 263.562C105.947 263.597 105.988 263.624 106.034 263.639L107.807 264.192L108.361 265.977C108.377 266.022 108.405 266.063 108.441 266.094C108.477 266.126 108.521 266.148 108.568 266.158C108.615 266.168 108.664 266.166 108.71 266.153C108.756 266.139 108.798 266.114 108.831 266.08L109.308 265.603C109.472 265.438 109.572 265.22 109.593 264.989L109.695 263.754L113.043 260.801L116.988 267.068C117.011 267.104 117.041 267.134 117.077 267.157C117.113 267.179 117.154 267.194 117.196 267.198C117.238 267.203 117.281 267.198 117.321 267.184C117.361 267.169 117.397 267.146 117.427 267.116L118.259 266.284C118.39 266.153 118.482 265.987 118.523 265.806C118.565 265.625 118.554 265.436 118.492 265.261L115.99 258.216Z" fill="#64D71E"/>
</g>
<rect opacity="0.2" x="96" y="296" width="32" height="32" rx="4.70588" fill="#FD1774"/>
<g clip-path="url(#clip2_2806_1583)">
<path fill-rule="evenodd" clip-rule="evenodd" d="M112.527 305.253C113.757 306.438 114.4 307.963 114.4 309.601C114.4 311.238 113.698 312.763 112.527 313.949L112 314.401L111.474 313.949C110.244 312.763 109.6 311.238 109.6 309.601C109.6 307.963 110.244 306.382 111.474 305.253L112 304.801L112.527 305.253ZM105.43 312.001H104.801V312.709C104.801 314.479 105.378 316.073 106.479 317.312C107.581 318.552 108.998 319.201 110.519 319.201H110.571H111.201V318.493C111.201 316.722 110.624 315.129 109.522 313.889C108.42 312.65 107.004 312.001 105.43 312.001ZM119.201 312.001H118.571C117.05 312.001 115.581 312.65 114.479 313.889C113.378 315.129 112.801 316.781 112.801 318.493V319.201H113.43H113.483C115.004 319.201 116.42 318.552 117.522 317.312C118.624 316.073 119.201 314.42 119.201 312.709V312.001Z" fill="#FD1774"/>
</g>
<rect opacity="0.1" x="288.5" y="188.5" width="183" height="39" rx="7.5" stroke="black"/>
<rect opacity="0.2" x="288" y="240" width="184" height="40" rx="8" fill="#FFB800"/>
<rect opacity="0.1" x="288.5" y="292.5" width="183" height="39" rx="7.5" stroke="black"/>
<rect opacity="0.2" x="292" y="192" width="32" height="32" rx="4.70588" fill="#8800FF"/>
<g clip-path="url(#clip3_2806_1583)">
<path fill-rule="evenodd" clip-rule="evenodd" d="M309.226 200.015C312.521 200.241 315.214 202.858 315.496 206.135C315.703 208.243 314.931 210.183 313.576 211.538C312.879 212.235 312.521 213.195 312.521 214.174V215.436C312.521 215.85 312.182 216.189 311.768 216.189H306.496C306.082 216.189 305.743 215.85 305.743 215.436V214.306C305.743 213.892 305.404 213.553 304.99 213.553H303.295C302.881 213.553 302.542 213.214 302.542 212.8V210.07C302.542 209.787 302.372 209.505 302.109 209.392L300.471 208.658L301.751 206.379C301.939 206.04 302.071 205.683 302.146 205.306C302.843 202.124 305.78 199.789 309.226 200.015ZM311.377 207.825C311.368 207.836 311.36 207.847 311.352 207.857C311.159 208.097 310.897 208.377 310.608 208.643C310.153 209.07 309.63 209.483 309.093 209.842C309.051 209.869 308.996 209.882 308.941 209.882C308.886 209.882 308.831 209.869 308.79 209.842C308.239 209.483 307.729 209.083 307.275 208.643C306.931 208.323 306.705 208.059 306.564 207.895C306.552 207.882 306.541 207.869 306.531 207.857C306.2 207.444 305.829 206.965 305.691 206.285C305.608 205.845 305.663 205.552 305.691 205.406C305.694 205.396 305.697 205.386 305.7 205.374C305.747 205.217 305.856 204.852 306.214 204.58C306.559 204.3 306.93 204.26 307.068 204.247C307.55 204.193 308.046 204.327 308.487 204.646C308.68 204.793 308.831 204.94 308.941 205.099C309.051 204.953 309.203 204.793 309.396 204.646C309.837 204.327 310.319 204.193 310.814 204.247C310.952 204.26 311.324 204.3 311.668 204.58C312.03 204.867 312.137 205.225 312.183 205.378C312.186 205.388 312.189 205.397 312.192 205.406C312.219 205.552 312.274 205.859 312.192 206.285C312.057 206.948 311.701 207.407 311.377 207.825Z" fill="#8800FF"/>
</g>
<rect x="292" y="244" width="32" height="32" rx="4.70588" fill="#FFB800"/>
<path d="M314.097 263.178C313.621 261.452 311.684 261.667 311.663 261.67C311.654 261.67 311.642 261.674 311.633 261.68C310.86 262.073 310.201 262.167 309.616 261.966C308.885 261.717 308.283 261.025 307.662 259.72C307.584 259.554 307.49 259.387 307.387 259.223L305.599 256.376C304.62 254.814 303.475 253.911 303.464 253.901C303.423 253.872 303.364 253.878 303.334 253.917C302.288 255.221 301.422 256.607 302.156 257.918C302.217 258.026 302.286 258.154 302.349 258.297C302.351 258.301 302.351 258.303 302.353 258.307C302.399 258.405 302.439 258.512 302.473 258.62C302.967 260.203 302.938 262.991 302.913 265.688L302.909 266.018C302.909 266.045 302.919 266.068 302.938 266.086C302.955 266.103 302.98 266.115 303.003 266.115H303.634C303.659 266.115 303.683 266.103 303.701 266.084C303.718 266.066 303.727 266.041 303.727 266.016C303.634 263.128 303.62 260.414 304.463 258.985C304.823 259.233 306.285 260.296 306.597 261.361C306.805 261.852 306.987 262.382 307.159 262.91C307.161 262.915 307.163 262.921 307.165 262.927C307.226 263.114 307.285 263.302 307.345 263.488C307.819 264.984 308.188 266.167 308.815 266.113C310.453 266.157 311.891 265.921 313.091 265.407C313.34 265.301 313.537 265.104 313.644 264.856C313.818 264.454 314 263.861 314.093 263.544C314.105 263.503 314.112 263.464 314.114 263.422C314.118 263.412 314.118 263.401 314.116 263.391V263.381C314.122 263.314 314.114 263.244 314.097 263.178Z" fill="black"/>
<rect opacity="0.2" x="292" y="296" width="32" height="32" rx="4.70588" fill="#64D71E"/>
<path d="M312.828 309.894C312.739 310.05 312.543 310.103 312.389 310.013C312.235 309.923 312.183 309.724 312.272 309.569L314.007 306.523L313.459 306.203L311.724 309.248C311.635 309.404 311.439 309.457 311.286 309.367C311.132 309.277 311.079 309.079 311.168 308.923L312.903 305.877L312.356 305.557L310.621 308.603C310.532 308.758 310.336 308.812 310.182 308.722C310.028 308.632 309.975 308.433 310.064 308.277L311.799 305.232L311.304 304.941L309.103 308.804C308.612 309.665 308.763 310.722 309.403 311.41L307.812 314.202L302.958 305.684C302.82 305.442 302.516 305.359 302.277 305.499C301.885 305.728 301.622 306.095 301.495 306.59C300.875 309.019 303.914 314.251 304.262 314.84L304.515 315.266L306.578 314.059L307.236 315.213L305.316 318.583C305.144 318.885 305.246 319.271 305.544 319.445C305.841 319.619 306.222 319.516 306.394 319.214L307.955 316.474L309.551 319.276C309.689 319.518 309.994 319.601 310.233 319.462C310.472 319.322 310.553 319.013 310.415 318.771L308.531 315.463L310.481 312.04C311.389 312.258 312.368 311.862 312.858 311.001L315.059 307.138L314.563 306.849L312.828 309.894Z" fill="#64D71E"/>
<path d="M196.467 143.56C196.207 142.16 195.327 140.32 192.587 140.32C189.427 140.32 188.227 143 188.227 145.84C188.227 148.7 189.427 151.38 192.587 151.38C195.347 151.38 196.327 149.54 196.467 147.8H198.767C198.447 150.98 196.227 153.28 192.607 153.28C188.547 153.28 185.947 150.16 185.947 145.86C185.947 141.54 188.567 138.42 192.627 138.42C196.227 138.42 198.427 140.7 198.767 143.56H196.467ZM207.224 146.46C207.224 145.1 206.624 144.18 205.164 144.18C203.484 144.18 202.404 145.2 202.404 146.74V153H200.444V138.7H202.404V144.08H202.444C202.984 143.3 204.044 142.5 205.804 142.5C207.684 142.5 209.204 143.58 209.204 145.92V153H207.224V146.46ZM215.846 153.3C212.666 153.3 210.746 151.1 210.746 147.9C210.746 144.72 212.666 142.48 215.846 142.48C219.026 142.48 220.946 144.7 220.946 147.88C220.946 151.08 219.026 153.3 215.846 153.3ZM215.846 151.68C217.926 151.68 218.906 150.02 218.906 147.9C218.906 145.76 217.926 144.12 215.846 144.12C213.746 144.12 212.786 145.76 212.786 147.9C212.786 150.02 213.746 151.68 215.846 151.68ZM222.433 138.86H224.653V140.98H222.433V138.86ZM222.573 142.8H224.533V153H222.573V142.8ZM230.997 146.84C232.857 147.28 234.897 147.82 234.897 150.1C234.897 152.08 233.377 153.28 230.697 153.28C227.597 153.28 226.057 151.68 225.997 149.6H227.977C228.077 150.78 228.777 151.7 230.677 151.7C232.397 151.7 232.857 150.94 232.857 150.2C232.857 148.92 231.497 148.78 230.177 148.5C228.397 148.1 226.357 147.56 226.357 145.44C226.357 143.68 227.777 142.5 230.257 142.5C233.037 142.5 234.377 144 234.517 145.76H232.537C232.397 144.98 231.997 144.08 230.277 144.08C228.977 144.08 228.397 144.6 228.397 145.36C228.397 146.42 229.537 146.5 230.997 146.84ZM236.261 138.86H238.481V140.98H236.261V138.86ZM236.401 142.8H238.361V153H236.401V142.8ZM240.542 142.8H242.502V144.74H242.542C243.062 143.46 243.902 142.56 245.282 142.56C245.642 142.56 245.922 142.58 246.222 142.62V144.5C245.962 144.46 245.782 144.44 245.562 144.44C243.782 144.44 242.502 145.78 242.502 147.72V153H240.542V142.8ZM259.325 144.04H259.365V138.7H261.345V153H259.365V151.8H259.325C258.785 152.52 257.785 153.28 256.185 153.28C253.585 153.28 251.625 151.26 251.625 147.9C251.625 144.54 253.585 142.5 256.185 142.5C257.785 142.5 258.785 143.24 259.325 144.04ZM256.505 151.66C258.265 151.66 259.365 150.2 259.365 147.9C259.365 145.58 258.265 144.14 256.505 144.14C254.585 144.14 253.665 145.9 253.665 147.9C253.665 149.9 254.585 151.66 256.505 151.66ZM268.013 153.3C264.773 153.3 262.973 151 262.973 147.88C262.973 144.68 264.893 142.48 268.013 142.48C271.113 142.48 272.853 144.52 272.853 147.68C272.853 147.96 272.853 148.26 272.833 148.42H264.993C265.033 150.14 266.033 151.7 268.053 151.7C269.853 151.7 270.533 150.54 270.733 149.86H272.713C272.193 151.82 270.693 153.3 268.013 153.3ZM267.953 144.08C266.313 144.08 265.113 145.2 264.993 146.88H270.793C270.793 145.28 269.693 144.08 267.953 144.08ZM278.731 146.84C280.591 147.28 282.631 147.82 282.631 150.1C282.631 152.08 281.111 153.28 278.431 153.28C275.331 153.28 273.791 151.68 273.731 149.6H275.711C275.811 150.78 276.511 151.7 278.411 151.7C280.131 151.7 280.591 150.94 280.591 150.2C280.591 148.92 279.231 148.78 277.911 148.5C276.131 148.1 274.091 147.56 274.091 145.44C274.091 143.68 275.511 142.5 277.991 142.5C280.771 142.5 282.111 144 282.251 145.76H280.271C280.131 144.98 279.731 144.08 278.011 144.08C276.711 144.08 276.131 144.6 276.131 145.36C276.131 146.42 277.271 146.5 278.731 146.84ZM295.67 146.5C295.59 145.44 294.99 144.12 293.11 144.12C290.95 144.12 290.15 145.98 290.15 147.9C290.15 149.82 290.95 151.66 293.11 151.66C294.99 151.66 295.59 150.38 295.67 149.22H297.71C297.57 151.56 295.73 153.3 293.13 153.3C290.09 153.3 288.11 151.1 288.11 147.9C288.11 144.7 290.09 142.5 293.11 142.5C295.73 142.5 297.47 144.2 297.71 146.5H295.67ZM302.152 153.28C300.112 153.28 298.812 152.1 298.812 150.36C298.812 148.08 300.532 147.42 303.072 146.92C304.672 146.62 305.652 146.42 305.652 145.42C305.652 144.68 305.212 144.06 303.712 144.06C301.932 144.06 301.392 144.62 301.292 145.98H299.292C299.392 144.02 300.672 142.48 303.792 142.48C305.892 142.48 307.572 143.36 307.572 146V150.68C307.572 151.42 307.672 151.8 308.052 151.8C308.112 151.8 308.172 151.8 308.292 151.78V152.98C307.952 153.06 307.612 153.1 307.292 153.1C306.332 153.1 305.792 152.72 305.692 151.56H305.652C304.972 152.62 303.812 153.28 302.152 153.28ZM302.592 151.7C304.352 151.7 305.652 150.8 305.652 149.02V147.56C305.332 147.86 304.452 148.08 303.412 148.3C301.612 148.68 300.872 149.16 300.872 150.22C300.872 151.18 301.372 151.7 302.592 151.7ZM308.69 142.8H310.17V139.52H312.13V142.8H314.09V144.42H312.13V150.18C312.13 151.26 312.43 151.5 313.27 151.5C313.59 151.5 313.75 151.48 314.11 151.42V153C313.59 153.1 313.29 153.12 312.85 153.12C311.19 153.12 310.17 152.48 310.17 150.12V144.42H308.69V142.8ZM320.145 138.46H322.445L320.525 141.22H318.965L320.145 138.46ZM320.005 153.3C316.765 153.3 314.965 151 314.965 147.88C314.965 144.68 316.885 142.48 320.005 142.48C323.105 142.48 324.845 144.52 324.845 147.68C324.845 147.96 324.845 148.26 324.825 148.42H316.985C317.025 150.14 318.025 151.7 320.045 151.7C321.845 151.7 322.525 150.54 322.725 149.86H324.705C324.185 151.82 322.685 153.3 320.005 153.3ZM319.945 144.08C318.305 144.08 317.105 145.2 316.985 146.88H322.785C322.785 145.28 321.685 144.08 319.945 144.08ZM333.719 152.32V150.94H333.679C333.119 151.76 332.179 152.48 330.539 152.48C327.999 152.48 326.039 150.76 326.039 147.5C326.039 144.22 327.999 142.5 330.539 142.5C332.179 142.5 333.119 143.28 333.679 144H333.719V142.8H335.679V152.2C335.679 155.28 333.819 156.66 330.899 156.66C327.979 156.66 326.519 155.26 326.319 153.42H328.339C328.539 154.34 329.239 155.06 330.899 155.06C332.759 155.06 333.719 154.24 333.719 152.32ZM330.899 144.14C328.979 144.14 328.079 145.58 328.079 147.5C328.079 149.42 328.979 150.86 330.899 150.86C332.659 150.86 333.699 149.72 333.699 147.5C333.699 145.26 332.659 144.14 330.899 144.14ZM342.429 153.3C339.249 153.3 337.329 151.1 337.329 147.9C337.329 144.72 339.249 142.48 342.429 142.48C345.609 142.48 347.529 144.7 347.529 147.88C347.529 151.08 345.609 153.3 342.429 153.3ZM342.429 151.68C344.509 151.68 345.489 150.02 345.489 147.9C345.489 145.76 344.509 144.12 342.429 144.12C340.329 144.12 339.369 145.76 339.369 147.9C339.369 150.02 340.329 151.68 342.429 151.68ZM349.155 142.8H351.115V144.74H351.155C351.675 143.46 352.515 142.56 353.895 142.56C354.255 142.56 354.535 142.58 354.835 142.62V144.5C354.575 144.46 354.395 144.44 354.175 144.44C352.395 144.44 351.115 145.78 351.115 147.72V153H349.155V142.8ZM356.046 138.86H358.266V140.98H356.046V138.86ZM356.186 142.8H358.146V153H356.186V142.8ZM364.81 153.3C361.57 153.3 359.77 151 359.77 147.88C359.77 144.68 361.69 142.48 364.81 142.48C367.91 142.48 369.65 144.52 369.65 147.68C369.65 147.96 369.65 148.26 369.63 148.42H361.79C361.83 150.14 362.83 151.7 364.85 151.7C366.65 151.7 367.33 150.54 367.53 149.86H369.51C368.99 151.82 367.49 153.3 364.81 153.3ZM364.75 144.08C363.11 144.08 361.91 145.2 361.79 146.88H367.59C367.59 145.28 366.49 144.08 364.75 144.08ZM375.528 146.84C377.388 147.28 379.428 147.82 379.428 150.1C379.428 152.08 377.908 153.28 375.228 153.28C372.128 153.28 370.588 151.68 370.528 149.6H372.508C372.608 150.78 373.308 151.7 375.208 151.7C376.928 151.7 377.388 150.94 377.388 150.2C377.388 148.92 376.028 148.78 374.708 148.5C372.928 148.1 370.888 147.56 370.888 145.44C370.888 143.68 372.308 142.5 374.788 142.5C377.568 142.5 378.908 144 379.048 145.76H377.068C376.928 144.98 376.528 144.08 374.808 144.08C373.508 144.08 372.928 144.6 372.928 145.36C372.928 146.42 374.068 146.5 375.528 146.84Z" fill="black"/>
<path d="M145.844 209.936H142.256L141.548 212H140.156L143.348 203.42H144.776L147.992 212H146.552L145.844 209.936ZM142.64 208.82H145.46L144.068 204.644H144.044L142.64 208.82ZM148.769 212V205.88H149.945V206.648H149.969C150.293 206.18 150.929 205.7 151.985 205.7C153.113 205.7 154.025 206.348 154.025 207.752V212H152.837V208.076C152.837 207.26 152.477 206.708 151.601 206.708C150.593 206.708 149.945 207.32 149.945 208.244V212H148.769ZM155.2 203.516H156.532V204.788H155.2V203.516ZM155.284 205.88H156.46V212H155.284V205.88ZM157.769 212V205.88H158.945V206.648H158.969C159.293 206.18 159.857 205.7 160.781 205.7C161.633 205.7 162.149 206.084 162.401 206.768H162.425C162.869 206.18 163.481 205.7 164.429 205.7C165.665 205.7 166.289 206.444 166.289 207.752V212H165.113V208.076C165.113 207.26 164.945 206.708 164.045 206.708C163.169 206.708 162.617 207.32 162.617 208.244V212H161.441V208.076C161.441 207.26 161.273 206.708 160.373 206.708C159.497 206.708 158.945 207.32 158.945 208.244V212H157.769ZM169.211 212.168C167.987 212.168 167.207 211.46 167.207 210.416C167.207 209.048 168.239 208.652 169.763 208.352C170.723 208.172 171.311 208.052 171.311 207.452C171.311 207.008 171.047 206.636 170.147 206.636C169.079 206.636 168.755 206.972 168.695 207.788H167.495C167.555 206.612 168.323 205.688 170.195 205.688C171.455 205.688 172.463 206.216 172.463 207.8V210.608C172.463 211.052 172.523 211.28 172.751 211.28C172.787 211.28 172.823 211.28 172.895 211.268V211.988C172.691 212.036 172.487 212.06 172.295 212.06C171.719 212.06 171.395 211.832 171.335 211.136H171.311C170.903 211.772 170.207 212.168 169.211 212.168ZM169.475 211.22C170.531 211.22 171.311 210.68 171.311 209.612V208.736C171.119 208.916 170.591 209.048 169.967 209.18C168.887 209.408 168.443 209.696 168.443 210.332C168.443 210.908 168.743 211.22 169.475 211.22ZM174.857 209.792C174.857 210.62 175.217 211.172 176.093 211.172C177.101 211.172 177.749 210.56 177.749 209.636V205.88H178.925V212H177.749V211.232H177.725C177.401 211.7 176.765 212.168 175.709 212.168C174.581 212.168 173.669 211.52 173.669 210.116V205.88H174.857V209.792ZM179.816 205.88H181.172L182.624 208.064H182.648L184.088 205.88H185.432L183.344 208.868L185.672 212H184.28L182.636 209.66H182.612L180.992 212H179.612L181.928 208.868L179.816 205.88ZM193.414 206.624H193.438V203.42H194.626V212H193.438V211.28H193.414C193.09 211.712 192.49 212.168 191.53 212.168C189.97 212.168 188.794 210.956 188.794 208.94C188.794 206.924 189.97 205.7 191.53 205.7C192.49 205.7 193.09 206.144 193.414 206.624ZM191.722 211.196C192.778 211.196 193.438 210.32 193.438 208.94C193.438 207.548 192.778 206.684 191.722 206.684C190.57 206.684 190.018 207.74 190.018 208.94C190.018 210.14 190.57 211.196 191.722 211.196ZM198.626 212.18C196.682 212.18 195.602 210.8 195.602 208.928C195.602 207.008 196.754 205.688 198.626 205.688C200.486 205.688 201.53 206.912 201.53 208.808C201.53 208.976 201.53 209.156 201.518 209.252H196.814C196.838 210.284 197.438 211.22 198.65 211.22C199.73 211.22 200.138 210.524 200.258 210.116H201.446C201.134 211.292 200.234 212.18 198.626 212.18ZM198.59 206.648C197.606 206.648 196.886 207.32 196.814 208.328H200.294C200.294 207.368 199.634 206.648 198.59 206.648ZM209.431 208.1C209.383 207.464 209.023 206.672 207.895 206.672C206.599 206.672 206.119 207.788 206.119 208.94C206.119 210.092 206.599 211.196 207.895 211.196C209.023 211.196 209.383 210.428 209.431 209.732H210.655C210.571 211.136 209.467 212.18 207.907 212.18C206.083 212.18 204.895 210.86 204.895 208.94C204.895 207.02 206.083 205.7 207.895 205.7C209.467 205.7 210.511 206.72 210.655 208.1H209.431ZM214.389 212.18C212.481 212.18 211.329 210.86 211.329 208.94C211.329 207.032 212.481 205.688 214.389 205.688C216.297 205.688 217.449 207.02 217.449 208.928C217.449 210.848 216.297 212.18 214.389 212.18ZM214.389 211.208C215.637 211.208 216.225 210.212 216.225 208.94C216.225 207.656 215.637 206.672 214.389 206.672C213.129 206.672 212.553 207.656 212.553 208.94C212.553 210.212 213.129 211.208 214.389 211.208ZM218.425 212V205.88H219.601V206.648H219.625C219.949 206.18 220.513 205.7 221.437 205.7C222.289 205.7 222.805 206.084 223.057 206.768H223.081C223.525 206.18 224.137 205.7 225.085 205.7C226.321 205.7 226.945 206.444 226.945 207.752V212H225.769V208.076C225.769 207.26 225.601 206.708 224.701 206.708C223.825 206.708 223.273 207.32 223.273 208.244V212H222.097V208.076C222.097 207.26 221.929 206.708 221.029 206.708C220.153 206.708 219.601 207.32 219.601 208.244V212H218.425ZM229.41 211.244H229.386V214.124H228.21V205.88H229.386V206.6H229.41C229.746 206.168 230.334 205.7 231.294 205.7C232.854 205.7 234.042 206.924 234.042 208.94C234.042 210.956 232.854 212.168 231.294 212.168C230.334 212.168 229.746 211.736 229.41 211.244ZM231.102 206.684C230.046 206.684 229.398 207.548 229.398 208.94C229.398 210.32 230.046 211.196 231.102 211.196C232.254 211.196 232.806 210.14 232.806 208.94C232.806 207.74 232.254 206.684 231.102 206.684ZM236.747 212.168C235.523 212.168 234.743 211.46 234.743 210.416C234.743 209.048 235.775 208.652 237.299 208.352C238.259 208.172 238.847 208.052 238.847 207.452C238.847 207.008 238.583 206.636 237.683 206.636C236.615 206.636 236.291 206.972 236.231 207.788H235.031C235.091 206.612 235.859 205.688 237.731 205.688C238.991 205.688 239.999 206.216 239.999 207.8V210.608C239.999 211.052 240.059 211.28 240.287 211.28C240.323 211.28 240.359 211.28 240.431 211.268V211.988C240.227 212.036 240.023 212.06 239.831 212.06C239.255 212.06 238.931 211.832 238.871 211.136H238.847C238.439 211.772 237.743 212.168 236.747 212.168ZM237.011 211.22C238.067 211.22 238.847 210.68 238.847 209.612V208.736C238.655 208.916 238.127 209.048 237.503 209.18C236.423 209.408 235.979 209.696 235.979 210.332C235.979 210.908 236.279 211.22 237.011 211.22ZM245.644 211.592V210.764H245.62C245.284 211.256 244.72 211.688 243.736 211.688C242.212 211.688 241.036 210.656 241.036 208.7C241.036 206.732 242.212 205.7 243.736 205.7C244.72 205.7 245.284 206.168 245.62 206.6H245.644V205.88H246.82V211.52C246.82 213.368 245.704 214.196 243.952 214.196C242.2 214.196 241.324 213.356 241.204 212.252H242.416C242.536 212.804 242.956 213.236 243.952 213.236C245.068 213.236 245.644 212.744 245.644 211.592ZM243.952 206.684C242.8 206.684 242.26 207.548 242.26 208.7C242.26 209.852 242.8 210.716 243.952 210.716C245.008 210.716 245.632 210.032 245.632 208.7C245.632 207.356 245.008 206.684 243.952 206.684ZM248.144 212V205.88H249.32V206.648H249.344C249.668 206.18 250.304 205.7 251.36 205.7C252.488 205.7 253.4 206.348 253.4 207.752V212H252.212V208.076C252.212 207.26 251.852 206.708 250.976 206.708C249.968 206.708 249.32 207.32 249.32 208.244V212H248.144ZM254.575 203.516H255.907V204.788H254.575V203.516ZM254.659 205.88H255.835V212H254.659V205.88ZM259.833 212.18C257.889 212.18 256.809 210.8 256.809 208.928C256.809 207.008 257.961 205.688 259.833 205.688C261.693 205.688 262.737 206.912 262.737 208.808C262.737 208.976 262.737 209.156 262.725 209.252H258.021C258.045 210.284 258.645 211.22 259.857 211.22C260.937 211.22 261.345 210.524 261.465 210.116H262.653C262.341 211.292 261.441 212.18 259.833 212.18ZM259.797 206.648C258.813 206.648 258.093 207.32 258.021 208.328H261.501C261.501 207.368 260.841 206.648 259.797 206.648Z" fill="black"/>
<path d="M140.144 255.42H141.608L143.876 262.608H143.9L146.156 255.42H147.548L144.596 264H143.168L140.144 255.42ZM150.053 264.18C148.145 264.18 146.993 262.86 146.993 260.94C146.993 259.032 148.145 257.688 150.053 257.688C151.961 257.688 153.113 259.02 153.113 260.928C153.113 262.848 151.961 264.18 150.053 264.18ZM150.053 263.208C151.301 263.208 151.889 262.212 151.889 260.94C151.889 259.656 151.301 258.672 150.053 258.672C148.793 258.672 148.217 259.656 148.217 260.94C148.217 262.212 148.793 263.208 150.053 263.208ZM155.751 263.94L153.267 257.88H154.551L156.339 262.56H156.363L158.055 257.88H159.279L156.867 264.144C156.267 265.656 155.679 266.148 154.731 266.148C154.467 266.148 154.287 266.124 153.975 266.064V265.104C154.179 265.128 154.287 265.14 154.479 265.14C154.959 265.14 155.499 264.9 155.751 263.94ZM161.325 264.168C160.101 264.168 159.321 263.46 159.321 262.416C159.321 261.048 160.353 260.652 161.877 260.352C162.837 260.172 163.425 260.052 163.425 259.452C163.425 259.008 163.161 258.636 162.261 258.636C161.193 258.636 160.869 258.972 160.809 259.788H159.609C159.669 258.612 160.437 257.688 162.309 257.688C163.569 257.688 164.577 258.216 164.577 259.8V262.608C164.577 263.052 164.637 263.28 164.865 263.28C164.901 263.28 164.937 263.28 165.009 263.268V263.988C164.805 264.036 164.601 264.06 164.409 264.06C163.833 264.06 163.509 263.832 163.449 263.136H163.425C163.017 263.772 162.321 264.168 161.325 264.168ZM161.589 263.22C162.645 263.22 163.425 262.68 163.425 261.612V260.736C163.233 260.916 162.705 261.048 162.081 261.18C161.001 261.408 160.557 261.696 160.557 262.332C160.557 262.908 160.857 263.22 161.589 263.22ZM170.222 263.592V262.764H170.198C169.862 263.256 169.298 263.688 168.314 263.688C166.79 263.688 165.614 262.656 165.614 260.7C165.614 258.732 166.79 257.7 168.314 257.7C169.298 257.7 169.862 258.168 170.198 258.6H170.222V257.88H171.398V263.52C171.398 265.368 170.282 266.196 168.53 266.196C166.778 266.196 165.902 265.356 165.782 264.252H166.994C167.114 264.804 167.534 265.236 168.53 265.236C169.646 265.236 170.222 264.744 170.222 263.592ZM168.53 258.684C167.378 258.684 166.838 259.548 166.838 260.7C166.838 261.852 167.378 262.716 168.53 262.716C169.586 262.716 170.21 262.032 170.21 260.7C170.21 259.356 169.586 258.684 168.53 258.684ZM175.411 264.18C173.467 264.18 172.387 262.8 172.387 260.928C172.387 259.008 173.539 257.688 175.411 257.688C177.271 257.688 178.315 258.912 178.315 260.808C178.315 260.976 178.315 261.156 178.303 261.252H173.599C173.623 262.284 174.223 263.22 175.435 263.22C176.515 263.22 176.923 262.524 177.043 262.116H178.231C177.919 263.292 177.019 264.18 175.411 264.18ZM175.375 258.648C174.391 258.648 173.671 259.32 173.599 260.328H177.079C177.079 259.368 176.419 258.648 175.375 258.648Z" fill="black"/>
<path d="M144.008 310.96C145.664 311.38 147.224 311.776 147.224 313.588C147.224 315.064 146.216 316.168 144.08 316.168C141.908 316.168 140.372 315.04 140.288 313.108H141.656C141.752 314.26 142.436 315.04 144.044 315.04C145.412 315.04 145.844 314.44 145.844 313.66C145.844 312.568 145.004 312.412 143.444 312.016C142.1 311.668 140.624 311.224 140.624 309.592C140.624 308.104 141.776 307.252 143.624 307.252C145.58 307.252 146.852 308.248 146.984 309.976H145.604C145.472 308.944 144.884 308.38 143.624 308.38C142.556 308.38 141.992 308.776 141.992 309.52C141.992 310.48 142.904 310.684 144.008 310.96ZM151.002 316.18C149.094 316.18 147.942 314.86 147.942 312.94C147.942 311.032 149.094 309.688 151.002 309.688C152.91 309.688 154.062 311.02 154.062 312.928C154.062 314.848 152.91 316.18 151.002 316.18ZM151.002 315.208C152.25 315.208 152.838 314.212 152.838 312.94C152.838 311.656 152.25 310.672 151.002 310.672C149.742 310.672 149.166 311.656 149.166 312.94C149.166 314.212 149.742 315.208 151.002 315.208ZM154.954 307.516H156.286V308.788H154.954V307.516ZM155.038 309.88H156.214V316H155.038V309.88ZM157.522 316V309.88H158.698V310.648H158.722C159.046 310.18 159.682 309.7 160.738 309.7C161.866 309.7 162.778 310.348 162.778 311.752V316H161.59V312.076C161.59 311.26 161.23 310.708 160.354 310.708C159.346 310.708 158.698 311.32 158.698 312.244V316H157.522ZM166.608 312.304C167.724 312.568 168.948 312.892 168.948 314.26C168.948 315.448 168.036 316.168 166.428 316.168C164.568 316.168 163.644 315.208 163.608 313.96H164.796C164.856 314.668 165.276 315.22 166.416 315.22C167.448 315.22 167.724 314.764 167.724 314.32C167.724 313.552 166.908 313.468 166.116 313.3C165.048 313.06 163.824 312.736 163.824 311.464C163.824 310.408 164.676 309.7 166.164 309.7C167.832 309.7 168.636 310.6 168.72 311.656H167.532C167.448 311.188 167.208 310.648 166.176 310.648C165.396 310.648 165.048 310.96 165.048 311.416C165.048 312.052 165.732 312.1 166.608 312.304ZM173.699 315.244H173.675V318.124H172.499V309.88H173.675V310.6H173.699C174.035 310.168 174.623 309.7 175.583 309.7C177.143 309.7 178.331 310.924 178.331 312.94C178.331 314.956 177.143 316.168 175.583 316.168C174.623 316.168 174.035 315.736 173.699 315.244ZM175.391 310.684C174.335 310.684 173.687 311.548 173.687 312.94C173.687 314.32 174.335 315.196 175.391 315.196C176.543 315.196 177.095 314.14 177.095 312.94C177.095 311.74 176.543 310.684 175.391 310.684ZM182.068 316.18C180.124 316.18 179.044 314.8 179.044 312.928C179.044 311.008 180.196 309.688 182.068 309.688C183.928 309.688 184.972 310.912 184.972 312.808C184.972 312.976 184.972 313.156 184.96 313.252H180.256C180.28 314.284 180.88 315.22 182.092 315.22C183.172 315.22 183.58 314.524 183.7 314.116H184.888C184.576 315.292 183.676 316.18 182.068 316.18ZM182.032 310.648C181.048 310.648 180.328 311.32 180.256 312.328H183.736C183.736 311.368 183.076 310.648 182.032 310.648ZM185.952 309.88H187.128V311.044H187.152C187.464 310.276 187.968 309.736 188.796 309.736C189.012 309.736 189.18 309.748 189.36 309.772V310.9C189.204 310.876 189.096 310.864 188.964 310.864C187.896 310.864 187.128 311.668 187.128 312.832V316H185.952V309.88ZM192.764 312.304C193.88 312.568 195.104 312.892 195.104 314.26C195.104 315.448 194.192 316.168 192.584 316.168C190.724 316.168 189.8 315.208 189.764 313.96H190.952C191.012 314.668 191.432 315.22 192.572 315.22C193.604 315.22 193.88 314.764 193.88 314.32C193.88 313.552 193.064 313.468 192.272 313.3C191.204 313.06 189.98 312.736 189.98 311.464C189.98 310.408 190.832 309.7 192.32 309.7C193.988 309.7 194.792 310.6 194.876 311.656H193.688C193.604 311.188 193.364 310.648 192.332 310.648C191.552 310.648 191.204 310.96 191.204 311.416C191.204 312.052 191.888 312.1 192.764 312.304ZM198.756 316.18C196.848 316.18 195.696 314.86 195.696 312.94C195.696 311.032 196.848 309.688 198.756 309.688C200.664 309.688 201.816 311.02 201.816 312.928C201.816 314.848 200.664 316.18 198.756 316.18ZM198.756 315.208C200.004 315.208 200.592 314.212 200.592 312.94C200.592 311.656 200.004 310.672 198.756 310.672C197.496 310.672 196.92 311.656 196.92 312.94C196.92 314.212 197.496 315.208 198.756 315.208ZM202.792 316V309.88H203.968V310.648H203.992C204.316 310.18 204.952 309.7 206.008 309.7C207.136 309.7 208.048 310.348 208.048 311.752V316H206.86V312.076C206.86 311.26 206.5 310.708 205.624 310.708C204.616 310.708 203.968 311.32 203.968 312.244V316H202.792ZM209.308 316V309.88H210.484V310.648H210.508C210.832 310.18 211.468 309.7 212.524 309.7C213.652 309.7 214.564 310.348 214.564 311.752V316H213.376V312.076C213.376 311.26 213.016 310.708 212.14 310.708C211.132 310.708 210.484 311.32 210.484 312.244V316H209.308ZM218.513 316.18C216.569 316.18 215.489 314.8 215.489 312.928C215.489 311.008 216.641 309.688 218.513 309.688C220.373 309.688 221.417 310.912 221.417 312.808C221.417 312.976 221.417 313.156 221.405 313.252H216.701C216.725 314.284 217.325 315.22 218.537 315.22C219.617 315.22 220.025 314.524 220.145 314.116H221.333C221.021 315.292 220.121 316.18 218.513 316.18ZM218.477 310.648C217.493 310.648 216.773 311.32 216.701 312.328H220.181C220.181 311.368 219.521 310.648 218.477 310.648ZM222.397 307.42H223.573V316H222.397V307.42ZM227.452 312.304C228.568 312.568 229.792 312.892 229.792 314.26C229.792 315.448 228.88 316.168 227.271 316.168C225.412 316.168 224.488 315.208 224.452 313.96H225.64C225.7 314.668 226.12 315.22 227.26 315.22C228.292 315.22 228.568 314.764 228.568 314.32C228.568 313.552 227.752 313.468 226.96 313.3C225.892 313.06 224.668 312.736 224.668 311.464C224.668 310.408 225.52 309.7 227.008 309.7C228.676 309.7 229.48 310.6 229.564 311.656H228.376C228.292 311.188 228.052 310.648 227.02 310.648C226.24 310.648 225.892 310.96 225.892 311.416C225.892 312.052 226.576 312.1 227.452 312.304Z" fill="black"/>
<path d="M340.008 206.96C341.664 207.38 343.224 207.776 343.224 209.588C343.224 211.064 342.216 212.168 340.08 212.168C337.908 212.168 336.372 211.04 336.288 209.108H337.656C337.752 210.26 338.436 211.04 340.044 211.04C341.412 211.04 341.844 210.44 341.844 209.66C341.844 208.568 341.004 208.412 339.444 208.016C338.1 207.668 336.624 207.224 336.624 205.592C336.624 204.104 337.776 203.252 339.624 203.252C341.58 203.252 342.852 204.248 342.984 205.976H341.604C341.472 204.944 340.884 204.38 339.624 204.38C338.556 204.38 337.992 204.776 337.992 205.52C337.992 206.48 338.904 206.684 340.008 206.96ZM345.922 212.168C344.698 212.168 343.918 211.46 343.918 210.416C343.918 209.048 344.95 208.652 346.474 208.352C347.434 208.172 348.022 208.052 348.022 207.452C348.022 207.008 347.758 206.636 346.858 206.636C345.79 206.636 345.466 206.972 345.406 207.788H344.206C344.266 206.612 345.034 205.688 346.906 205.688C348.166 205.688 349.174 206.216 349.174 207.8V210.608C349.174 211.052 349.234 211.28 349.462 211.28C349.498 211.28 349.534 211.28 349.606 211.268V211.988C349.402 212.036 349.198 212.06 349.006 212.06C348.43 212.06 348.106 211.832 348.046 211.136H348.022C347.614 211.772 346.918 212.168 345.922 212.168ZM346.186 211.22C347.242 211.22 348.022 210.68 348.022 209.612V208.736C347.83 208.916 347.302 209.048 346.678 209.18C345.598 209.408 345.154 209.696 345.154 210.332C345.154 210.908 345.454 211.22 346.186 211.22ZM350.558 212V205.88H351.734V206.648H351.758C352.082 206.18 352.718 205.7 353.774 205.7C354.902 205.7 355.814 206.348 355.814 207.752V212H354.626V208.076C354.626 207.26 354.266 206.708 353.39 206.708C352.382 206.708 351.734 207.32 351.734 208.244V212H350.558ZM356.478 205.88H357.366V203.912H358.542V205.88H359.718V206.852H358.542V210.308C358.542 210.956 358.722 211.1 359.226 211.1C359.418 211.1 359.514 211.088 359.73 211.052V212C359.418 212.06 359.238 212.072 358.974 212.072C357.978 212.072 357.366 211.688 357.366 210.272V206.852H356.478V205.88ZM363.351 203.276H364.731L363.579 204.932H362.643L363.351 203.276ZM363.267 212.18C361.323 212.18 360.243 210.8 360.243 208.928C360.243 207.008 361.395 205.688 363.267 205.688C365.127 205.688 366.171 206.912 366.171 208.808C366.171 208.976 366.171 209.156 366.159 209.252H361.455C361.479 210.284 362.079 211.22 363.291 211.22C364.371 211.22 364.779 210.524 364.899 210.116H366.087C365.775 211.292 364.875 212.18 363.267 212.18ZM363.231 206.648C362.247 206.648 361.527 207.32 361.455 208.328H364.935C364.935 207.368 364.275 206.648 363.231 206.648ZM369.8 212V205.88H370.976V206.648H371C371.324 206.18 371.888 205.7 372.812 205.7C373.664 205.7 374.18 206.084 374.432 206.768H374.456C374.9 206.18 375.512 205.7 376.46 205.7C377.696 205.7 378.32 206.444 378.32 207.752V212H377.144V208.076C377.144 207.26 376.976 206.708 376.076 206.708C375.2 206.708 374.648 207.32 374.648 208.244V212H373.472V208.076C373.472 207.26 373.304 206.708 372.404 206.708C371.528 206.708 370.976 207.32 370.976 208.244V212H369.8ZM382.275 212.18C380.331 212.18 379.251 210.8 379.251 208.928C379.251 207.008 380.403 205.688 382.275 205.688C384.135 205.688 385.179 206.912 385.179 208.808C385.179 208.976 385.179 209.156 385.167 209.252H380.463C380.487 210.284 381.087 211.22 382.299 211.22C383.379 211.22 383.787 210.524 383.907 210.116H385.095C384.783 211.292 383.883 212.18 382.275 212.18ZM382.239 206.648C381.255 206.648 380.535 207.32 380.463 208.328H383.943C383.943 207.368 383.283 206.648 382.239 206.648ZM386.159 212V205.88H387.335V206.648H387.359C387.683 206.18 388.319 205.7 389.375 205.7C390.503 205.7 391.415 206.348 391.415 207.752V212H390.227V208.076C390.227 207.26 389.867 206.708 388.991 206.708C387.983 206.708 387.335 207.32 387.335 208.244V212H386.159ZM392.079 205.88H392.967V203.912H394.143V205.88H395.319V206.852H394.143V210.308C394.143 210.956 394.323 211.1 394.827 211.1C395.019 211.1 395.115 211.088 395.331 211.052V212C395.019 212.06 394.839 212.072 394.575 212.072C393.579 212.072 392.967 211.688 392.967 210.272V206.852H392.079V205.88ZM397.942 212.168C396.718 212.168 395.938 211.46 395.938 210.416C395.938 209.048 396.97 208.652 398.494 208.352C399.454 208.172 400.042 208.052 400.042 207.452C400.042 207.008 399.778 206.636 398.878 206.636C397.81 206.636 397.486 206.972 397.426 207.788H396.226C396.286 206.612 397.054 205.688 398.926 205.688C400.186 205.688 401.194 206.216 401.194 207.8V210.608C401.194 211.052 401.254 211.28 401.482 211.28C401.518 211.28 401.554 211.28 401.626 211.268V211.988C401.422 212.036 401.218 212.06 401.026 212.06C400.45 212.06 400.126 211.832 400.066 211.136H400.042C399.634 211.772 398.938 212.168 397.942 212.168ZM398.206 211.22C399.262 211.22 400.042 210.68 400.042 209.612V208.736C399.85 208.916 399.322 209.048 398.698 209.18C397.618 209.408 397.174 209.696 397.174 210.332C397.174 210.908 397.474 211.22 398.206 211.22ZM402.577 203.42H403.753V212H402.577V203.42ZM407.751 212.18C405.807 212.18 404.727 210.8 404.727 208.928C404.727 207.008 405.879 205.688 407.751 205.688C409.611 205.688 410.655 206.912 410.655 208.808C410.655 208.976 410.655 209.156 410.643 209.252H405.939C405.963 210.284 406.563 211.22 407.775 211.22C408.855 211.22 409.263 210.524 409.383 210.116H410.571C410.259 211.292 409.359 212.18 407.751 212.18ZM407.715 206.648C406.731 206.648 406.011 207.32 405.939 208.328H409.419C409.419 207.368 408.759 206.648 407.715 206.648Z" fill="black"/>
<path d="M336.768 264V255.42H338.508L340.98 262.164H341.004L343.488 255.42H345.228V264H343.932V257.34H343.908L341.544 264H340.452L338.088 257.34H338.064V264H336.768ZM349.322 264.18C347.414 264.18 346.262 262.86 346.262 260.94C346.262 259.032 347.414 257.688 349.322 257.688C351.23 257.688 352.382 259.02 352.382 260.928C352.382 262.848 351.23 264.18 349.322 264.18ZM349.322 263.208C350.57 263.208 351.158 262.212 351.158 260.94C351.158 259.656 350.57 258.672 349.322 258.672C348.062 258.672 347.486 259.656 347.486 260.94C347.486 262.212 348.062 263.208 349.322 263.208ZM357.714 258.624H357.738V255.42H358.926V264H357.738V263.28H357.714C357.39 263.712 356.79 264.168 355.83 264.168C354.27 264.168 353.094 262.956 353.094 260.94C353.094 258.924 354.27 257.7 355.83 257.7C356.79 257.7 357.39 258.144 357.714 258.624ZM356.022 263.196C357.078 263.196 357.738 262.32 357.738 260.94C357.738 259.548 357.078 258.684 356.022 258.684C354.87 258.684 354.318 259.74 354.318 260.94C354.318 262.14 354.87 263.196 356.022 263.196ZM362.927 264.18C360.983 264.18 359.903 262.8 359.903 260.928C359.903 259.008 361.055 257.688 362.927 257.688C364.787 257.688 365.831 258.912 365.831 260.808C365.831 260.976 365.831 261.156 365.819 261.252H361.115C361.139 262.284 361.739 263.22 362.951 263.22C364.031 263.22 364.439 262.524 364.559 262.116H365.747C365.435 263.292 364.535 264.18 362.927 264.18ZM362.891 258.648C361.907 258.648 361.187 259.32 361.115 260.328H364.595C364.595 259.368 363.935 258.648 362.891 258.648Z" fill="black"/>
<path d="M341.844 313.936H338.256L337.548 316H336.156L339.348 307.42H340.776L343.992 316H342.552L341.844 313.936ZM338.64 312.82H341.46L340.068 308.644H340.044L338.64 312.82ZM345.969 315.244H345.945V316H344.769V307.42H345.945V310.6H345.969C346.305 310.168 346.893 309.7 347.853 309.7C349.413 309.7 350.601 310.924 350.601 312.94C350.601 314.956 349.413 316.168 347.853 316.168C346.893 316.168 346.305 315.736 345.969 315.244ZM347.661 310.684C346.605 310.684 345.957 311.548 345.957 312.94C345.957 314.32 346.605 315.196 347.661 315.196C348.813 315.196 349.365 314.14 349.365 312.94C349.365 311.74 348.813 310.684 347.661 310.684ZM354.373 316.18C352.465 316.18 351.313 314.86 351.313 312.94C351.313 311.032 352.465 309.688 354.373 309.688C356.281 309.688 357.433 311.02 357.433 312.928C357.433 314.848 356.281 316.18 354.373 316.18ZM354.373 315.208C355.621 315.208 356.209 314.212 356.209 312.94C356.209 311.656 355.621 310.672 354.373 310.672C353.113 310.672 352.537 311.656 352.537 312.94C352.537 314.212 353.113 315.208 354.373 315.208ZM358.409 316V309.88H359.585V310.648H359.609C359.933 310.18 360.569 309.7 361.625 309.7C362.753 309.7 363.665 310.348 363.665 311.752V316H362.477V312.076C362.477 311.26 362.117 310.708 361.241 310.708C360.233 310.708 359.585 311.32 359.585 312.244V316H358.409ZM364.925 316V309.88H366.101V310.648H366.125C366.449 310.18 367.085 309.7 368.141 309.7C369.269 309.7 370.181 310.348 370.181 311.752V316H368.993V312.076C368.993 311.26 368.633 310.708 367.757 310.708C366.749 310.708 366.101 311.32 366.101 312.244V316H364.925ZM374.13 316.18C372.186 316.18 371.106 314.8 371.106 312.928C371.106 311.008 372.258 309.688 374.13 309.688C375.99 309.688 377.034 310.912 377.034 312.808C377.034 312.976 377.034 313.156 377.022 313.252H372.318C372.342 314.284 372.942 315.22 374.154 315.22C375.234 315.22 375.642 314.524 375.762 314.116H376.95C376.638 315.292 375.738 316.18 374.13 316.18ZM374.094 310.648C373.11 310.648 372.39 311.32 372.318 312.328H375.798C375.798 311.368 375.138 310.648 374.094 310.648ZM378.015 316V309.88H379.191V310.648H379.215C379.539 310.18 380.103 309.7 381.027 309.7C381.879 309.7 382.395 310.084 382.647 310.768H382.671C383.115 310.18 383.727 309.7 384.675 309.7C385.911 309.7 386.535 310.444 386.535 311.752V316H385.359V312.076C385.359 311.26 385.191 310.708 384.291 310.708C383.415 310.708 382.863 311.32 382.863 312.244V316H381.687V312.076C381.687 311.26 381.519 310.708 380.619 310.708C379.743 310.708 379.191 311.32 379.191 312.244V316H378.015ZM390.489 316.18C388.545 316.18 387.465 314.8 387.465 312.928C387.465 311.008 388.617 309.688 390.489 309.688C392.349 309.688 393.393 310.912 393.393 312.808C393.393 312.976 393.393 313.156 393.381 313.252H388.677C388.701 314.284 389.301 315.22 390.513 315.22C391.593 315.22 392.001 314.524 392.121 314.116H393.309C392.997 315.292 392.097 316.18 390.489 316.18ZM390.453 310.648C389.469 310.648 388.749 311.32 388.677 312.328H392.157C392.157 311.368 391.497 310.648 390.453 310.648ZM394.374 316V309.88H395.55V310.648H395.574C395.898 310.18 396.534 309.7 397.59 309.7C398.718 309.7 399.63 310.348 399.63 311.752V316H398.442V312.076C398.442 311.26 398.082 310.708 397.206 310.708C396.198 310.708 395.55 311.32 395.55 312.244V316H394.374ZM400.294 309.88H401.182V307.912H402.358V309.88H403.534V310.852H402.358V314.308C402.358 314.956 402.538 315.1 403.042 315.1C403.234 315.1 403.33 315.088 403.546 315.052V316C403.234 316.06 403.054 316.072 402.79 316.072C401.794 316.072 401.182 315.688 401.182 314.272V310.852H400.294V309.88ZM407.08 312.304C408.196 312.568 409.42 312.892 409.42 314.26C409.42 315.448 408.508 316.168 406.9 316.168C405.04 316.168 404.116 315.208 404.08 313.96H405.268C405.328 314.668 405.748 315.22 406.888 315.22C407.92 315.22 408.196 314.764 408.196 314.32C408.196 313.552 407.38 313.468 406.588 313.3C405.52 313.06 404.296 312.736 404.296 311.464C404.296 310.408 405.148 309.7 406.636 309.7C408.304 309.7 409.108 310.6 409.192 311.656H408.004C407.92 311.188 407.68 310.648 406.648 310.648C405.868 310.648 405.52 310.96 405.52 311.416C405.52 312.052 406.204 312.1 407.08 312.304ZM417.244 312.1C417.196 311.464 416.836 310.672 415.708 310.672C414.412 310.672 413.932 311.788 413.932 312.94C413.932 314.092 414.412 315.196 415.708 315.196C416.836 315.196 417.196 314.428 417.244 313.732H418.468C418.384 315.136 417.28 316.18 415.72 316.18C413.896 316.18 412.708 314.86 412.708 312.94C412.708 311.02 413.896 309.7 415.708 309.7C417.28 309.7 418.324 310.72 418.468 312.1H417.244ZM420.533 313.792C420.533 314.62 420.893 315.172 421.769 315.172C422.777 315.172 423.425 314.56 423.425 313.636V309.88H424.601V316H423.425V315.232H423.401C423.077 315.7 422.441 316.168 421.385 316.168C420.257 316.168 419.345 315.52 419.345 314.116V309.88H420.533V313.792ZM425.921 307.42H427.097V316H425.921V307.42ZM428.321 307.516H429.653V308.788H428.321V307.516ZM428.405 309.88H429.581V316H428.405V309.88ZM430.89 316V309.88H432.066V310.648H432.09C432.414 310.18 433.05 309.7 434.106 309.7C435.234 309.7 436.146 310.348 436.146 311.752V316H434.958V312.076C434.958 311.26 434.598 310.708 433.722 310.708C432.714 310.708 432.066 311.32 432.066 312.244V316H430.89ZM439.063 316.168C437.839 316.168 437.059 315.46 437.059 314.416C437.059 313.048 438.091 312.652 439.615 312.352C440.575 312.172 441.163 312.052 441.163 311.452C441.163 311.008 440.899 310.636 439.999 310.636C438.931 310.636 438.607 310.972 438.547 311.788H437.347C437.407 310.612 438.175 309.688 440.047 309.688C441.307 309.688 442.315 310.216 442.315 311.8V314.608C442.315 315.052 442.375 315.28 442.603 315.28C442.639 315.28 442.675 315.28 442.747 315.268V315.988C442.543 316.036 442.339 316.06 442.147 316.06C441.571 316.06 441.247 315.832 441.187 315.136H441.163C440.755 315.772 440.059 316.168 439.063 316.168ZM439.327 315.22C440.383 315.22 441.163 314.68 441.163 313.612V312.736C440.971 312.916 440.443 313.048 439.819 313.18C438.739 313.408 438.295 313.696 438.295 314.332C438.295 314.908 438.595 315.22 439.327 315.22ZM443.614 307.516H444.946V308.788H443.614V307.516ZM443.698 309.88H444.874V316H443.698V309.88ZM446.183 309.88H447.359V311.044H447.383C447.695 310.276 448.199 309.736 449.027 309.736C449.243 309.736 449.411 309.748 449.591 309.772V310.9C449.435 310.876 449.327 310.864 449.195 310.864C448.127 310.864 447.359 311.668 447.359 312.832V316H446.183V309.88ZM452.88 316.18C450.936 316.18 449.856 314.8 449.856 312.928C449.856 311.008 451.008 309.688 452.88 309.688C454.74 309.688 455.784 310.912 455.784 312.808C455.784 312.976 455.784 313.156 455.772 313.252H451.068C451.092 314.284 451.692 315.22 452.904 315.22C453.984 315.22 454.392 314.524 454.512 314.116H455.7C455.388 315.292 454.488 316.18 452.88 316.18ZM452.844 310.648C451.86 310.648 451.14 311.32 451.068 312.328H454.548C454.548 311.368 453.888 310.648 452.844 310.648ZM459.311 312.304C460.427 312.568 461.651 312.892 461.651 314.26C461.651 315.448 460.739 316.168 459.131 316.168C457.271 316.168 456.347 315.208 456.311 313.96H457.499C457.559 314.668 457.979 315.22 459.119 315.22C460.151 315.22 460.427 314.764 460.427 314.32C460.427 313.552 459.611 313.468 458.819 313.3C457.751 313.06 456.527 312.736 456.527 311.464C456.527 310.408 457.379 309.7 458.867 309.7C460.535 309.7 461.339 310.6 461.423 311.656H460.235C460.151 311.188 459.911 310.648 458.879 310.648C458.099 310.648 457.751 310.96 457.751 311.416C457.751 312.052 458.435 312.1 459.311 312.304Z" fill="black"/>
<path d="M0 264H564V390C564 423.137 537.137 450 504 450H60C26.8629 450 0 423.137 0 390V264Z" fill="url(#paint0_linear_2806_1583)"/>
<defs>
<linearGradient id="paint0_linear_2806_1583" x1="282" y1="264" x2="282" y2="450" gradientUnits="userSpaceOnUse">
<stop stop-color="#EDD9FF" stop-opacity="0"/>
<stop offset="0.59" stop-color="#EDD9FF"/>
</linearGradient>
<clipPath id="clip0_2806_1583">
<rect width="16" height="16" fill="white" transform="translate(104 200)"/>
</clipPath>
<clipPath id="clip1_2806_1583">
<rect width="16" height="16" fill="white" transform="translate(104 252)"/>
</clipPath>
<clipPath id="clip2_2806_1583">
<rect width="16" height="16" fill="white" transform="translate(104 304)"/>
</clipPath>
<clipPath id="clip3_2806_1583">
<rect width="16" height="16" fill="white" transform="translate(300 200)"/>
</clipPath>
</defs>
</svg>
