<svg width="34" height="34" viewBox="0 0 34 34" fill="none" xmlns="http://www.w3.org/2000/svg">
<path d="M10.4218 10.118C9.73541 9.43154 9.65594 8.39813 10.2442 7.80982L15.5708 2.48326C16.1592 1.89488 17.1926 1.97433 17.879 2.66078L18.2675 3.04913C18.482 3.26365 18.3776 3.71573 18.0344 4.05901L11.82 10.2733C11.4768 10.6165 11.0247 10.7209 10.8102 10.5064C10.5957 10.2918 10.4218 10.118 10.4218 10.118ZM22.4621 22.1583L22.8505 22.5467C23.537 23.2331 24.5703 23.3126 25.1587 22.7242L30.4853 17.3976C31.0737 16.8093 30.9941 15.7759 30.3078 15.0894C30.3078 15.0894 30.1338 14.9156 29.9193 14.7011C29.7048 14.4866 29.2527 14.5909 28.9095 14.9341L22.6951 21.1485C22.352 21.4916 22.2476 21.9438 22.4621 22.1583ZM17.879 20.061L18.5005 19.4395L19.588 20.527C19.6288 20.5678 19.6773 20.6002 19.7306 20.6223C19.7839 20.6444 19.841 20.6557 19.8987 20.6557C19.9564 20.6557 20.0136 20.6444 20.0669 20.6223C20.1202 20.6002 20.1687 20.5678 20.2095 20.527L28.2881 12.4484C28.3705 12.3659 28.4168 12.2542 28.4168 12.1376C28.4168 12.0211 28.3705 11.9094 28.2881 11.8269L21.1416 4.68046C21.1008 4.63965 21.0524 4.60727 20.999 4.58518C20.9457 4.5631 20.8886 4.55173 20.8309 4.55173C20.7731 4.55173 20.716 4.5631 20.6627 4.58518C20.6094 4.60727 20.5609 4.63965 20.5201 4.68046L12.4414 12.7591C12.3591 12.8415 12.3128 12.9533 12.3128 13.0698C12.3128 13.1864 12.3591 13.2981 12.4414 13.3805L13.529 14.468L12.9076 15.0894C12.578 15.4191 12.3928 15.8662 12.3928 16.3324C12.3928 16.7985 12.578 17.2456 12.9076 17.5753L12.0345 18.4482C10.3988 20.0522 8.61883 21.5023 6.71719 22.7799C5.66636 23.5052 4.68334 24.3241 3.78019 25.2266C0.862978 28.1439 0.00635725 30.7742 1.10035 31.8682C2.19435 32.9622 4.82462 32.1055 7.74192 29.1882C8.64457 28.285 9.46357 27.3019 10.1889 26.2509C11.4665 24.3494 12.9165 22.5695 14.5204 20.9338L15.3933 20.061C15.7229 20.3906 16.17 20.5758 16.6361 20.5758C17.1023 20.5758 17.5494 20.3906 17.879 20.061ZM32.2421 28.8493H16.423C15.9568 28.8493 15.5097 29.0345 15.1801 29.3641C14.8505 29.6937 14.6653 30.1408 14.6653 30.607V31.9252C14.6653 31.9829 14.6766 32.0401 14.6987 32.0934C14.7208 32.1467 14.7531 32.1952 14.7939 32.236C14.8347 32.2768 14.8832 32.3091 14.9365 32.3312C14.9898 32.3533 15.047 32.3647 15.1047 32.3647H33.5603C33.618 32.3647 33.6752 32.3533 33.7285 32.3312C33.7818 32.3091 33.8303 32.2768 33.8711 32.236C33.9119 32.1952 33.9442 32.1467 33.9663 32.0934C33.9884 32.0401 33.9998 31.9829 33.9998 31.9252V30.607C33.9998 30.1408 33.8146 29.6937 33.4849 29.3641C33.1553 29.0345 32.7083 28.8493 32.2421 28.8493Z" fill="#FFB800"/>
</svg>
