<svg width="34" height="34" viewBox="0 0 34 34" fill="none" xmlns="http://www.w3.org/2000/svg">
<g clip-path="url(#clip0_392_548)">
<path d="M27.6264 16.2782L26.6545 7.41866C26.5423 6.48411 25.832 5.73646 24.8975 5.58693L22.0565 5.13834C20.7107 4.91405 19.3649 4.8019 18.0566 4.76452V1.66181H21.1967C21.7948 1.66181 22.2807 1.17586 22.2807 0.577742C22.2807 -0.0203713 21.7948 -0.506348 21.1967 -0.506348H12.7483C12.1502 -0.506348 11.6642 -0.0203713 11.6642 0.577742C11.6642 1.17586 12.1502 1.66181 12.7483 1.66181H15.8884V4.76452C14.5427 4.8019 13.1969 4.91405 11.8885 5.13834L9.0475 5.58693C8.11294 5.73646 7.40268 6.48411 7.29053 7.41866L6.31858 16.2782C6.09429 18.1099 6.01953 19.979 6.01953 21.8481V25.7733C6.01953 26.9321 6.9541 27.8667 8.11294 27.8667H9.72037L7.62696 33.5487C7.40266 34.1095 7.70173 34.745 8.26246 34.9319C8.3746 34.9693 8.52413 35.0066 8.63628 35.0066C9.08486 35.0066 9.49607 34.745 9.6456 34.2964L12.0007 27.8667H22.0191L24.3742 34.2964C24.5237 34.745 24.9723 35.0066 25.3835 35.0066C25.4956 35.0066 25.6451 34.9693 25.7573 34.9319C26.318 34.7076 26.6171 34.1095 26.3928 33.5487L24.2994 27.8667H25.9068C27.0657 27.8667 28.0002 26.9321 28.0002 25.7733V21.8481C27.9628 19.979 27.8507 18.1099 27.6264 16.2782ZM10.4306 23.5677C9.57083 23.5677 8.86058 22.8575 8.86058 21.9977C8.86058 21.1379 9.57083 20.4276 10.4306 20.4276C11.2904 20.4276 12.0007 21.1379 12.0007 21.9977C12.0007 22.8575 11.2904 23.5677 10.4306 23.5677ZM23.4396 23.5677C22.5798 23.5677 21.8696 22.8575 21.8696 21.9977C21.8696 21.1379 22.5798 20.4276 23.4396 20.4276C24.2994 20.4276 25.0096 21.1379 25.0096 21.9977C25.0096 22.8575 24.2994 23.5677 23.4396 23.5677ZM8.44937 16.1661L9.34655 8.27845H24.5611L25.4582 16.1661H8.44937Z" fill="#8800FF"/>
</g>
<defs>
<clipPath id="clip0_392_548">
<rect width="34" height="34" fill="white"/>
</clipPath>
</defs>
</svg>
