<svg width="219" height="209" viewBox="0 0 219 209" fill="none" xmlns="http://www.w3.org/2000/svg">
<rect width="219" height="209" fill="white"/>
<path d="M24.676 29.12C26.608 29.61 28.428 30.072 28.428 32.186C28.428 33.908 27.252 35.196 24.76 35.196C22.226 35.196 20.434 33.88 20.336 31.626H21.932C22.044 32.97 22.842 33.88 24.718 33.88C26.314 33.88 26.818 33.18 26.818 32.27C26.818 30.996 25.838 30.814 24.018 30.352C22.45 29.946 20.728 29.428 20.728 27.524C20.728 25.788 22.072 24.794 24.228 24.794C26.51 24.794 27.994 25.956 28.148 27.972H26.538C26.384 26.768 25.698 26.11 24.228 26.11C22.982 26.11 22.324 26.572 22.324 27.44C22.324 28.56 23.388 28.798 24.676 29.12ZM31.576 35.196C30.148 35.196 29.238 34.37 29.238 33.152C29.238 31.556 30.442 31.094 32.22 30.744C33.34 30.534 34.026 30.394 34.026 29.694C34.026 29.176 33.718 28.742 32.668 28.742C31.422 28.742 31.044 29.134 30.974 30.086H29.574C29.644 28.714 30.54 27.636 32.724 27.636C34.194 27.636 35.37 28.252 35.37 30.1V33.376C35.37 33.894 35.44 34.16 35.706 34.16C35.748 34.16 35.79 34.16 35.874 34.146V34.986C35.636 35.042 35.398 35.07 35.174 35.07C34.502 35.07 34.124 34.804 34.054 33.992H34.026C33.55 34.734 32.738 35.196 31.576 35.196ZM31.884 34.09C33.116 34.09 34.026 33.46 34.026 32.214V31.192C33.802 31.402 33.186 31.556 32.458 31.71C31.198 31.976 30.68 32.312 30.68 33.054C30.68 33.726 31.03 34.09 31.884 34.09ZM36.9839 35V27.86H38.3559V28.756H38.3839C38.7619 28.21 39.5039 27.65 40.7359 27.65C42.0519 27.65 43.1159 28.406 43.1159 30.044V35H41.7299V30.422C41.7299 29.47 41.3099 28.826 40.2879 28.826C39.1119 28.826 38.3559 29.54 38.3559 30.618V35H36.9839ZM43.8907 27.86H44.9267V25.564H46.2987V27.86H47.6707V28.994H46.2987V33.026C46.2987 33.782 46.5087 33.95 47.0967 33.95C47.3207 33.95 47.4327 33.936 47.6847 33.894V35C47.3207 35.07 47.1107 35.084 46.8027 35.084C45.6407 35.084 44.9267 34.636 44.9267 32.984V28.994H43.8907V27.86ZM51.9093 24.822H53.5193L52.1753 26.754H51.0833L51.9093 24.822ZM51.8113 35.21C49.5433 35.21 48.2833 33.6 48.2833 31.416C48.2833 29.176 49.6273 27.636 51.8113 27.636C53.9813 27.636 55.1993 29.064 55.1993 31.276C55.1993 31.472 55.1993 31.682 55.1853 31.794H49.6973C49.7253 32.998 50.4253 34.09 51.8393 34.09C53.0993 34.09 53.5753 33.278 53.7153 32.802H55.1013C54.7373 34.174 53.6873 35.21 51.8113 35.21ZM51.7693 28.756C50.6213 28.756 49.7813 29.54 49.6973 30.716H53.7573C53.7573 29.596 52.9873 28.756 51.7693 28.756Z" fill="black"/>
<path d="M68.008 64.96C69.664 65.38 71.224 65.776 71.224 67.588C71.224 69.064 70.216 70.168 68.08 70.168C65.908 70.168 64.372 69.04 64.288 67.108H65.656C65.752 68.26 66.436 69.04 68.044 69.04C69.412 69.04 69.844 68.44 69.844 67.66C69.844 66.568 69.004 66.412 67.444 66.016C66.1 65.668 64.624 65.224 64.624 63.592C64.624 62.104 65.776 61.252 67.624 61.252C69.58 61.252 70.852 62.248 70.984 63.976H69.604C69.472 62.944 68.884 62.38 67.624 62.38C66.556 62.38 65.992 62.776 65.992 63.52C65.992 64.48 66.904 64.684 68.008 64.96ZM75.002 70.18C73.094 70.18 71.942 68.86 71.942 66.94C71.942 65.032 73.094 63.688 75.002 63.688C76.91 63.688 78.062 65.02 78.062 66.928C78.062 68.848 76.91 70.18 75.002 70.18ZM75.002 69.208C76.25 69.208 76.838 68.212 76.838 66.94C76.838 65.656 76.25 64.672 75.002 64.672C73.742 64.672 73.166 65.656 73.166 66.94C73.166 68.212 73.742 69.208 75.002 69.208ZM78.9541 61.516H80.2861V62.788H78.9541V61.516ZM79.0381 63.88H80.2141V70H79.0381V63.88ZM81.5224 70V63.88H82.6984V64.648H82.7224C83.0464 64.18 83.6824 63.7 84.7384 63.7C85.8664 63.7 86.7784 64.348 86.7784 65.752V70H85.5904V66.076C85.5904 65.26 85.2304 64.708 84.3544 64.708C83.3464 64.708 82.6984 65.32 82.6984 66.244V70H81.5224ZM90.6078 66.304C91.7238 66.568 92.9478 66.892 92.9478 68.26C92.9478 69.448 92.0358 70.168 90.4277 70.168C88.5678 70.168 87.6438 69.208 87.6078 67.96H88.7958C88.8558 68.668 89.2758 69.22 90.4158 69.22C91.4478 69.22 91.7238 68.764 91.7238 68.32C91.7238 67.552 90.9078 67.468 90.1158 67.3C89.0478 67.06 87.8238 66.736 87.8238 65.464C87.8238 64.408 88.6758 63.7 90.1638 63.7C91.8318 63.7 92.6358 64.6 92.7198 65.656H91.5318C91.4478 65.188 91.2078 64.648 90.1758 64.648C89.3958 64.648 89.0478 64.96 89.0478 65.416C89.0478 66.052 89.7318 66.1 90.6078 66.304ZM97.699 69.244H97.675V72.124H96.499V63.88H97.675V64.6H97.699C98.035 64.168 98.623 63.7 99.583 63.7C101.143 63.7 102.331 64.924 102.331 66.94C102.331 68.956 101.143 70.168 99.583 70.168C98.623 70.168 98.035 69.736 97.699 69.244ZM99.391 64.684C98.335 64.684 97.687 65.548 97.687 66.94C97.687 68.32 98.335 69.196 99.391 69.196C100.543 69.196 101.095 68.14 101.095 66.94C101.095 65.74 100.543 64.684 99.391 64.684ZM106.068 70.18C104.124 70.18 103.044 68.8 103.044 66.928C103.044 65.008 104.196 63.688 106.068 63.688C107.928 63.688 108.972 64.912 108.972 66.808C108.972 66.976 108.972 67.156 108.96 67.252H104.256C104.28 68.284 104.88 69.22 106.092 69.22C107.172 69.22 107.58 68.524 107.7 68.116H108.888C108.576 69.292 107.676 70.18 106.068 70.18ZM106.032 64.648C105.048 64.648 104.328 65.32 104.256 66.328H107.736C107.736 65.368 107.076 64.648 106.032 64.648ZM109.952 63.88H111.128V65.044H111.152C111.464 64.276 111.968 63.736 112.796 63.736C113.012 63.736 113.18 63.748 113.36 63.772V64.9C113.204 64.876 113.096 64.864 112.964 64.864C111.896 64.864 111.128 65.668 111.128 66.832V70H109.952V63.88ZM116.764 66.304C117.88 66.568 119.104 66.892 119.104 68.26C119.104 69.448 118.192 70.168 116.584 70.168C114.724 70.168 113.8 69.208 113.764 67.96H114.952C115.012 68.668 115.432 69.22 116.572 69.22C117.604 69.22 117.88 68.764 117.88 68.32C117.88 67.552 117.064 67.468 116.272 67.3C115.204 67.06 113.98 66.736 113.98 65.464C113.98 64.408 114.832 63.7 116.32 63.7C117.988 63.7 118.792 64.6 118.876 65.656H117.688C117.604 65.188 117.364 64.648 116.332 64.648C115.552 64.648 115.204 64.96 115.204 65.416C115.204 66.052 115.888 66.1 116.764 66.304ZM122.756 70.18C120.848 70.18 119.696 68.86 119.696 66.94C119.696 65.032 120.848 63.688 122.756 63.688C124.664 63.688 125.816 65.02 125.816 66.928C125.816 68.848 124.664 70.18 122.756 70.18ZM122.756 69.208C124.004 69.208 124.592 68.212 124.592 66.94C124.592 65.656 124.004 64.672 122.756 64.672C121.496 64.672 120.92 65.656 120.92 66.94C120.92 68.212 121.496 69.208 122.756 69.208ZM126.792 70V63.88H127.968V64.648H127.992C128.316 64.18 128.952 63.7 130.008 63.7C131.136 63.7 132.048 64.348 132.048 65.752V70H130.86V66.076C130.86 65.26 130.5 64.708 129.624 64.708C128.616 64.708 127.968 65.32 127.968 66.244V70H126.792ZM133.308 70V63.88H134.484V64.648H134.508C134.832 64.18 135.468 63.7 136.524 63.7C137.652 63.7 138.564 64.348 138.564 65.752V70H137.376V66.076C137.376 65.26 137.016 64.708 136.14 64.708C135.132 64.708 134.484 65.32 134.484 66.244V70H133.308ZM142.513 70.18C140.569 70.18 139.489 68.8 139.489 66.928C139.489 65.008 140.641 63.688 142.513 63.688C144.373 63.688 145.417 64.912 145.417 66.808C145.417 66.976 145.417 67.156 145.405 67.252H140.701C140.725 68.284 141.325 69.22 142.537 69.22C143.617 69.22 144.025 68.524 144.145 68.116H145.333C145.021 69.292 144.121 70.18 142.513 70.18ZM142.477 64.648C141.493 64.648 140.773 65.32 140.701 66.328H144.181C144.181 65.368 143.521 64.648 142.477 64.648ZM146.397 61.42H147.573V70H146.397V61.42ZM151.452 66.304C152.568 66.568 153.792 66.892 153.792 68.26C153.792 69.448 152.88 70.168 151.271 70.168C149.412 70.168 148.488 69.208 148.452 67.96H149.64C149.7 68.668 150.12 69.22 151.26 69.22C152.292 69.22 152.568 68.764 152.568 68.32C152.568 67.552 151.752 67.468 150.96 67.3C149.892 67.06 148.668 66.736 148.668 65.464C148.668 64.408 149.52 63.7 151.008 63.7C152.676 63.7 153.48 64.6 153.564 65.656H152.376C152.292 65.188 152.052 64.648 151.02 64.648C150.24 64.648 149.892 64.96 149.892 65.416C149.892 66.052 150.576 66.1 151.452 66.304Z" fill="black"/>
<path d="M64.768 106V97.42H68.344C69.964 97.42 71.164 98.176 71.164 99.976C71.164 101.776 69.964 102.52 68.344 102.52H66.088V106H64.768ZM66.088 101.38H68.284C69.28 101.38 69.784 100.936 69.784 99.976C69.784 99.004 69.28 98.56 68.284 98.56H66.088V101.38ZM73.395 106.168C72.171 106.168 71.391 105.46 71.391 104.416C71.391 103.048 72.423 102.652 73.947 102.352C74.907 102.172 75.495 102.052 75.495 101.452C75.495 101.008 75.231 100.636 74.331 100.636C73.263 100.636 72.939 100.972 72.879 101.788H71.679C71.739 100.612 72.507 99.688 74.379 99.688C75.639 99.688 76.647 100.216 76.647 101.8V104.608C76.647 105.052 76.707 105.28 76.935 105.28C76.971 105.28 77.007 105.28 77.079 105.268V105.988C76.875 106.036 76.671 106.06 76.479 106.06C75.903 106.06 75.579 105.832 75.519 105.136H75.495C75.087 105.772 74.391 106.168 73.395 106.168ZM73.659 105.22C74.715 105.22 75.495 104.68 75.495 103.612V102.736C75.303 102.916 74.775 103.048 74.151 103.18C73.071 103.408 72.627 103.696 72.627 104.332C72.627 104.908 72.927 105.22 73.659 105.22ZM78.0303 99.88H79.2063V101.044H79.2303C79.5423 100.276 80.0463 99.736 80.8743 99.736C81.0903 99.736 81.2583 99.748 81.4383 99.772V100.9C81.2823 100.876 81.1743 100.864 81.0423 100.864C79.9743 100.864 79.2063 101.668 79.2063 102.832V106H78.0303V99.88ZM83.6372 106.168C82.4132 106.168 81.6332 105.46 81.6332 104.416C81.6332 103.048 82.6652 102.652 84.1892 102.352C85.1492 102.172 85.7372 102.052 85.7372 101.452C85.7372 101.008 85.4732 100.636 84.5732 100.636C83.5052 100.636 83.1812 100.972 83.1212 101.788H81.9212C81.9812 100.612 82.7492 99.688 84.6212 99.688C85.8812 99.688 86.8892 100.216 86.8892 101.8V104.608C86.8892 105.052 86.9492 105.28 87.1772 105.28C87.2132 105.28 87.2492 105.28 87.3212 105.268V105.988C87.1172 106.036 86.9132 106.06 86.7212 106.06C86.1452 106.06 85.8212 105.832 85.7612 105.136H85.7372C85.3292 105.772 84.6332 106.168 83.6372 106.168ZM83.9012 105.22C84.9572 105.22 85.7372 104.68 85.7372 103.612V102.736C85.5452 102.916 85.0172 103.048 84.3932 103.18C83.3132 103.408 82.8692 103.696 82.8692 104.332C82.8692 104.908 83.1692 105.22 83.9012 105.22ZM88.2724 106V99.88H89.4484V100.648H89.4724C89.7964 100.18 90.3604 99.7 91.2844 99.7C92.1364 99.7 92.6524 100.084 92.9044 100.768H92.9284C93.3724 100.18 93.9844 99.7 94.9324 99.7C96.1684 99.7 96.7924 100.444 96.7924 101.752V106H95.6164V102.076C95.6164 101.26 95.4484 100.708 94.5484 100.708C93.6724 100.708 93.1204 101.32 93.1204 102.244V106H91.9444V102.076C91.9444 101.26 91.7764 100.708 90.8764 100.708C90.0004 100.708 89.4484 101.32 89.4484 102.244V106H88.2724ZM100.831 97.276H102.211L101.059 98.932H100.123L100.831 97.276ZM100.747 106.18C98.8033 106.18 97.7233 104.8 97.7233 102.928C97.7233 101.008 98.8753 99.688 100.747 99.688C102.607 99.688 103.651 100.912 103.651 102.808C103.651 102.976 103.651 103.156 103.639 103.252H98.9353C98.9593 104.284 99.5593 105.22 100.771 105.22C101.851 105.22 102.259 104.524 102.379 104.116H103.567C103.255 105.292 102.355 106.18 100.747 106.18ZM100.711 100.648C99.7273 100.648 99.0073 101.32 98.9353 102.328H102.415C102.415 101.368 101.755 100.648 100.711 100.648ZM108.988 100.624H109.012V97.42H110.2V106H109.012V105.28H108.988C108.664 105.712 108.064 106.168 107.104 106.168C105.544 106.168 104.368 104.956 104.368 102.94C104.368 100.924 105.544 99.7 107.104 99.7C108.064 99.7 108.664 100.144 108.988 100.624ZM107.296 105.196C108.352 105.196 109.012 104.32 109.012 102.94C109.012 101.548 108.352 100.684 107.296 100.684C106.144 100.684 105.592 101.74 105.592 102.94C105.592 104.14 106.144 105.196 107.296 105.196ZM111.427 97.516H112.759V98.788H111.427V97.516ZM111.511 99.88H112.687V106H111.511V99.88ZM118.197 102.1C118.149 101.464 117.789 100.672 116.661 100.672C115.365 100.672 114.885 101.788 114.885 102.94C114.885 104.092 115.365 105.196 116.661 105.196C117.789 105.196 118.149 104.428 118.197 103.732H119.421C119.337 105.136 118.233 106.18 116.673 106.18C114.849 106.18 113.661 104.86 113.661 102.94C113.661 101.02 114.849 99.7 116.661 99.7C118.233 99.7 119.277 100.72 119.421 102.1H118.197ZM122.086 106.168C120.862 106.168 120.082 105.46 120.082 104.416C120.082 103.048 121.114 102.652 122.638 102.352C123.598 102.172 124.186 102.052 124.186 101.452C124.186 101.008 123.922 100.636 123.022 100.636C121.954 100.636 121.63 100.972 121.57 101.788H120.37C120.43 100.612 121.198 99.688 123.07 99.688C124.33 99.688 125.338 100.216 125.338 101.8V104.608C125.338 105.052 125.398 105.28 125.626 105.28C125.662 105.28 125.698 105.28 125.77 105.268V105.988C125.566 106.036 125.362 106.06 125.17 106.06C124.594 106.06 124.27 105.832 124.21 105.136H124.186C123.778 105.772 123.082 106.168 122.086 106.168ZM122.35 105.22C123.406 105.22 124.186 104.68 124.186 103.612V102.736C123.994 102.916 123.466 103.048 122.842 103.18C121.762 103.408 121.318 103.696 121.318 104.332C121.318 104.908 121.618 105.22 122.35 105.22ZM126.722 97.42H127.898V106H126.722V97.42Z" fill="black"/>
<path d="M70.816 136.336C70.66 135.496 70.132 134.392 68.488 134.392C66.592 134.392 65.872 136 65.872 137.704C65.872 139.42 66.592 141.028 68.488 141.028C70.144 141.028 70.732 139.924 70.816 138.88H72.196C72.004 140.788 70.672 142.168 68.5 142.168C66.064 142.168 64.504 140.296 64.504 137.716C64.504 135.124 66.076 133.252 68.512 133.252C70.672 133.252 71.992 134.62 72.196 136.336H70.816ZM76.0567 142.18C74.1487 142.18 72.9967 140.86 72.9967 138.94C72.9967 137.032 74.1487 135.688 76.0567 135.688C77.9647 135.688 79.1167 137.02 79.1167 138.928C79.1167 140.848 77.9647 142.18 76.0567 142.18ZM76.0567 141.208C77.3047 141.208 77.8927 140.212 77.8927 138.94C77.8927 137.656 77.3047 136.672 76.0567 136.672C74.7967 136.672 74.2207 137.656 74.2207 138.94C74.2207 140.212 74.7967 141.208 76.0567 141.208ZM81.2208 139.792C81.2208 140.62 81.5808 141.172 82.4568 141.172C83.4648 141.172 84.1128 140.56 84.1128 139.636V135.88H85.2888V142H84.1128V141.232H84.0888C83.7648 141.7 83.1288 142.168 82.0728 142.168C80.9448 142.168 80.0328 141.52 80.0328 140.116V135.88H81.2208V139.792ZM85.9626 135.88H87.2226L88.8186 140.788H88.8426L90.4146 135.88H91.6506L89.4666 142H88.1466L85.9626 135.88ZM94.841 142.18C92.897 142.18 91.817 140.8 91.817 138.928C91.817 137.008 92.969 135.688 94.841 135.688C96.701 135.688 97.745 136.912 97.745 138.808C97.745 138.976 97.745 139.156 97.733 139.252H93.029C93.053 140.284 93.653 141.22 94.865 141.22C95.945 141.22 96.353 140.524 96.473 140.116H97.661C97.349 141.292 96.449 142.18 94.841 142.18ZM94.805 136.648C93.821 136.648 93.101 137.32 93.029 138.328H96.509C96.509 137.368 95.849 136.648 94.805 136.648ZM98.7256 135.88H99.9016V137.044H99.9256C100.238 136.276 100.742 135.736 101.57 135.736C101.786 135.736 101.954 135.748 102.134 135.772V136.9C101.978 136.876 101.87 136.864 101.738 136.864C100.67 136.864 99.9016 137.668 99.9016 138.832V142H98.7256V135.88ZM102.689 135.88H103.577V133.912H104.753V135.88H105.929V136.852H104.753V140.308C104.753 140.956 104.933 141.1 105.437 141.1C105.629 141.1 105.725 141.088 105.941 141.052V142C105.629 142.06 105.449 142.072 105.185 142.072C104.189 142.072 103.577 141.688 103.577 140.272V136.852H102.689V135.88ZM107.963 139.792C107.963 140.62 108.323 141.172 109.199 141.172C110.207 141.172 110.855 140.56 110.855 139.636V135.88H112.031V142H110.855V141.232H110.831C110.507 141.7 109.871 142.168 108.815 142.168C107.687 142.168 106.775 141.52 106.775 140.116V135.88H107.963V139.792ZM113.351 135.88H114.527V137.044H114.551C114.863 136.276 115.367 135.736 116.195 135.736C116.411 135.736 116.579 135.748 116.759 135.772V136.9C116.603 136.876 116.495 136.864 116.363 136.864C115.295 136.864 114.527 137.668 114.527 138.832V142H113.351V135.88ZM120.048 142.18C118.104 142.18 117.024 140.8 117.024 138.928C117.024 137.008 118.176 135.688 120.048 135.688C121.908 135.688 122.952 136.912 122.952 138.808C122.952 138.976 122.952 139.156 122.94 139.252H118.236C118.26 140.284 118.86 141.22 120.072 141.22C121.152 141.22 121.56 140.524 121.68 140.116H122.868C122.556 141.292 121.656 142.18 120.048 142.18ZM120.012 136.648C119.028 136.648 118.308 137.32 118.236 138.328H121.716C121.716 137.368 121.056 136.648 120.012 136.648ZM126.479 138.304C127.595 138.568 128.819 138.892 128.819 140.26C128.819 141.448 127.907 142.168 126.299 142.168C124.439 142.168 123.515 141.208 123.479 139.96H124.667C124.727 140.668 125.147 141.22 126.287 141.22C127.319 141.22 127.595 140.764 127.595 140.32C127.595 139.552 126.779 139.468 125.987 139.3C124.919 139.06 123.695 138.736 123.695 137.464C123.695 136.408 124.547 135.7 126.035 135.7C127.703 135.7 128.507 136.6 128.591 137.656H127.403C127.319 137.188 127.079 136.648 126.047 136.648C125.267 136.648 124.919 136.96 124.919 137.416C124.919 138.052 125.603 138.1 126.479 138.304ZM132.286 133.516H133.618V134.788H132.286V133.516ZM132.37 135.88H133.546V142H132.37V135.88ZM134.854 142V135.88H136.03V136.648H136.054C136.378 136.18 137.014 135.7 138.07 135.7C139.198 135.7 140.11 136.348 140.11 137.752V142H138.922V138.076C138.922 137.26 138.562 136.708 137.686 136.708C136.678 136.708 136.03 137.32 136.03 138.244V142H134.854ZM145.656 136.624H145.68V133.42H146.868V142H145.68V141.28H145.656C145.332 141.712 144.732 142.168 143.772 142.168C142.212 142.168 141.036 140.956 141.036 138.94C141.036 136.924 142.212 135.7 143.772 135.7C144.732 135.7 145.332 136.144 145.656 136.624ZM143.964 141.196C145.02 141.196 145.68 140.32 145.68 138.94C145.68 137.548 145.02 136.684 143.964 136.684C142.812 136.684 142.26 137.74 142.26 138.94C142.26 140.14 142.812 141.196 143.964 141.196ZM148.095 133.516H149.427V134.788H148.095V133.516ZM148.179 135.88H149.355V142H148.179V135.88ZM150.029 135.88H151.289L152.885 140.788H152.909L154.481 135.88H155.717L153.533 142H152.213L150.029 135.88ZM156.321 133.516H157.653V134.788H156.321V133.516ZM156.405 135.88H157.581V142H156.405V135.88ZM163.175 136.624H163.199V133.42H164.387V142H163.199V141.28H163.175C162.851 141.712 162.251 142.168 161.291 142.168C159.731 142.168 158.555 140.956 158.555 138.94C158.555 136.924 159.731 135.7 161.291 135.7C162.251 135.7 162.851 136.144 163.175 136.624ZM161.483 141.196C162.539 141.196 163.199 140.32 163.199 138.94C163.199 137.548 162.539 136.684 161.483 136.684C160.331 136.684 159.779 137.74 159.779 138.94C159.779 140.14 160.331 141.196 161.483 141.196ZM166.826 139.792C166.826 140.62 167.186 141.172 168.062 141.172C169.07 141.172 169.718 140.56 169.718 139.636V135.88H170.894V142H169.718V141.232H169.694C169.37 141.7 168.734 142.168 167.678 142.168C166.55 142.168 165.638 141.52 165.638 140.116V135.88H166.826V139.792ZM174.904 142.18C172.96 142.18 171.88 140.8 171.88 138.928C171.88 137.008 173.032 135.688 174.904 135.688C176.764 135.688 177.808 136.912 177.808 138.808C177.808 138.976 177.808 139.156 177.796 139.252H173.092C173.116 140.284 173.716 141.22 174.928 141.22C176.008 141.22 176.416 140.524 176.536 140.116H177.724C177.412 141.292 176.512 142.18 174.904 142.18ZM174.868 136.648C173.884 136.648 173.164 137.32 173.092 138.328H176.572C176.572 137.368 175.912 136.648 174.868 136.648ZM178.788 133.42H179.964V142H178.788V133.42ZM181.319 133.42H182.495V142H181.319V133.42ZM186.493 142.18C184.549 142.18 183.469 140.8 183.469 138.928C183.469 137.008 184.621 135.688 186.493 135.688C188.353 135.688 189.397 136.912 189.397 138.808C189.397 138.976 189.397 139.156 189.385 139.252H184.681C184.705 140.284 185.305 141.22 186.517 141.22C187.597 141.22 188.005 140.524 188.125 140.116H189.313C189.001 141.292 188.101 142.18 186.493 142.18ZM186.457 136.648C185.473 136.648 184.753 137.32 184.681 138.328H188.161C188.161 137.368 187.501 136.648 186.457 136.648ZM192.924 138.304C194.04 138.568 195.264 138.892 195.264 140.26C195.264 141.448 194.352 142.168 192.744 142.168C190.884 142.168 189.96 141.208 189.924 139.96H191.112C191.172 140.668 191.592 141.22 192.732 141.22C193.764 141.22 194.04 140.764 194.04 140.32C194.04 139.552 193.224 139.468 192.432 139.3C191.364 139.06 190.14 138.736 190.14 137.464C190.14 136.408 190.992 135.7 192.48 135.7C194.148 135.7 194.952 136.6 195.036 137.656H193.848C193.764 137.188 193.524 136.648 192.492 136.648C191.712 136.648 191.364 136.96 191.364 137.416C191.364 138.052 192.048 138.1 192.924 138.304Z" fill="black"/>
<path d="M68.008 172.96C69.664 173.38 71.224 173.776 71.224 175.588C71.224 177.064 70.216 178.168 68.08 178.168C65.908 178.168 64.372 177.04 64.288 175.108H65.656C65.752 176.26 66.436 177.04 68.044 177.04C69.412 177.04 69.844 176.44 69.844 175.66C69.844 174.568 69.004 174.412 67.444 174.016C66.1 173.668 64.624 173.224 64.624 171.592C64.624 170.104 65.776 169.252 67.624 169.252C69.58 169.252 70.852 170.248 70.984 171.976H69.604C69.472 170.944 68.884 170.38 67.624 170.38C66.556 170.38 65.992 170.776 65.992 171.52C65.992 172.48 66.904 172.684 68.008 172.96ZM75.002 178.18C73.094 178.18 71.942 176.86 71.942 174.94C71.942 173.032 73.094 171.688 75.002 171.688C76.91 171.688 78.062 173.02 78.062 174.928C78.062 176.848 76.91 178.18 75.002 178.18ZM75.002 177.208C76.25 177.208 76.838 176.212 76.838 174.94C76.838 173.656 76.25 172.672 75.002 172.672C73.742 172.672 73.166 173.656 73.166 174.94C73.166 176.212 73.742 177.208 75.002 177.208ZM78.9541 169.516H80.2861V170.788H78.9541V169.516ZM79.0381 171.88H80.2141V178H79.0381V171.88ZM81.5224 178V171.88H82.6984V172.648H82.7224C83.0464 172.18 83.6824 171.7 84.7384 171.7C85.8664 171.7 86.7784 172.348 86.7784 173.752V178H85.5904V174.076C85.5904 173.26 85.2304 172.708 84.3544 172.708C83.3464 172.708 82.6984 173.32 82.6984 174.244V178H81.5224ZM90.6078 174.304C91.7238 174.568 92.9478 174.892 92.9478 176.26C92.9478 177.448 92.0358 178.168 90.4277 178.168C88.5678 178.168 87.6438 177.208 87.6078 175.96H88.7958C88.8558 176.668 89.2758 177.22 90.4158 177.22C91.4478 177.22 91.7238 176.764 91.7238 176.32C91.7238 175.552 90.9078 175.468 90.1158 175.3C89.0478 175.06 87.8238 174.736 87.8238 173.464C87.8238 172.408 88.6758 171.7 90.1638 171.7C91.8318 171.7 92.6358 172.6 92.7198 173.656H91.5318C91.4478 173.188 91.2078 172.648 90.1758 172.648C89.3958 172.648 89.0478 172.96 89.0478 173.416C89.0478 174.052 89.7318 174.1 90.6078 174.304ZM100.855 172.624H100.879V169.42H102.067V178H100.879V177.28H100.855C100.531 177.712 99.931 178.168 98.971 178.168C97.411 178.168 96.235 176.956 96.235 174.94C96.235 172.924 97.411 171.7 98.971 171.7C99.931 171.7 100.531 172.144 100.855 172.624ZM99.163 177.196C100.219 177.196 100.879 176.32 100.879 174.94C100.879 173.548 100.219 172.684 99.163 172.684C98.011 172.684 97.459 173.74 97.459 174.94C97.459 176.14 98.011 177.196 99.163 177.196ZM106.068 178.18C104.124 178.18 103.044 176.8 103.044 174.928C103.044 173.008 104.196 171.688 106.068 171.688C107.928 171.688 108.972 172.912 108.972 174.808C108.972 174.976 108.972 175.156 108.96 175.252H104.256C104.28 176.284 104.88 177.22 106.092 177.22C107.172 177.22 107.58 176.524 107.7 176.116H108.888C108.576 177.292 107.676 178.18 106.068 178.18ZM106.032 172.648C105.048 172.648 104.328 173.32 104.256 174.328H107.736C107.736 173.368 107.076 172.648 106.032 172.648ZM109.952 178V171.88H111.128V172.648H111.152C111.476 172.18 112.112 171.7 113.168 171.7C114.296 171.7 115.208 172.348 115.208 173.752V178H114.02V174.076C114.02 173.26 113.66 172.708 112.784 172.708C111.776 172.708 111.128 173.32 111.128 174.244V178H109.952ZM115.872 171.88H116.76V169.912H117.936V171.88H119.112V172.852H117.936V176.308C117.936 176.956 118.116 177.1 118.62 177.1C118.812 177.1 118.908 177.088 119.124 177.052V178C118.812 178.06 118.632 178.072 118.368 178.072C117.372 178.072 116.76 177.688 116.76 176.272V172.852H115.872V171.88ZM121.735 178.168C120.511 178.168 119.731 177.46 119.731 176.416C119.731 175.048 120.763 174.652 122.287 174.352C123.247 174.172 123.835 174.052 123.835 173.452C123.835 173.008 123.571 172.636 122.671 172.636C121.603 172.636 121.279 172.972 121.219 173.788H120.019C120.079 172.612 120.847 171.688 122.719 171.688C123.979 171.688 124.987 172.216 124.987 173.8V176.608C124.987 177.052 125.047 177.28 125.275 177.28C125.311 177.28 125.347 177.28 125.419 177.268V177.988C125.215 178.036 125.011 178.06 124.819 178.06C124.243 178.06 123.919 177.832 123.859 177.136H123.835C123.427 177.772 122.731 178.168 121.735 178.168ZM121.999 177.22C123.055 177.22 123.835 176.68 123.835 175.612V174.736C123.643 174.916 123.115 175.048 122.491 175.18C121.411 175.408 120.967 175.696 120.967 176.332C120.967 176.908 121.267 177.22 121.999 177.22ZM126.286 169.516H127.618V170.788H126.286V169.516ZM126.37 171.88H127.546V178H126.37V171.88ZM128.854 171.88H130.03V173.044H130.054C130.366 172.276 130.87 171.736 131.698 171.736C131.914 171.736 132.082 171.748 132.262 171.772V172.9C132.106 172.876 131.998 172.864 131.866 172.864C130.798 172.864 130.03 173.668 130.03 174.832V178H128.854V171.88ZM135.552 178.18C133.608 178.18 132.528 176.8 132.528 174.928C132.528 173.008 133.68 171.688 135.552 171.688C137.412 171.688 138.456 172.912 138.456 174.808C138.456 174.976 138.456 175.156 138.444 175.252H133.74C133.764 176.284 134.364 177.22 135.576 177.22C136.656 177.22 137.064 176.524 137.184 176.116H138.372C138.06 177.292 137.16 178.18 135.552 178.18ZM135.516 172.648C134.532 172.648 133.812 173.32 133.74 174.328H137.22C137.22 173.368 136.56 172.648 135.516 172.648ZM141.983 174.304C143.099 174.568 144.323 174.892 144.323 176.26C144.323 177.448 143.411 178.168 141.803 178.168C139.943 178.168 139.019 177.208 138.983 175.96H140.171C140.231 176.668 140.651 177.22 141.791 177.22C142.823 177.22 143.099 176.764 143.099 176.32C143.099 175.552 142.283 175.468 141.491 175.3C140.423 175.06 139.199 174.736 139.199 173.464C139.199 172.408 140.051 171.7 141.539 171.7C143.207 171.7 144.011 172.6 144.095 173.656H142.907C142.823 173.188 142.583 172.648 141.551 172.648C140.771 172.648 140.423 172.96 140.423 173.416C140.423 174.052 141.107 174.1 141.983 174.304Z" fill="black"/>
<rect opacity="0.2" x="20" y="50" width="32" height="32" rx="6.4" fill="#FD1774"/>
<g clip-path="url(#clip0_2806_947)">
<path fill-rule="evenodd" clip-rule="evenodd" d="M36.5271 59.2516C37.7564 60.4375 38.4003 61.9622 38.4003 63.5998C38.4003 65.2375 37.6978 66.7622 36.5271 67.948L36.0003 68.3998L35.4734 67.948C34.2442 66.7622 33.6003 65.2375 33.6003 63.5998C33.6003 61.9622 34.2442 60.381 35.4734 59.2516L36.0003 58.7998L36.5271 59.2516ZM29.4303 65.9997H28.8008V66.7079C28.8008 68.4784 29.3778 70.0718 30.4795 71.3111C31.5811 72.5505 32.9975 73.1997 34.5188 73.1997H34.5713H35.2008V72.4915C35.2008 70.721 34.6237 69.1275 33.5221 67.8882C32.4205 66.6489 31.0041 65.9997 29.4303 65.9997ZM43.2008 65.9997H42.5713C41.05 65.9997 39.5811 66.6489 38.4795 67.8882C37.3778 69.1275 36.8008 70.78 36.8008 72.4915V73.1997H37.4303H37.4827C39.0041 73.1997 40.4205 72.5505 41.5221 71.3111C42.6237 70.0718 43.2008 68.4193 43.2008 66.7079V65.9997Z" fill="#FD1774"/>
</g>
<rect opacity="0.2" x="20" y="86" width="32" height="32" rx="4.70588" fill="#64D71E"/>
<path d="M42.277 96.6273C40.6068 95.0064 37.8991 95.0064 36.2289 96.6273L36.0002 96.8492L35.7715 96.6273C34.1013 95.0064 31.3936 95.0064 29.7234 96.6273C28.0532 98.2481 28.0532 100.876 29.7234 102.497L32.976 105.653L35.3447 107.952C35.7099 108.306 36.2905 108.306 36.6556 107.952L39.0242 105.653L42.2769 102.497C43.9471 100.876 43.9471 98.2481 42.277 96.6273ZM38.7089 102.707C38.7089 102.839 38.598 102.947 38.4614 102.947H37.1021V104.266C37.1021 104.399 36.9912 104.506 36.8546 104.506H36.0002H35.146C35.0093 104.506 34.8985 104.399 34.8985 104.266V102.947H33.5392C33.4026 102.947 33.2917 102.839 33.2917 102.707V101.049C33.2917 100.916 33.4026 100.809 33.5392 100.809H34.8985V99.4896C34.8985 99.357 35.0093 99.2494 35.146 99.2494H36.0002H36.8544C36.9911 99.2494 37.1019 99.357 37.1019 99.4896V100.809H38.4612C38.5978 100.809 38.7087 100.916 38.7087 101.049L38.7089 102.707Z" fill="#64D71E"/>
<rect opacity="0.2" x="20" y="122" width="32" height="32" rx="4.70588" fill="#8800FF"/>
<path d="M38.8335 132.09H38.8177C37.7886 132.092 36.7917 132.452 35.9945 133.111C35.0955 132.313 34.2438 131.882 33.4551 131.882C32.9195 131.881 32.3891 131.989 31.8959 132.2C31.4026 132.411 30.9566 132.721 30.5846 133.111C30.0492 133.683 29.6781 134.393 29.5114 135.163C29.3447 135.933 29.3885 136.735 29.6383 137.481C29.6383 137.481 29.6383 137.513 29.654 137.513H31.6571L32.6034 136.014C32.6476 135.94 32.7101 135.879 32.7848 135.837C32.8595 135.795 32.9438 135.773 33.0293 135.774C33.1091 135.78 33.1864 135.804 33.255 135.846C33.3235 135.888 33.3813 135.945 33.4236 136.014L34.7642 138.614L36.1995 136.221C36.237 136.16 36.2877 136.108 36.3478 136.069C36.4078 136.031 36.4758 136.006 36.5465 135.998C36.6174 135.991 36.6889 135.998 36.7567 136.02C36.8246 136.042 36.8872 136.078 36.9408 136.125L38.2499 137.402C38.3387 137.489 38.3902 137.608 38.3931 137.733C38.3961 137.859 38.3503 137.98 38.2657 138.071C38.2227 138.118 38.1708 138.156 38.1131 138.182C38.0554 138.209 37.9931 138.223 37.9299 138.224C37.8667 138.226 37.8038 138.214 37.745 138.191C37.6862 138.167 37.6326 138.132 37.5875 138.087L36.7042 137.226L35.127 139.826C35.088 139.898 35.031 139.958 34.9617 140C34.8925 140.042 34.8135 140.064 34.7327 140.065H34.7169C34.6314 140.059 34.5489 140.031 34.4772 139.984C34.4054 139.936 34.3468 139.871 34.3068 139.794L32.9504 137.178L32.3038 138.215C32.2623 138.286 32.2051 138.346 32.1366 138.39C32.0681 138.434 31.9903 138.462 31.9095 138.47H30.0957C30.2376 138.63 30.4111 138.869 30.6004 139.06L35.6633 143.989C35.7068 144.033 35.7587 144.066 35.8157 144.088C35.8727 144.11 35.9336 144.12 35.9945 144.117C36.1193 144.115 36.2383 144.064 36.3257 143.974L41.4044 139.013C42.1635 138.229 42.5886 137.175 42.5886 136.078C42.5886 134.98 42.1635 133.927 41.4044 133.143C41.0682 132.801 40.6672 132.531 40.2253 132.35C39.7835 132.169 39.3101 132.081 38.8335 132.09Z" fill="#8800FF"/>
<rect opacity="0.2" x="20" y="158" width="32" height="32" rx="4.70588" fill="#01B8C7"/>
<path d="M41.1772 170.941C41.1772 171.668 40.9949 172.297 40.8186 172.904C40.6481 173.492 40.487 174.048 40.487 174.68C40.487 177.78 39.4486 180.118 38.0713 180.118C36.8872 180.118 36.7834 178.686 36.6916 177.423C36.6043 176.215 36.5035 175.359 36.0007 175.359C35.4979 175.359 35.3971 176.215 35.3098 177.423C35.218 178.686 35.1141 180.118 33.9301 180.118C32.5528 180.118 31.5144 177.78 31.5144 174.68C31.5144 174.048 31.3533 173.492 31.1828 172.904C31.0064 172.297 30.8242 171.668 30.8242 170.941C30.8242 169.671 31.6808 167.882 33.585 167.882C34.5865 167.882 35.246 168.207 35.6818 168.422C35.8036 168.482 35.9551 168.556 36.0062 168.562C36.0459 168.556 36.1974 168.482 36.3192 168.422C36.7558 168.207 37.4149 167.882 38.4164 167.882C40.3206 167.882 41.1772 169.671 41.1772 170.941Z" fill="#01B8C7"/>
<rect y="133" width="219" height="76" fill="url(#paint0_linear_2806_947)"/>
<defs>
<linearGradient id="paint0_linear_2806_947" x1="109.5" y1="133" x2="109.5" y2="209" gradientUnits="userSpaceOnUse">
<stop stop-color="white" stop-opacity="0"/>
<stop offset="0.84" stop-color="white"/>
</linearGradient>
<clipPath id="clip0_2806_947">
<rect width="16" height="16" fill="white" transform="translate(28 58)"/>
</clipPath>
</defs>
</svg>
