<svg width="213" height="126" viewBox="0 0 213 126" fill="none" xmlns="http://www.w3.org/2000/svg">
<rect width="213" height="126" fill="white"/>
<rect opacity="0.2" x="20" y="52" width="48" height="48" rx="8" fill="#FFB800"/>
<rect x="21" y="53" width="46" height="46" rx="7" stroke="#FFB800" stroke-width="2"/>
<g clip-path="url(#clip0_2806_875)">
<path d="M52.4877 67.8825C52.4877 69.6572 51.0473 71.059 49.3073 71.059C47.5709 71.059 46.1348 69.6538 46.1348 67.8825C46.1348 66.1284 47.5588 64.7061 49.3073 64.7061C51.0636 64.7061 52.4877 66.1284 52.4877 67.8825Z" fill="#FFB800"/>
<path d="M41.7407 72.7213C41.8274 72.6041 41.7428 72.4383 41.597 72.4398L36.1422 72.4969C35.428 72.4969 34.7516 71.8838 34.7516 71.0195C34.7516 70.2096 35.3798 69.5421 36.1422 69.5421H41.7681C45.8716 69.3582 47.8352 72.4289 48.3625 72.7961C48.8213 73.2385 49.2863 73.8509 49.9075 73.8509H53.8845C54.6663 73.8509 55.3014 74.4821 55.3062 75.2639C55.3111 76.0525 54.6732 76.6944 53.8845 76.6944H47.9236C47.7066 76.6944 47.5005 76.5993 47.3598 76.4341C47.0478 76.0677 46.4747 76.0916 46.1943 76.4826L45.579 77.3406C45.3344 77.6817 45.3479 78.1442 45.6121 78.4704C46.1384 79.1205 47.2355 80.4744 47.1696 80.393C48.2001 81.5028 48.059 83.6102 46.8519 84.5101L43.6566 86.9673C43.1131 87.3648 42.3931 87.3573 41.8566 86.9448C41.4401 86.6073 41.2284 86.1049 41.2284 85.6024C41.2284 85.0774 41.4613 84.5525 41.9272 84.2225L44.1413 82.4703C44.3672 82.2978 44.4095 81.9528 44.226 81.7203C42.8877 80.04 41.2461 80.2364 40.7037 80.1455L35.6496 86.625C35.0745 87.3952 34.028 87.4926 33.3342 86.9099C32.6213 86.3025 32.4942 85.2 33.0661 84.4351L41.7407 72.7213Z" fill="#FFB800"/>
</g>
<path d="M20.896 35V24.99H24.704C27.476 24.99 29.156 26.782 29.156 30.002C29.156 33.222 27.504 35 24.732 35H20.896ZM22.436 26.32V33.67H24.634C26.958 33.67 27.56 31.934 27.56 30.002C27.56 28.07 26.958 26.32 24.634 26.32H22.436ZM33.696 35.21C31.428 35.21 30.168 33.6 30.168 31.416C30.168 29.176 31.512 27.636 33.696 27.636C35.866 27.636 37.084 29.064 37.084 31.276C37.084 31.472 37.084 31.682 37.07 31.794H31.582C31.61 32.998 32.31 34.09 33.724 34.09C34.984 34.09 35.46 33.278 35.6 32.802H36.986C36.622 34.174 35.572 35.21 33.696 35.21ZM33.654 28.756C32.506 28.756 31.666 29.54 31.582 30.716H35.642C35.642 29.596 34.872 28.756 33.654 28.756ZM41.1986 30.688C42.5006 30.996 43.9286 31.374 43.9286 32.97C43.9286 34.356 42.8646 35.196 40.9886 35.196C38.8186 35.196 37.7406 34.076 37.6986 32.62H39.0846C39.1546 33.446 39.6446 34.09 40.9746 34.09C42.1786 34.09 42.5006 33.558 42.5006 33.04C42.5006 32.144 41.5486 32.046 40.6246 31.85C39.3786 31.57 37.9506 31.192 37.9506 29.708C37.9506 28.476 38.9446 27.65 40.6806 27.65C42.6266 27.65 43.5646 28.7 43.6626 29.932H42.2766C42.1786 29.386 41.8986 28.756 40.6946 28.756C39.7846 28.756 39.3786 29.12 39.3786 29.652C39.3786 30.394 40.1766 30.45 41.1986 30.688ZM50.0878 35.196C48.6598 35.196 47.7498 34.37 47.7498 33.152C47.7498 31.556 48.9538 31.094 50.7318 30.744C51.8518 30.534 52.5378 30.394 52.5378 29.694C52.5378 29.176 52.2298 28.742 51.1798 28.742C49.9338 28.742 49.5558 29.134 49.4858 30.086H48.0858C48.1558 28.714 49.0518 27.636 51.2358 27.636C52.7058 27.636 53.8818 28.252 53.8818 30.1V33.376C53.8818 33.894 53.9518 34.16 54.2178 34.16C54.2598 34.16 54.3018 34.16 54.3858 34.146V34.986C54.1478 35.042 53.9098 35.07 53.6858 35.07C53.0138 35.07 52.6358 34.804 52.5658 33.992H52.5378C52.0618 34.734 51.2498 35.196 50.0878 35.196ZM50.3958 34.09C51.6278 34.09 52.5378 33.46 52.5378 32.214V31.192C52.3138 31.402 51.6978 31.556 50.9698 31.71C49.7098 31.976 49.1917 32.312 49.1917 33.054C49.1917 33.726 49.5418 34.09 50.3958 34.09ZM54.3867 27.86H55.8567L57.7187 33.586H57.7467L59.5807 27.86H61.0227L58.4747 35H56.9347L54.3867 27.86ZM63.4178 35.196C61.9898 35.196 61.0798 34.37 61.0798 33.152C61.0798 31.556 62.2838 31.094 64.0618 30.744C65.1818 30.534 65.8678 30.394 65.8678 29.694C65.8678 29.176 65.5598 28.742 64.5098 28.742C63.2638 28.742 62.8858 29.134 62.8158 30.086H61.4158C61.4858 28.714 62.3818 27.636 64.5658 27.636C66.0358 27.636 67.2118 28.252 67.2118 30.1V33.376C67.2118 33.894 67.2818 34.16 67.5478 34.16C67.5898 34.16 67.6318 34.16 67.7158 34.146V34.986C67.4778 35.042 67.2398 35.07 67.0158 35.07C66.3438 35.07 65.9658 34.804 65.8958 33.992H65.8678C65.3918 34.734 64.5798 35.196 63.4178 35.196ZM63.7258 34.09C64.9578 34.09 65.8678 33.46 65.8678 32.214V31.192C65.6438 31.402 65.0278 31.556 64.2998 31.71C63.0398 31.976 62.5218 32.312 62.5218 33.054C62.5218 33.726 62.8718 34.09 63.7258 34.09ZM68.8257 35V27.86H70.1977V28.756H70.2257C70.6037 28.21 71.3457 27.65 72.5777 27.65C73.8937 27.65 74.9577 28.406 74.9577 30.044V35H73.5717V30.422C73.5717 29.47 73.1517 28.826 72.1297 28.826C70.9537 28.826 70.1977 29.54 70.1977 30.618V35H68.8257ZM75.7325 27.86H76.7685V25.564H78.1405V27.86H79.5125V28.994H78.1405V33.026C78.1405 33.782 78.3505 33.95 78.9385 33.95C79.1625 33.95 79.2745 33.936 79.5265 33.894V35C79.1625 35.07 78.9525 35.084 78.6445 35.084C77.4825 35.084 76.7685 34.636 76.7685 32.984V28.994H75.7325V27.86ZM82.5721 35.196C81.1441 35.196 80.2341 34.37 80.2341 33.152C80.2341 31.556 81.4381 31.094 83.2161 30.744C84.3361 30.534 85.0221 30.394 85.0221 29.694C85.0221 29.176 84.7141 28.742 83.6641 28.742C82.4181 28.742 82.0401 29.134 81.9701 30.086H80.5701C80.6401 28.714 81.5361 27.636 83.7201 27.636C85.1901 27.636 86.3661 28.252 86.3661 30.1V33.376C86.3661 33.894 86.4361 34.16 86.7021 34.16C86.7441 34.16 86.7861 34.16 86.8701 34.146V34.986C86.6321 35.042 86.3941 35.07 86.1701 35.07C85.4981 35.07 85.1201 34.804 85.0501 33.992H85.0221C84.5461 34.734 83.7341 35.196 82.5721 35.196ZM82.8801 34.09C84.1121 34.09 85.0221 33.46 85.0221 32.214V31.192C84.7981 31.402 84.1821 31.556 83.4541 31.71C82.1941 31.976 81.6761 32.312 81.6761 33.054C81.6761 33.726 82.0261 34.09 82.8801 34.09ZM92.9523 34.524V33.558H92.9243C92.5323 34.132 91.8743 34.636 90.7263 34.636C88.9483 34.636 87.5763 33.432 87.5763 31.15C87.5763 28.854 88.9483 27.65 90.7263 27.65C91.8743 27.65 92.5323 28.196 92.9243 28.7H92.9523V27.86H94.3243V34.44C94.3243 36.596 93.0223 37.562 90.9783 37.562C88.9343 37.562 87.9123 36.582 87.7723 35.294H89.1863C89.3263 35.938 89.8163 36.442 90.9783 36.442C92.2803 36.442 92.9523 35.868 92.9523 34.524ZM90.9783 28.798C89.6343 28.798 89.0042 29.806 89.0042 31.15C89.0042 32.494 89.6343 33.502 90.9783 33.502C92.2103 33.502 92.9383 32.704 92.9383 31.15C92.9383 29.582 92.2103 28.798 90.9783 28.798ZM99.0066 35.21C96.7386 35.21 95.4786 33.6 95.4786 31.416C95.4786 29.176 96.8226 27.636 99.0066 27.636C101.177 27.636 102.395 29.064 102.395 31.276C102.395 31.472 102.395 31.682 102.381 31.794H96.8926C96.9206 32.998 97.6206 34.09 99.0346 34.09C100.295 34.09 100.771 33.278 100.911 32.802H102.297C101.933 34.174 100.883 35.21 99.0066 35.21ZM98.9646 28.756C97.8166 28.756 96.9766 29.54 96.8926 30.716H100.953C100.953 29.596 100.183 28.756 98.9646 28.756ZM106.509 30.688C107.811 30.996 109.239 31.374 109.239 32.97C109.239 34.356 108.175 35.196 106.299 35.196C104.129 35.196 103.051 34.076 103.009 32.62H104.395C104.465 33.446 104.955 34.09 106.285 34.09C107.489 34.09 107.811 33.558 107.811 33.04C107.811 32.144 106.859 32.046 105.935 31.85C104.689 31.57 103.261 31.192 103.261 29.708C103.261 28.476 104.255 27.65 105.991 27.65C107.937 27.65 108.875 28.7 108.973 29.932H107.587C107.489 29.386 107.209 28.756 106.005 28.756C105.095 28.756 104.689 29.12 104.689 29.652C104.689 30.394 105.487 30.45 106.509 30.688ZM116.462 30.688C117.764 30.996 119.192 31.374 119.192 32.97C119.192 34.356 118.128 35.196 116.252 35.196C114.082 35.196 113.004 34.076 112.962 32.62H114.348C114.418 33.446 114.908 34.09 116.238 34.09C117.442 34.09 117.764 33.558 117.764 33.04C117.764 32.144 116.812 32.046 115.888 31.85C114.642 31.57 113.214 31.192 113.214 29.708C113.214 28.476 114.208 27.65 115.944 27.65C117.89 27.65 118.828 28.7 118.926 29.932H117.54C117.442 29.386 117.162 28.756 115.958 28.756C115.048 28.756 114.642 29.12 114.642 29.652C114.642 30.394 115.44 30.45 116.462 30.688ZM121.562 32.424C121.562 33.39 121.982 34.034 123.004 34.034C124.18 34.034 124.936 33.32 124.936 32.242V27.86H126.308V35H124.936V34.104H124.908C124.53 34.65 123.788 35.196 122.556 35.196C121.24 35.196 120.176 34.44 120.176 32.802V27.86H121.562V32.424ZM127.847 27.86H129.219V29.218H129.247C129.611 28.322 130.199 27.692 131.165 27.692C131.417 27.692 131.613 27.706 131.823 27.734V29.05C131.641 29.022 131.515 29.008 131.361 29.008C130.115 29.008 129.219 29.946 129.219 31.304V35H127.847V27.86ZM135.914 35V27.86H137.286V28.756H137.314C137.692 28.21 138.35 27.65 139.428 27.65C140.422 27.65 141.024 28.098 141.318 28.896H141.346C141.864 28.21 142.578 27.65 143.684 27.65C145.126 27.65 145.854 28.518 145.854 30.044V35H144.482V30.422C144.482 29.47 144.286 28.826 143.236 28.826C142.214 28.826 141.57 29.54 141.57 30.618V35H140.198V30.422C140.198 29.47 140.002 28.826 138.952 28.826C137.93 28.826 137.286 29.54 137.286 30.618V35H135.914ZM150.468 35.21C148.2 35.21 146.94 33.6 146.94 31.416C146.94 29.176 148.284 27.636 150.468 27.636C152.638 27.636 153.856 29.064 153.856 31.276C153.856 31.472 153.856 31.682 153.842 31.794H148.354C148.382 32.998 149.082 34.09 150.496 34.09C151.756 34.09 152.232 33.278 152.372 32.802H153.758C153.394 34.174 152.344 35.21 150.468 35.21ZM150.426 28.756C149.278 28.756 148.438 29.54 148.354 30.716H152.414C152.414 29.596 151.644 28.756 150.426 28.756ZM157.97 30.688C159.272 30.996 160.7 31.374 160.7 32.97C160.7 34.356 159.636 35.196 157.76 35.196C155.59 35.196 154.512 34.076 154.47 32.62H155.856C155.926 33.446 156.416 34.09 157.746 34.09C158.95 34.09 159.272 33.558 159.272 33.04C159.272 32.144 158.32 32.046 157.396 31.85C156.15 31.57 154.722 31.192 154.722 29.708C154.722 28.476 155.716 27.65 157.452 27.65C159.398 27.65 160.336 28.7 160.434 29.932H159.048C158.95 29.386 158.67 28.756 157.466 28.756C156.556 28.756 156.15 29.12 156.15 29.652C156.15 30.394 156.948 30.45 157.97 30.688ZM163.069 32.424C163.069 33.39 163.489 34.034 164.511 34.034C165.687 34.034 166.443 33.32 166.443 32.242V27.86H167.815V35H166.443V34.104H166.415C166.037 34.65 165.295 35.196 164.063 35.196C162.747 35.196 161.683 34.44 161.683 32.802V27.86H163.069V32.424ZM169.355 27.86H170.727V29.218H170.755C171.119 28.322 171.707 27.692 172.673 27.692C172.925 27.692 173.121 27.706 173.331 27.734V29.05C173.149 29.022 173.023 29.008 172.869 29.008C171.623 29.008 170.727 29.946 170.727 31.304V35H169.355V27.86ZM177.169 35.21C174.901 35.21 173.641 33.6 173.641 31.416C173.641 29.176 174.985 27.636 177.169 27.636C179.339 27.636 180.557 29.064 180.557 31.276C180.557 31.472 180.557 31.682 180.543 31.794H175.055C175.083 32.998 175.783 34.09 177.197 34.09C178.457 34.09 178.933 33.278 179.073 32.802H180.459C180.095 34.174 179.045 35.21 177.169 35.21ZM177.127 28.756C175.979 28.756 175.139 29.54 175.055 30.716H179.115C179.115 29.596 178.345 28.756 177.127 28.756Z" fill="black"/>
<rect opacity="0.2" x="78" y="53.5215" width="44" height="44" rx="8" fill="#FD1774"/>
<g clip-path="url(#clip1_2806_875)">
<path d="M105.91 71.5969H105.906C104.255 71.5969 102.912 70.2624 102.912 68.6207C102.912 66.979 104.255 65.6445 105.91 65.6445C107.561 65.6445 108.904 66.979 108.904 68.6207C108.904 70.258 107.561 71.5925 105.91 71.5969Z" fill="#FD1774"/>
<path d="M100.024 78.3218C101.613 78.3218 103.11 79.5114 103.926 81.4296C104.334 82.391 104.08 83.5015 103.294 84.1907C102.535 84.8579 101.6 85.2706 100.594 85.3847L100.542 85.3891C100.37 85.3935 100.199 85.3979 100.028 85.3979C99.8569 85.3979 99.6857 85.3935 99.5145 85.3891L99.4618 85.3847C98.4522 85.2706 97.5172 84.8579 96.7622 84.1907C95.9765 83.5015 95.7219 82.391 96.1301 81.4296C96.9378 79.5114 98.4347 78.3218 100.024 78.3218Z" fill="#FD1774"/>
<path d="M100.024 77.5841C98.83 77.5841 97.8555 76.6183 97.8555 75.4287C97.8555 74.2392 98.8256 73.2734 100.024 73.2734C101.218 73.2734 102.192 74.2392 102.192 75.4287C102.192 76.6183 101.218 77.5841 100.024 77.5841Z" fill="#FD1774"/>
<path d="M94.1453 71.5969H94.1365C92.846 71.5969 91.7969 70.5521 91.7969 69.2704C91.7969 67.9886 92.846 66.9438 94.1409 66.9438C95.4315 66.9438 96.485 67.9886 96.485 69.2704C96.4806 70.5477 95.4359 71.5925 94.1453 71.5969Z" fill="#FD1774"/>
<path d="M89.0746 77.0928C89.237 75.3457 90.1983 73.8401 91.7083 72.9665C92.4765 72.5188 93.293 72.2949 94.1314 72.2905H94.1446C95.1805 72.2905 96.2165 72.6549 97.1383 73.344L97.4105 73.546L97.2393 73.8401C96.9583 74.3229 96.8091 74.876 96.8091 75.4335C96.8091 76.1929 97.0856 76.9304 97.5861 77.5098L97.867 77.8346L97.5071 78.0717C96.5106 78.7345 95.6985 79.7529 95.1586 81.0303C95.1454 81.0654 95.1323 81.0961 95.1191 81.1312C94.7416 82.1014 94.8733 83.1988 95.4351 84.0767L95.6854 84.4674L94.5616 83.9933C93.2447 83.4358 92.0332 82.6852 90.9533 81.759C89.5925 80.5825 88.9034 78.8838 89.0746 77.0928Z" fill="#FD1774"/>
<path d="M104.935 81.1269C104.922 81.0917 104.909 81.061 104.896 81.0259C104.356 79.7529 103.544 78.7301 102.547 78.0673L102.188 77.8302L102.468 77.5054C102.969 76.926 103.245 76.1885 103.245 75.4291C103.245 74.8716 103.096 74.3185 102.815 73.8357L102.644 73.5416L102.916 73.3396C103.838 72.6549 104.87 72.2905 105.906 72.2905H105.914C106.753 72.2905 107.569 72.5188 108.342 72.9665C109.852 73.8401 110.813 75.3457 110.976 77.0928C111.142 78.8838 110.458 80.5869 109.092 81.759C108.017 82.6852 106.801 83.4358 105.484 83.9933L104.246 84.5244L104.523 84.1381C105.155 83.269 105.326 82.1321 104.935 81.1269Z" fill="#FD1774"/>
</g>
<rect opacity="0.2" x="128.451" y="53.2261" width="44" height="44" rx="8.10518" fill="#01B8C7"/>
<path fill-rule="evenodd" clip-rule="evenodd" d="M149.757 68.4521C149.954 70.3118 149.055 71.9313 147.749 72.0692C146.442 72.2072 145.224 70.8114 145.027 68.9517C144.829 67.092 145.729 65.4726 147.035 65.3346C148.341 65.1966 149.56 66.5924 149.757 68.4521ZM155.873 68.9612C156.07 67.1014 155.171 65.482 153.865 65.344C152.559 65.2061 151.34 66.6018 151.143 68.4616C150.946 70.3213 151.845 71.9407 153.151 72.0787C154.458 72.2166 155.676 70.8209 155.873 68.9612ZM157.633 80.5521L157.566 80.3323L157.434 79.9805L157.346 79.7606L157.104 79.3209L156.774 78.9031L156.333 78.5074L155.827 78.0457L155.408 77.6499L155.012 77.2102L154.682 76.7704L154.373 76.3087L154.043 75.6931L153.845 75.2754L153.603 74.8136L153.294 74.3079L152.942 73.8462L152.7 73.6044L152.458 73.3845L152.127 73.1427L151.731 72.9668L151.224 72.7909L150.718 72.7249H150.189L149.683 72.7909L148.956 73.0547L148.251 73.5384L147.789 74.0001L147.503 74.4399L147.216 74.9456L146.842 75.7151L146.49 76.3967L146.093 76.9244L145.609 77.54L144.177 78.8592L144.045 78.9691L143.715 79.4308L143.451 79.9585L143.297 80.6181L143.209 81.2117L143.187 81.8713L143.253 82.3111L143.451 82.9267L143.737 83.4984L144.045 83.8941L144.442 84.2899L144.97 84.6417L145.587 84.9275L146.049 85.0374L146.754 85.0594L147.437 84.9055L147.855 84.7076L148.031 84.5757L148.428 84.3558L148.802 84.136L149.132 83.9381L149.485 83.7842L149.771 83.6523L150.101 83.5643L150.454 83.5423L150.872 83.6083L151.18 83.6742L151.687 83.9161L152.303 84.2239L152.81 84.5537L153.272 84.8176L153.735 85.0154L154.175 85.1034L154.55 85.1254L154.858 85.1034L155.342 84.9715L155.959 84.6856L156.399 84.3778L156.862 83.9161L157.192 83.4764L157.478 82.8827L157.655 82.3111L157.721 81.8274V81.3217L157.699 81.0359L157.633 80.5521ZM160.239 74.4736C160.644 72.6601 159.932 70.9589 158.65 70.6738C157.368 70.3887 156.001 71.6277 155.596 73.4411C155.192 75.2546 155.903 76.9558 157.185 77.2409C158.467 77.526 159.835 76.2871 160.239 74.4736ZM145.309 73.441C145.714 75.2544 145.002 76.9556 143.72 77.2407C142.438 77.5258 141.071 76.2869 140.666 74.4734C140.262 72.66 140.973 70.9587 142.255 70.6736C143.537 70.3885 144.905 71.6275 145.309 73.441Z" fill="#01B8C7"/>
<path opacity="0.2" d="M178.701 60.8296C178.701 56.5054 182.207 53 186.531 53H206.201V97H186.531C182.207 97 178.701 93.4946 178.701 89.1704V60.8296Z" fill="#64D71E"/>
<g clip-path="url(#clip2_2806_875)">
<path d="M206.191 72.5467L208.897 70.1624C209.456 69.6693 209.898 69.0584 210.193 68.3738C210.487 67.6892 210.626 66.9478 210.6 66.2031C210.591 65.9142 210.472 65.6396 210.268 65.4352C210.063 65.2308 209.788 65.1121 209.499 65.1033C208.755 65.0768 208.013 65.2157 207.328 65.5101C206.644 65.8045 206.033 66.247 205.539 66.8058L203.154 69.5113L193.474 66.0711C193.233 65.9865 192.973 65.9717 192.724 66.0285C192.475 66.0854 192.247 66.2114 192.066 66.3922L190.918 67.5228C190.876 67.5638 190.844 67.6137 190.825 67.6686C190.806 67.7236 190.799 67.7822 190.805 67.8401C190.811 67.8981 190.831 67.9538 190.862 68.0032C190.893 68.0527 190.934 68.0945 190.984 68.1255L199.586 73.5673L195.525 78.1689L193.826 78.3097C193.507 78.3378 193.209 78.4763 192.981 78.7012L192.343 79.3567C192.296 79.4043 192.263 79.463 192.245 79.5273C192.227 79.5916 192.226 79.6594 192.242 79.7241C192.258 79.7889 192.29 79.8486 192.336 79.8974C192.381 79.9463 192.438 79.9828 192.502 80.0034L194.939 80.7644L195.701 83.2192C195.723 83.2812 195.761 83.3366 195.811 83.38C195.861 83.4235 195.921 83.4536 195.985 83.4677C196.05 83.4817 196.117 83.4792 196.18 83.4604C196.243 83.4415 196.301 83.407 196.347 83.36L197.003 82.7045C197.228 82.4771 197.366 82.1784 197.395 81.8598L197.535 80.1617L202.138 76.1013L207.563 84.7193C207.594 84.7686 207.636 84.8103 207.686 84.8412C207.735 84.8721 207.791 84.8914 207.849 84.8978C207.907 84.9041 207.965 84.8973 208.02 84.8778C208.075 84.8584 208.125 84.8267 208.166 84.7853L209.31 83.6415C209.491 83.461 209.617 83.2331 209.674 82.984C209.731 82.7349 209.716 82.4748 209.632 82.2338L206.191 72.5467Z" fill="#64D71E"/>
</g>
<rect x="181" y="51.1001" width="28" height="48.8" fill="url(#paint0_linear_2806_875)"/>
<defs>
<linearGradient id="paint0_linear_2806_875" x1="209" y1="75.9001" x2="181" y2="75.9001" gradientUnits="userSpaceOnUse">
<stop stop-color="white"/>
<stop offset="1" stop-color="white" stop-opacity="0"/>
</linearGradient>
<clipPath id="clip0_2806_875">
<rect width="24" height="24" fill="white" transform="translate(32 64)"/>
</clipPath>
<clipPath id="clip1_2806_875">
<rect x="89" y="64.5215" width="22" height="22" rx="8" fill="white"/>
</clipPath>
<clipPath id="clip2_2806_875">
<rect width="16.5" height="22" fill="white" transform="translate(189.703 63.9995)"/>
</clipPath>
</defs>
</svg>
