<svg width="200" height="171" viewBox="0 0 200 171" fill="none" xmlns="http://www.w3.org/2000/svg">
<rect width="200" height="171" fill="white"/>
<path d="M103 66C103 59.9249 107.925 55 114 55H169C175.075 55 180 59.9249 180 66V66C180 72.0751 175.075 77 169 77H114C107.925 77 103 72.0751 103 66V66Z" fill="#D9F4F7"/>
<path d="M116.59 65.08C116.41 64.23 115.75 63.72 114.69 63.72C113.16 63.72 112.53 65.08 112.53 66.42C112.53 67.77 113.02 69.13 114.65 69.13C115.78 69.13 116.68 68.35 116.69 67.21H114.67V66.25H117.9V70H117.08L116.82 69.02H116.8C116.32 69.74 115.65 70.15 114.57 70.15C112.5 70.15 111.34 68.58 111.34 66.42C111.34 64.27 112.64 62.7 114.7 62.7C116.56 62.7 117.56 63.71 117.78 65.08H116.59ZM121.162 69.29C122.032 69.29 122.382 68.75 122.472 68.44H123.522C123.262 69.41 122.502 70.15 121.192 70.15C119.602 70.15 118.632 69.05 118.632 67.45C118.632 65.79 119.602 64.75 121.142 64.75C122.792 64.75 123.602 65.9 123.602 67.72H119.682C119.682 68.58 120.232 69.29 121.162 69.29ZM121.142 65.58C120.292 65.58 119.682 66.15 119.682 66.94H122.552C122.552 66.15 121.992 65.58 121.142 65.58ZM126.532 66.91C127.472 67.13 128.492 67.34 128.492 68.56C128.492 69.54 127.652 70.15 126.412 70.15C124.762 70.15 124.052 69.38 124.002 68.3H125.022C125.072 68.85 125.312 69.32 126.392 69.32C127.122 69.32 127.432 68.96 127.432 68.64C127.432 68 126.822 67.95 126.072 67.77C125.262 67.58 124.162 67.42 124.162 66.26C124.162 65.42 124.902 64.75 126.182 64.75C127.572 64.75 128.232 65.5 128.302 66.39H127.282C127.212 65.99 127.012 65.58 126.192 65.58C125.562 65.58 125.222 65.82 125.222 66.18C125.222 66.7 125.792 66.74 126.532 66.91ZM131.518 65.75H130.558V68.52C130.558 69.1 130.838 69.17 131.518 69.13V69.99C131.308 70.04 131.078 70.07 130.798 70.07C129.958 70.07 129.498 69.69 129.498 68.61V65.75H128.758V64.89H129.498V63.28H130.558V64.89H131.518V65.75ZM132.871 64.03C132.581 64.03 132.281 63.83 132.281 63.47C132.281 63.11 132.581 62.92 132.871 62.92C133.181 62.92 133.471 63.11 133.471 63.47C133.471 63.83 133.181 64.03 132.871 64.03ZM132.351 64.89H133.401V70H132.351V64.89ZM136.769 70.15C135.169 70.15 134.199 69.04 134.199 67.45C134.199 65.86 135.169 64.75 136.769 64.75C138.369 64.75 139.339 65.86 139.339 67.45C139.339 69.04 138.369 70.15 136.769 70.15ZM136.769 69.29C137.769 69.29 138.289 68.5 138.289 67.45C138.289 66.39 137.769 65.61 136.769 65.61C135.769 65.61 135.249 66.39 135.249 67.45C135.249 68.5 135.769 69.29 136.769 69.29ZM142.814 64.75C143.764 64.75 144.514 65.3 144.514 66.47V70H143.454V66.77C143.454 66.08 143.164 65.64 142.444 65.64C141.634 65.64 141.114 66.13 141.114 66.89V70H140.064V64.89H141.114V65.55H141.134C141.404 65.15 141.934 64.75 142.814 64.75ZM148.225 64.75C149.175 64.75 149.925 65.3 149.925 66.47V70H148.865V66.77C148.865 66.08 148.575 65.64 147.855 65.64C147.045 65.64 146.525 66.13 146.525 66.89V70H145.475V64.89H146.525V65.55H146.545C146.815 65.15 147.345 64.75 148.225 64.75ZM153.975 66.23C153.975 65.86 153.755 65.58 153.055 65.58C152.215 65.58 151.905 65.84 151.855 66.5H150.835C150.885 65.52 151.515 64.75 153.055 64.75C154.185 64.75 155.025 65.18 155.025 66.54V68.97C155.025 69.33 155.105 69.52 155.515 69.48V69.98C155.275 70.07 155.105 70.09 154.905 70.09C154.345 70.09 154.085 69.89 153.985 69.39H153.965C153.645 69.84 153.065 70.15 152.275 70.15C151.235 70.15 150.595 69.55 150.595 68.69C150.595 67.57 151.425 67.22 152.705 66.97C153.495 66.82 153.975 66.72 153.975 66.23ZM152.505 69.32C153.375 69.32 153.975 68.89 153.975 68.06V67.29C153.805 67.41 153.395 67.53 152.905 67.63C152.035 67.82 151.655 68.07 151.655 68.59C151.655 69.06 151.935 69.32 152.505 69.32ZM156.719 64.03C156.429 64.03 156.129 63.83 156.129 63.47C156.129 63.11 156.429 62.92 156.719 62.92C157.029 62.92 157.319 63.11 157.319 63.47C157.319 63.83 157.029 64.03 156.719 64.03ZM156.199 64.89H157.249V70H156.199V64.89ZM160.746 64.77C160.926 64.77 161.056 64.78 161.206 64.8V65.79H161.186C160.176 65.62 159.366 66.3 159.366 67.39V70H158.316V64.89H159.366V65.85H159.386C159.656 65.21 160.076 64.77 160.746 64.77ZM163.975 69.29C164.845 69.29 165.195 68.75 165.285 68.44H166.335C166.075 69.41 165.315 70.15 164.005 70.15C162.415 70.15 161.445 69.05 161.445 67.45C161.445 65.79 162.415 64.75 163.955 64.75C165.605 64.75 166.415 65.9 166.415 67.72H162.495C162.495 68.58 163.045 69.29 163.975 69.29ZM163.955 65.58C163.105 65.58 162.495 66.15 162.495 66.94H165.365C165.365 66.15 164.805 65.58 163.955 65.58ZM169.345 66.91C170.285 67.13 171.305 67.34 171.305 68.56C171.305 69.54 170.465 70.15 169.225 70.15C167.575 70.15 166.865 69.38 166.815 68.3H167.835C167.885 68.85 168.125 69.32 169.205 69.32C169.935 69.32 170.245 68.96 170.245 68.64C170.245 68 169.635 67.95 168.885 67.77C168.075 67.58 166.975 67.42 166.975 66.26C166.975 65.42 167.715 64.75 168.995 64.75C170.385 64.75 171.045 65.5 171.115 66.39H170.095C170.025 65.99 169.825 65.58 169.005 65.58C168.375 65.58 168.035 65.82 168.035 66.18C168.035 66.7 168.605 66.74 169.345 66.91Z" fill="black"/>
<path d="M103 104C103 97.9249 107.925 93 114 93H169C175.075 93 180 97.9249 180 104V104C180 110.075 175.075 115 169 115H114C107.925 115 103 110.075 103 104V104Z" fill="#FFDCEA"/>
<path d="M111.61 108V100.85H114.39C116.36 100.85 117.57 102.13 117.57 104.43C117.57 106.73 116.4 108 114.42 108H111.61ZM112.8 101.86V106.99H114.33C115.93 106.99 116.38 105.8 116.38 104.43C116.38 103.06 115.93 101.86 114.33 101.86H112.8ZM121.854 100.77L121.024 102.08H120.204L120.634 100.77H121.854ZM120.674 107.29C121.544 107.29 121.894 106.75 121.984 106.44H123.034C122.774 107.41 122.014 108.15 120.704 108.15C119.114 108.15 118.144 107.05 118.144 105.45C118.144 103.79 119.114 102.75 120.654 102.75C122.304 102.75 123.114 103.9 123.114 105.72H119.194C119.194 106.58 119.744 107.29 120.674 107.29ZM120.654 103.58C119.804 103.58 119.194 104.15 119.194 104.94H122.064C122.064 104.15 121.504 103.58 120.654 103.58ZM123.217 102.89H124.327L125.617 106.89H125.627L126.917 102.89H128.027L126.217 108H125.027L123.217 102.89ZM130.664 107.29C131.534 107.29 131.884 106.75 131.974 106.44H133.024C132.764 107.41 132.004 108.15 130.694 108.15C129.104 108.15 128.134 107.05 128.134 105.45C128.134 103.79 129.104 102.75 130.644 102.75C132.294 102.75 133.104 103.9 133.104 105.72H129.184C129.184 106.58 129.734 107.29 130.664 107.29ZM130.644 103.58C129.794 103.58 129.184 104.15 129.184 104.94H132.054C132.054 104.15 131.494 103.58 130.644 103.58ZM133.844 100.85H134.904V108H133.844V100.85ZM138.224 108.15C136.624 108.15 135.654 107.04 135.654 105.45C135.654 103.86 136.624 102.75 138.224 102.75C139.824 102.75 140.794 103.86 140.794 105.45C140.794 107.04 139.824 108.15 138.224 108.15ZM138.224 107.29C139.224 107.29 139.744 106.5 139.744 105.45C139.744 104.39 139.224 103.61 138.224 103.61C137.224 103.61 136.704 104.39 136.704 105.45C136.704 106.5 137.224 107.29 138.224 107.29ZM144.17 102.75C145.47 102.75 146.44 103.77 146.44 105.45C146.44 107.13 145.47 108.15 144.17 108.15C143.37 108.15 142.87 107.77 142.6 107.39H142.58V109.74H141.52V102.89H142.58V103.49H142.6C142.87 103.13 143.37 102.75 144.17 102.75ZM143.97 107.29C144.89 107.29 145.38 106.45 145.38 105.45C145.38 104.45 144.89 103.61 143.97 103.61C143.12 103.61 142.59 104.31 142.59 105.45C142.59 106.58 143.12 107.29 143.97 107.29ZM149.853 102.75C151.153 102.75 152.123 103.77 152.123 105.45C152.123 107.13 151.153 108.15 149.853 108.15C149.053 108.15 148.553 107.77 148.283 107.39H148.263V109.74H147.203V102.89H148.263V103.49H148.283C148.553 103.13 149.053 102.75 149.853 102.75ZM149.653 107.29C150.573 107.29 151.063 106.45 151.063 105.45C151.063 104.45 150.573 103.61 149.653 103.61C148.803 103.61 148.273 104.31 148.273 105.45C148.273 106.58 148.803 107.29 149.653 107.29ZM155.147 107.29C156.017 107.29 156.367 106.75 156.457 106.44H157.507C157.247 107.41 156.487 108.15 155.177 108.15C153.587 108.15 152.617 107.05 152.617 105.45C152.617 103.79 153.587 102.75 155.127 102.75C156.777 102.75 157.587 103.9 157.587 105.72H153.667C153.667 106.58 154.217 107.29 155.147 107.29ZM155.127 103.58C154.277 103.58 153.667 104.15 153.667 104.94H156.537C156.537 104.15 155.977 103.58 155.127 103.58ZM161.667 102.89H162.717V108H161.667V107.34H161.647C161.377 107.74 160.847 108.14 159.967 108.14C159.017 108.14 158.267 107.59 158.267 106.42V102.89H159.327V106.12C159.327 106.81 159.617 107.25 160.337 107.25C161.147 107.25 161.667 106.76 161.667 106V102.89ZM166.147 102.77C166.327 102.77 166.457 102.78 166.607 102.8V103.79H166.587C165.577 103.62 164.767 104.3 164.767 105.39V108H163.717V102.89H164.767V103.85H164.787C165.057 103.21 165.477 102.77 166.147 102.77ZM169.491 104.91C170.431 105.13 171.451 105.34 171.451 106.56C171.451 107.54 170.611 108.15 169.371 108.15C167.721 108.15 167.011 107.38 166.961 106.3H167.981C168.031 106.85 168.271 107.32 169.351 107.32C170.081 107.32 170.391 106.96 170.391 106.64C170.391 106 169.781 105.95 169.031 105.77C168.221 105.58 167.121 105.42 167.121 104.26C167.121 103.42 167.861 102.75 169.141 102.75C170.531 102.75 171.191 103.5 171.261 104.39H170.241C170.171 103.99 169.971 103.58 169.151 103.58C168.521 103.58 168.181 103.82 168.181 104.18C168.181 104.7 168.751 104.74 169.491 104.91Z" fill="black"/>
<path d="M130 142C130 135.925 134.925 131 141 131H169C175.075 131 180 135.925 180 142V142C180 148.075 175.075 153 169 153H141C134.925 153 130 148.075 130 142V142Z" fill="#E8F9DD"/>
<path d="M141.32 141.74C142.85 142.13 144.01 142.46 144.01 144.06C144.01 145.2 143.15 146.15 141.35 146.15C139.6 146.15 138.27 145.24 138.2 143.62H139.39C139.45 144.53 140.07 145.13 141.35 145.13C142.41 145.13 142.82 144.66 142.82 144.11C142.82 143.26 142.21 143.1 140.8 142.75C139.68 142.47 138.47 142.04 138.47 140.68C138.47 139.41 139.45 138.7 141.01 138.7C142.58 138.7 143.72 139.52 143.82 140.99H142.63C142.52 140.16 142 139.72 141.01 139.72C140.16 139.72 139.65 140.04 139.65 140.57C139.65 141.35 140.32 141.49 141.32 141.74ZM147.108 145.29C147.978 145.29 148.328 144.75 148.418 144.44H149.468C149.208 145.41 148.448 146.15 147.138 146.15C145.548 146.15 144.578 145.05 144.578 143.45C144.578 141.79 145.548 140.75 147.088 140.75C148.738 140.75 149.548 141.9 149.548 143.72H145.628C145.628 144.58 146.178 145.29 147.108 145.29ZM147.088 141.58C146.238 141.58 145.628 142.15 145.628 142.94H148.498C148.498 142.15 147.938 141.58 147.088 141.58ZM153.018 140.75C153.968 140.75 154.718 141.3 154.718 142.47V146H153.658V142.77C153.658 142.08 153.368 141.64 152.648 141.64C151.838 141.64 151.318 142.13 151.318 142.89V146H150.268V140.89H151.318V141.55H151.338C151.608 141.15 152.138 140.75 153.018 140.75ZM156.268 140.03C155.978 140.03 155.678 139.83 155.678 139.47C155.678 139.11 155.978 138.92 156.268 138.92C156.578 138.92 156.868 139.11 156.868 139.47C156.868 139.83 156.578 140.03 156.268 140.03ZM155.748 140.89H156.798V146H155.748V140.89ZM160.165 146.15C158.565 146.15 157.595 145.04 157.595 143.45C157.595 141.86 158.565 140.75 160.165 140.75C161.765 140.75 162.735 141.86 162.735 143.45C162.735 145.04 161.765 146.15 160.165 146.15ZM160.165 145.29C161.165 145.29 161.685 144.5 161.685 143.45C161.685 142.39 161.165 141.61 160.165 141.61C159.165 141.61 158.645 142.39 158.645 143.45C158.645 144.5 159.165 145.29 160.165 145.29ZM165.891 140.77C166.071 140.77 166.201 140.78 166.351 140.8V141.79H166.331C165.321 141.62 164.511 142.3 164.511 143.39V146H163.461V140.89H164.511V141.85H164.531C164.801 141.21 165.221 140.77 165.891 140.77ZM169.235 142.91C170.175 143.13 171.195 143.34 171.195 144.56C171.195 145.54 170.355 146.15 169.115 146.15C167.465 146.15 166.755 145.38 166.705 144.3H167.725C167.775 144.85 168.015 145.32 169.095 145.32C169.825 145.32 170.135 144.96 170.135 144.64C170.135 144 169.525 143.95 168.775 143.77C167.965 143.58 166.865 143.42 166.865 142.26C166.865 141.42 167.605 140.75 168.885 140.75C170.275 140.75 170.935 141.5 171.005 142.39H169.985C169.915 141.99 169.715 141.58 168.895 141.58C168.265 141.58 167.925 141.82 167.925 142.18C167.925 142.7 168.495 142.74 169.235 142.91Z" fill="black"/>
<path opacity="0.1" d="M20 85L180 85" stroke="black" stroke-linecap="square"/>
<path opacity="0.1" d="M20 123L180 123" stroke="black" stroke-linecap="square"/>
<path d="M20.768 70V61.42H24.344C25.964 61.42 27.164 62.176 27.164 63.976C27.164 65.776 25.964 66.52 24.344 66.52H22.088V70H20.768ZM22.088 65.38H24.284C25.28 65.38 25.784 64.936 25.784 63.976C25.784 63.004 25.28 62.56 24.284 62.56H22.088V65.38ZM29.395 70.168C28.171 70.168 27.391 69.46 27.391 68.416C27.391 67.048 28.423 66.652 29.947 66.352C30.907 66.172 31.495 66.052 31.495 65.452C31.495 65.008 31.231 64.636 30.331 64.636C29.263 64.636 28.939 64.972 28.879 65.788H27.679C27.739 64.612 28.507 63.688 30.379 63.688C31.639 63.688 32.647 64.216 32.647 65.8V68.608C32.647 69.052 32.707 69.28 32.935 69.28C32.971 69.28 33.007 69.28 33.079 69.268V69.988C32.875 70.036 32.671 70.06 32.479 70.06C31.903 70.06 31.579 69.832 31.519 69.136H31.495C31.087 69.772 30.391 70.168 29.395 70.168ZM29.659 69.22C30.715 69.22 31.495 68.68 31.495 67.612V66.736C31.303 66.916 30.775 67.048 30.151 67.18C29.071 67.408 28.627 67.696 28.627 68.332C28.627 68.908 28.927 69.22 29.659 69.22ZM35.2303 69.244H35.2063V70H34.0303V61.42H35.2063V64.6H35.2303C35.5663 64.168 36.1543 63.7 37.1143 63.7C38.6743 63.7 39.8623 64.924 39.8623 66.94C39.8623 68.956 38.6743 70.168 37.1143 70.168C36.1543 70.168 35.5663 69.736 35.2303 69.244ZM36.9223 64.684C35.8663 64.684 35.2183 65.548 35.2183 66.94C35.2183 68.32 35.8663 69.196 36.9223 69.196C38.0743 69.196 38.6263 68.14 38.6263 66.94C38.6263 65.74 38.0743 64.684 36.9223 64.684ZM40.8388 61.42H42.0148V70H40.8388V61.42ZM46.0489 70.18C44.1409 70.18 42.9889 68.86 42.9889 66.94C42.9889 65.032 44.1409 63.688 46.0489 63.688C47.9569 63.688 49.1089 65.02 49.1089 66.928C49.1089 68.848 47.9569 70.18 46.0489 70.18ZM46.0489 69.208C47.2969 69.208 47.8849 68.212 47.8849 66.94C47.8849 65.656 47.2969 64.672 46.0489 64.672C44.7889 64.672 44.2129 65.656 44.2129 66.94C44.2129 68.212 44.7889 69.208 46.0489 69.208Z" fill="black"/>
<path d="M20.768 108V99.42H24.032C26.408 99.42 27.848 100.956 27.848 103.716C27.848 106.476 26.432 108 24.056 108H20.768ZM22.088 100.56V106.86H23.972C25.964 106.86 26.48 105.372 26.48 103.716C26.48 102.06 25.964 100.56 23.972 100.56H22.088ZM30.5083 108.168C29.2843 108.168 28.5043 107.46 28.5043 106.416C28.5043 105.048 29.5363 104.652 31.0603 104.352C32.0203 104.172 32.6083 104.052 32.6083 103.452C32.6083 103.008 32.3443 102.636 31.4443 102.636C30.3763 102.636 30.0523 102.972 29.9923 103.788H28.7923C28.8523 102.612 29.6203 101.688 31.4923 101.688C32.7523 101.688 33.7603 102.216 33.7603 103.8V106.608C33.7603 107.052 33.8203 107.28 34.0483 107.28C34.0843 107.28 34.1203 107.28 34.1923 107.268V107.988C33.9883 108.036 33.7843 108.06 33.5923 108.06C33.0163 108.06 32.6923 107.832 32.6323 107.136H32.6083C32.2003 107.772 31.5043 108.168 30.5083 108.168ZM30.7723 107.22C31.8283 107.22 32.6083 106.68 32.6083 105.612V104.736C32.4163 104.916 31.8883 105.048 31.2643 105.18C30.1843 105.408 29.7402 105.696 29.7402 106.332C29.7402 106.908 30.0403 107.22 30.7723 107.22ZM35.1435 108V101.88H36.3195V102.648H36.3435C36.6675 102.18 37.3035 101.7 38.3595 101.7C39.4875 101.7 40.3995 102.348 40.3995 103.752V108H39.2115V104.076C39.2115 103.26 38.8515 102.708 37.9755 102.708C36.9675 102.708 36.3195 103.32 36.3195 104.244V108H35.1435Z" fill="black"/>
<path d="M24.008 140.96C25.664 141.38 27.224 141.776 27.224 143.588C27.224 145.064 26.216 146.168 24.08 146.168C21.908 146.168 20.372 145.04 20.288 143.108H21.656C21.752 144.26 22.436 145.04 24.044 145.04C25.412 145.04 25.844 144.44 25.844 143.66C25.844 142.568 25.004 142.412 23.444 142.016C22.1 141.668 20.624 141.224 20.624 139.592C20.624 138.104 21.776 137.252 23.624 137.252C25.58 137.252 26.852 138.248 26.984 139.976H25.604C25.472 138.944 24.884 138.38 23.624 138.38C22.556 138.38 21.992 138.776 21.992 139.52C21.992 140.48 22.904 140.684 24.008 140.96ZM29.9857 145.94L27.5017 139.88H28.7857L30.5737 144.56H30.5977L32.2897 139.88H33.5137L31.1017 146.144C30.5017 147.656 29.9137 148.148 28.9657 148.148C28.7017 148.148 28.5217 148.124 28.2097 148.064V147.104C28.4137 147.128 28.5217 147.14 28.7137 147.14C29.1937 147.14 29.7337 146.9 29.9857 145.94ZM38.2925 140.624H38.3165V137.42H39.5045V146H38.3165V145.28H38.2925C37.9685 145.712 37.3685 146.168 36.4085 146.168C34.8485 146.168 33.6725 144.956 33.6725 142.94C33.6725 140.924 34.8485 139.7 36.4085 139.7C37.3685 139.7 37.9685 140.144 38.2925 140.624ZM36.6005 145.196C37.6565 145.196 38.3165 144.32 38.3165 142.94C38.3165 141.548 37.6565 140.684 36.6005 140.684C35.4485 140.684 34.8965 141.74 34.8965 142.94C34.8965 144.14 35.4485 145.196 36.6005 145.196ZM40.8154 146V139.88H41.9914V140.648H42.0154C42.3394 140.18 42.9754 139.7 44.0314 139.7C45.1594 139.7 46.0714 140.348 46.0714 141.752V146H44.8834V142.076C44.8834 141.26 44.5234 140.708 43.6474 140.708C42.6394 140.708 41.9914 141.32 41.9914 142.244V146H40.8154ZM50.0207 146.18C48.0767 146.18 46.9967 144.8 46.9967 142.928C46.9967 141.008 48.1487 139.688 50.0207 139.688C51.8807 139.688 52.9247 140.912 52.9247 142.808C52.9247 142.976 52.9247 143.156 52.9127 143.252H48.2087C48.2327 144.284 48.8327 145.22 50.0447 145.22C51.1247 145.22 51.5327 144.524 51.6527 144.116H52.8407C52.5287 145.292 51.6287 146.18 50.0207 146.18ZM49.9847 140.648C49.0007 140.648 48.2807 141.32 48.2087 142.328H51.6887C51.6887 141.368 51.0287 140.648 49.9847 140.648ZM55.5677 145.94L53.0837 139.88H54.3677L56.1557 144.56H56.1797L57.8717 139.88H59.0957L56.6837 146.144C56.0837 147.656 55.4957 148.148 54.5477 148.148C54.2837 148.148 54.1037 148.124 53.7917 148.064V147.104C53.9957 147.128 54.1037 147.14 54.2957 147.14C54.7757 147.14 55.3157 146.9 55.5677 145.94Z" fill="black"/>
<path d="M22.436 29.162H27.294V30.492H22.436V33.67H28.12V35H20.896V24.99H27.98V26.32H22.436V29.162ZM29.2729 35V27.86H30.6449V28.756H30.6729C31.0509 28.21 31.7089 27.65 32.7869 27.65C33.7809 27.65 34.3829 28.098 34.6769 28.896H34.7049C35.2229 28.21 35.9369 27.65 37.0429 27.65C38.4849 27.65 39.2129 28.518 39.2129 30.044V35H37.8409V30.422C37.8409 29.47 37.6449 28.826 36.5949 28.826C35.5729 28.826 34.9289 29.54 34.9289 30.618V35H33.5569V30.422C33.5569 29.47 33.3609 28.826 32.3109 28.826C31.2889 28.826 30.6449 29.54 30.6449 30.618V35H29.2729ZM42.0889 34.118H42.0609V37.478H40.6889V27.86H42.0609V28.7H42.0889C42.4809 28.196 43.1669 27.65 44.2869 27.65C46.1069 27.65 47.4929 29.078 47.4929 31.43C47.4929 33.782 46.1069 35.196 44.2869 35.196C43.1669 35.196 42.4809 34.692 42.0889 34.118ZM44.0629 28.798C42.8309 28.798 42.0749 29.806 42.0749 31.43C42.0749 33.04 42.8309 34.062 44.0629 34.062C45.4069 34.062 46.0509 32.83 46.0509 31.43C46.0509 30.03 45.4069 28.798 44.0629 28.798ZM48.6323 24.99H50.0043V35H48.6323V24.99ZM54.7107 35.21C52.4847 35.21 51.1407 33.67 51.1407 31.43C51.1407 29.204 52.4847 27.636 54.7107 27.636C56.9367 27.636 58.2807 29.19 58.2807 31.416C58.2807 33.656 56.9367 35.21 54.7107 35.21ZM54.7107 34.076C56.1667 34.076 56.8527 32.914 56.8527 31.43C56.8527 29.932 56.1667 28.784 54.7107 28.784C53.2407 28.784 52.5687 29.932 52.5687 31.43C52.5687 32.914 53.2407 34.076 54.7107 34.076ZM61.359 34.93L58.461 27.86H59.959L62.045 33.32H62.073L64.047 27.86H65.475L62.661 35.168C61.961 36.932 61.275 37.506 60.169 37.506C59.861 37.506 59.651 37.478 59.287 37.408V36.288C59.525 36.316 59.651 36.33 59.875 36.33C60.435 36.33 61.065 36.05 61.359 34.93ZM69.2862 24.822H70.8962L69.5522 26.754H68.4602L69.2862 24.822ZM69.1882 35.21C66.9202 35.21 65.6602 33.6 65.6602 31.416C65.6602 29.176 67.0042 27.636 69.1882 27.636C71.3582 27.636 72.5762 29.064 72.5762 31.276C72.5762 31.472 72.5762 31.682 72.5622 31.794H67.0742C67.1022 32.998 67.8022 34.09 69.2162 34.09C70.4762 34.09 70.9522 33.278 71.0922 32.802H72.4782C72.1142 34.174 71.0642 35.21 69.1882 35.21ZM69.1462 28.756C67.9982 28.756 67.1582 29.54 67.0742 30.716H71.1342C71.1342 29.596 70.3642 28.756 69.1462 28.756ZM76.6908 30.688C77.9928 30.996 79.4208 31.374 79.4208 32.97C79.4208 34.356 78.3568 35.196 76.4808 35.196C74.3108 35.196 73.2328 34.076 73.1908 32.62H74.5768C74.6468 33.446 75.1368 34.09 76.4668 34.09C77.6708 34.09 77.9928 33.558 77.9928 33.04C77.9928 32.144 77.0408 32.046 76.1168 31.85C74.8708 31.57 73.4428 31.192 73.4428 29.708C73.4428 28.476 74.4368 27.65 76.1728 27.65C78.1188 27.65 79.0568 28.7 79.1548 29.932H77.7688C77.6708 29.386 77.3908 28.756 76.1868 28.756C75.2768 28.756 74.8708 29.12 74.8708 29.652C74.8708 30.394 75.6688 30.45 76.6908 30.688ZM82.7701 24.388H83.9741C83.0781 26.082 82.3501 27.972 82.3501 30.562C82.3501 33.096 83.0781 35.014 83.9741 36.708H82.7701C81.7341 35.294 80.8381 33.096 80.8381 30.562C80.8381 27.944 81.7341 25.802 82.7701 24.388ZM88.2195 35.21C85.9515 35.21 84.6915 33.6 84.6915 31.416C84.6915 29.176 86.0355 27.636 88.2195 27.636C90.3895 27.636 91.6075 29.064 91.6075 31.276C91.6075 31.472 91.6075 31.682 91.5935 31.794H86.1055C86.1335 32.998 86.8335 34.09 88.2475 34.09C89.5075 34.09 89.9835 33.278 90.1235 32.802H91.5095C91.1455 34.174 90.0955 35.21 88.2195 35.21ZM88.1775 28.756C87.0295 28.756 86.1895 29.54 86.1055 30.716H90.1655C90.1655 29.596 89.3955 28.756 88.1775 28.756ZM95.7221 30.688C97.0241 30.996 98.4521 31.374 98.4521 32.97C98.4521 34.356 97.3881 35.196 95.5121 35.196C93.3421 35.196 92.2641 34.076 92.2221 32.62H93.6081C93.6781 33.446 94.1681 34.09 95.4981 34.09C96.7021 34.09 97.0241 33.558 97.0241 33.04C97.0241 32.144 96.0721 32.046 95.1481 31.85C93.9021 31.57 92.4741 31.192 92.4741 29.708C92.4741 28.476 93.4681 27.65 95.2041 27.65C97.1501 27.65 98.0881 28.7 98.1861 29.932H96.8001C96.7021 29.386 96.4221 28.756 95.2181 28.756C94.3081 28.756 93.9021 29.12 93.9021 29.652C93.9021 30.394 94.7001 30.45 95.7221 30.688ZM100.401 36.708H99.1973C100.107 35.014 100.821 33.11 100.821 30.52C100.821 27.986 100.107 26.082 99.1973 24.388H100.401C101.451 25.802 102.347 27.986 102.347 30.52C102.347 33.138 101.451 35.294 100.401 36.708Z" fill="black"/>
<rect y="124" width="200" height="47" fill="url(#paint0_linear_2806_989)"/>
<defs>
<linearGradient id="paint0_linear_2806_989" x1="100" y1="124" x2="100" y2="171" gradientUnits="userSpaceOnUse">
<stop stop-color="white" stop-opacity="0"/>
<stop offset="0.84" stop-color="white"/>
</linearGradient>
</defs>
</svg>
