<svg width="160" height="122" viewBox="0 0 160 122" fill="none" xmlns="http://www.w3.org/2000/svg">
<rect width="160" height="122" fill="white"/>
<path d="M20.896 35V24.99H24.704C27.476 24.99 29.156 26.782 29.156 30.002C29.156 33.222 27.504 35 24.732 35H20.896ZM22.436 26.32V33.67H24.634C26.958 33.67 27.56 31.934 27.56 30.002C27.56 28.07 26.958 26.32 24.634 26.32H22.436ZM30.378 25.102H31.932V26.586H30.378V25.102ZM30.476 27.86H31.848V35H30.476V27.86ZM32.6348 27.86H34.1048L35.9668 33.586H35.9948L37.8288 27.86H39.2708L36.7228 35H35.1828L32.6348 27.86ZM42.9929 35.21C40.7249 35.21 39.4649 33.6 39.4649 31.416C39.4649 29.176 40.8089 27.636 42.9929 27.636C45.1629 27.636 46.3809 29.064 46.3809 31.276C46.3809 31.472 46.3809 31.682 46.3669 31.794H40.8789C40.9069 32.998 41.6069 34.09 43.0209 34.09C44.2809 34.09 44.7569 33.278 44.8969 32.802H46.2829C45.9189 34.174 44.8689 35.21 42.9929 35.21ZM42.9509 28.756C41.8029 28.756 40.9629 29.54 40.8789 30.716H44.9389C44.9389 29.596 44.1689 28.756 42.9509 28.756ZM47.5249 27.86H48.8969V29.218H48.9249C49.2889 28.322 49.8769 27.692 50.8429 27.692C51.0949 27.692 51.2909 27.706 51.5009 27.734V29.05C51.3189 29.022 51.1929 29.008 51.0389 29.008C49.7929 29.008 48.8969 29.946 48.8969 31.304V35H47.5249V27.86ZM52.1485 27.86H53.1845V25.564H54.5565V27.86H55.9285V28.994H54.5565V33.026C54.5565 33.782 54.7665 33.95 55.3545 33.95C55.5785 33.95 55.6905 33.936 55.9425 33.894V35C55.5785 35.07 55.3685 35.084 55.0605 35.084C53.8985 35.084 53.1845 34.636 53.1845 32.984V28.994H52.1485V27.86ZM57.0655 25.102H58.6195V26.586H57.0655V25.102ZM57.1635 27.86H58.5355V35H57.1635V27.86ZM63.06 30.688C64.362 30.996 65.79 31.374 65.79 32.97C65.79 34.356 64.726 35.196 62.85 35.196C60.68 35.196 59.602 34.076 59.56 32.62H60.946C61.016 33.446 61.506 34.09 62.836 34.09C64.04 34.09 64.362 33.558 64.362 33.04C64.362 32.144 63.41 32.046 62.486 31.85C61.24 31.57 59.812 31.192 59.812 29.708C59.812 28.476 60.806 27.65 62.542 27.65C64.488 27.65 65.426 28.7 65.524 29.932H64.138C64.04 29.386 63.76 28.756 62.556 28.756C61.646 28.756 61.24 29.12 61.24 29.652C61.24 30.394 62.038 30.45 63.06 30.688ZM69.9369 30.688C71.2389 30.996 72.6669 31.374 72.6669 32.97C72.6669 34.356 71.6029 35.196 69.7269 35.196C67.5569 35.196 66.4789 34.076 66.4369 32.62H67.8229C67.8929 33.446 68.3829 34.09 69.7129 34.09C70.9169 34.09 71.2389 33.558 71.2389 33.04C71.2389 32.144 70.2869 32.046 69.3629 31.85C68.1169 31.57 66.6889 31.192 66.6889 29.708C66.6889 28.476 67.6829 27.65 69.4189 27.65C71.3649 27.65 72.3029 28.7 72.4009 29.932H71.0149C70.9169 29.386 70.6369 28.756 69.4329 28.756C68.5229 28.756 68.1169 29.12 68.1169 29.652C68.1169 30.394 68.9149 30.45 69.9369 30.688ZM76.8855 35.21C74.6175 35.21 73.3575 33.6 73.3575 31.416C73.3575 29.176 74.7015 27.636 76.8855 27.636C79.0555 27.636 80.2735 29.064 80.2735 31.276C80.2735 31.472 80.2735 31.682 80.2595 31.794H74.7715C74.7995 32.998 75.4995 34.09 76.9135 34.09C78.1735 34.09 78.6495 33.278 78.7895 32.802H80.1755C79.8115 34.174 78.7615 35.21 76.8855 35.21ZM76.8435 28.756C75.6955 28.756 74.8555 29.54 74.7715 30.716H78.8315C78.8315 29.596 78.0615 28.756 76.8435 28.756ZM81.4175 35V27.86H82.7895V28.756H82.8175C83.1955 28.21 83.8535 27.65 84.9315 27.65C85.9255 27.65 86.5275 28.098 86.8215 28.896H86.8495C87.3675 28.21 88.0815 27.65 89.1875 27.65C90.6295 27.65 91.3575 28.518 91.3575 30.044V35H89.9855V30.422C89.9855 29.47 89.7895 28.826 88.7395 28.826C87.7175 28.826 87.0735 29.54 87.0735 30.618V35H85.7015V30.422C85.7015 29.47 85.5055 28.826 84.4555 28.826C83.4335 28.826 82.7895 29.54 82.7895 30.618V35H81.4175ZM95.9714 35.21C93.7034 35.21 92.4434 33.6 92.4434 31.416C92.4434 29.176 93.7874 27.636 95.9714 27.636C98.1414 27.636 99.3594 29.064 99.3594 31.276C99.3594 31.472 99.3594 31.682 99.3454 31.794H93.8574C93.8854 32.998 94.5854 34.09 95.9994 34.09C97.2594 34.09 97.7354 33.278 97.8754 32.802H99.2614C98.8974 34.174 97.8474 35.21 95.9714 35.21ZM95.9294 28.756C94.7814 28.756 93.9414 29.54 93.8574 30.716H97.9174C97.9174 29.596 97.1474 28.756 95.9294 28.756ZM100.503 35V27.86H101.875V28.756H101.903C102.281 28.21 103.023 27.65 104.255 27.65C105.571 27.65 106.635 28.406 106.635 30.044V35H105.249V30.422C105.249 29.47 104.829 28.826 103.807 28.826C102.631 28.826 101.875 29.54 101.875 30.618V35H100.503ZM107.41 27.86H108.446V25.564H109.818V27.86H111.19V28.994H109.818V33.026C109.818 33.782 110.028 33.95 110.616 33.95C110.84 33.95 110.952 33.936 111.204 33.894V35C110.84 35.07 110.63 35.084 110.322 35.084C109.16 35.084 108.446 34.636 108.446 32.984V28.994H107.41V27.86Z" fill="black"/>
<path d="M61.844 63.936H58.256L57.548 66H56.156L59.348 57.42H60.776L63.992 66H62.552L61.844 63.936ZM58.64 62.82H61.46L60.068 58.644H60.044L58.64 62.82ZM64.7685 59.88H65.9445V61.044H65.9685C66.2805 60.276 66.7845 59.736 67.6125 59.736C67.8285 59.736 67.9965 59.748 68.1765 59.772V60.9C68.0205 60.876 67.9125 60.864 67.7805 60.864C66.7125 60.864 65.9445 61.668 65.9445 62.832V66H64.7685V59.88ZM68.7316 59.88H69.6196V57.912H70.7956V59.88H71.9716V60.852H70.7956V64.308C70.7956 64.956 70.9756 65.1 71.4796 65.1C71.6716 65.1 71.7676 65.088 71.9836 65.052V66C71.6716 66.06 71.4916 66.072 71.2276 66.072C70.2316 66.072 69.6196 65.688 69.6196 64.272V60.852H68.7316V59.88ZM75.5179 62.304C76.6339 62.568 77.8579 62.892 77.8579 64.26C77.8579 65.448 76.9459 66.168 75.3379 66.168C73.4779 66.168 72.5539 65.208 72.5179 63.96H73.7059C73.7659 64.668 74.1859 65.22 75.3259 65.22C76.3579 65.22 76.6339 64.764 76.6339 64.32C76.6339 63.552 75.8179 63.468 75.0259 63.3C73.9579 63.06 72.7339 62.736 72.7339 61.464C72.7339 60.408 73.5859 59.7 75.0739 59.7C76.7419 59.7 77.5459 60.6 77.6299 61.656H76.4419C76.3579 61.188 76.1179 60.648 75.0859 60.648C74.3059 60.648 73.9579 60.96 73.9579 61.416C73.9579 62.052 74.6419 62.1 75.5179 62.304ZM84.1692 66.18C82.2252 66.18 81.1452 64.8 81.1452 62.928C81.1452 61.008 82.2972 59.688 84.1692 59.688C86.0292 59.688 87.0732 60.912 87.0732 62.808C87.0732 62.976 87.0732 63.156 87.0612 63.252H82.3572C82.3812 64.284 82.9812 65.22 84.1932 65.22C85.2732 65.22 85.6812 64.524 85.8012 64.116H86.9892C86.6772 65.292 85.7772 66.18 84.1692 66.18ZM84.1332 60.648C83.1492 60.648 82.4292 61.32 82.3572 62.328H85.8372C85.8372 61.368 85.1772 60.648 84.1332 60.648ZM87.5168 59.88H88.4048V57.912H89.5808V59.88H90.7568V60.852H89.5808V64.308C89.5808 64.956 89.7608 65.1 90.2648 65.1C90.4568 65.1 90.5528 65.088 90.7688 65.052V66C90.4568 66.06 90.2768 66.072 90.0128 66.072C89.0168 66.072 88.4048 65.688 88.4048 64.272V60.852H87.5168V59.88ZM98.6773 62.1C98.6293 61.464 98.2693 60.672 97.1413 60.672C95.8453 60.672 95.3652 61.788 95.3652 62.94C95.3652 64.092 95.8453 65.196 97.1413 65.196C98.2693 65.196 98.6293 64.428 98.6773 63.732H99.9013C99.8173 65.136 98.7133 66.18 97.1533 66.18C95.3293 66.18 94.1413 64.86 94.1413 62.94C94.1413 61.02 95.3293 59.7 97.1413 59.7C98.7133 59.7 99.7573 60.72 99.9013 62.1H98.6773ZM101.967 63.792C101.967 64.62 102.327 65.172 103.203 65.172C104.211 65.172 104.859 64.56 104.859 63.636V59.88H106.035V66H104.859V65.232H104.835C104.511 65.7 103.875 66.168 102.819 66.168C101.691 66.168 100.779 65.52 100.779 64.116V59.88H101.967V63.792ZM107.354 57.42H108.53V66H107.354V57.42ZM109.361 59.88H110.249V57.912H111.425V59.88H112.601V60.852H111.425V64.308C111.425 64.956 111.605 65.1 112.109 65.1C112.301 65.1 112.397 65.088 112.613 65.052V66C112.301 66.06 112.121 66.072 111.857 66.072C110.861 66.072 110.249 65.688 110.249 64.272V60.852H109.361V59.88ZM114.635 63.792C114.635 64.62 114.995 65.172 115.871 65.172C116.879 65.172 117.527 64.56 117.527 63.636V59.88H118.703V66H117.527V65.232H117.503C117.179 65.7 116.543 66.168 115.487 66.168C114.359 66.168 113.447 65.52 113.447 64.116V59.88H114.635V63.792ZM120.022 59.88H121.198V61.044H121.222C121.534 60.276 122.038 59.736 122.866 59.736C123.082 59.736 123.25 59.748 123.43 59.772V60.9C123.274 60.876 123.166 60.864 123.034 60.864C121.966 60.864 121.198 61.668 121.198 62.832V66H120.022V59.88ZM126.72 66.18C124.776 66.18 123.696 64.8 123.696 62.928C123.696 61.008 124.848 59.688 126.72 59.688C128.58 59.688 129.624 60.912 129.624 62.808C129.624 62.976 129.624 63.156 129.612 63.252H124.908C124.932 64.284 125.532 65.22 126.744 65.22C127.824 65.22 128.232 64.524 128.352 64.116H129.54C129.228 65.292 128.328 66.18 126.72 66.18ZM126.684 60.648C125.7 60.648 124.98 61.32 124.908 62.328H128.388C128.388 61.368 127.728 60.648 126.684 60.648Z" fill="black"/>
<path d="M60.008 88.96C61.664 89.38 63.224 89.776 63.224 91.588C63.224 93.064 62.216 94.168 60.08 94.168C57.908 94.168 56.372 93.04 56.288 91.108H57.656C57.752 92.26 58.436 93.04 60.044 93.04C61.412 93.04 61.844 92.44 61.844 91.66C61.844 90.568 61.004 90.412 59.444 90.016C58.1 89.668 56.624 89.224 56.624 87.592C56.624 86.104 57.776 85.252 59.624 85.252C61.58 85.252 62.852 86.248 62.984 87.976H61.604C61.472 86.944 60.884 86.38 59.624 86.38C58.556 86.38 57.992 86.776 57.992 87.52C57.992 88.48 58.904 88.684 60.008 88.96ZM63.7863 87.88H64.6743V85.912H65.8503V87.88H67.0263V88.852H65.8503V92.308C65.8503 92.956 66.0303 93.1 66.5343 93.1C66.7263 93.1 66.8223 93.088 67.0383 93.052V94C66.7263 94.06 66.5463 94.072 66.2823 94.072C65.2863 94.072 64.6743 93.688 64.6743 92.272V88.852H63.7863V87.88ZM68.0263 87.88H69.2023V89.044H69.2263C69.5383 88.276 70.0423 87.736 70.8703 87.736C71.0863 87.736 71.2543 87.748 71.4343 87.772V88.9C71.2783 88.876 71.1703 88.864 71.0383 88.864C69.9703 88.864 69.2023 89.668 69.2023 90.832V94H68.0263V87.88ZM74.7238 94.18C72.7798 94.18 71.6998 92.8 71.6998 90.928C71.6998 89.008 72.8518 87.688 74.7238 87.688C76.5838 87.688 77.6278 88.912 77.6278 90.808C77.6278 90.976 77.6278 91.156 77.6158 91.252H72.9118C72.9358 92.284 73.5358 93.22 74.7478 93.22C75.8278 93.22 76.2358 92.524 76.3558 92.116H77.5438C77.2318 93.292 76.3318 94.18 74.7238 94.18ZM74.6878 88.648C73.7038 88.648 72.9838 89.32 72.9118 90.328H76.3918C76.3918 89.368 75.7318 88.648 74.6878 88.648ZM80.3364 94.168C79.1124 94.168 78.3324 93.46 78.3324 92.416C78.3324 91.048 79.3644 90.652 80.8884 90.352C81.8484 90.172 82.4364 90.052 82.4364 89.452C82.4364 89.008 82.1724 88.636 81.2724 88.636C80.2044 88.636 79.8804 88.972 79.8204 89.788H78.6204C78.6804 88.612 79.4484 87.688 81.3204 87.688C82.5804 87.688 83.5884 88.216 83.5884 89.8V92.608C83.5884 93.052 83.6484 93.28 83.8764 93.28C83.9124 93.28 83.9484 93.28 84.0204 93.268V93.988C83.8164 94.036 83.6124 94.06 83.4204 94.06C82.8444 94.06 82.5204 93.832 82.4604 93.136H82.4364C82.0284 93.772 81.3324 94.168 80.3364 94.168ZM80.6004 93.22C81.6564 93.22 82.4364 92.68 82.4364 91.612V90.736C82.2444 90.916 81.7164 91.048 81.0924 91.18C80.0124 91.408 79.5684 91.696 79.5684 92.332C79.5684 92.908 79.8684 93.22 80.6004 93.22ZM84.9717 94V87.88H86.1477V88.648H86.1717C86.4957 88.18 87.0597 87.7 87.9837 87.7C88.8357 87.7 89.3517 88.084 89.6037 88.768H89.6277C90.0717 88.18 90.6837 87.7 91.6317 87.7C92.8677 87.7 93.4917 88.444 93.4917 89.752V94H92.3157V90.076C92.3157 89.26 92.1477 88.708 91.2477 88.708C90.3717 88.708 89.8197 89.32 89.8197 90.244V94H88.6437V90.076C88.6437 89.26 88.4757 88.708 87.5757 88.708C86.6997 88.708 86.1477 89.32 86.1477 90.244V94H84.9717ZM94.6728 85.516H96.0048V86.788H94.6728V85.516ZM94.7568 87.88H95.9328V94H94.7568V87.88ZM97.2412 94V87.88H98.4172V88.648H98.4412C98.7652 88.18 99.4012 87.7 100.457 87.7C101.585 87.7 102.497 88.348 102.497 89.752V94H101.309V90.076C101.309 89.26 100.949 88.708 100.073 88.708C99.0652 88.708 98.4172 89.32 98.4172 90.244V94H97.2412ZM108.031 93.592V92.764H108.007C107.671 93.256 107.107 93.688 106.123 93.688C104.599 93.688 103.423 92.656 103.423 90.7C103.423 88.732 104.599 87.7 106.123 87.7C107.107 87.7 107.671 88.168 108.007 88.6H108.031V87.88H109.207V93.52C109.207 95.368 108.091 96.196 106.339 96.196C104.587 96.196 103.711 95.356 103.591 94.252H104.803C104.923 94.804 105.343 95.236 106.339 95.236C107.455 95.236 108.031 94.744 108.031 93.592ZM106.339 88.684C105.187 88.684 104.646 89.548 104.646 90.7C104.646 91.852 105.187 92.716 106.339 92.716C107.395 92.716 108.019 92.032 108.019 90.7C108.019 89.356 107.395 88.684 106.339 88.684Z" fill="black"/>
<rect opacity="0.2" x="20" y="50" width="24" height="24" rx="3.52941" fill="#FFB800"/>
<g clip-path="url(#clip0_2806_974)">
<path d="M32.6697 59.0269L32.8734 60.8601C32.9554 60.7972 33.0528 60.7574 33.1554 60.7446C33.258 60.7319 33.3621 60.7468 33.4571 60.7877C33.552 60.8286 33.6344 60.8941 33.6956 60.9774C33.7568 61.0607 33.7947 61.1589 33.8053 61.2617C33.816 61.3646 33.799 61.4684 33.7562 61.5625C33.7133 61.6566 33.6462 61.7376 33.5616 61.7971C33.4771 61.8566 33.3782 61.8925 33.2751 61.901C33.1721 61.9096 33.0686 61.8905 32.9754 61.8458C33.0095 62.3315 32.9405 62.8189 32.7731 63.276C33.2273 63.1974 33.6923 63.2052 34.1435 63.2991C35.1678 63.5177 36.287 64.3009 35.777 64.731C35.3038 65.1298 35.0062 64.2747 33.9819 64.056C33.1838 63.8857 32.6316 64.2459 32.2989 64.1506C32.2735 64.1849 32.2509 64.2207 32.2241 64.2542C32.0251 64.5019 31.7933 64.7213 31.5352 64.9063C31.8553 65.4382 32.3281 65.8614 32.892 66.1209C33.456 66.3805 34.0849 66.4643 34.6972 66.3616C35.3094 66.2589 35.8765 65.9743 36.3249 65.5449C36.7732 65.1155 37.0819 64.5612 37.211 63.9539L38.019 60.1689L32.6697 59.0269ZM36.439 62.0082C36.415 62.1205 36.3583 62.2231 36.2759 62.3032C36.1936 62.3832 36.0894 62.437 35.9765 62.4578C35.8636 62.4786 35.747 62.4654 35.6416 62.42C35.5361 62.3746 35.4465 62.2989 35.3841 62.2025C35.3217 62.1062 35.2892 61.9935 35.2908 61.8787C35.2924 61.7639 35.3281 61.6521 35.3932 61.5576C35.4583 61.463 35.55 61.3899 35.6566 61.3474C35.7633 61.305 35.8802 61.2951 35.9925 61.3191C36.0671 61.335 36.1378 61.3654 36.2006 61.4087C36.2634 61.4519 36.3171 61.5071 36.3585 61.5711C36.4 61.6351 36.4285 61.7067 36.4423 61.7817C36.4561 61.8567 36.455 61.9337 36.439 62.0082Z" fill="#FFB800"/>
<path d="M32.582 61.7363L32.1546 57.8896L26 58.5735L26.4274 62.4202C26.4723 62.8243 26.5964 63.2156 26.7925 63.5718C26.9887 63.928 27.253 64.242 27.5705 64.496C28.2118 65.009 29.0305 65.2462 29.8466 65.1556C30.2508 65.1107 30.6421 64.9866 30.9982 64.7905C31.3544 64.5943 31.6685 64.33 31.9225 64.0125C32.1765 63.695 32.3654 63.3305 32.4786 62.94C32.5918 62.5495 32.6269 62.1405 32.582 61.7363ZM30.5945 59.6208C30.7535 59.6088 30.9108 59.6603 31.0318 59.7641C31.1529 59.8679 31.2278 60.0154 31.2402 60.1744C31.2781 60.5155 30.9818 60.2031 30.6632 60.2385C30.3445 60.2739 30.124 60.6436 30.0863 60.3024C30.0635 60.1446 30.1042 59.9842 30.1994 59.8564C30.2947 59.7286 30.4368 59.644 30.5945 59.6208ZM27.3935 60.6018C27.3793 60.5233 27.3814 60.4428 27.3997 60.3651C27.4179 60.2875 27.4519 60.2144 27.4996 60.1505C27.5473 60.0866 27.6076 60.0331 27.6768 59.9934C27.746 59.9538 27.8226 59.9288 27.9018 59.92C27.9811 59.9112 28.0613 59.9187 28.1376 59.9422C28.2138 59.9657 28.2843 60.0047 28.3449 60.0566C28.4054 60.1085 28.4547 60.1723 28.4895 60.244C28.5244 60.3158 28.5441 60.3939 28.5475 60.4736C28.5854 60.8147 28.2892 60.5023 27.9705 60.5377C27.6518 60.5731 27.4314 60.943 27.3935 60.6018ZM29.9191 63.6002C28.9631 63.7065 28.0673 63.1972 27.9844 62.4276C27.9391 62.0072 28.976 62.5264 29.9321 62.4202C30.8881 62.314 31.2929 61.299 31.4188 61.7948C31.6092 62.545 30.8751 63.494 29.9191 63.6002Z" fill="#FFB800"/>
</g>
<rect opacity="0.2" x="20" y="78" width="24" height="24" rx="4.8" fill="#8800FF"/>
<path d="M34.7023 89.0017L30.8656 86.444C30.0682 85.9123 29 86.484 29 87.4424V92.558C29 93.5164 30.0682 94.0881 30.8656 93.5564L34.7023 90.9987C35.4148 90.5237 35.4148 89.4767 34.7023 89.0017Z" fill="#8800FF"/>
<defs>
<clipPath id="clip0_2806_974">
<rect width="12" height="12" fill="white" transform="translate(26 56)"/>
</clipPath>
</defs>
</svg>
