<svg width="34" height="34" viewBox="0 0 34 34" fill="none" xmlns="http://www.w3.org/2000/svg">
<path fill-rule="evenodd" clip-rule="evenodd" d="M27.341 11.3963L15.7485 6.02132C15.4896 5.9011 15.2195 5.9011 14.9615 6.02132L3.20991 11.4694C2.87143 11.6266 2.66797 11.9457 2.66797 12.3184C2.66797 12.692 2.87143 13.0101 3.20991 13.1673L14.9615 18.6154C15.2204 18.7356 15.4905 18.7356 15.7485 18.6154L27.5001 13.1673C27.7563 13.049 27.9348 12.8372 28.0069 12.5801H28.6607C28.9169 12.5801 29.15 12.6855 29.3192 12.8548C29.4884 13.024 29.5939 13.257 29.5939 13.5132V22.5819C28.6487 23.6482 28.3639 25.6116 28.3713 26.3394C28.3796 27.2014 29.0001 27.4039 29.383 27.4039C29.9185 27.4039 30.453 27.4039 30.9885 27.4039C31.3714 27.4039 31.9919 27.2014 32.0002 26.3394C32.0076 25.6116 31.7228 23.6482 30.7776 22.5819V13.5132C30.7776 12.9306 30.5399 12.4016 30.1562 12.0178C29.7724 11.6349 29.2434 11.3963 28.6607 11.3963H27.341ZM25.041 20.4105L24.1042 16.0463L16.2461 19.6891C15.6717 19.9555 15.0373 19.9555 14.463 19.6891L6.60582 16.0463L5.66898 20.4105C5.49604 21.2151 5.77164 21.9965 6.41161 22.5144C10.9349 26.1757 19.7751 26.1757 24.2984 22.5144C24.9384 21.9965 25.214 21.216 25.041 20.4105Z" fill="#FD1774"/>
</svg>
