<svg width="226" height="112" viewBox="0 0 226 112" fill="none" xmlns="http://www.w3.org/2000/svg">
<rect width="226" height="112" fill="white"/>
<path d="M27.952 28.392C27.77 27.412 27.154 26.124 25.236 26.124C23.024 26.124 22.184 28 22.184 29.988C22.184 31.99 23.024 33.866 25.236 33.866C27.168 33.866 27.854 32.578 27.952 31.36H29.562C29.338 33.586 27.784 35.196 25.25 35.196C22.408 35.196 20.588 33.012 20.588 30.002C20.588 26.978 22.422 24.794 25.264 24.794C27.784 24.794 29.324 26.39 29.562 28.392H27.952ZM32.6698 35.196C31.2418 35.196 30.3318 34.37 30.3318 33.152C30.3318 31.556 31.5358 31.094 33.3138 30.744C34.4338 30.534 35.1198 30.394 35.1198 29.694C35.1198 29.176 34.8118 28.742 33.7618 28.742C32.5158 28.742 32.1378 29.134 32.0678 30.086H30.6678C30.7378 28.714 31.6338 27.636 33.8178 27.636C35.2878 27.636 36.4638 28.252 36.4638 30.1V33.376C36.4638 33.894 36.5338 34.16 36.7998 34.16C36.8418 34.16 36.8838 34.16 36.9678 34.146V34.986C36.7298 35.042 36.4918 35.07 36.2678 35.07C35.5958 35.07 35.2178 34.804 35.1478 33.992H35.1198C34.6438 34.734 33.8318 35.196 32.6698 35.196ZM32.9778 34.09C34.2098 34.09 35.1198 33.46 35.1198 32.214V31.192C34.8958 31.402 34.2798 31.556 33.5518 31.71C32.2918 31.976 31.7738 32.312 31.7738 33.054C31.7738 33.726 32.1238 34.09 32.9778 34.09ZM37.2461 27.86H38.2821V25.564H39.6541V27.86H41.0261V28.994H39.6541V33.026C39.6541 33.782 39.8641 33.95 40.4521 33.95C40.6761 33.95 40.7881 33.936 41.0401 33.894V35C40.6761 35.07 40.4661 35.084 40.1581 35.084C38.9961 35.084 38.2821 34.636 38.2821 32.984V28.994H37.2461V27.86ZM45.2648 24.822H46.8748L45.5308 26.754H44.4388L45.2648 24.822ZM45.1668 35.21C42.8988 35.21 41.6388 33.6 41.6388 31.416C41.6388 29.176 42.9828 27.636 45.1668 27.636C47.3368 27.636 48.5548 29.064 48.5548 31.276C48.5548 31.472 48.5548 31.682 48.5408 31.794H43.0528C43.0808 32.998 43.7808 34.09 45.1948 34.09C46.4548 34.09 46.9308 33.278 47.0708 32.802H48.4568C48.0928 34.174 47.0428 35.21 45.1668 35.21ZM45.1248 28.756C43.9768 28.756 43.1368 29.54 43.0528 30.716H47.1128C47.1128 29.596 46.3428 28.756 45.1248 28.756ZM54.7667 34.524V33.558H54.7387C54.3467 34.132 53.6887 34.636 52.5407 34.636C50.7627 34.636 49.3907 33.432 49.3907 31.15C49.3907 28.854 50.7627 27.65 52.5407 27.65C53.6887 27.65 54.3467 28.196 54.7387 28.7H54.7667V27.86H56.1387V34.44C56.1387 36.596 54.8367 37.562 52.7927 37.562C50.7487 37.562 49.7267 36.582 49.5867 35.294H51.0007C51.1407 35.938 51.6307 36.442 52.7927 36.442C54.0947 36.442 54.7667 35.868 54.7667 34.524ZM52.7927 28.798C51.4487 28.798 50.8187 29.806 50.8187 31.15C50.8187 32.494 51.4487 33.502 52.7927 33.502C54.0247 33.502 54.7527 32.704 54.7527 31.15C54.7527 29.582 54.0247 28.798 52.7927 28.798ZM60.863 35.21C58.637 35.21 57.293 33.67 57.293 31.43C57.293 29.204 58.637 27.636 60.863 27.636C63.089 27.636 64.433 29.19 64.433 31.416C64.433 33.656 63.089 35.21 60.863 35.21ZM60.863 34.076C62.319 34.076 63.005 32.914 63.005 31.43C63.005 29.932 62.319 28.784 60.863 28.784C59.393 28.784 58.721 29.932 58.721 31.43C58.721 32.914 59.393 34.076 60.863 34.076ZM65.5718 27.86H66.9438V29.218H66.9718C67.3358 28.322 67.9238 27.692 68.8898 27.692C69.1418 27.692 69.3378 27.706 69.5478 27.734V29.05C69.3658 29.022 69.2398 29.008 69.0858 29.008C67.8398 29.008 66.9438 29.946 66.9438 31.304V35H65.5718V27.86ZM70.3956 25.102H71.9496V26.586H70.3956V25.102ZM70.4936 27.86H71.8656V35H70.4936V27.86ZM76.53 35.21C74.262 35.21 73.002 33.6 73.002 31.416C73.002 29.176 74.346 27.636 76.53 27.636C78.7 27.636 79.918 29.064 79.918 31.276C79.918 31.472 79.918 31.682 79.904 31.794H74.416C74.444 32.998 75.144 34.09 76.558 34.09C77.818 34.09 78.294 33.278 78.434 32.802H79.82C79.456 34.174 78.406 35.21 76.53 35.21ZM76.488 28.756C75.34 28.756 74.5 29.54 74.416 30.716H78.476C78.476 29.596 77.706 28.756 76.488 28.756ZM84.0326 30.688C85.3346 30.996 86.7626 31.374 86.7626 32.97C86.7626 34.356 85.6986 35.196 83.8226 35.196C81.6526 35.196 80.5746 34.076 80.5326 32.62H81.9186C81.9886 33.446 82.4786 34.09 83.8086 34.09C85.0126 34.09 85.3346 33.558 85.3346 33.04C85.3346 32.144 84.3826 32.046 83.4586 31.85C82.2126 31.57 80.7846 31.192 80.7846 29.708C80.7846 28.476 81.7786 27.65 83.5146 27.65C85.4606 27.65 86.3986 28.7 86.4966 29.932H85.1106C85.0126 29.386 84.7326 28.756 83.5286 28.756C82.6186 28.756 82.2126 29.12 82.2126 29.652C82.2126 30.394 83.0106 30.45 84.0326 30.688ZM90.4297 27.86H91.4657V25.564H92.8377V27.86H94.2097V28.994H92.8377V33.026C92.8377 33.782 93.0477 33.95 93.6357 33.95C93.8597 33.95 93.9717 33.936 94.2237 33.894V35C93.8597 35.07 93.6497 35.084 93.3417 35.084C92.1797 35.084 91.4657 34.636 91.4657 32.984V28.994H90.4297V27.86ZM98.3503 35.21C96.0823 35.21 94.8223 33.6 94.8223 31.416C94.8223 29.176 96.1663 27.636 98.3503 27.636C100.52 27.636 101.738 29.064 101.738 31.276C101.738 31.472 101.738 31.682 101.724 31.794H96.2363C96.2643 32.998 96.9643 34.09 98.3783 34.09C99.6383 34.09 100.114 33.278 100.254 32.802H101.64C101.276 34.174 100.226 35.21 98.3503 35.21ZM98.3083 28.756C97.1603 28.756 96.3203 29.54 96.2363 30.716H100.296C100.296 29.596 99.5263 28.756 98.3083 28.756ZM102.882 35V27.86H104.254V28.756H104.282C104.66 28.21 105.402 27.65 106.634 27.65C107.95 27.65 109.014 28.406 109.014 30.044V35H107.628V30.422C107.628 29.47 107.208 28.826 106.186 28.826C105.01 28.826 104.254 29.54 104.254 30.618V35H102.882ZM115.484 28.728H115.512V24.99H116.898V35H115.512V34.16H115.484C115.106 34.664 114.406 35.196 113.286 35.196C111.466 35.196 110.094 33.782 110.094 31.43C110.094 29.078 111.466 27.65 113.286 27.65C114.406 27.65 115.106 28.168 115.484 28.728ZM113.51 34.062C114.742 34.062 115.512 33.04 115.512 31.43C115.512 29.806 114.742 28.798 113.51 28.798C112.166 28.798 111.522 30.03 111.522 31.43C111.522 32.83 112.166 34.062 113.51 34.062ZM120.361 35.196C118.933 35.196 118.023 34.37 118.023 33.152C118.023 31.556 119.227 31.094 121.005 30.744C122.125 30.534 122.811 30.394 122.811 29.694C122.811 29.176 122.503 28.742 121.453 28.742C120.207 28.742 119.829 29.134 119.759 30.086H118.359C118.429 28.714 119.325 27.636 121.509 27.636C122.979 27.636 124.155 28.252 124.155 30.1V33.376C124.155 33.894 124.225 34.16 124.491 34.16C124.533 34.16 124.575 34.16 124.659 34.146V34.986C124.421 35.042 124.183 35.07 123.959 35.07C123.287 35.07 122.909 34.804 122.839 33.992H122.811C122.335 34.734 121.523 35.196 120.361 35.196ZM120.669 34.09C121.901 34.09 122.811 33.46 122.811 32.214V31.192C122.587 31.402 121.971 31.556 121.243 31.71C119.983 31.976 119.465 32.312 119.465 33.054C119.465 33.726 119.815 34.09 120.669 34.09ZM125.769 35V27.86H127.141V28.756H127.169C127.547 28.21 128.289 27.65 129.521 27.65C130.837 27.65 131.901 28.406 131.901 30.044V35H130.515V30.422C130.515 29.47 130.095 28.826 129.073 28.826C127.897 28.826 127.141 29.54 127.141 30.618V35H125.769ZM138.273 30.45C138.217 29.708 137.797 28.784 136.481 28.784C134.969 28.784 134.409 30.086 134.409 31.43C134.409 32.774 134.969 34.062 136.481 34.062C137.797 34.062 138.217 33.166 138.273 32.354H139.701C139.603 33.992 138.315 35.21 136.495 35.21C134.367 35.21 132.981 33.67 132.981 31.43C132.981 29.19 134.367 27.65 136.481 27.65C138.315 27.65 139.533 28.84 139.701 30.45H138.273ZM144.014 35.21C141.746 35.21 140.486 33.6 140.486 31.416C140.486 29.176 141.83 27.636 144.014 27.636C146.184 27.636 147.402 29.064 147.402 31.276C147.402 31.472 147.402 31.682 147.388 31.794H141.9C141.928 32.998 142.628 34.09 144.042 34.09C145.302 34.09 145.778 33.278 145.918 32.802H147.304C146.94 34.174 145.89 35.21 144.014 35.21ZM143.972 28.756C142.824 28.756 141.984 29.54 141.9 30.716H145.96C145.96 29.596 145.19 28.756 143.972 28.756ZM151.517 30.688C152.819 30.996 154.247 31.374 154.247 32.97C154.247 34.356 153.183 35.196 151.307 35.196C149.137 35.196 148.059 34.076 148.017 32.62H149.403C149.473 33.446 149.963 34.09 151.293 34.09C152.497 34.09 152.819 33.558 152.819 33.04C152.819 32.144 151.867 32.046 150.943 31.85C149.697 31.57 148.269 31.192 148.269 29.708C148.269 28.476 149.263 27.65 150.999 27.65C152.945 27.65 153.883 28.7 153.981 29.932H152.595C152.497 29.386 152.217 28.756 151.013 28.756C150.103 28.756 149.697 29.12 149.697 29.652C149.697 30.394 150.495 30.45 151.517 30.688Z" fill="black"/>
<path d="M72.144 57.42H73.608L75.876 64.608H75.9L78.156 57.42H79.548L76.596 66H75.168L72.144 57.42ZM80.1923 57.516H81.5243V58.788H80.1923V57.516ZM80.2763 59.88H81.4523V66H80.2763V59.88ZM85.4504 66.18C83.5064 66.18 82.4264 64.8 82.4264 62.928C82.4264 61.008 83.5784 59.688 85.4504 59.688C87.3104 59.688 88.3544 60.912 88.3544 62.808C88.3544 62.976 88.3544 63.156 88.3424 63.252H83.6384C83.6624 64.284 84.2624 65.22 85.4744 65.22C86.5544 65.22 86.9624 64.524 87.0824 64.116H88.2704C87.9584 65.292 87.0584 66.18 85.4504 66.18ZM85.4144 60.648C84.4304 60.648 83.7104 61.32 83.6384 62.328H87.1184C87.1184 61.368 86.4584 60.648 85.4144 60.648ZM93.7114 66.168C92.4874 66.168 91.7074 65.46 91.7074 64.416C91.7074 63.048 92.7394 62.652 94.2634 62.352C95.2234 62.172 95.8114 62.052 95.8114 61.452C95.8114 61.008 95.5474 60.636 94.6474 60.636C93.5794 60.636 93.2554 60.972 93.1954 61.788H91.9954C92.0554 60.612 92.8234 59.688 94.6954 59.688C95.9554 59.688 96.9634 60.216 96.9634 61.8V64.608C96.9634 65.052 97.0234 65.28 97.2514 65.28C97.2874 65.28 97.3234 65.28 97.3954 65.268V65.988C97.1914 66.036 96.9874 66.06 96.7954 66.06C96.2194 66.06 95.8954 65.832 95.8354 65.136H95.8114C95.4034 65.772 94.7074 66.168 93.7114 66.168ZM93.9754 65.22C95.0314 65.22 95.8114 64.68 95.8114 63.612V62.736C95.6194 62.916 95.0914 63.048 94.4674 63.18C93.3874 63.408 92.9434 63.696 92.9434 64.332C92.9434 64.908 93.2434 65.22 93.9754 65.22ZM102.537 62.1C102.489 61.464 102.129 60.672 101.001 60.672C99.7046 60.672 99.2246 61.788 99.2246 62.94C99.2246 64.092 99.7046 65.196 101.001 65.196C102.129 65.196 102.489 64.428 102.537 63.732H103.761C103.677 65.136 102.573 66.18 101.013 66.18C99.1886 66.18 98.0006 64.86 98.0006 62.94C98.0006 61.02 99.1886 59.7 101.001 59.7C102.573 59.7 103.617 60.72 103.761 62.1H102.537ZM104.161 59.88H105.049V57.912H106.225V59.88H107.401V60.852H106.225V64.308C106.225 64.956 106.405 65.1 106.909 65.1C107.101 65.1 107.197 65.088 107.413 65.052V66C107.101 66.06 106.921 66.072 106.657 66.072C105.661 66.072 105.049 65.688 105.049 64.272V60.852H104.161V59.88ZM108.376 57.516H109.708V58.788H108.376V57.516ZM108.46 59.88H109.636V66H108.46V59.88ZM110.31 59.88H111.57L113.166 64.788H113.19L114.762 59.88H115.998L113.814 66H112.494L110.31 59.88ZM119.189 66.18C117.245 66.18 116.165 64.8 116.165 62.928C116.165 61.008 117.317 59.688 119.189 59.688C121.049 59.688 122.093 60.912 122.093 62.808C122.093 62.976 122.093 63.156 122.081 63.252H117.377C117.401 64.284 118.001 65.22 119.213 65.22C120.293 65.22 120.701 64.524 120.821 64.116H122.009C121.697 65.292 120.797 66.18 119.189 66.18ZM119.153 60.648C118.169 60.648 117.449 61.32 117.377 62.328H120.857C120.857 61.368 120.197 60.648 119.153 60.648Z" fill="black"/>
<path opacity="0.4" d="M73.63 76.17H72.53C72.53 74.89 73.4 73.95 75.1 73.95C76.33 73.95 77.4 74.63 77.4 75.85C77.4 76.59 77.02 77.05 76.35 77.33V77.35C77.26 77.64 77.64 78.24 77.64 79.05C77.64 80.39 76.65 81.14 75.13 81.14C73.35 81.14 72.35 80.22 72.35 78.64H73.45C73.45 79.59 73.85 80.21 75.06 80.21C76.15 80.21 76.51 79.77 76.51 79.03C76.51 78.08 75.83 77.85 75.14 77.85H74.49V76.96H75.1C75.78 76.96 76.27 76.65 76.27 75.9C76.27 75.36 75.95 74.88 75.09 74.88C73.93 74.88 73.63 75.5 73.63 76.17ZM78.111 74.09H82.961V74.92C81.391 76.23 80.271 78.79 80.271 81H79.131C79.131 78.71 80.551 76.13 81.781 75.04V75.02H78.111V74.09ZM85.9184 75.9H86.8984V76.87H86.9184C87.1784 76.23 87.5984 75.78 88.2884 75.78C88.4684 75.78 88.6084 75.79 88.7584 75.81V76.75C88.6284 76.73 88.5384 76.72 88.4284 76.72C87.5384 76.72 86.8984 77.39 86.8984 78.36V81H85.9184V75.9ZM91.4997 81.15C89.8797 81.15 88.9797 80 88.9797 78.44C88.9797 76.84 89.9397 75.74 91.4997 75.74C93.0497 75.74 93.9197 76.76 93.9197 78.34C93.9197 78.48 93.9197 78.63 93.9097 78.71H89.9897C90.0097 79.57 90.5097 80.35 91.5197 80.35C92.4197 80.35 92.7597 79.77 92.8597 79.43H93.8497C93.5897 80.41 92.8397 81.15 91.4997 81.15ZM91.4697 76.54C90.6497 76.54 90.0497 77.1 89.9897 77.94H92.8897C92.8897 77.14 92.3397 76.54 91.4697 76.54ZM94.7368 81V75.9H95.7168V76.54H95.7368C96.0068 76.15 96.4768 75.75 97.2468 75.75C97.9568 75.75 98.3868 76.07 98.5968 76.64H98.6168C98.9868 76.15 99.4968 75.75 100.287 75.75C101.317 75.75 101.837 76.37 101.837 77.46V81H100.857V77.73C100.857 77.05 100.717 76.59 99.9668 76.59C99.2368 76.59 98.7768 77.1 98.7768 77.87V81H97.7968V77.73C97.7968 77.05 97.6568 76.59 96.9068 76.59C96.1768 76.59 95.7168 77.1 95.7168 77.87V81H94.7368ZM103.891 80.37H103.871V81H102.891V73.85H103.871V76.5H103.891C104.171 76.14 104.661 75.75 105.461 75.75C106.761 75.75 107.751 76.77 107.751 78.45C107.751 80.13 106.761 81.14 105.461 81.14C104.661 81.14 104.171 80.78 103.891 80.37ZM105.301 76.57C104.421 76.57 103.881 77.29 103.881 78.45C103.881 79.6 104.421 80.33 105.301 80.33C106.261 80.33 106.721 79.45 106.721 78.45C106.721 77.45 106.261 76.57 105.301 76.57ZM110.895 81.15C109.305 81.15 108.345 80.05 108.345 78.45C108.345 76.86 109.305 75.74 110.895 75.74C112.485 75.74 113.445 76.85 113.445 78.44C113.445 80.04 112.485 81.15 110.895 81.15ZM110.895 80.34C111.935 80.34 112.425 79.51 112.425 78.45C112.425 77.38 111.935 76.56 110.895 76.56C109.845 76.56 109.365 77.38 109.365 78.45C109.365 79.51 109.845 80.34 110.895 80.34ZM115.198 79.16C115.198 79.85 115.498 80.31 116.228 80.31C117.068 80.31 117.608 79.8 117.608 79.03V75.9H118.588V81H117.608V80.36H117.588C117.318 80.75 116.788 81.14 115.908 81.14C114.968 81.14 114.208 80.6 114.208 79.43V75.9H115.198V79.16ZM119.688 75.9H120.668V76.87H120.688C120.948 76.23 121.368 75.78 122.058 75.78C122.238 75.78 122.378 75.79 122.528 75.81V76.75C122.398 76.73 122.308 76.72 122.198 76.72C121.308 76.72 120.668 77.39 120.668 78.36V81H119.688V75.9ZM125.365 77.92C126.295 78.14 127.315 78.41 127.315 79.55C127.315 80.54 126.555 81.14 125.215 81.14C123.665 81.14 122.895 80.34 122.865 79.3H123.855C123.905 79.89 124.255 80.35 125.205 80.35C126.065 80.35 126.295 79.97 126.295 79.6C126.295 78.96 125.615 78.89 124.955 78.75C124.065 78.55 123.045 78.28 123.045 77.22C123.045 76.34 123.755 75.75 124.995 75.75C126.385 75.75 127.055 76.5 127.125 77.38H126.135C126.065 76.99 125.865 76.54 125.005 76.54C124.355 76.54 124.065 76.8 124.065 77.18C124.065 77.71 124.635 77.75 125.365 77.92ZM128.007 79.91H129.097V81H128.007V79.91ZM135.916 76.52H135.936V73.85H136.926V81H135.936V80.4H135.916C135.646 80.76 135.146 81.14 134.346 81.14C133.046 81.14 132.066 80.13 132.066 78.45C132.066 76.77 133.046 75.75 134.346 75.75C135.146 75.75 135.646 76.12 135.916 76.52ZM134.506 80.33C135.386 80.33 135.936 79.6 135.936 78.45C135.936 77.29 135.386 76.57 134.506 76.57C133.546 76.57 133.086 77.45 133.086 78.45C133.086 79.45 133.546 80.33 134.506 80.33ZM139.399 81.14C138.379 81.14 137.729 80.55 137.729 79.68C137.729 78.54 138.589 78.21 139.859 77.96C140.659 77.81 141.149 77.71 141.149 77.21C141.149 76.84 140.929 76.53 140.179 76.53C139.289 76.53 139.019 76.81 138.969 77.49H137.969C138.019 76.51 138.659 75.74 140.219 75.74C141.269 75.74 142.109 76.18 142.109 77.5V79.84C142.109 80.21 142.159 80.4 142.349 80.4C142.379 80.4 142.409 80.4 142.469 80.39V80.99C142.299 81.03 142.129 81.05 141.969 81.05C141.489 81.05 141.219 80.86 141.169 80.28H141.149C140.809 80.81 140.229 81.14 139.399 81.14ZM139.619 80.35C140.499 80.35 141.149 79.9 141.149 79.01V78.28C140.989 78.43 140.549 78.54 140.029 78.65C139.129 78.84 138.759 79.08 138.759 79.61C138.759 80.09 139.009 80.35 139.619 80.35ZM143.262 81V75.9H144.242V76.54H144.262C144.532 76.15 145.062 75.75 145.942 75.75C146.882 75.75 147.642 76.29 147.642 77.46V81H146.652V77.73C146.652 77.05 146.352 76.59 145.622 76.59C144.782 76.59 144.242 77.1 144.242 77.87V81H143.262ZM150.833 77.92C151.763 78.14 152.783 78.41 152.783 79.55C152.783 80.54 152.023 81.14 150.683 81.14C149.133 81.14 148.363 80.34 148.333 79.3H149.323C149.373 79.89 149.723 80.35 150.673 80.35C151.533 80.35 151.763 79.97 151.763 79.6C151.763 78.96 151.083 78.89 150.423 78.75C149.533 78.55 148.513 78.28 148.513 77.22C148.513 76.34 149.223 75.75 150.463 75.75C151.853 75.75 152.523 76.5 152.593 77.38H151.603C151.533 76.99 151.333 76.54 150.473 76.54C149.823 76.54 149.533 76.8 149.533 77.18C149.533 77.71 150.103 77.75 150.833 77.92ZM155.743 73.85H156.723V81H155.743V73.85ZM160.054 81.15C158.434 81.15 157.534 80 157.534 78.44C157.534 76.84 158.494 75.74 160.054 75.74C161.604 75.74 162.474 76.76 162.474 78.34C162.474 78.48 162.474 78.63 162.464 78.71H158.544C158.564 79.57 159.064 80.35 160.074 80.35C160.974 80.35 161.314 79.77 161.414 79.43H162.404C162.144 80.41 161.394 81.15 160.054 81.15ZM160.024 76.54C159.204 76.54 158.604 77.1 158.544 77.94H161.444C161.444 77.14 160.894 76.54 160.024 76.54ZM165.413 77.92C166.343 78.14 167.363 78.41 167.363 79.55C167.363 80.54 166.603 81.14 165.263 81.14C163.713 81.14 162.943 80.34 162.913 79.3H163.903C163.953 79.89 164.303 80.35 165.253 80.35C166.113 80.35 166.343 79.97 166.343 79.6C166.343 78.96 165.663 78.89 165.003 78.75C164.113 78.55 163.093 78.28 163.093 77.22C163.093 76.34 163.803 75.75 165.043 75.75C166.433 75.75 167.103 76.5 167.173 77.38H166.183C166.113 76.99 165.913 76.54 165.053 76.54C164.403 76.54 164.113 76.8 164.113 77.18C164.113 77.71 164.683 77.75 165.413 77.92ZM73.63 86.17H72.53C72.53 84.89 73.4 83.95 75.1 83.95C76.33 83.95 77.4 84.63 77.4 85.85C77.4 86.59 77.02 87.05 76.35 87.33V87.35C77.26 87.64 77.64 88.24 77.64 89.05C77.64 90.39 76.65 91.14 75.13 91.14C73.35 91.14 72.35 90.22 72.35 88.64H73.45C73.45 89.59 73.85 90.21 75.06 90.21C76.15 90.21 76.51 89.77 76.51 89.03C76.51 88.08 75.83 87.85 75.14 87.85H74.49V86.96H75.1C75.78 86.96 76.27 86.65 76.27 85.9C76.27 85.36 75.95 84.88 75.09 84.88C73.93 84.88 73.63 85.5 73.63 86.17ZM81.2654 91.14C79.3354 91.14 78.5154 89.53 78.5154 87.55C78.5154 85.57 79.3354 83.95 81.2654 83.95C83.1954 83.95 84.0154 85.57 84.0154 87.55C84.0154 89.53 83.1954 91.14 81.2654 91.14ZM81.2654 90.21C82.5154 90.21 82.8854 88.97 82.8854 87.55C82.8854 86.13 82.5154 84.88 81.2654 84.88C80.0254 84.88 79.6454 86.13 79.6454 87.55C79.6454 88.97 80.0254 90.21 81.2654 90.21ZM90.8668 86.52H90.8868V83.85H91.8768V91H90.8868V90.4H90.8668C90.5968 90.76 90.0968 91.14 89.2968 91.14C87.9968 91.14 87.0168 90.13 87.0168 88.45C87.0168 86.77 87.9968 85.75 89.2968 85.75C90.0968 85.75 90.5968 86.12 90.8668 86.52ZM89.4568 90.33C90.3368 90.33 90.8868 89.6 90.8868 88.45C90.8868 87.29 90.3368 86.57 89.4568 86.57C88.4968 86.57 88.0368 87.45 88.0368 88.45C88.0368 89.45 88.4968 90.33 89.4568 90.33ZM95.2106 91.15C93.5906 91.15 92.6906 90 92.6906 88.44C92.6906 86.84 93.6506 85.74 95.2106 85.74C96.7606 85.74 97.6306 86.76 97.6306 88.34C97.6306 88.48 97.6306 88.63 97.6206 88.71H93.7006C93.7206 89.57 94.2206 90.35 95.2306 90.35C96.1306 90.35 96.4706 89.77 96.5706 89.43H97.5606C97.3006 90.41 96.5506 91.15 95.2106 91.15ZM95.1806 86.54C94.3606 86.54 93.7606 87.1 93.7006 87.94H96.6006C96.6006 87.14 96.0506 86.54 95.1806 86.54ZM98.4477 85.9H99.4277V86.87H99.4477C99.7077 86.23 100.128 85.78 100.818 85.78C100.998 85.78 101.138 85.79 101.288 85.81V86.75C101.158 86.73 101.068 86.72 100.958 86.72C100.068 86.72 99.4277 87.39 99.4277 88.36V91H98.4477V85.9ZM102.002 91V85.9H102.982V86.54H103.002C103.272 86.15 103.802 85.75 104.682 85.75C105.622 85.75 106.382 86.29 106.382 87.46V91H105.392V87.73C105.392 87.05 105.092 86.59 104.362 86.59C103.522 86.59 102.982 87.1 102.982 87.87V91H102.002ZM107.362 83.93H108.472V84.99H107.362V83.93ZM107.432 85.9H108.412V91H107.432V85.9ZM111.744 91.15C110.124 91.15 109.224 90 109.224 88.44C109.224 86.84 110.184 85.74 111.744 85.74C113.294 85.74 114.164 86.76 114.164 88.34C114.164 88.48 114.164 88.63 114.154 88.71H110.234C110.254 89.57 110.754 90.35 111.764 90.35C112.664 90.35 113.004 89.77 113.104 89.43H114.094C113.834 90.41 113.084 91.15 111.744 91.15ZM111.714 86.54C110.894 86.54 110.294 87.1 110.234 87.94H113.134C113.134 87.14 112.584 86.54 111.714 86.54ZM114.981 85.9H115.961V86.87H115.981C116.241 86.23 116.661 85.78 117.351 85.78C117.531 85.78 117.671 85.79 117.821 85.81V86.75C117.691 86.73 117.601 86.72 117.491 86.72C116.601 86.72 115.961 87.39 115.961 88.36V91H114.981V85.9ZM120.658 87.92C121.588 88.14 122.608 88.41 122.608 89.55C122.608 90.54 121.848 91.14 120.507 91.14C118.958 91.14 118.188 90.34 118.158 89.3H119.148C119.198 89.89 119.548 90.35 120.498 90.35C121.358 90.35 121.588 89.97 121.588 89.6C121.588 88.96 120.908 88.89 120.248 88.75C119.358 88.55 118.338 88.28 118.338 87.22C118.338 86.34 119.048 85.75 120.288 85.75C121.678 85.75 122.348 86.5 122.418 87.38H121.428C121.358 86.99 121.158 86.54 120.298 86.54C119.648 86.54 119.358 86.8 119.358 87.18C119.358 87.71 119.928 87.75 120.658 87.92ZM125.477 83.93H126.587V84.99H125.477V83.93ZM125.297 92.81C125.087 92.81 124.937 92.79 124.687 92.75V91.94C124.857 91.96 124.937 91.97 125.077 91.97C125.387 91.97 125.537 91.8 125.537 91.23V85.9H126.517V91.27C126.517 92.36 126.017 92.81 125.297 92.81ZM129.87 91.15C128.28 91.15 127.32 90.05 127.32 88.45C127.32 86.86 128.28 85.74 129.87 85.74C131.46 85.74 132.42 86.85 132.42 88.44C132.42 90.04 131.46 91.15 129.87 91.15ZM129.87 90.34C130.91 90.34 131.4 89.51 131.4 88.45C131.4 87.38 130.91 86.56 129.87 86.56C128.82 86.56 128.34 87.38 128.34 88.45C128.34 89.51 128.82 90.34 129.87 90.34ZM134.173 89.16C134.173 89.85 134.473 90.31 135.203 90.31C136.043 90.31 136.583 89.8 136.583 89.03V85.9H137.563V91H136.583V90.36H136.563C136.293 90.75 135.763 91.14 134.883 91.14C133.943 91.14 133.183 90.6 133.183 89.43V85.9H134.173V89.16ZM138.663 85.9H139.643V86.87H139.663C139.923 86.23 140.343 85.78 141.033 85.78C141.213 85.78 141.353 85.79 141.503 85.81V86.75C141.373 86.73 141.283 86.72 141.173 86.72C140.283 86.72 139.643 87.39 139.643 88.36V91H138.663V85.9ZM144.339 87.92C145.269 88.14 146.289 88.41 146.289 89.55C146.289 90.54 145.529 91.14 144.189 91.14C142.639 91.14 141.869 90.34 141.839 89.3H142.829C142.879 89.89 143.229 90.35 144.179 90.35C145.039 90.35 145.269 89.97 145.269 89.6C145.269 88.96 144.589 88.89 143.929 88.75C143.039 88.55 142.019 88.28 142.019 87.22C142.019 86.34 142.729 85.75 143.969 85.75C145.359 85.75 146.029 86.5 146.099 87.38H145.109C145.039 86.99 144.839 86.54 143.979 86.54C143.329 86.54 143.039 86.8 143.039 87.18C143.039 87.71 143.609 87.75 144.339 87.92Z" fill="black"/>
<rect opacity="0.2" x="20" y="52" width="40" height="40" rx="4.70588" fill="#FFB800"/>
<g clip-path="url(#clip0_2806_1029)">
<path d="M47.0754 65.2349C47.0754 66.7138 45.875 67.882 44.425 67.882C42.978 67.882 41.7812 66.711 41.7812 65.2349C41.7812 63.7732 42.968 62.5879 44.425 62.5879C45.8886 62.5879 47.0754 63.7732 47.0754 65.2349Z" fill="#FFB800"/>
<path d="M38.1159 69.2677C38.1882 69.1701 38.1177 69.0319 37.9962 69.0332L33.4505 69.0807C32.8554 69.0807 32.2917 68.5698 32.2917 67.8496C32.2917 67.1746 32.8152 66.6184 33.4505 66.6184H38.1387C41.5584 66.4652 43.1947 69.0241 43.6341 69.3301C44.0164 69.6988 44.4039 70.2091 44.9216 70.2091H48.2358C48.8873 70.2091 49.4165 70.7351 49.4206 71.3865C49.4247 72.0438 48.893 72.5787 48.2358 72.5787H43.2684C43.0876 72.5787 42.9158 72.4994 42.7986 72.3617C42.5386 72.0564 42.061 72.0763 41.8273 72.4022L41.3145 73.1172C41.1107 73.4014 41.122 73.7869 41.3421 74.0587C41.7807 74.6004 42.6949 75.7287 42.64 75.6608C43.4988 76.5857 43.3812 78.3418 42.3753 79.0918L39.7125 81.1394C39.2596 81.4706 38.6596 81.4644 38.2126 81.1207C37.8655 80.8394 37.689 80.4207 37.689 80.002C37.689 79.5645 37.8831 79.1271 38.2714 78.8521L40.1164 77.3919C40.3047 77.2482 40.34 76.9607 40.1871 76.7669C39.0718 75.3667 37.7038 75.5303 37.2517 75.4546L33.04 80.8541C32.5608 81.496 31.6887 81.5771 31.1106 81.0916C30.5165 80.5854 30.4106 79.6667 30.8871 79.0292L38.1159 69.2677Z" fill="#FFB800"/>
</g>
<defs>
<clipPath id="clip0_2806_1029">
<rect width="20" height="20" fill="white" transform="translate(30 62)"/>
</clipPath>
</defs>
</svg>
