<svg width="180" height="186" viewBox="0 0 180 186" fill="none" xmlns="http://www.w3.org/2000/svg">
<rect width="180" height="186" fill="white"/>
<path d="M21.024 37V25.56H25.792C28.32 25.56 29.68 26.744 29.68 28.856C29.68 30.312 28.8 31.368 27.552 31.656V31.688C30.192 32.184 29.216 36.696 29.84 36.888V37H27.952C27.44 36.52 28.528 32.52 25.728 32.52H22.784V37H21.024ZM22.784 27.08V31H25.408C27.024 31 27.904 30.296 27.904 28.984C27.904 27.752 27.2 27.08 25.44 27.08H22.784ZM34.9678 25.368H36.8078L35.2718 27.576H34.0238L34.9678 25.368ZM34.8558 37.24C32.2638 37.24 30.8238 35.4 30.8238 32.904C30.8238 30.344 32.3598 28.584 34.8558 28.584C37.3358 28.584 38.7278 30.216 38.7278 32.744C38.7278 32.968 38.7278 33.208 38.7118 33.336H32.4398C32.4718 34.712 33.2718 35.96 34.8878 35.96C36.3278 35.96 36.8718 35.032 37.0318 34.488H38.6158C38.1998 36.056 36.9998 37.24 34.8558 37.24ZM34.8078 29.864C33.4958 29.864 32.5358 30.76 32.4398 32.104H37.0798C37.0798 30.824 36.1998 29.864 34.8078 29.864ZM45.7311 31.8C45.6671 30.952 45.1871 29.896 43.6831 29.896C41.9551 29.896 41.3151 31.384 41.3151 32.92C41.3151 34.456 41.9551 35.928 43.6831 35.928C45.1871 35.928 45.6671 34.904 45.7311 33.976H47.3631C47.2511 35.848 45.7791 37.24 43.6991 37.24C41.2671 37.24 39.6831 35.48 39.6831 32.92C39.6831 30.36 41.2671 28.6 43.6831 28.6C45.7791 28.6 47.1711 29.96 47.3631 31.8H45.7311ZM48.6133 25.56H50.1813V37H48.6133V25.56ZM54.136 37.224C52.504 37.224 51.464 36.28 51.464 34.888C51.464 33.064 52.84 32.536 54.872 32.136C56.152 31.896 56.936 31.736 56.936 30.936C56.936 30.344 56.584 29.848 55.384 29.848C53.96 29.848 53.528 30.296 53.448 31.384H51.848C51.928 29.816 52.952 28.584 55.448 28.584C57.128 28.584 58.472 29.288 58.472 31.4V35.144C58.472 35.736 58.552 36.04 58.856 36.04C58.904 36.04 58.952 36.04 59.048 36.024V36.984C58.776 37.048 58.504 37.08 58.248 37.08C57.48 37.08 57.048 36.776 56.968 35.848H56.936C56.392 36.696 55.464 37.224 54.136 37.224ZM54.488 35.96C55.896 35.96 56.936 35.24 56.936 33.816V32.648C56.68 32.888 55.976 33.064 55.144 33.24C53.704 33.544 53.112 33.928 53.112 34.776C53.112 35.544 53.512 35.96 54.488 35.96ZM60.3164 37V28.84H61.8844V29.864H61.9164C62.3484 29.24 63.1004 28.6 64.3324 28.6C65.4684 28.6 66.1564 29.112 66.4924 30.024H66.5244C67.1164 29.24 67.9324 28.6 69.1964 28.6C70.8444 28.6 71.6764 29.592 71.6764 31.336V37H70.1084V31.768C70.1084 30.68 69.8844 29.944 68.6844 29.944C67.5164 29.944 66.7804 30.76 66.7804 31.992V37H65.2124V31.768C65.2124 30.68 64.9884 29.944 63.7884 29.944C62.6204 29.944 61.8844 30.76 61.8844 31.992V37H60.3164ZM75.5735 37.224C73.9415 37.224 72.9015 36.28 72.9015 34.888C72.9015 33.064 74.2775 32.536 76.3095 32.136C77.5895 31.896 78.3735 31.736 78.3735 30.936C78.3735 30.344 78.0215 29.848 76.8215 29.848C75.3975 29.848 74.9655 30.296 74.8855 31.384H73.2855C73.3655 29.816 74.3895 28.584 76.8855 28.584C78.5655 28.584 79.9095 29.288 79.9095 31.4V35.144C79.9095 35.736 79.9895 36.04 80.2935 36.04C80.3415 36.04 80.3895 36.04 80.4855 36.024V36.984C80.2135 37.048 79.9415 37.08 79.6855 37.08C78.9175 37.08 78.4855 36.776 78.4055 35.848H78.3735C77.8295 36.696 76.9015 37.224 75.5735 37.224ZM75.9255 35.96C77.3335 35.96 78.3735 35.24 78.3735 33.816V32.648C78.1175 32.888 77.4135 33.064 76.5815 33.24C75.1415 33.544 74.5495 33.928 74.5495 34.776C74.5495 35.544 74.9495 35.96 75.9255 35.96ZM80.8036 28.84H81.9876V26.216H83.5556V28.84H85.1236V30.136H83.5556V34.744C83.5556 35.608 83.7956 35.8 84.4676 35.8C84.7236 35.8 84.8516 35.784 85.1396 35.736V37C84.7236 37.08 84.4836 37.096 84.1316 37.096C82.8036 37.096 81.9876 36.584 81.9876 34.696V30.136H80.8036V28.84ZM86.4231 25.688H88.1991V27.384H86.4231V25.688ZM86.5351 28.84H88.1031V37H86.5351V28.84ZM93.4819 37.24C90.9379 37.24 89.4019 35.48 89.4019 32.92C89.4019 30.376 90.9379 28.584 93.4819 28.584C96.0259 28.584 97.5619 30.36 97.5619 32.904C97.5619 35.464 96.0259 37.24 93.4819 37.24ZM93.4819 35.944C95.1459 35.944 95.9299 34.616 95.9299 32.92C95.9299 31.208 95.1459 29.896 93.4819 29.896C91.8019 29.896 91.0339 31.208 91.0339 32.92C91.0339 34.616 91.8019 35.944 93.4819 35.944ZM98.8633 37V28.84H100.431V29.864H100.463C100.895 29.24 101.743 28.6 103.151 28.6C104.655 28.6 105.871 29.464 105.871 31.336V37H104.287V31.768C104.287 30.68 103.807 29.944 102.639 29.944C101.295 29.944 100.431 30.76 100.431 31.992V37H98.8633ZM110.977 32.072C112.465 32.424 114.097 32.856 114.097 34.68C114.097 36.264 112.881 37.224 110.737 37.224C108.257 37.224 107.025 35.944 106.977 34.28H108.561C108.641 35.224 109.201 35.96 110.721 35.96C112.097 35.96 112.465 35.352 112.465 34.76C112.465 33.736 111.377 33.624 110.321 33.4C108.897 33.08 107.265 32.648 107.265 30.952C107.265 29.544 108.401 28.6 110.385 28.6C112.609 28.6 113.681 29.8 113.793 31.208H112.209C112.097 30.584 111.777 29.864 110.401 29.864C109.361 29.864 108.897 30.28 108.897 30.888C108.897 31.736 109.809 31.8 110.977 32.072Z" fill="black"/>
<path opacity="0.1" d="M20 58L160 58" stroke="black" stroke-linecap="square"/>
<path opacity="0.1" d="M20 96L160 96" stroke="black" stroke-linecap="square"/>
<path opacity="0.1" d="M20 134L160 134" stroke="black" stroke-linecap="square"/>
<path d="M24.508 75.49C26.342 75.49 27.616 76.848 27.616 78.696C27.616 80.838 26.076 82.196 24.088 82.196C21.778 82.196 20.518 80.796 20.462 79.172H22.002C22.1 80.054 22.618 80.894 24.004 80.894C25.236 80.894 26.048 80.138 26.048 78.696C26.048 77.338 25.306 76.722 24.102 76.722C23.318 76.722 22.604 76.988 22.142 77.59H20.588L21.624 72.326H27.126V73.628H22.786L22.254 76.302V76.33C22.758 75.812 23.472 75.49 24.508 75.49ZM32.6571 82.196C29.9551 82.196 28.8071 79.942 28.8071 77.17C28.8071 74.398 29.9551 72.13 32.6571 72.13C35.3591 72.13 36.5071 74.398 36.5071 77.17C36.5071 79.942 35.3591 82.196 32.6571 82.196ZM32.6571 80.894C34.4071 80.894 34.9251 79.158 34.9251 77.17C34.9251 75.182 34.4071 73.432 32.6571 73.432C30.9211 73.432 30.3891 75.182 30.3891 77.17C30.3891 79.158 30.9211 80.894 32.6571 80.894ZM44.1671 83.414V82.168C42.2211 81.972 40.7511 80.838 40.6531 78.808H42.0811C42.1791 80.026 42.8791 80.768 44.1671 80.936V77.59L44.1391 77.576C42.6831 77.184 41.0451 76.582 41.0451 74.902C41.0451 73.32 42.2491 72.284 44.1671 72.214V71.22H45.0071V72.256C46.7151 72.452 47.9051 73.516 48.0171 75.336H46.5891C46.4631 74.286 45.9171 73.684 45.0071 73.502V76.47C46.9251 77.03 48.2691 77.534 48.2691 79.466C48.2691 80.936 47.1771 82.112 45.0071 82.196V83.414H44.1671ZM42.4731 74.762C42.4731 75.588 43.1591 75.91 44.1671 76.218V73.446C43.1311 73.502 42.4731 73.978 42.4731 74.762ZM46.8271 79.508C46.8271 78.584 46.2391 78.206 45.0071 77.828V80.978C46.3511 80.908 46.8271 80.32 46.8271 79.508Z" fill="black"/>
<path d="M93 115C93 108.925 97.9249 104 104 104H149C155.075 104 160 108.925 160 115V115C160 121.075 155.075 126 149 126H104C97.9249 126 93 121.075 93 115V115Z" fill="#D9F4F7"/>
<path d="M101.61 119V111.85H104.66C106.13 111.85 107.08 112.6 107.08 113.9C107.08 114.9 106.57 115.48 105.75 115.68V115.7C107.4 116.01 106.8 118.81 107.18 118.93V119H105.93C105.6 118.7 106.27 116.24 104.55 116.24H102.8V119H101.61ZM102.8 112.86V115.22H104.41C105.14 115.22 105.9 115.08 105.9 114.04C105.9 113.01 105.14 112.86 104.41 112.86H102.8ZM110.156 118.29C111.026 118.29 111.376 117.75 111.466 117.44H112.516C112.256 118.41 111.496 119.15 110.186 119.15C108.596 119.15 107.626 118.05 107.626 116.45C107.626 114.79 108.596 113.75 110.136 113.75C111.786 113.75 112.596 114.9 112.596 116.72H108.676C108.676 117.58 109.226 118.29 110.156 118.29ZM110.136 114.58C109.286 114.58 108.676 115.15 108.676 115.94H111.546C111.546 115.15 110.986 114.58 110.136 114.58ZM118.956 113.75C119.986 113.75 120.516 114.37 120.516 115.47V119H119.456V115.77C119.456 115.08 119.316 114.64 118.596 114.64C117.886 114.64 117.446 115.13 117.446 115.89V119H116.386V115.77C116.386 115.08 116.246 114.64 115.516 114.64C114.816 114.64 114.366 115.13 114.366 115.89V119H113.316V113.89H114.366V114.55H114.386C114.656 114.15 115.136 113.75 115.906 113.75C116.626 113.75 117.056 114.08 117.266 114.63H117.286C117.666 114.14 118.166 113.75 118.956 113.75ZM124.12 113.75C125.43 113.75 126.4 114.77 126.4 116.45C126.4 118.13 125.43 119.15 124.12 119.15C123.33 119.15 122.83 118.76 122.56 118.41H122.54V119H121.49V111.85H122.54V114.51H122.56C122.83 114.12 123.33 113.75 124.12 113.75ZM123.94 118.29C124.86 118.29 125.35 117.45 125.35 116.45C125.35 115.45 124.86 114.61 123.94 114.61C123.08 114.61 122.55 115.31 122.55 116.45C122.55 117.58 123.08 118.29 123.94 118.29ZM129.435 119.15C127.835 119.15 126.865 118.04 126.865 116.45C126.865 114.86 127.835 113.75 129.435 113.75C131.035 113.75 132.005 114.86 132.005 116.45C132.005 118.04 131.035 119.15 129.435 119.15ZM129.435 118.29C130.435 118.29 130.955 117.5 130.955 116.45C130.955 115.39 130.435 114.61 129.435 114.61C128.435 114.61 127.915 115.39 127.915 116.45C127.915 117.5 128.435 118.29 129.435 118.29ZM136.09 113.89H137.14V119H136.09V118.34H136.07C135.8 118.74 135.27 119.14 134.39 119.14C133.44 119.14 132.69 118.59 132.69 117.42V113.89H133.75V117.12C133.75 117.81 134.04 118.25 134.76 118.25C135.57 118.25 136.09 117.76 136.09 117V113.89ZM140.571 113.77C140.751 113.77 140.881 113.78 141.031 113.8V114.79H141.011C140.001 114.62 139.191 115.3 139.191 116.39V119H138.141V113.89H139.191V114.85H139.211C139.481 114.21 139.901 113.77 140.571 113.77ZM143.915 115.91C144.855 116.13 145.875 116.34 145.875 117.56C145.875 118.54 145.035 119.15 143.795 119.15C142.145 119.15 141.435 118.38 141.385 117.3H142.405C142.455 117.85 142.695 118.32 143.775 118.32C144.505 118.32 144.815 117.96 144.815 117.64C144.815 117 144.205 116.95 143.455 116.77C142.645 116.58 141.545 116.42 141.545 115.26C141.545 114.42 142.285 113.75 143.565 113.75C144.955 113.75 145.615 114.5 145.685 115.39H144.665C144.595 114.99 144.395 114.58 143.575 114.58C142.945 114.58 142.605 114.82 142.605 115.18C142.605 115.7 143.175 115.74 143.915 115.91ZM150.096 111.77L149.266 113.08H148.446L148.876 111.77H150.096ZM148.916 118.29C149.786 118.29 150.136 117.75 150.226 117.44H151.276C151.016 118.41 150.256 119.15 148.946 119.15C147.356 119.15 146.386 118.05 146.386 116.45C146.386 114.79 147.356 113.75 148.896 113.75C150.546 113.75 151.356 114.9 151.356 116.72H147.436C147.436 117.58 147.986 118.29 148.916 118.29ZM148.896 114.58C148.046 114.58 147.436 115.15 147.436 115.94H150.306C150.306 115.15 149.746 114.58 148.896 114.58Z" fill="black"/>
<path d="M22.814 110.326H24.018V120H22.506V112.818C22.1 113.21 21.344 113.28 20.476 113.28V112.048C22.184 112.006 22.702 111.488 22.814 110.326ZM29.5399 120.196C26.8379 120.196 25.6899 117.942 25.6899 115.17C25.6899 112.398 26.8379 110.13 29.5399 110.13C32.2419 110.13 33.3899 112.398 33.3899 115.17C33.3899 117.942 32.2419 120.196 29.5399 120.196ZM29.5399 118.894C31.2899 118.894 31.8079 117.158 31.8079 115.17C31.8079 113.182 31.2899 111.432 29.5399 111.432C27.8039 111.432 27.2719 113.182 27.2719 115.17C27.2719 117.158 27.8039 118.894 29.5399 118.894ZM38.618 120.196C35.916 120.196 34.768 117.942 34.768 115.17C34.768 112.398 35.916 110.13 38.618 110.13C41.32 110.13 42.468 112.398 42.468 115.17C42.468 117.942 41.32 120.196 38.618 120.196ZM38.618 118.894C40.368 118.894 40.886 117.158 40.886 115.17C40.886 113.182 40.368 111.432 38.618 111.432C36.882 111.432 36.35 113.182 36.35 115.17C36.35 117.158 36.882 118.894 38.618 118.894ZM50.128 121.414V120.168C48.182 119.972 46.712 118.838 46.614 116.808H48.042C48.14 118.026 48.84 118.768 50.128 118.936V115.59L50.1 115.576C48.644 115.184 47.006 114.582 47.006 112.902C47.006 111.32 48.21 110.284 50.128 110.214V109.22H50.968V110.256C52.676 110.452 53.866 111.516 53.978 113.336H52.55C52.424 112.286 51.878 111.684 50.968 111.502V114.47C52.886 115.03 54.23 115.534 54.23 117.466C54.23 118.936 53.138 120.112 50.968 120.196V121.414H50.128ZM48.434 112.762C48.434 113.588 49.12 113.91 50.128 114.218V111.446C49.092 111.502 48.434 111.978 48.434 112.762ZM52.788 117.508C52.788 116.584 52.2 116.206 50.968 115.828V118.978C52.312 118.908 52.788 118.32 52.788 117.508Z" fill="black"/>
<path d="M93 77C93 70.9249 97.9249 66 104 66H149C155.075 66 160 70.9249 160 77V77C160 83.0751 155.075 88 149 88H104C97.9249 88 93 83.0751 93 77V77Z" fill="#D9F4F7"/>
<path d="M101.61 81V73.85H104.66C106.13 73.85 107.08 74.6 107.08 75.9C107.08 76.9 106.57 77.48 105.75 77.68V77.7C107.4 78.01 106.8 80.81 107.18 80.93V81H105.93C105.6 80.7 106.27 78.24 104.55 78.24H102.8V81H101.61ZM102.8 74.86V77.22H104.41C105.14 77.22 105.9 77.08 105.9 76.04C105.9 75.01 105.14 74.86 104.41 74.86H102.8ZM110.156 80.29C111.026 80.29 111.376 79.75 111.466 79.44H112.516C112.256 80.41 111.496 81.15 110.186 81.15C108.596 81.15 107.626 80.05 107.626 78.45C107.626 76.79 108.596 75.75 110.136 75.75C111.786 75.75 112.596 76.9 112.596 78.72H108.676C108.676 79.58 109.226 80.29 110.156 80.29ZM110.136 76.58C109.286 76.58 108.676 77.15 108.676 77.94H111.546C111.546 77.15 110.986 76.58 110.136 76.58ZM118.956 75.75C119.986 75.75 120.516 76.37 120.516 77.47V81H119.456V77.77C119.456 77.08 119.316 76.64 118.596 76.64C117.886 76.64 117.446 77.13 117.446 77.89V81H116.386V77.77C116.386 77.08 116.246 76.64 115.516 76.64C114.816 76.64 114.366 77.13 114.366 77.89V81H113.316V75.89H114.366V76.55H114.386C114.656 76.15 115.136 75.75 115.906 75.75C116.626 75.75 117.056 76.08 117.266 76.63H117.286C117.666 76.14 118.166 75.75 118.956 75.75ZM124.12 75.75C125.43 75.75 126.4 76.77 126.4 78.45C126.4 80.13 125.43 81.15 124.12 81.15C123.33 81.15 122.83 80.76 122.56 80.41H122.54V81H121.49V73.85H122.54V76.51H122.56C122.83 76.12 123.33 75.75 124.12 75.75ZM123.94 80.29C124.86 80.29 125.35 79.45 125.35 78.45C125.35 77.45 124.86 76.61 123.94 76.61C123.08 76.61 122.55 77.31 122.55 78.45C122.55 79.58 123.08 80.29 123.94 80.29ZM129.435 81.15C127.835 81.15 126.865 80.04 126.865 78.45C126.865 76.86 127.835 75.75 129.435 75.75C131.035 75.75 132.005 76.86 132.005 78.45C132.005 80.04 131.035 81.15 129.435 81.15ZM129.435 80.29C130.435 80.29 130.955 79.5 130.955 78.45C130.955 77.39 130.435 76.61 129.435 76.61C128.435 76.61 127.915 77.39 127.915 78.45C127.915 79.5 128.435 80.29 129.435 80.29ZM136.09 75.89H137.14V81H136.09V80.34H136.07C135.8 80.74 135.27 81.14 134.39 81.14C133.44 81.14 132.69 80.59 132.69 79.42V75.89H133.75V79.12C133.75 79.81 134.04 80.25 134.76 80.25C135.57 80.25 136.09 79.76 136.09 79V75.89ZM140.571 75.77C140.751 75.77 140.881 75.78 141.031 75.8V76.79H141.011C140.001 76.62 139.191 77.3 139.191 78.39V81H138.141V75.89H139.191V76.85H139.211C139.481 76.21 139.901 75.77 140.571 75.77ZM143.915 77.91C144.855 78.13 145.875 78.34 145.875 79.56C145.875 80.54 145.035 81.15 143.795 81.15C142.145 81.15 141.435 80.38 141.385 79.3H142.405C142.455 79.85 142.695 80.32 143.775 80.32C144.505 80.32 144.815 79.96 144.815 79.64C144.815 79 144.205 78.95 143.455 78.77C142.645 78.58 141.545 78.42 141.545 77.26C141.545 76.42 142.285 75.75 143.565 75.75C144.955 75.75 145.615 76.5 145.685 77.39H144.665C144.595 76.99 144.395 76.58 143.575 76.58C142.945 76.58 142.605 76.82 142.605 77.18C142.605 77.7 143.175 77.74 143.915 77.91ZM150.096 73.77L149.266 75.08H148.446L148.876 73.77H150.096ZM148.916 80.29C149.786 80.29 150.136 79.75 150.226 79.44H151.276C151.016 80.41 150.256 81.15 148.946 81.15C147.356 81.15 146.386 80.05 146.386 78.45C146.386 76.79 147.356 75.75 148.896 75.75C150.546 75.75 151.356 76.9 151.356 78.72H147.436C147.436 79.58 147.986 80.29 148.916 80.29ZM148.896 76.58C148.046 76.58 147.436 77.15 147.436 77.94H150.306C150.306 77.15 149.746 76.58 148.896 76.58Z" fill="black"/>
<path d="M93 153C93 146.925 97.9249 142 104 142H149C155.075 142 160 146.925 160 153V153C160 159.075 155.075 164 149 164H104C97.9249 164 93 159.075 93 153V153Z" fill="#D9F4F7"/>
<path d="M101.61 157V149.85H104.66C106.13 149.85 107.08 150.6 107.08 151.9C107.08 152.9 106.57 153.48 105.75 153.68V153.7C107.4 154.01 106.8 156.81 107.18 156.93V157H105.93C105.6 156.7 106.27 154.24 104.55 154.24H102.8V157H101.61ZM102.8 150.86V153.22H104.41C105.14 153.22 105.9 153.08 105.9 152.04C105.9 151.01 105.14 150.86 104.41 150.86H102.8ZM110.156 156.29C111.026 156.29 111.376 155.75 111.466 155.44H112.516C112.256 156.41 111.496 157.15 110.186 157.15C108.596 157.15 107.626 156.05 107.626 154.45C107.626 152.79 108.596 151.75 110.136 151.75C111.786 151.75 112.596 152.9 112.596 154.72H108.676C108.676 155.58 109.226 156.29 110.156 156.29ZM110.136 152.58C109.286 152.58 108.676 153.15 108.676 153.94H111.546C111.546 153.15 110.986 152.58 110.136 152.58ZM118.956 151.75C119.986 151.75 120.516 152.37 120.516 153.47V157H119.456V153.77C119.456 153.08 119.316 152.64 118.596 152.64C117.886 152.64 117.446 153.13 117.446 153.89V157H116.386V153.77C116.386 153.08 116.246 152.64 115.516 152.64C114.816 152.64 114.366 153.13 114.366 153.89V157H113.316V151.89H114.366V152.55H114.386C114.656 152.15 115.136 151.75 115.906 151.75C116.626 151.75 117.056 152.08 117.266 152.63H117.286C117.666 152.14 118.166 151.75 118.956 151.75ZM124.12 151.75C125.43 151.75 126.4 152.77 126.4 154.45C126.4 156.13 125.43 157.15 124.12 157.15C123.33 157.15 122.83 156.76 122.56 156.41H122.54V157H121.49V149.85H122.54V152.51H122.56C122.83 152.12 123.33 151.75 124.12 151.75ZM123.94 156.29C124.86 156.29 125.35 155.45 125.35 154.45C125.35 153.45 124.86 152.61 123.94 152.61C123.08 152.61 122.55 153.31 122.55 154.45C122.55 155.58 123.08 156.29 123.94 156.29ZM129.435 157.15C127.835 157.15 126.865 156.04 126.865 154.45C126.865 152.86 127.835 151.75 129.435 151.75C131.035 151.75 132.005 152.86 132.005 154.45C132.005 156.04 131.035 157.15 129.435 157.15ZM129.435 156.29C130.435 156.29 130.955 155.5 130.955 154.45C130.955 153.39 130.435 152.61 129.435 152.61C128.435 152.61 127.915 153.39 127.915 154.45C127.915 155.5 128.435 156.29 129.435 156.29ZM136.09 151.89H137.14V157H136.09V156.34H136.07C135.8 156.74 135.27 157.14 134.39 157.14C133.44 157.14 132.69 156.59 132.69 155.42V151.89H133.75V155.12C133.75 155.81 134.04 156.25 134.76 156.25C135.57 156.25 136.09 155.76 136.09 155V151.89ZM140.571 151.77C140.751 151.77 140.881 151.78 141.031 151.8V152.79H141.011C140.001 152.62 139.191 153.3 139.191 154.39V157H138.141V151.89H139.191V152.85H139.211C139.481 152.21 139.901 151.77 140.571 151.77ZM143.915 153.91C144.855 154.13 145.875 154.34 145.875 155.56C145.875 156.54 145.035 157.15 143.795 157.15C142.145 157.15 141.435 156.38 141.385 155.3H142.405C142.455 155.85 142.695 156.32 143.775 156.32C144.505 156.32 144.815 155.96 144.815 155.64C144.815 155 144.205 154.95 143.455 154.77C142.645 154.58 141.545 154.42 141.545 153.26C141.545 152.42 142.285 151.75 143.565 151.75C144.955 151.75 145.615 152.5 145.685 153.39H144.665C144.595 152.99 144.395 152.58 143.575 152.58C142.945 152.58 142.605 152.82 142.605 153.18C142.605 153.7 143.175 153.74 143.915 153.91ZM150.096 149.77L149.266 151.08H148.446L148.876 149.77H150.096ZM148.916 156.29C149.786 156.29 150.136 155.75 150.226 155.44H151.276C151.016 156.41 150.256 157.15 148.946 157.15C147.356 157.15 146.386 156.05 146.386 154.45C146.386 152.79 147.356 151.75 148.896 151.75C150.546 151.75 151.356 152.9 151.356 154.72H147.436C147.436 155.58 147.986 156.29 148.916 156.29ZM148.896 152.58C148.046 152.58 147.436 153.15 147.436 153.94H150.306C150.306 153.15 149.746 152.58 148.896 152.58Z" fill="black"/>
<path d="M24.27 158.196C22.17 158.196 20.56 157.23 20.56 155.27C20.56 153.94 21.428 153.268 22.352 152.862V152.834C21.666 152.47 21.036 151.854 21.036 150.762C21.036 149.096 22.394 148.13 24.27 148.13C26.146 148.13 27.504 149.096 27.504 150.762C27.504 151.854 26.86 152.47 26.188 152.834V152.862C27.098 153.268 27.98 153.94 27.98 155.27C27.98 157.23 26.37 158.196 24.27 158.196ZM24.27 152.26C25.362 152.26 26.006 151.798 26.006 150.818C26.006 149.852 25.362 149.362 24.27 149.362C23.178 149.362 22.534 149.852 22.534 150.818C22.534 151.798 23.178 152.26 24.27 152.26ZM24.27 156.936C25.614 156.936 26.412 156.292 26.412 155.186C26.412 154.108 25.614 153.464 24.27 153.464C22.926 153.464 22.128 154.108 22.128 155.186C22.128 156.292 22.926 156.936 24.27 156.936ZM32.9579 158.196C30.2559 158.196 29.1079 155.942 29.1079 153.17C29.1079 150.398 30.2559 148.13 32.9579 148.13C35.6599 148.13 36.8079 150.398 36.8079 153.17C36.8079 155.942 35.6599 158.196 32.9579 158.196ZM32.9579 156.894C34.7079 156.894 35.2259 155.158 35.2259 153.17C35.2259 151.182 34.7079 149.432 32.9579 149.432C31.2219 149.432 30.6899 151.182 30.6899 153.17C30.6899 155.158 31.2219 156.894 32.9579 156.894ZM44.4678 159.414V158.168C42.5218 157.972 41.0518 156.838 40.9538 154.808H42.3818C42.4798 156.026 43.1798 156.768 44.4678 156.936V153.59L44.4398 153.576C42.9838 153.184 41.3458 152.582 41.3458 150.902C41.3458 149.32 42.5498 148.284 44.4678 148.214V147.22H45.3078V148.256C47.0158 148.452 48.2058 149.516 48.3178 151.336H46.8898C46.7638 150.286 46.2178 149.684 45.3078 149.502V152.47C47.2258 153.03 48.5698 153.534 48.5698 155.466C48.5698 156.936 47.4778 158.112 45.3078 158.196V159.414H44.4678ZM42.7738 150.762C42.7738 151.588 43.4598 151.91 44.4678 152.218V149.446C43.4318 149.502 42.7738 149.978 42.7738 150.762ZM47.1278 155.508C47.1278 154.584 46.5398 154.206 45.3078 153.828V156.978C46.6518 156.908 47.1278 156.32 47.1278 155.508Z" fill="black"/>
<path d="M0 110H180V174C180 180.627 174.627 186 168 186H12C5.37258 186 0 180.627 0 174V110Z" fill="url(#paint0_linear_2882_1591)"/>
<defs>
<linearGradient id="paint0_linear_2882_1591" x1="90" y1="110" x2="90" y2="186" gradientUnits="userSpaceOnUse">
<stop stop-color="white" stop-opacity="0"/>
<stop offset="0.84" stop-color="white"/>
</linearGradient>
</defs>
</svg>
